<svg width="683" height="375" viewBox="0 0 683 375" fill="none" xmlns="http://www.w3.org/2000/svg">
<rect x="253" y="69" width="430" height="205" rx="16" fill="#212026" fill-opacity="0.62"/>
<path d="M289.976 109.16C289.102 109.16 288.264 109.037 287.464 108.792C286.664 108.536 286.03 108.211 285.56 107.816L286.28 106.2C286.728 106.552 287.283 106.845 287.944 107.08C288.606 107.315 289.283 107.432 289.976 107.432C290.563 107.432 291.038 107.368 291.4 107.24C291.763 107.112 292.03 106.941 292.2 106.728C292.371 106.504 292.456 106.253 292.456 105.976C292.456 105.635 292.334 105.363 292.088 105.16C291.843 104.947 291.523 104.781 291.128 104.664C290.744 104.536 290.312 104.419 289.832 104.312C289.363 104.205 288.888 104.083 288.408 103.944C287.939 103.795 287.507 103.608 287.112 103.384C286.728 103.149 286.414 102.84 286.168 102.456C285.923 102.072 285.8 101.581 285.8 100.984C285.8 100.376 285.96 99.8213 286.28 99.32C286.611 98.808 287.107 98.4027 287.768 98.104C288.44 97.7947 289.288 97.64 290.312 97.64C290.984 97.64 291.651 97.7253 292.312 97.896C292.974 98.0667 293.55 98.312 294.04 98.632L293.384 100.248C292.883 99.9493 292.366 99.7307 291.832 99.592C291.299 99.4427 290.787 99.368 290.296 99.368C289.72 99.368 289.251 99.4373 288.888 99.576C288.536 99.7147 288.275 99.896 288.104 100.12C287.944 100.344 287.864 100.6 287.864 100.888C287.864 101.229 287.982 101.507 288.216 101.72C288.462 101.923 288.776 102.083 289.16 102.2C289.555 102.317 289.992 102.435 290.472 102.552C290.952 102.659 291.427 102.781 291.896 102.92C292.376 103.059 292.808 103.24 293.192 103.464C293.587 103.688 293.902 103.992 294.136 104.376C294.382 104.76 294.504 105.245 294.504 105.832C294.504 106.429 294.339 106.984 294.008 107.496C293.688 107.997 293.192 108.403 292.52 108.712C291.848 109.011 291 109.16 289.976 109.16ZM299.591 109.112C298.652 109.112 297.927 108.872 297.415 108.392C296.903 107.901 296.647 107.181 296.647 106.232V98.568H298.647V106.184C298.647 106.589 298.748 106.904 298.951 107.128C299.164 107.352 299.458 107.464 299.831 107.464C300.279 107.464 300.652 107.347 300.951 107.112L301.511 108.536C301.276 108.728 300.988 108.872 300.647 108.968C300.306 109.064 299.954 109.112 299.591 109.112ZM295.239 102.12V100.52H300.935V102.12H295.239ZM308.42 109V107.272L308.308 106.904V103.88C308.308 103.293 308.132 102.84 307.78 102.52C307.428 102.189 306.895 102.024 306.18 102.024C305.7 102.024 305.226 102.099 304.756 102.248C304.298 102.397 303.908 102.605 303.588 102.872L302.804 101.416C303.263 101.064 303.807 100.803 304.436 100.632C305.076 100.451 305.738 100.36 306.42 100.36C307.658 100.36 308.612 100.659 309.284 101.256C309.967 101.843 310.308 102.755 310.308 103.992V109H308.42ZM305.732 109.112C305.092 109.112 304.532 109.005 304.052 108.792C303.572 108.568 303.199 108.264 302.932 107.88C302.676 107.485 302.548 107.043 302.548 106.552C302.548 106.072 302.66 105.64 302.884 105.256C303.119 104.872 303.498 104.568 304.02 104.344C304.543 104.12 305.236 104.008 306.1 104.008H308.58V105.336H306.244C305.562 105.336 305.103 105.448 304.868 105.672C304.634 105.885 304.516 106.152 304.516 106.472C304.516 106.835 304.66 107.123 304.948 107.336C305.236 107.549 305.636 107.656 306.148 107.656C306.639 107.656 307.076 107.544 307.46 107.32C307.855 107.096 308.138 106.765 308.308 106.328L308.644 107.528C308.452 108.029 308.106 108.419 307.604 108.696C307.114 108.973 306.49 109.112 305.732 109.112ZM316.091 109.112C315.152 109.112 314.427 108.872 313.915 108.392C313.403 107.901 313.147 107.181 313.147 106.232V98.568H315.147V106.184C315.147 106.589 315.248 106.904 315.451 107.128C315.664 107.352 315.958 107.464 316.331 107.464C316.779 107.464 317.152 107.347 317.451 107.112L318.011 108.536C317.776 108.728 317.488 108.872 317.147 108.968C316.806 109.064 316.454 109.112 316.091 109.112ZM311.739 102.12V100.52H317.435V102.12H311.739ZM323.272 109.112C322.547 109.112 321.907 108.979 321.352 108.712C320.798 108.435 320.366 108.019 320.056 107.464C319.747 106.899 319.592 106.189 319.592 105.336V100.456H321.592V105.064C321.592 105.832 321.763 106.408 322.104 106.792C322.456 107.165 322.952 107.352 323.592 107.352C324.062 107.352 324.467 107.256 324.808 107.064C325.16 106.872 325.432 106.584 325.624 106.2C325.827 105.816 325.928 105.341 325.928 104.776V100.456H327.928V109H326.024V106.696L326.36 107.4C326.072 107.955 325.651 108.381 325.096 108.68C324.542 108.968 323.934 109.112 323.272 109.112ZM333.187 109.112C332.472 109.112 331.784 109.021 331.123 108.84C330.472 108.648 329.955 108.419 329.571 108.152L330.339 106.632C330.723 106.877 331.182 107.08 331.715 107.24C332.248 107.4 332.782 107.48 333.315 107.48C333.944 107.48 334.398 107.395 334.675 107.224C334.963 107.053 335.107 106.824 335.107 106.536C335.107 106.301 335.011 106.125 334.819 106.008C334.627 105.88 334.376 105.784 334.067 105.72C333.758 105.656 333.411 105.597 333.027 105.544C332.654 105.491 332.275 105.421 331.891 105.336C331.518 105.24 331.176 105.107 330.867 104.936C330.558 104.755 330.307 104.515 330.115 104.216C329.923 103.917 329.827 103.523 329.827 103.032C329.827 102.488 329.982 102.019 330.291 101.624C330.6 101.219 331.032 100.909 331.587 100.696C332.152 100.472 332.819 100.36 333.587 100.36C334.163 100.36 334.744 100.424 335.331 100.552C335.918 100.68 336.403 100.861 336.787 101.096L336.019 102.616C335.614 102.371 335.203 102.205 334.787 102.12C334.382 102.024 333.976 101.976 333.571 101.976C332.963 101.976 332.51 102.067 332.211 102.248C331.923 102.429 331.779 102.659 331.779 102.936C331.779 103.192 331.875 103.384 332.067 103.512C332.259 103.64 332.51 103.741 332.819 103.816C333.128 103.891 333.47 103.955 333.843 104.008C334.227 104.051 334.606 104.12 334.979 104.216C335.352 104.312 335.694 104.445 336.003 104.616C336.323 104.776 336.579 105.005 336.771 105.304C336.963 105.603 337.059 105.992 337.059 106.472C337.059 107.005 336.899 107.469 336.579 107.864C336.27 108.259 335.827 108.568 335.251 108.792C334.675 109.005 333.987 109.112 333.187 109.112Z" fill="#505050"/>
<path d="M479 237.897C484.477 229.145 497.621 215.509 506.384 230.987C517.337 250.335 526.921 266.919 529.659 217.168C532.398 167.416 544.72 146.686 548.827 168.798C552.935 190.91 551.566 192.292 559.781 192.292C567.996 192.292 570.734 207.494 570.734 217.168C570.734 226.841 589.902 233.751 589.902 210.257C589.902 186.764 588.533 177.09 595.379 168.798C602.224 160.506 610.439 152.214 610.439 132.866C610.439 113.518 641.416 113.398 651 110" stroke="url(#paint0_linear_4808_4732)" stroke-width="3" stroke-linecap="round"/>
<g filter="url(#filter0_d_4808_4732)">
<rect x="116" y="213" width="264" height="96" rx="16" fill="#242427"/>
<rect x="116.5" y="213.5" width="263" height="95" rx="15.5" stroke="url(#paint1_linear_4808_4732)"/>
</g>
<path d="M242 276.41L255.023 270.604C256.598 269.902 258.399 269.912 259.966 270.63L268.594 274.584C269.194 274.86 269.836 275.034 270.493 275.1L279.175 275.974C281.756 276.234 284.211 274.807 285.262 272.436L287.194 268.075C288.267 265.656 290.798 264.225 293.424 264.553L298.431 265.179C300.071 265.384 301.723 264.903 302.997 263.851L312.5 256" stroke="white" stroke-opacity="0.1" stroke-width="2" stroke-linecap="round"/>
<path d="M242 273.5L250.675 267.108C251.221 266.706 251.695 266.213 252.077 265.652L257.395 257.832C258.93 255.575 261.795 254.638 264.366 255.552L280.755 261.38C281.892 261.784 282.881 262.521 283.592 263.496L291.868 274.837C294.039 277.812 298.353 278.147 300.958 275.543L311.758 264.743C314.101 262.399 317.907 262.407 320.25 264.75V264.75C322.594 267.093 326.4 267.101 328.743 264.757L339.5 254" stroke="url(#paint2_linear_4808_4732)" stroke-width="3" stroke-linecap="round"/>
<circle cx="339" cy="255" r="9" fill="white" stroke="#070B18" stroke-width="2"/>
<circle cx="174" cy="264" r="17" fill="#FD7D02"/>
<path d="M145.488 268.832V272H132.792V269.48L139.272 263.36C139.96 262.704 140.424 262.144 140.664 261.68C140.904 261.2 141.024 260.728 141.024 260.264C141.024 259.592 140.792 259.08 140.328 258.728C139.88 258.36 139.216 258.176 138.336 258.176C137.6 258.176 136.936 258.32 136.344 258.608C135.752 258.88 135.256 259.296 134.856 259.856L132.024 258.032C132.68 257.056 133.584 256.296 134.736 255.752C135.888 255.192 137.208 254.912 138.696 254.912C139.944 254.912 141.032 255.12 141.96 255.536C142.904 255.936 143.632 256.512 144.144 257.264C144.672 258 144.936 258.872 144.936 259.88C144.936 260.792 144.744 261.648 144.36 262.448C143.976 263.248 143.232 264.16 142.128 265.184L138.264 268.832H145.488ZM152.853 261.512C155.221 261.512 156.965 261.984 158.085 262.928C159.221 263.872 159.789 265.136 159.789 266.72C159.789 267.744 159.533 268.68 159.021 269.528C158.509 270.36 157.725 271.032 156.669 271.544C155.629 272.04 154.341 272.288 152.805 272.288C151.621 272.288 150.453 272.136 149.301 271.832C148.165 271.512 147.197 271.064 146.397 270.488L147.933 267.512C148.573 267.992 149.309 268.368 150.141 268.64C150.973 268.896 151.829 269.024 152.709 269.024C153.685 269.024 154.453 268.832 155.013 268.448C155.573 268.064 155.853 267.528 155.853 266.84C155.853 266.12 155.557 265.576 154.965 265.208C154.389 264.84 153.381 264.656 151.941 264.656H147.645L148.509 255.2H158.757V258.32H151.749L151.485 261.512H152.853ZM165.02 264.272C163.788 264.272 162.78 263.856 161.996 263.024C161.228 262.176 160.844 261.048 160.844 259.64C160.844 258.232 161.228 257.112 161.996 256.28C162.78 255.432 163.788 255.008 165.02 255.008C166.252 255.008 167.252 255.432 168.02 256.28C168.788 257.112 169.172 258.232 169.172 259.64C169.172 261.048 168.788 262.176 168.02 263.024C167.252 263.856 166.252 264.272 165.02 264.272ZM175.028 255.2H177.884L166.412 272H163.556L175.028 255.2ZM165.02 262.304C165.564 262.304 165.988 262.08 166.292 261.632C166.612 261.184 166.772 260.52 166.772 259.64C166.772 258.76 166.612 258.096 166.292 257.648C165.988 257.2 165.564 256.976 165.02 256.976C164.492 256.976 164.068 257.208 163.748 257.672C163.428 258.12 163.268 258.776 163.268 259.64C163.268 260.504 163.428 261.168 163.748 261.632C164.068 262.08 164.492 262.304 165.02 262.304ZM176.42 272.192C175.62 272.192 174.9 272.008 174.26 271.64C173.636 271.256 173.148 270.712 172.796 270.008C172.444 269.304 172.268 268.488 172.268 267.56C172.268 266.632 172.444 265.816 172.796 265.112C173.148 264.408 173.636 263.872 174.26 263.504C174.9 263.12 175.62 262.928 176.42 262.928C177.652 262.928 178.652 263.352 179.42 264.2C180.204 265.032 180.596 266.152 180.596 267.56C180.596 268.968 180.204 270.096 179.42 270.944C178.652 271.776 177.652 272.192 176.42 272.192ZM176.42 270.224C176.964 270.224 177.388 270 177.692 269.552C178.012 269.088 178.172 268.424 178.172 267.56C178.172 266.696 178.012 266.04 177.692 265.592C177.388 265.128 176.964 264.896 176.42 264.896C175.892 264.896 175.468 265.12 175.148 265.568C174.828 266.016 174.668 266.68 174.668 267.56C174.668 268.44 174.828 269.104 175.148 269.552C175.468 270 175.892 270.224 176.42 270.224Z" fill="white"/>
<path d="M198.614 260.2L192.014 266.8" stroke="white" stroke-width="1.5" stroke-linecap="round" stroke-linejoin="round"/>
<path d="M193.899 260.2H198.614V264.915" stroke="white" stroke-width="1.5" stroke-linecap="round" stroke-linejoin="round"/>
<path d="M292.512 176.759C291.168 176.759 289.88 176.583 288.648 176.231C287.416 175.863 286.424 175.391 285.672 174.815L286.992 171.887C287.712 172.399 288.56 172.823 289.536 173.159C290.528 173.479 291.528 173.639 292.536 173.639C293.304 173.639 293.92 173.567 294.384 173.423C294.864 173.263 295.216 173.047 295.44 172.775C295.664 172.503 295.776 172.191 295.776 171.839C295.776 171.391 295.6 171.039 295.248 170.783C294.896 170.511 294.432 170.295 293.856 170.135C293.28 169.959 292.64 169.799 291.936 169.655C291.248 169.495 290.552 169.303 289.848 169.079C289.16 168.855 288.528 168.567 287.952 168.215C287.376 167.863 286.904 167.399 286.536 166.823C286.184 166.247 286.008 165.511 286.008 164.615C286.008 163.655 286.264 162.783 286.776 161.999C287.304 161.199 288.088 160.567 289.128 160.103C290.184 159.623 291.504 159.383 293.088 159.383C294.144 159.383 295.184 159.511 296.208 159.767C297.232 160.007 298.136 160.375 298.92 160.871L297.72 163.823C296.936 163.375 296.152 163.047 295.368 162.839C294.584 162.615 293.816 162.503 293.064 162.503C292.312 162.503 291.696 162.591 291.216 162.767C290.736 162.943 290.392 163.175 290.184 163.463C289.976 163.735 289.872 164.055 289.872 164.423C289.872 164.855 290.048 165.207 290.4 165.479C290.752 165.735 291.216 165.943 291.792 166.103C292.368 166.263 293 166.423 293.688 166.583C294.392 166.743 295.088 166.927 295.776 167.135C296.48 167.343 297.12 167.623 297.696 167.975C298.272 168.327 298.736 168.791 299.088 169.367C299.456 169.943 299.64 170.671 299.64 171.551C299.64 172.495 299.376 173.359 298.848 174.143C298.32 174.927 297.528 175.559 296.472 176.039C295.432 176.519 294.112 176.759 292.512 176.759ZM313.817 159.671H317.705V176.471H313.817V159.671ZM306.185 176.471H302.297V159.671H306.185V176.471ZM314.105 169.583H305.897V166.295H314.105V169.583ZM321.68 176.471V159.671H325.568V176.471H321.68ZM329.555 176.471V159.671H337.763C339.875 159.671 341.459 160.071 342.515 160.871C343.587 161.671 344.123 162.727 344.123 164.039C344.123 164.919 343.907 165.687 343.475 166.343C343.043 166.983 342.451 167.479 341.699 167.831C340.947 168.183 340.083 168.359 339.107 168.359L339.563 167.375C340.619 167.375 341.555 167.551 342.371 167.903C343.187 168.239 343.819 168.743 344.267 169.415C344.731 170.087 344.963 170.911 344.963 171.887C344.963 173.327 344.395 174.455 343.259 175.271C342.123 176.071 340.451 176.471 338.243 176.471H329.555ZM333.419 173.543H337.955C338.963 173.543 339.723 173.383 340.235 173.063C340.763 172.727 341.027 172.199 341.027 171.479C341.027 170.775 340.763 170.255 340.235 169.919C339.723 169.567 338.963 169.391 337.955 169.391H333.131V166.559H337.283C338.227 166.559 338.947 166.399 339.443 166.079C339.955 165.743 340.211 165.239 340.211 164.567C340.211 163.911 339.955 163.423 339.443 163.103C338.947 162.767 338.227 162.599 337.283 162.599H333.419V173.543ZM359.095 176.759C357.927 176.759 356.767 176.607 355.615 176.303C354.463 175.983 353.487 175.535 352.687 174.959L354.199 171.983C354.839 172.447 355.583 172.815 356.431 173.087C357.279 173.359 358.135 173.495 358.999 173.495C359.975 173.495 360.743 173.303 361.303 172.919C361.863 172.535 362.143 172.007 362.143 171.335C362.143 170.695 361.895 170.191 361.399 169.823C360.903 169.455 360.103 169.271 358.999 169.271H357.223V166.703L361.903 161.399L362.335 162.791H353.527V159.671H365.287V162.191L360.631 167.495L358.663 166.367H359.791C361.855 166.367 363.415 166.831 364.471 167.759C365.527 168.687 366.055 169.879 366.055 171.335C366.055 172.279 365.807 173.167 365.311 173.999C364.815 174.815 364.055 175.479 363.031 175.991C362.007 176.503 360.695 176.759 359.095 176.759ZM370.351 176.471L377.119 161.159L378.127 162.839H369.079L370.807 161.015V165.575H367.351V159.671H380.815V162.191L374.575 176.471H370.351ZM383.605 176.663C382.965 176.663 382.413 176.447 381.949 176.015C381.501 175.567 381.277 174.999 381.277 174.311C381.277 173.623 381.501 173.071 381.949 172.655C382.413 172.223 382.965 172.007 383.605 172.007C384.261 172.007 384.813 172.223 385.261 172.655C385.709 173.071 385.933 173.623 385.933 174.311C385.933 174.999 385.709 175.567 385.261 176.015C384.813 176.447 384.261 176.663 383.605 176.663ZM389.968 176.471L396.736 161.159L397.744 162.839H388.696L390.424 161.015V165.575H386.968V159.671H400.432V162.191L394.192 176.471H389.968ZM402.019 176.471V173.951L408.499 167.831C409.011 167.367 409.387 166.951 409.627 166.583C409.867 166.215 410.027 165.879 410.107 165.575C410.203 165.271 410.251 164.991 410.251 164.735C410.251 164.063 410.019 163.551 409.555 163.199C409.107 162.831 408.443 162.647 407.563 162.647C406.859 162.647 406.203 162.783 405.595 163.055C405.003 163.327 404.499 163.751 404.083 164.327L401.251 162.503C401.891 161.543 402.787 160.783 403.939 160.223C405.091 159.663 406.419 159.383 407.923 159.383C409.171 159.383 410.259 159.591 411.187 160.007C412.131 160.407 412.859 160.975 413.371 161.711C413.899 162.447 414.163 163.327 414.163 164.351C414.163 164.895 414.091 165.439 413.947 165.983C413.819 166.511 413.547 167.071 413.131 167.663C412.731 168.255 412.139 168.919 411.355 169.655L405.979 174.719L405.235 173.303H414.715V176.471H402.019ZM422.223 159.383C423.775 159.383 425.111 159.703 426.231 160.343C427.351 160.983 428.215 161.919 428.823 163.151C429.431 164.367 429.735 165.887 429.735 167.711C429.735 169.647 429.367 171.287 428.631 172.631C427.911 173.975 426.911 174.999 425.631 175.703C424.351 176.407 422.863 176.759 421.167 176.759C420.287 176.759 419.439 176.663 418.623 176.471C417.807 176.279 417.103 175.991 416.511 175.607L417.951 172.751C418.415 173.071 418.911 173.295 419.439 173.423C419.967 173.535 420.519 173.591 421.095 173.591C422.535 173.591 423.679 173.151 424.527 172.271C425.391 171.391 425.823 170.087 425.823 168.359C425.823 168.071 425.815 167.751 425.799 167.399C425.783 167.047 425.743 166.695 425.679 166.343L426.735 167.351C426.463 167.975 426.079 168.503 425.583 168.935C425.087 169.351 424.511 169.671 423.855 169.895C423.199 170.103 422.463 170.207 421.647 170.207C420.575 170.207 419.599 169.991 418.719 169.559C417.855 169.127 417.159 168.519 416.631 167.735C416.119 166.951 415.863 166.031 415.863 164.975C415.863 163.823 416.143 162.831 416.703 161.999C417.279 161.167 418.047 160.527 419.007 160.079C419.983 159.615 421.055 159.383 422.223 159.383ZM422.463 162.287C421.903 162.287 421.415 162.391 420.999 162.599C420.583 162.791 420.255 163.079 420.015 163.463C419.775 163.831 419.655 164.271 419.655 164.783C419.655 165.551 419.911 166.167 420.423 166.631C420.951 167.079 421.647 167.303 422.511 167.303C423.071 167.303 423.567 167.199 423.999 166.991C424.447 166.767 424.791 166.463 425.031 166.079C425.271 165.695 425.391 165.263 425.391 164.783C425.391 164.303 425.271 163.879 425.031 163.511C424.807 163.127 424.479 162.831 424.047 162.623C423.615 162.399 423.087 162.287 422.463 162.287Z" fill="white"/>
<path d="M456.921 163.021L447.021 172.921" stroke="white" stroke-width="1.5" stroke-linecap="round" stroke-linejoin="round"/>
<path d="M449.849 163.02H456.921V170.093" stroke="white" stroke-width="1.5" stroke-linecap="round" stroke-linejoin="round"/>
<g clip-path="url(#clip0_4808_4732)">
<g filter="url(#filter1_dd_4808_4732)">
<path d="M18.4504 20.2708C18.3506 20.9529 17.7213 21.4816 17.0336 21.4624C15.7426 21.424 14.4628 21.7116 13.3123 22.2985C12.1618 22.8854 11.1778 23.7528 10.4511 24.8205C9.72441 25.8882 9.27849 27.1218 9.15452 28.4074C9.03055 29.6929 9.23253 30.989 9.74181 32.1759C11.2776 35.7628 15.2769 37.4411 18.7977 36.5479C20.4784 36.1204 22.4603 36.2448 23.5656 37.5829L41.7466 59.6356C42.8287 60.9479 42.6102 62.8653 41.8943 64.404L41.8453 64.5146C41.0128 66.3751 40.9535 68.4901 41.6804 70.3944C42.4072 72.2987 43.8607 73.8363 45.7211 74.669C49.5954 76.4036 53.5511 74.8734 55.2857 70.999C55.6062 70.2275 55.8098 69.4124 55.8897 68.5808C55.931 68.2447 56.0987 67.937 56.3586 67.7202C56.6186 67.5033 56.9514 67.3935 57.2893 67.4131C58.58 67.5116 60.0438 67.4069 61.1437 66.9363C62.0715 66.5386 62.912 65.9621 63.617 65.2396C64.322 64.5171 64.8778 63.6628 65.2526 62.7255C65.6274 61.7882 65.8139 60.7862 65.8015 59.7768C65.789 58.7674 65.5778 57.7704 65.18 56.8426C63.6459 53.2602 59.6534 51.5782 56.1351 52.4674C54.457 52.8909 52.4818 52.7628 51.3785 51.4271L33.184 29.3582C32.1057 28.0504 32.3196 26.1369 33.0332 24.6001C33.357 23.9059 33.5742 23.1668 33.6774 22.4077C33.9123 20.7119 33.5716 18.9864 32.7098 17.5071C32.2003 16.6242 31.5194 15.8522 30.7072 15.2362C29.895 14.6203 28.9679 14.173 27.9804 13.9205C27.1304 13.7015 26.2494 13.629 25.3752 13.7062C24.2534 13.8058 23.1675 14.1519 22.195 14.7197C21.3232 15.224 20.5596 15.8956 19.9482 16.6959C19.3367 17.4962 18.8893 18.4094 18.6318 19.3831C18.5522 19.6786 18.4918 19.9738 18.4504 20.2708Z" fill="#DCD4E1"/>
</g>
<path d="M18.4504 20.2708C18.3506 20.9529 17.7213 21.4816 17.0336 21.4624C15.7426 21.424 14.4628 21.7116 13.3123 22.2985C12.1618 22.8854 11.1778 23.7528 10.4511 24.8205C9.72441 25.8882 9.27849 27.1218 9.15452 28.4074C9.03055 29.6929 9.23253 30.989 9.74181 32.1759C11.2776 35.7628 15.2769 37.4411 18.7977 36.5479C20.4784 36.1204 22.4603 36.2448 23.5656 37.5829L41.7466 59.6356C42.8287 60.9479 42.6102 62.8653 41.8943 64.404L41.8453 64.5146C41.0128 66.3751 40.9535 68.4901 41.6804 70.3944C42.4072 72.2987 43.8607 73.8363 45.7211 74.669C49.5954 76.4036 53.5511 74.8734 55.2857 70.999C55.6062 70.2275 55.8098 69.4124 55.8897 68.5808C55.931 68.2447 56.0987 67.937 56.3586 67.7202C56.6186 67.5033 56.9514 67.3935 57.2893 67.4131C58.58 67.5116 60.0438 67.4069 61.1437 66.9363C62.0715 66.5386 62.912 65.9621 63.617 65.2396C64.322 64.5171 64.8778 63.6628 65.2526 62.7255C65.6274 61.7882 65.8139 60.7862 65.8015 59.7768C65.789 58.7674 65.5778 57.7704 65.18 56.8426C63.6459 53.2602 59.6534 51.5782 56.1351 52.4674C54.457 52.8909 52.4818 52.7628 51.3785 51.4271L33.184 29.3582C32.1057 28.0504 32.3196 26.1369 33.0332 24.6001C33.357 23.9059 33.5742 23.1668 33.6774 22.4077C33.9123 20.7119 33.5716 18.9864 32.7098 17.5071C32.2003 16.6242 31.5194 15.8522 30.7072 15.2362C29.895 14.6203 28.9679 14.173 27.9804 13.9205C27.1304 13.7015 26.2494 13.629 25.3752 13.7062C24.2534 13.8058 23.1675 14.1519 22.195 14.7197C21.3232 15.224 20.5596 15.8956 19.9482 16.6959C19.3367 17.4962 18.8893 18.4094 18.6318 19.3831C18.5522 19.6786 18.4918 19.9738 18.4504 20.2708Z" fill="url(#paint3_radial_4808_4732)"/>
<path d="M18.4504 20.2708C18.3506 20.9529 17.7213 21.4816 17.0336 21.4624C15.7426 21.424 14.4628 21.7116 13.3123 22.2985C12.1618 22.8854 11.1778 23.7528 10.4511 24.8205C9.72441 25.8882 9.27849 27.1218 9.15452 28.4074C9.03055 29.6929 9.23253 30.989 9.74181 32.1759C11.2776 35.7628 15.2769 37.4411 18.7977 36.5479C20.4784 36.1204 22.4603 36.2448 23.5656 37.5829L41.7466 59.6356C42.8287 60.9479 42.6102 62.8653 41.8943 64.404L41.8453 64.5146C41.0128 66.3751 40.9535 68.4901 41.6804 70.3944C42.4072 72.2987 43.8607 73.8363 45.7211 74.669C49.5954 76.4036 53.5511 74.8734 55.2857 70.999C55.6062 70.2275 55.8098 69.4124 55.8897 68.5808C55.931 68.2447 56.0987 67.937 56.3586 67.7202C56.6186 67.5033 56.9514 67.3935 57.2893 67.4131C58.58 67.5116 60.0438 67.4069 61.1437 66.9363C62.0715 66.5386 62.912 65.9621 63.617 65.2396C64.322 64.5171 64.8778 63.6628 65.2526 62.7255C65.6274 61.7882 65.8139 60.7862 65.8015 59.7768C65.789 58.7674 65.5778 57.7704 65.18 56.8426C63.6459 53.2602 59.6534 51.5782 56.1351 52.4674C54.457 52.8909 52.4818 52.7628 51.3785 51.4271L33.184 29.3582C32.1057 28.0504 32.3196 26.1369 33.0332 24.6001C33.357 23.9059 33.5742 23.1668 33.6774 22.4077C33.9123 20.7119 33.5716 18.9864 32.7098 17.5071C32.2003 16.6242 31.5194 15.8522 30.7072 15.2362C29.895 14.6203 28.9679 14.173 27.9804 13.9205C27.1304 13.7015 26.2494 13.629 25.3752 13.7062C24.2534 13.8058 23.1675 14.1519 22.195 14.7197C21.3232 15.224 20.5596 15.8956 19.9482 16.6959C19.3367 17.4962 18.8893 18.4094 18.6318 19.3831C18.5522 19.6786 18.4918 19.9738 18.4504 20.2708Z" fill="url(#paint4_radial_4808_4732)"/>
<path d="M18.4504 20.2708C18.3506 20.9529 17.7213 21.4816 17.0336 21.4624C15.7426 21.424 14.4628 21.7116 13.3123 22.2985C12.1618 22.8854 11.1778 23.7528 10.4511 24.8205C9.72441 25.8882 9.27849 27.1218 9.15452 28.4074C9.03055 29.6929 9.23253 30.989 9.74181 32.1759C11.2776 35.7628 15.2769 37.4411 18.7977 36.5479C20.4784 36.1204 22.4603 36.2448 23.5656 37.5829L41.7466 59.6356C42.8287 60.9479 42.6102 62.8653 41.8943 64.404L41.8453 64.5146C41.0128 66.3751 40.9535 68.4901 41.6804 70.3944C42.4072 72.2987 43.8607 73.8363 45.7211 74.669C49.5954 76.4036 53.5511 74.8734 55.2857 70.999C55.6062 70.2275 55.8098 69.4124 55.8897 68.5808C55.931 68.2447 56.0987 67.937 56.3586 67.7202C56.6186 67.5033 56.9514 67.3935 57.2893 67.4131C58.58 67.5116 60.0438 67.4069 61.1437 66.9363C62.0715 66.5386 62.912 65.9621 63.617 65.2396C64.322 64.5171 64.8778 63.6628 65.2526 62.7255C65.6274 61.7882 65.8139 60.7862 65.8015 59.7768C65.789 58.7674 65.5778 57.7704 65.18 56.8426C63.6459 53.2602 59.6534 51.5782 56.1351 52.4674C54.457 52.8909 52.4818 52.7628 51.3785 51.4271L33.184 29.3582C32.1057 28.0504 32.3196 26.1369 33.0332 24.6001C33.357 23.9059 33.5742 23.1668 33.6774 22.4077C33.9123 20.7119 33.5716 18.9864 32.7098 17.5071C32.2003 16.6242 31.5194 15.8522 30.7072 15.2362C29.895 14.6203 28.9679 14.173 27.9804 13.9205C27.1304 13.7015 26.2494 13.629 25.3752 13.7062C24.2534 13.8058 23.1675 14.1519 22.195 14.7197C21.3232 15.224 20.5596 15.8956 19.9482 16.6959C19.3367 17.4962 18.8893 18.4094 18.6318 19.3831C18.5522 19.6786 18.4918 19.9738 18.4504 20.2708Z" fill="url(#paint5_radial_4808_4732)"/>
<path d="M18.4504 20.2708C18.3506 20.9529 17.7213 21.4816 17.0336 21.4624C15.7426 21.424 14.4628 21.7116 13.3123 22.2985C12.1618 22.8854 11.1778 23.7528 10.4511 24.8205C9.72441 25.8882 9.27849 27.1218 9.15452 28.4074C9.03055 29.6929 9.23253 30.989 9.74181 32.1759C11.2776 35.7628 15.2769 37.4411 18.7977 36.5479C20.4784 36.1204 22.4603 36.2448 23.5656 37.5829L41.7466 59.6356C42.8287 60.9479 42.6102 62.8653 41.8943 64.404L41.8453 64.5146C41.0128 66.3751 40.9535 68.4901 41.6804 70.3944C42.4072 72.2987 43.8607 73.8363 45.7211 74.669C49.5954 76.4036 53.5511 74.8734 55.2857 70.999C55.6062 70.2275 55.8098 69.4124 55.8897 68.5808C55.931 68.2447 56.0987 67.937 56.3586 67.7202C56.6186 67.5033 56.9514 67.3935 57.2893 67.4131C58.58 67.5116 60.0438 67.4069 61.1437 66.9363C62.0715 66.5386 62.912 65.9621 63.617 65.2396C64.322 64.5171 64.8778 63.6628 65.2526 62.7255C65.6274 61.7882 65.8139 60.7862 65.8015 59.7768C65.789 58.7674 65.5778 57.7704 65.18 56.8426C63.6459 53.2602 59.6534 51.5782 56.1351 52.4674C54.457 52.8909 52.4818 52.7628 51.3785 51.4271L33.184 29.3582C32.1057 28.0504 32.3196 26.1369 33.0332 24.6001C33.357 23.9059 33.5742 23.1668 33.6774 22.4077C33.9123 20.7119 33.5716 18.9864 32.7098 17.5071C32.2003 16.6242 31.5194 15.8522 30.7072 15.2362C29.895 14.6203 28.9679 14.173 27.9804 13.9205C27.1304 13.7015 26.2494 13.629 25.3752 13.7062C24.2534 13.8058 23.1675 14.1519 22.195 14.7197C21.3232 15.224 20.5596 15.8956 19.9482 16.6959C19.3367 17.4962 18.8893 18.4094 18.6318 19.3831C18.5522 19.6786 18.4918 19.9738 18.4504 20.2708Z" fill="url(#paint6_radial_4808_4732)"/>
<path d="M18.4504 20.2708C18.3506 20.9529 17.7213 21.4816 17.0336 21.4624C15.7426 21.424 14.4628 21.7116 13.3123 22.2985C12.1618 22.8854 11.1778 23.7528 10.4511 24.8205C9.72441 25.8882 9.27849 27.1218 9.15452 28.4074C9.03055 29.6929 9.23253 30.989 9.74181 32.1759C11.2776 35.7628 15.2769 37.4411 18.7977 36.5479C20.4784 36.1204 22.4603 36.2448 23.5656 37.5829L41.7466 59.6356C42.8287 60.9479 42.6102 62.8653 41.8943 64.404L41.8453 64.5146C41.0128 66.3751 40.9535 68.4901 41.6804 70.3944C42.4072 72.2987 43.8607 73.8363 45.7211 74.669C49.5954 76.4036 53.5511 74.8734 55.2857 70.999C55.6062 70.2275 55.8098 69.4124 55.8897 68.5808C55.931 68.2447 56.0987 67.937 56.3586 67.7202C56.6186 67.5033 56.9514 67.3935 57.2893 67.4131C58.58 67.5116 60.0438 67.4069 61.1437 66.9363C62.0715 66.5386 62.912 65.9621 63.617 65.2396C64.322 64.5171 64.8778 63.6628 65.2526 62.7255C65.6274 61.7882 65.8139 60.7862 65.8015 59.7768C65.789 58.7674 65.5778 57.7704 65.18 56.8426C63.6459 53.2602 59.6534 51.5782 56.1351 52.4674C54.457 52.8909 52.4818 52.7628 51.3785 51.4271L33.184 29.3582C32.1057 28.0504 32.3196 26.1369 33.0332 24.6001C33.357 23.9059 33.5742 23.1668 33.6774 22.4077C33.9123 20.7119 33.5716 18.9864 32.7098 17.5071C32.2003 16.6242 31.5194 15.8522 30.7072 15.2362C29.895 14.6203 28.9679 14.173 27.9804 13.9205C27.1304 13.7015 26.2494 13.629 25.3752 13.7062C24.2534 13.8058 23.1675 14.1519 22.195 14.7197C21.3232 15.224 20.5596 15.8956 19.9482 16.6959C19.3367 17.4962 18.8893 18.4094 18.6318 19.3831C18.5522 19.6786 18.4918 19.9738 18.4504 20.2708Z" fill="url(#paint7_radial_4808_4732)"/>
<path d="M18.4504 20.2708C18.3506 20.9529 17.7213 21.4816 17.0336 21.4624C15.7426 21.424 14.4628 21.7116 13.3123 22.2985C12.1618 22.8854 11.1778 23.7528 10.4511 24.8205C9.72441 25.8882 9.27849 27.1218 9.15452 28.4074C9.03055 29.6929 9.23253 30.989 9.74181 32.1759C11.2776 35.7628 15.2769 37.4411 18.7977 36.5479C20.4784 36.1204 22.4603 36.2448 23.5656 37.5829L41.7466 59.6356C42.8287 60.9479 42.6102 62.8653 41.8943 64.404L41.8453 64.5146C41.0128 66.3751 40.9535 68.4901 41.6804 70.3944C42.4072 72.2987 43.8607 73.8363 45.7211 74.669C49.5954 76.4036 53.5511 74.8734 55.2857 70.999C55.6062 70.2275 55.8098 69.4124 55.8897 68.5808C55.931 68.2447 56.0987 67.937 56.3586 67.7202C56.6186 67.5033 56.9514 67.3935 57.2893 67.4131C58.58 67.5116 60.0438 67.4069 61.1437 66.9363C62.0715 66.5386 62.912 65.9621 63.617 65.2396C64.322 64.5171 64.8778 63.6628 65.2526 62.7255C65.6274 61.7882 65.8139 60.7862 65.8015 59.7768C65.789 58.7674 65.5778 57.7704 65.18 56.8426C63.6459 53.2602 59.6534 51.5782 56.1351 52.4674C54.457 52.8909 52.4818 52.7628 51.3785 51.4271L33.184 29.3582C32.1057 28.0504 32.3196 26.1369 33.0332 24.6001C33.357 23.9059 33.5742 23.1668 33.6774 22.4077C33.9123 20.7119 33.5716 18.9864 32.7098 17.5071C32.2003 16.6242 31.5194 15.8522 30.7072 15.2362C29.895 14.6203 28.9679 14.173 27.9804 13.9205C27.1304 13.7015 26.2494 13.629 25.3752 13.7062C24.2534 13.8058 23.1675 14.1519 22.195 14.7197C21.3232 15.224 20.5596 15.8956 19.9482 16.6959C19.3367 17.4962 18.8893 18.4094 18.6318 19.3831C18.5522 19.6786 18.4918 19.9738 18.4504 20.2708Z" fill="url(#paint8_radial_4808_4732)"/>
<path d="M18.4504 20.2708C18.3506 20.9529 17.7213 21.4816 17.0336 21.4624C15.7426 21.424 14.4628 21.7116 13.3123 22.2985C12.1618 22.8854 11.1778 23.7528 10.4511 24.8205C9.72441 25.8882 9.27849 27.1218 9.15452 28.4074C9.03055 29.6929 9.23253 30.989 9.74181 32.1759C11.2776 35.7628 15.2769 37.4411 18.7977 36.5479C20.4784 36.1204 22.4603 36.2448 23.5656 37.5829L41.7466 59.6356C42.8287 60.9479 42.6102 62.8653 41.8943 64.404L41.8453 64.5146C41.0128 66.3751 40.9535 68.4901 41.6804 70.3944C42.4072 72.2987 43.8607 73.8363 45.7211 74.669C49.5954 76.4036 53.5511 74.8734 55.2857 70.999C55.6062 70.2275 55.8098 69.4124 55.8897 68.5808C55.931 68.2447 56.0987 67.937 56.3586 67.7202C56.6186 67.5033 56.9514 67.3935 57.2893 67.4131C58.58 67.5116 60.0438 67.4069 61.1437 66.9363C62.0715 66.5386 62.912 65.9621 63.617 65.2396C64.322 64.5171 64.8778 63.6628 65.2526 62.7255C65.6274 61.7882 65.8139 60.7862 65.8015 59.7768C65.789 58.7674 65.5778 57.7704 65.18 56.8426C63.6459 53.2602 59.6534 51.5782 56.1351 52.4674C54.457 52.8909 52.4818 52.7628 51.3785 51.4271L33.184 29.3582C32.1057 28.0504 32.3196 26.1369 33.0332 24.6001C33.357 23.9059 33.5742 23.1668 33.6774 22.4077C33.9123 20.7119 33.5716 18.9864 32.7098 17.5071C32.2003 16.6242 31.5194 15.8522 30.7072 15.2362C29.895 14.6203 28.9679 14.173 27.9804 13.9205C27.1304 13.7015 26.2494 13.629 25.3752 13.7062C24.2534 13.8058 23.1675 14.1519 22.195 14.7197C21.3232 15.224 20.5596 15.8956 19.9482 16.6959C19.3367 17.4962 18.8893 18.4094 18.6318 19.3831C18.5522 19.6786 18.4918 19.9738 18.4504 20.2708Z" fill="url(#paint9_radial_4808_4732)"/>
<path d="M18.4504 20.2708C18.3506 20.9529 17.7213 21.4816 17.0336 21.4624C15.7426 21.424 14.4628 21.7116 13.3123 22.2985C12.1618 22.8854 11.1778 23.7528 10.4511 24.8205C9.72441 25.8882 9.27849 27.1218 9.15452 28.4074C9.03055 29.6929 9.23253 30.989 9.74181 32.1759C11.2776 35.7628 15.2769 37.4411 18.7977 36.5479C20.4784 36.1204 22.4603 36.2448 23.5656 37.5829L41.7466 59.6356C42.8287 60.9479 42.6102 62.8653 41.8943 64.404L41.8453 64.5146C41.0128 66.3751 40.9535 68.4901 41.6804 70.3944C42.4072 72.2987 43.8607 73.8363 45.7211 74.669C49.5954 76.4036 53.5511 74.8734 55.2857 70.999C55.6062 70.2275 55.8098 69.4124 55.8897 68.5808C55.931 68.2447 56.0987 67.937 56.3586 67.7202C56.6186 67.5033 56.9514 67.3935 57.2893 67.4131C58.58 67.5116 60.0438 67.4069 61.1437 66.9363C62.0715 66.5386 62.912 65.9621 63.617 65.2396C64.322 64.5171 64.8778 63.6628 65.2526 62.7255C65.6274 61.7882 65.8139 60.7862 65.8015 59.7768C65.789 58.7674 65.5778 57.7704 65.18 56.8426C63.6459 53.2602 59.6534 51.5782 56.1351 52.4674C54.457 52.8909 52.4818 52.7628 51.3785 51.4271L33.184 29.3582C32.1057 28.0504 32.3196 26.1369 33.0332 24.6001C33.357 23.9059 33.5742 23.1668 33.6774 22.4077C33.9123 20.7119 33.5716 18.9864 32.7098 17.5071C32.2003 16.6242 31.5194 15.8522 30.7072 15.2362C29.895 14.6203 28.9679 14.173 27.9804 13.9205C27.1304 13.7015 26.2494 13.629 25.3752 13.7062C24.2534 13.8058 23.1675 14.1519 22.195 14.7197C21.3232 15.224 20.5596 15.8956 19.9482 16.6959C19.3367 17.4962 18.8893 18.4094 18.6318 19.3831C18.5522 19.6786 18.4918 19.9738 18.4504 20.2708Z" fill="url(#paint10_radial_4808_4732)"/>
<path d="M18.4504 20.2708C18.3506 20.9529 17.7213 21.4816 17.0336 21.4624C15.7426 21.424 14.4628 21.7116 13.3123 22.2985C12.1618 22.8854 11.1778 23.7528 10.4511 24.8205C9.72441 25.8882 9.27849 27.1218 9.15452 28.4074C9.03055 29.6929 9.23253 30.989 9.74181 32.1759C11.2776 35.7628 15.2769 37.4411 18.7977 36.5479C20.4784 36.1204 22.4603 36.2448 23.5656 37.5829L41.7466 59.6356C42.8287 60.9479 42.6102 62.8653 41.8943 64.404L41.8453 64.5146C41.0128 66.3751 40.9535 68.4901 41.6804 70.3944C42.4072 72.2987 43.8607 73.8363 45.7211 74.669C49.5954 76.4036 53.5511 74.8734 55.2857 70.999C55.6062 70.2275 55.8098 69.4124 55.8897 68.5808C55.931 68.2447 56.0987 67.937 56.3586 67.7202C56.6186 67.5033 56.9514 67.3935 57.2893 67.4131C58.58 67.5116 60.0438 67.4069 61.1437 66.9363C62.0715 66.5386 62.912 65.9621 63.617 65.2396C64.322 64.5171 64.8778 63.6628 65.2526 62.7255C65.6274 61.7882 65.8139 60.7862 65.8015 59.7768C65.789 58.7674 65.5778 57.7704 65.18 56.8426C63.6459 53.2602 59.6534 51.5782 56.1351 52.4674C54.457 52.8909 52.4818 52.7628 51.3785 51.4271L33.184 29.3582C32.1057 28.0504 32.3196 26.1369 33.0332 24.6001C33.357 23.9059 33.5742 23.1668 33.6774 22.4077C33.9123 20.7119 33.5716 18.9864 32.7098 17.5071C32.2003 16.6242 31.5194 15.8522 30.7072 15.2362C29.895 14.6203 28.9679 14.173 27.9804 13.9205C27.1304 13.7015 26.2494 13.629 25.3752 13.7062C24.2534 13.8058 23.1675 14.1519 22.195 14.7197C21.3232 15.224 20.5596 15.8956 19.9482 16.6959C19.3367 17.4962 18.8893 18.4094 18.6318 19.3831C18.5522 19.6786 18.4918 19.9738 18.4504 20.2708Z" fill="url(#paint11_radial_4808_4732)"/>
<path d="M18.4504 20.2708C18.3506 20.9529 17.7213 21.4816 17.0336 21.4624C15.7426 21.424 14.4628 21.7116 13.3123 22.2985C12.1618 22.8854 11.1778 23.7528 10.4511 24.8205C9.72441 25.8882 9.27849 27.1218 9.15452 28.4074C9.03055 29.6929 9.23253 30.989 9.74181 32.1759C11.2776 35.7628 15.2769 37.4411 18.7977 36.5479C20.4784 36.1204 22.4603 36.2448 23.5656 37.5829L41.7466 59.6356C42.8287 60.9479 42.6102 62.8653 41.8943 64.404L41.8453 64.5146C41.0128 66.3751 40.9535 68.4901 41.6804 70.3944C42.4072 72.2987 43.8607 73.8363 45.7211 74.669C49.5954 76.4036 53.5511 74.8734 55.2857 70.999C55.6062 70.2275 55.8098 69.4124 55.8897 68.5808C55.931 68.2447 56.0987 67.937 56.3586 67.7202C56.6186 67.5033 56.9514 67.3935 57.2893 67.4131C58.58 67.5116 60.0438 67.4069 61.1437 66.9363C62.0715 66.5386 62.912 65.9621 63.617 65.2396C64.322 64.5171 64.8778 63.6628 65.2526 62.7255C65.6274 61.7882 65.8139 60.7862 65.8015 59.7768C65.789 58.7674 65.5778 57.7704 65.18 56.8426C63.6459 53.2602 59.6534 51.5782 56.1351 52.4674C54.457 52.8909 52.4818 52.7628 51.3785 51.4271L33.184 29.3582C32.1057 28.0504 32.3196 26.1369 33.0332 24.6001C33.357 23.9059 33.5742 23.1668 33.6774 22.4077C33.9123 20.7119 33.5716 18.9864 32.7098 17.5071C32.2003 16.6242 31.5194 15.8522 30.7072 15.2362C29.895 14.6203 28.9679 14.173 27.9804 13.9205C27.1304 13.7015 26.2494 13.629 25.3752 13.7062C24.2534 13.8058 23.1675 14.1519 22.195 14.7197C21.3232 15.224 20.5596 15.8956 19.9482 16.6959C19.3367 17.4962 18.8893 18.4094 18.6318 19.3831C18.5522 19.6786 18.4918 19.9738 18.4504 20.2708Z" fill="url(#paint12_radial_4808_4732)"/>
<g filter="url(#filter2_f_4808_4732)">
<path d="M56.7735 61.7681C54.0851 63.085 54.2757 66.2309 54.7079 67.6408L57.0698 66.301C56.0915 64.8193 56.4654 62.6629 56.7735 61.7681Z" fill="#A49CAA"/>
</g>
<g filter="url(#filter3_f_4808_4732)">
<path d="M17.0542 29.0815C17.4144 26.2235 15.7839 23.1997 15.2177 22.4727L17.728 22.0759C19.3089 25.9702 17.9209 28.5266 17.0542 29.0815Z" fill="url(#paint13_linear_4808_4732)"/>
</g>
</g>
<defs>
<filter id="filter0_d_4808_4732" x="72.0005" y="191" width="352" height="184" filterUnits="userSpaceOnUse" color-interpolation-filters="sRGB">
<feFlood flood-opacity="0" result="BackgroundImageFix"/>
<feColorMatrix in="SourceAlpha" type="matrix" values="0 0 0 0 0 0 0 0 0 0 0 0 0 0 0 0 0 0 127 0" result="hardAlpha"/>
<feOffset dy="22"/>
<feGaussianBlur stdDeviation="22"/>
<feComposite in2="hardAlpha" operator="out"/>
<feColorMatrix type="matrix" values="0 0 0 0 0.054902 0 0 0 0 0.0862745 0 0 0 0 0.196078 0 0 0 0.24 0"/>
<feBlend mode="normal" in2="BackgroundImageFix" result="effect1_dropShadow_4808_4732"/>
<feBlend mode="normal" in="SourceGraphic" in2="effect1_dropShadow_4808_4732" result="shape"/>
</filter>
<filter id="filter1_dd_4808_4732" x="7.36914" y="11.1763" width="61.6831" height="66.7021" filterUnits="userSpaceOnUse" color-interpolation-filters="sRGB">
<feFlood flood-opacity="0" result="BackgroundImageFix"/>
<feColorMatrix in="SourceAlpha" type="matrix" values="0 0 0 0 0 0 0 0 0 0 0 0 0 0 0 0 0 0 127 0" result="hardAlpha"/>
<feOffset dx="0.75"/>
<feGaussianBlur stdDeviation="1.25"/>
<feComposite in2="hardAlpha" operator="out"/>
<feColorMatrix type="matrix" values="0 0 0 0 0.580392 0 0 0 0 0.568627 0 0 0 0 0.584314 0 0 0 1 0"/>
<feBlend mode="normal" in2="BackgroundImageFix" result="effect1_dropShadow_4808_4732"/>
<feColorMatrix in="SourceAlpha" type="matrix" values="0 0 0 0 0 0 0 0 0 0 0 0 0 0 0 0 0 0 127 0" result="hardAlpha"/>
<feOffset dy="-0.75"/>
<feGaussianBlur stdDeviation="0.75"/>
<feComposite in2="hardAlpha" operator="out"/>
<feColorMatrix type="matrix" values="0 0 0 0 0.756863 0 0 0 0 0.662745 0 0 0 0 0.815686 0 0 0 1 0"/>
<feBlend mode="normal" in2="effect1_dropShadow_4808_4732" result="effect2_dropShadow_4808_4732"/>
<feBlend mode="normal" in="SourceGraphic" in2="effect2_dropShadow_4808_4732" result="shape"/>
</filter>
<filter id="filter2_f_4808_4732" x="53.4536" y="60.7681" width="4.61621" height="7.87256" filterUnits="userSpaceOnUse" color-interpolation-filters="sRGB">
<feFlood flood-opacity="0" result="BackgroundImageFix"/>
<feBlend mode="normal" in="SourceGraphic" in2="BackgroundImageFix" result="shape"/>
<feGaussianBlur stdDeviation="0.5" result="effect1_foregroundBlur_4808_4732"/>
</filter>
<filter id="filter3_f_4808_4732" x="14.2178" y="21.0757" width="5.23096" height="9.00586" filterUnits="userSpaceOnUse" color-interpolation-filters="sRGB">
<feFlood flood-opacity="0" result="BackgroundImageFix"/>
<feBlend mode="normal" in="SourceGraphic" in2="BackgroundImageFix" result="shape"/>
<feGaussianBlur stdDeviation="0.5" result="effect1_foregroundBlur_4808_4732"/>
</filter>
<linearGradient id="paint0_linear_4808_4732" x1="688.481" y1="190.889" x2="478.823" y2="235.157" gradientUnits="userSpaceOnUse">
<stop stop-color="#FE7D00"/>
<stop offset="1" stop-color="#5E3309"/>
</linearGradient>
<linearGradient id="paint1_linear_4808_4732" x1="739.501" y1="-111" x2="396.39" y2="407.243" gradientUnits="userSpaceOnUse">
<stop stop-color="white"/>
<stop offset="1" stop-color="white" stop-opacity="0"/>
</linearGradient>
<linearGradient id="paint2_linear_4808_4732" x1="360.747" y1="269.311" x2="272.06" y2="325.389" gradientUnits="userSpaceOnUse">
<stop stop-color="#FE7D00"/>
<stop offset="1" stop-color="#5E3309"/>
</linearGradient>
<radialGradient id="paint3_radial_4808_4732" cx="0" cy="0" r="1" gradientUnits="userSpaceOnUse" gradientTransform="translate(21.9828 19.2122) rotate(83.6506) scale(9.15836 9.1836)">
<stop stop-color="#FBFAFC"/>
<stop offset="1" stop-color="#E5E5E5" stop-opacity="0"/>
</radialGradient>
<radialGradient id="paint4_radial_4808_4732" cx="0" cy="0" r="1" gradientUnits="userSpaceOnUse" gradientTransform="translate(11.6849 26.203) rotate(26.0495) scale(6.46421 6.16167)">
<stop stop-color="#FBFAFC"/>
<stop offset="1" stop-color="#E5E5E5" stop-opacity="0"/>
</radialGradient>
<radialGradient id="paint5_radial_4808_4732" cx="0" cy="0" r="1" gradientUnits="userSpaceOnUse" gradientTransform="translate(16.2906 15.1808) rotate(72.6385) scale(16.5576 3.58433)">
<stop stop-color="#FBFAFC"/>
<stop offset="1" stop-color="#E5E5E5" stop-opacity="0"/>
</radialGradient>
<radialGradient id="paint6_radial_4808_4732" cx="0" cy="0" r="1" gradientUnits="userSpaceOnUse" gradientTransform="translate(15.3723 42.3988) rotate(-72.1295) scale(15.4902 9.47134)">
<stop stop-color="#BDA5CC"/>
<stop offset="1" stop-color="#BDA5CC" stop-opacity="0"/>
</radialGradient>
<radialGradient id="paint7_radial_4808_4732" cx="0" cy="0" r="1" gradientUnits="userSpaceOnUse" gradientTransform="translate(67.0213 57.5192) rotate(-179.999) scale(6.9381 6.59743)">
<stop stop-color="#9B9A9B"/>
<stop offset="1" stop-color="#9B9A9B" stop-opacity="0"/>
</radialGradient>
<radialGradient id="paint8_radial_4808_4732" cx="0" cy="0" r="1" gradientUnits="userSpaceOnUse" gradientTransform="translate(56.0115 56.8596) rotate(-71.9775) scale(6.12236 4.48011)">
<stop stop-color="#E8E3EB"/>
<stop offset="1" stop-color="#E8E3EB" stop-opacity="0"/>
</radialGradient>
<radialGradient id="paint9_radial_4808_4732" cx="0" cy="0" r="1" gradientUnits="userSpaceOnUse" gradientTransform="translate(60.4134 69.3574) rotate(-94.2341) scale(9.43249 6.97977)">
<stop stop-color="#C6AED5"/>
<stop offset="1" stop-color="#C6AED5" stop-opacity="0"/>
</radialGradient>
<radialGradient id="paint10_radial_4808_4732" cx="0" cy="0" r="1" gradientUnits="userSpaceOnUse" gradientTransform="translate(40.562 64.2938) rotate(-2.64549) scale(11.1271 6.17984)">
<stop offset="0.289" stop-color="#F5EEF9"/>
<stop offset="1" stop-color="#F5EEF9" stop-opacity="0"/>
</radialGradient>
<radialGradient id="paint11_radial_4808_4732" cx="0" cy="0" r="1" gradientUnits="userSpaceOnUse" gradientTransform="translate(49.6366 24.6244) rotate(94.7535) scale(51.4027 51.9048)">
<stop offset="0.857" stop-color="#D5BBE5" stop-opacity="0"/>
<stop offset="1" stop-color="#D5BBE5"/>
</radialGradient>
<radialGradient id="paint12_radial_4808_4732" cx="0" cy="0" r="1" gradientUnits="userSpaceOnUse" gradientTransform="translate(57.5609 75.4213) rotate(-105.279) scale(12.358 5.87145)">
<stop stop-color="#A199A7"/>
<stop offset="1" stop-color="#A199A7" stop-opacity="0"/>
</radialGradient>
<linearGradient id="paint13_linear_4808_4732" x1="16.5761" y1="22.4433" x2="17.297" y2="32.9048" gradientUnits="userSpaceOnUse">
<stop stop-color="#B6B0BB"/>
<stop offset="1" stop-color="#C6BFCB" stop-opacity="0"/>
</linearGradient>
<clipPath id="clip0_4808_4732">
<rect width="68" height="68" fill="white" transform="matrix(-0.995407 -0.095733 -0.095733 0.995407 74.1978 14.5098)"/>
</clipPath>
</defs>
</svg>
