<svg width="1440" height="1273" viewBox="0 0 1440 1273" fill="none" xmlns="http://www.w3.org/2000/svg">
<path d="M581.969 403.694C575.659 404.228 569.665 406.682 564.791 410.725L584.584 434.584L581.969 403.694Z" fill="#4133B8"/>
<g filter="url(#filter0_f_4801_5137)">
<ellipse cx="681" cy="507" rx="931" ry="170" fill="black"/>
</g>
<g filter="url(#filter1_f_4801_5137)">
<ellipse cx="705.5" cy="865.5" rx="262.5" ry="230.5" fill="black"/>
</g>
<g filter="url(#filter2_f_4801_5137)">
<ellipse cx="231" cy="-124.5" rx="291" ry="262.5" fill="white" fill-opacity="0.26"/>
</g>
<path d="M-1357.7 607.217L-1358.42 608.956L-1358.42 608.956L-1357.7 607.217ZM-1383.74 587.555L-1385.26 588.668L-1385.25 588.678L-1385.24 588.688L-1383.74 587.555ZM-1393.84 556.202V554.323H-1395.78L-1395.72 556.256L-1393.84 556.202ZM-1345.48 556.202L-1343.61 556.01L-1343.79 554.323H-1345.48V556.202ZM-1338.31 572.144L-1339.58 573.532L-1339.56 573.548L-1339.54 573.563L-1338.31 572.144ZM-1306.42 572.941L-1305.27 574.429L-1305.25 574.413L-1305.23 574.396L-1306.42 572.941ZM-1305.36 548.497L-1306.69 549.826L-1306.67 549.845L-1306.65 549.863L-1305.36 548.497ZM-1316.79 541.057L-1317.54 542.777L-1317.53 542.782L-1317.52 542.788L-1316.79 541.057ZM-1335.92 534.414L-1336.47 536.21L-1336.46 536.213L-1336.45 536.215L-1335.92 534.414ZM-1385.07 506.781L-1383.57 505.647L-1383.57 505.647L-1385.07 506.781ZM-1374.44 437.698L-1373.29 439.184L-1373.29 439.178L-1373.28 439.173L-1374.44 437.698ZM-1275.6 437.698L-1276.77 439.173L-1276.76 439.178L-1276.75 439.184L-1275.6 437.698ZM-1255.41 478.616V480.496H-1253.43L-1253.53 478.521L-1255.41 478.616ZM-1304.56 478.616L-1306.44 478.727L-1306.34 480.496H-1304.56V478.616ZM-1311.21 464.534L-1312.44 465.952L-1312.42 465.968L-1312.4 465.983L-1311.21 464.534ZM-1340.17 463.737L-1338.96 465.174L-1338.94 465.156L-1338.91 465.137L-1340.17 463.737ZM-1336.71 490.307L-1335.75 488.691L-1335.75 488.691L-1336.71 490.307ZM-1310.14 501.201L-1309.54 499.421L-1309.55 499.417L-1309.56 499.413L-1310.14 501.201ZM-1280.92 512.892L-1281.76 514.573L-1281.75 514.577L-1281.74 514.581L-1280.92 512.892ZM-1261.25 529.1L-1262.74 530.251L-1262.74 530.251L-1261.25 529.1ZM-1261.25 585.43L-1262.84 584.425L-1262.85 584.436L-1262.86 584.448L-1261.25 585.43ZM-1284.64 606.154L-1285.48 604.474L-1285.48 604.474L-1284.64 606.154ZM-1321.04 611.981C-1334.47 611.981 -1346.45 609.8 -1356.99 605.478L-1358.42 608.956C-1347.35 613.492 -1334.88 615.739 -1321.04 615.739V611.981ZM-1356.99 605.478C-1367.51 601.168 -1375.91 594.813 -1382.24 586.423L-1385.24 588.688C-1378.47 597.656 -1369.51 604.41 -1358.42 608.956L-1356.99 605.478ZM-1382.23 586.442C-1388.35 578.111 -1391.62 568.042 -1391.96 556.148L-1395.72 556.256C-1395.36 568.807 -1391.89 579.64 -1385.26 588.668L-1382.23 586.442ZM-1393.84 558.081H-1345.48V554.323H-1393.84V558.081ZM-1347.35 556.394C-1346.61 563.638 -1344.07 569.427 -1339.58 573.532L-1337.04 570.756C-1340.69 567.422 -1342.94 562.583 -1343.61 556.01L-1347.35 556.394ZM-1339.54 573.563C-1335.06 577.463 -1329.27 579.338 -1322.37 579.338V575.579C-1328.57 575.579 -1333.41 573.911 -1337.07 570.726L-1339.54 573.563ZM-1322.37 579.338C-1315.37 579.338 -1309.6 577.773 -1305.27 574.429L-1307.57 571.454C-1311.04 574.132 -1315.9 575.579 -1322.37 575.579V579.338ZM-1305.23 574.396C-1300.86 570.815 -1298.7 565.919 -1298.7 559.922H-1302.46C-1302.46 564.908 -1304.2 568.691 -1307.61 571.487L-1305.23 574.396ZM-1298.7 559.922C-1298.7 554.828 -1300.49 550.516 -1304.07 547.13L-1306.65 549.863C-1303.86 552.5 -1302.46 555.804 -1302.46 559.922H-1298.7ZM-1304.03 547.168C-1307.24 543.958 -1311.26 541.353 -1316.05 539.326L-1317.52 542.788C-1313.1 544.658 -1309.5 547.012 -1306.69 549.826L-1304.03 547.168ZM-1316.03 539.337C-1320.56 537.341 -1327.03 535.101 -1335.38 532.613L-1336.45 536.215C-1328.15 538.688 -1321.86 540.876 -1317.54 542.777L-1316.03 539.337ZM-1335.36 532.619C-1347.35 528.915 -1357.09 525.228 -1364.59 521.566L-1366.23 524.943C-1358.5 528.721 -1348.57 532.474 -1336.47 536.21L-1335.36 532.619ZM-1364.59 521.566C-1371.92 517.985 -1378.25 512.692 -1383.57 505.647L-1386.57 507.914C-1380.92 515.395 -1374.14 521.085 -1366.23 524.943L-1364.59 521.566ZM-1383.57 505.647C-1388.76 498.794 -1391.43 489.749 -1391.43 478.351H-1395.19C-1395.19 490.334 -1392.37 500.243 -1386.57 507.914L-1383.57 505.647ZM-1391.43 478.351C-1391.43 461.512 -1385.36 448.534 -1373.29 439.184L-1375.59 436.212C-1388.68 446.346 -1395.19 460.471 -1395.19 478.351H-1391.43ZM-1373.28 439.173C-1361.11 429.577 -1345.17 424.698 -1325.29 424.698V420.939C-1345.79 420.939 -1362.62 425.979 -1375.61 436.222L-1373.28 439.173ZM-1325.29 424.698C-1305.04 424.698 -1288.93 429.581 -1276.77 439.173L-1274.44 436.222C-1287.43 425.975 -1304.44 420.939 -1325.29 420.939V424.698ZM-1276.75 439.184C-1264.66 448.553 -1258.15 461.658 -1257.29 478.711L-1253.53 478.521C-1254.44 460.502 -1261.39 446.327 -1274.45 436.212L-1276.75 439.184ZM-1255.41 476.737H-1304.56V480.496H-1255.41V476.737ZM-1302.69 478.506C-1303.07 472.043 -1305.47 466.832 -1310.01 463.085L-1312.4 465.983C-1308.79 468.967 -1306.77 473.144 -1306.44 478.727L-1302.69 478.506ZM-1309.97 463.116C-1314.45 459.223 -1320.14 457.34 -1326.88 457.34V461.099C-1320.87 461.099 -1316.11 462.759 -1312.44 465.952L-1309.97 463.116ZM-1326.88 457.34C-1332.73 457.34 -1337.64 458.953 -1341.42 462.336L-1338.91 465.137C-1335.96 462.498 -1332.02 461.099 -1326.88 461.099V457.34ZM-1341.38 462.299C-1345.27 465.577 -1347.1 470.329 -1347.1 476.225H-1343.34C-1343.34 471.139 -1341.8 467.565 -1338.96 465.174L-1341.38 462.299ZM-1347.1 476.225C-1347.1 482.983 -1343.85 488.258 -1337.67 491.923L-1335.75 488.691C-1340.92 485.626 -1343.34 481.512 -1343.34 476.225H-1347.1ZM-1337.67 491.923C-1331.82 495.398 -1322.8 499.081 -1310.72 502.989L-1309.56 499.413C-1321.58 495.527 -1330.27 491.947 -1335.75 488.691L-1337.67 491.923ZM-1310.75 502.981C-1298.74 507.041 -1289.09 510.906 -1281.76 514.573L-1280.08 511.211C-1287.62 507.438 -1297.45 503.51 -1309.54 499.421L-1310.75 502.981ZM-1281.74 514.581C-1274.4 518.167 -1268.06 523.38 -1262.74 530.251L-1259.77 527.949C-1265.43 520.649 -1272.2 515.057 -1280.09 511.203L-1281.74 514.581ZM-1262.74 530.251C-1257.56 536.934 -1254.9 545.621 -1254.9 556.468H-1251.14C-1251.14 544.995 -1253.96 535.438 -1259.77 527.949L-1262.74 530.251ZM-1254.9 556.468C-1254.9 566.753 -1257.55 576.057 -1262.84 584.425L-1259.67 586.434C-1253.98 577.443 -1251.14 567.439 -1251.14 556.468H-1254.9ZM-1262.86 584.448C-1267.96 592.791 -1275.48 599.473 -1285.48 604.474L-1283.8 607.835C-1273.25 602.562 -1265.17 595.428 -1259.65 586.411L-1262.86 584.448ZM-1285.48 604.474C-1295.44 609.455 -1307.27 611.981 -1321.04 611.981V615.739C-1306.81 615.739 -1294.38 613.128 -1283.8 607.835L-1285.48 604.474ZM-1093 479.148L-1094.39 480.41L-1094.39 480.415L-1094.38 480.421L-1093 479.148ZM-1077.59 612V613.879H-1075.71V612H-1077.59ZM-1122.76 612H-1124.64V613.879H-1122.76V612ZM-1130.46 508.375L-1131.84 509.659L-1131.84 509.659L-1130.46 508.375ZM-1171.91 508.375L-1170.54 509.659L-1170.54 509.659L-1171.91 508.375ZM-1179.62 612V613.879H-1177.74V612H-1179.62ZM-1225.06 612H-1226.94V613.879H-1225.06V612ZM-1225.06 415.379V413.499H-1226.94V415.379H-1225.06ZM-1179.62 415.379H-1177.74V413.499H-1179.62V415.379ZM-1179.62 483.665H-1181.5V489.608L-1178.08 484.745L-1179.62 483.665ZM-1160.76 467.988L-1161.58 466.3L-1161.58 466.3L-1160.76 467.988ZM-1133.92 464.022C-1117.38 464.022 -1104.27 469.512 -1094.39 480.41L-1091.61 477.886C-1102.28 466.11 -1116.45 460.263 -1133.92 460.263V464.022ZM-1094.38 480.421C-1084.51 491.14 -1079.47 506.046 -1079.47 525.38H-1075.71C-1075.71 505.391 -1080.94 489.474 -1091.62 477.875L-1094.38 480.421ZM-1079.47 525.38V612H-1075.71V525.38H-1079.47ZM-1077.59 610.121H-1122.76V613.879H-1077.59V610.121ZM-1120.88 612V531.491H-1124.64V612H-1120.88ZM-1120.88 531.491C-1120.88 521.251 -1123.54 513.03 -1129.09 507.091L-1131.84 509.659C-1127.12 514.703 -1124.64 521.892 -1124.64 531.491H-1120.88ZM-1129.09 507.091C-1134.64 501.16 -1142.08 498.259 -1151.19 498.259V502.018C-1142.94 502.018 -1136.56 504.607 -1131.84 509.659L-1129.09 507.091ZM-1151.19 498.259C-1160.3 498.259 -1167.74 501.16 -1173.29 507.091L-1170.54 509.659C-1165.82 504.607 -1159.44 502.018 -1151.19 502.018V498.259ZM-1173.29 507.091C-1178.84 513.03 -1181.5 521.251 -1181.5 531.491H-1177.74C-1177.74 521.892 -1175.26 514.703 -1170.54 509.659L-1173.29 507.091ZM-1181.5 531.491V612H-1177.74V531.491H-1181.5ZM-1179.62 610.121H-1225.06V613.879H-1179.62V610.121ZM-1223.18 612V415.379H-1226.94V612H-1223.18ZM-1225.06 417.258H-1179.62V413.499H-1225.06V417.258ZM-1181.5 415.379V483.665H-1177.74V415.379H-1181.5ZM-1178.08 484.745C-1173.68 478.478 -1167.65 473.45 -1159.93 469.676L-1161.58 466.3C-1169.81 470.321 -1176.35 475.743 -1181.16 482.584L-1178.08 484.745ZM-1159.93 469.676C-1152.24 465.919 -1143.59 464.022 -1133.92 464.022V460.263C-1144.09 460.263 -1153.32 462.263 -1161.58 466.3L-1159.93 469.676ZM-1017.85 604.826L-1018.74 606.481L-1018.73 606.486L-1017.85 604.826ZM-1045.22 578.256L-1046.85 579.185L-1046.85 579.195L-1046.84 579.204L-1045.22 578.256ZM-1044.95 497.747L-1043.33 498.696L-1043.32 498.685L-1044.95 497.747ZM-1017.32 470.911L-1016.44 472.571L-1016.44 472.571L-1017.32 470.911ZM-938.672 470.911L-939.552 472.571L-939.552 472.571L-938.672 470.911ZM-911.038 497.747L-912.667 498.685L-912.661 498.696L-911.038 497.747ZM-911.304 578.256L-912.922 577.299L-912.927 577.307L-911.304 578.256ZM-939.203 604.826L-940.073 603.16L-940.084 603.166L-939.203 604.826ZM-956.474 565.236L-957.822 563.926L-957.831 563.936L-957.84 563.946L-956.474 565.236ZM-956.208 510.501L-957.594 511.771L-957.584 511.781L-957.575 511.791L-956.208 510.501ZM-1000.05 510.501L-998.682 511.79L-998.673 511.781L-998.664 511.771L-1000.05 510.501ZM-1000.32 565.236L-1001.72 566.485L-1001.71 566.495L-1001.7 566.506L-1000.32 565.236ZM-978.527 612.246C-992.776 612.246 -1005.58 609.208 -1016.97 603.166L-1018.73 606.486C-1006.74 612.844 -993.329 616.005 -978.527 616.005V612.246ZM-1016.96 603.171C-1028.16 597.139 -1037.04 588.529 -1043.6 577.307L-1046.84 579.204C-1039.94 591.01 -1030.57 600.114 -1018.74 606.481L-1016.96 603.171ZM-1043.59 577.326C-1049.95 566.139 -1053.17 553.007 -1053.17 537.868H-1056.93C-1056.93 553.552 -1053.59 567.345 -1046.85 579.185L-1043.59 577.326ZM-1053.17 537.868C-1053.17 522.92 -1049.87 509.883 -1043.33 498.696L-1046.58 496.798C-1053.5 508.639 -1056.93 522.35 -1056.93 537.868H-1053.17ZM-1043.32 498.685C-1036.77 487.294 -1027.81 478.602 -1016.44 472.571L-1018.2 469.25C-1030.21 475.619 -1039.68 484.818 -1046.58 496.809L-1043.32 498.685ZM-1016.44 472.571C-1005.05 466.529 -992.245 463.491 -977.996 463.491V459.732C-992.798 459.732 -1006.21 462.893 -1018.2 469.25L-1016.44 472.571ZM-977.996 463.491C-963.747 463.491 -950.946 466.529 -939.552 472.571L-937.791 469.25C-949.779 462.893 -963.194 459.732 -977.996 459.732V463.491ZM-939.552 472.571C-928.18 478.602 -919.226 487.294 -912.667 498.685L-909.41 496.809C-916.314 484.818 -925.782 475.619 -937.791 469.25L-939.552 472.571ZM-912.661 498.696C-906.121 509.883 -902.821 522.92 -902.821 537.868H-899.062C-899.062 522.35 -902.494 508.639 -909.416 496.798L-912.661 498.696ZM-902.821 537.868C-902.821 552.808 -906.205 565.932 -912.922 577.299L-909.686 579.212C-902.587 567.197 -899.062 553.397 -899.062 537.868H-902.821ZM-912.927 577.307C-919.479 588.515 -928.517 597.123 -940.073 603.16L-938.333 606.492C-926.153 600.129 -916.592 591.024 -909.682 579.204L-912.927 577.307ZM-940.084 603.166C-951.478 609.208 -964.279 612.246 -978.527 612.246V616.005C-963.726 616.005 -950.311 612.844 -938.323 606.486L-940.084 603.166ZM-978.527 576.681C-969.325 576.681 -961.481 573.275 -955.108 566.526L-957.84 563.946C-963.512 569.951 -970.371 572.922 -978.527 572.922V576.681ZM-955.126 566.546C-948.484 559.714 -945.295 550.058 -945.295 537.868H-949.054C-949.054 549.416 -952.064 558.004 -957.822 563.926L-955.126 566.546ZM-945.295 537.868C-945.295 525.693 -948.388 516.044 -954.842 509.21L-957.575 511.791C-951.983 517.711 -949.054 526.308 -949.054 537.868H-945.295ZM-954.823 509.231C-961.026 502.464 -968.792 499.056 -977.996 499.056V502.815C-969.841 502.815 -963.082 505.784 -957.594 511.771L-954.823 509.231ZM-977.996 499.056C-987.365 499.056 -995.224 502.455 -1001.43 509.231L-998.664 511.771C-993.184 505.793 -986.34 502.815 -977.996 502.815V499.056ZM-1001.42 509.212C-1007.71 515.882 -1010.7 525.543 -1010.7 537.868H-1006.94C-1006.94 526.104 -1004.08 517.519 -998.682 511.79L-1001.42 509.212ZM-1010.7 537.868C-1010.7 550.017 -1007.8 559.649 -1001.72 566.485L-998.911 563.987C-1004.17 558.069 -1006.94 549.456 -1006.94 537.868H-1010.7ZM-1001.7 566.506C-995.498 573.273 -987.732 576.681 -978.527 576.681V572.922C-986.682 572.922 -993.442 569.953 -998.93 563.966L-1001.7 566.506ZM-730.434 463.737H-728.555V461.857H-730.434V463.737ZM-730.434 612V613.879H-728.555V612H-730.434ZM-775.87 612H-777.749V613.879H-775.87V612ZM-775.87 591.806H-773.99V585.863L-777.407 590.726L-775.87 591.806ZM-794.735 607.749L-793.894 609.43L-793.887 609.426L-793.879 609.422L-794.735 607.749ZM-850.798 606.154L-851.756 607.772L-851.743 607.779L-851.731 607.786L-850.798 606.154ZM-870.992 584.101L-872.673 584.942L-872.673 584.942L-870.992 584.101ZM-878.166 463.737V461.857H-880.045V463.737H-878.166ZM-832.996 463.737H-831.117V461.857H-832.996V463.737ZM-825.291 567.362L-826.663 568.646L-826.663 568.646L-825.291 567.362ZM-775.87 463.737V461.857H-777.749V463.737H-775.87ZM-732.313 463.737V612H-728.555V463.737H-732.313ZM-730.434 610.121H-775.87V613.879H-730.434V610.121ZM-773.99 612V591.806H-777.749V612H-773.99ZM-777.407 590.726C-781.817 597.001 -787.859 602.124 -795.59 606.075L-793.879 609.422C-785.668 605.225 -779.133 599.72 -774.332 592.887L-777.407 590.726ZM-795.575 606.068C-803.083 609.822 -811.471 611.715 -820.774 611.715V615.474C-810.946 615.474 -801.974 613.47 -793.894 609.43L-795.575 606.068ZM-820.774 611.715C-831.828 611.715 -841.507 609.3 -849.866 604.523L-851.731 607.786C-842.731 612.929 -832.393 615.474 -820.774 615.474V611.715ZM-849.841 604.537C-858.191 599.595 -864.68 592.523 -869.311 583.261L-872.673 584.942C-867.739 594.81 -860.765 602.44 -851.756 607.772L-849.841 604.537ZM-869.311 583.261C-873.939 574.005 -876.286 563.056 -876.286 550.357H-880.045C-880.045 563.519 -877.61 575.066 -872.673 584.942L-869.311 583.261ZM-876.286 550.357V463.737H-880.045V550.357H-876.286ZM-878.166 465.616H-832.996V461.857H-878.166V465.616ZM-834.875 463.737V544.245H-831.117V463.737H-834.875ZM-834.875 544.245C-834.875 554.485 -832.219 562.707 -826.663 568.646L-823.918 566.078C-828.636 561.034 -831.117 553.844 -831.117 544.245H-834.875ZM-826.663 568.646C-821.115 574.576 -813.678 577.478 -804.566 577.478V573.719C-812.813 573.719 -819.192 571.129 -823.918 566.078L-826.663 568.646ZM-804.566 577.478C-795.289 577.478 -787.758 574.584 -782.203 568.646L-784.947 566.078C-789.666 571.121 -796.128 573.719 -804.566 573.719V577.478ZM-782.203 568.646C-776.647 562.707 -773.99 554.485 -773.99 544.245H-777.749C-777.749 553.844 -780.229 561.034 -784.947 566.078L-782.203 568.646ZM-773.99 544.245V463.737H-777.749V544.245H-773.99ZM-775.87 465.616H-730.434V461.857H-775.87V465.616ZM-652.363 415.379H-650.483V413.499H-652.363V415.379ZM-652.363 612V613.879H-650.483V612H-652.363ZM-697.798 612H-699.677V613.879H-697.798V612ZM-697.798 415.379V413.499H-699.677V415.379H-697.798ZM-654.242 415.379V612H-650.483V415.379H-654.242ZM-652.363 610.121H-697.798V613.879H-652.363V610.121ZM-695.919 612V415.379H-699.677V612H-695.919ZM-697.798 417.258H-652.363V413.499H-697.798V417.258ZM-619.967 497.481L-621.643 496.631L-621.648 496.641L-621.654 496.651L-619.967 497.481ZM-596.32 470.911L-595.324 472.505L-595.324 472.505L-596.32 470.911ZM-536.536 467.722L-537.391 469.396L-537.384 469.4L-537.377 469.403L-536.536 467.722ZM-517.405 484.196L-518.969 485.239L-515.526 490.403V484.196H-517.405ZM-517.405 415.379V413.499H-519.285V415.379H-517.405ZM-471.97 415.379H-470.091V413.499H-471.97V415.379ZM-471.97 612V613.879H-470.091V612H-471.97ZM-517.405 612H-519.285V613.879H-517.405V612ZM-517.405 590.744H-515.526V583.958L-519.017 589.777L-517.405 590.744ZM-535.739 607.749L-536.623 606.09L-536.631 606.095L-536.639 606.099L-535.739 607.749ZM-596.32 604.826L-597.336 606.407L-597.326 606.413L-597.316 606.42L-596.32 604.826ZM-619.967 577.99L-621.658 578.81L-621.651 578.825L-621.643 578.841L-619.967 577.99ZM-526.971 511.032L-528.336 512.324L-528.327 512.333L-528.318 512.343L-526.971 511.032ZM-572.938 511.032L-574.285 509.722L-574.285 509.722L-572.938 511.032ZM-572.938 564.705L-574.32 565.978L-574.303 565.997L-574.285 566.015L-572.938 564.705ZM-526.971 564.705L-528.318 563.394L-528.327 563.403L-528.336 563.413L-526.971 564.705ZM-626.591 537.603C-626.591 522.603 -623.801 509.523 -618.281 498.311L-621.654 496.651C-627.471 508.467 -630.349 522.135 -630.349 537.603H-626.591ZM-618.292 498.332C-612.584 487.09 -604.924 478.505 -595.324 472.505L-597.316 469.317C-607.555 475.717 -615.659 484.844 -621.643 496.631L-618.292 498.332ZM-595.324 472.505C-585.716 466.5 -574.993 463.491 -563.107 463.491V459.732C-575.665 459.732 -587.084 462.922 -597.316 469.317L-595.324 472.505ZM-563.107 463.491C-553.635 463.491 -545.075 465.469 -537.391 469.396L-535.681 466.049C-543.94 461.828 -553.093 459.732 -563.107 459.732V463.491ZM-537.377 469.403C-529.492 473.346 -523.376 478.628 -518.969 485.239L-515.842 483.154C-520.646 475.947 -527.284 470.247 -535.696 466.041L-537.377 469.403ZM-515.526 484.196V415.379H-519.285V484.196H-515.526ZM-517.405 417.258H-471.97V413.499H-517.405V417.258ZM-473.849 415.379V612H-470.091V415.379H-473.849ZM-471.97 610.121H-517.405V613.879H-471.97V610.121ZM-515.526 612V590.744H-519.285V612H-515.526ZM-519.017 589.777C-523.077 596.543 -528.924 601.984 -536.623 606.09L-534.855 609.407C-526.612 605.011 -520.237 599.115 -515.794 591.711L-519.017 589.777ZM-536.639 606.099C-544.112 610.175 -552.914 612.246 -563.107 612.246V616.005C-552.397 616.005 -542.954 613.825 -534.839 609.399L-536.639 606.099ZM-563.107 612.246C-574.993 612.246 -585.716 609.237 -595.324 603.232L-597.316 606.42C-587.084 612.815 -575.665 616.005 -563.107 616.005V612.246ZM-595.303 603.245C-604.916 597.066 -612.582 588.384 -618.292 577.139L-621.643 578.841C-615.661 590.623 -607.563 599.833 -597.336 606.407L-595.303 603.245ZM-618.276 577.17C-623.801 565.775 -626.591 552.601 -626.591 537.603H-630.349C-630.349 553.072 -627.47 566.823 -621.658 578.81L-618.276 577.17ZM-515.526 537.868C-515.526 526.166 -518.828 516.706 -525.624 509.722L-528.318 512.343C-522.36 518.466 -519.285 526.897 -519.285 537.868H-515.526ZM-525.605 509.741C-532.161 502.811 -540.272 499.322 -549.821 499.322V503.081C-541.303 503.081 -534.18 506.146 -528.336 512.324L-525.605 509.741ZM-549.821 499.322C-559.37 499.322 -567.559 502.809 -574.285 509.722L-571.591 512.343C-565.563 506.147 -558.341 503.081 -549.821 503.081V499.322ZM-574.285 509.722C-580.913 516.539 -584.117 525.917 -584.117 537.603H-580.358C-580.358 526.615 -577.362 518.279 -571.59 512.342L-574.285 509.722ZM-584.117 537.603C-584.117 549.293 -580.911 558.822 -574.32 565.978L-571.555 563.431C-577.364 557.125 -580.358 548.586 -580.358 537.603H-584.117ZM-574.285 566.015C-567.559 572.928 -559.37 576.415 -549.821 576.415V572.656C-558.341 572.656 -565.563 569.589 -571.591 563.394L-574.285 566.015ZM-549.821 576.415C-540.272 576.415 -532.161 572.926 -525.605 565.996L-528.336 563.413C-534.18 569.591 -541.303 572.656 -549.821 572.656V576.415ZM-525.624 566.015C-518.828 559.031 -515.526 549.571 -515.526 537.868H-519.285C-519.285 548.839 -522.36 557.27 -528.318 563.394L-525.624 566.015ZM-337.357 484.727H-339.237V491.367L-335.757 485.712L-337.357 484.727ZM-319.024 467.988L-319.908 466.33L-319.908 466.33L-319.024 467.988ZM-258.443 470.911L-259.439 472.505L-259.439 472.505L-258.443 470.911ZM-235.061 497.481L-236.747 498.311L-236.742 498.322L-236.737 498.332L-235.061 497.481ZM-235.061 577.99L-236.742 577.149L-236.747 577.16L-235.061 577.99ZM-258.443 604.826L-257.447 606.42L-257.437 606.413L-257.427 606.407L-258.443 604.826ZM-319.024 608.014L-319.924 609.664L-319.909 609.672L-319.894 609.68L-319.024 608.014ZM-337.357 591.275L-335.775 590.261L-339.237 584.861V591.275H-337.357ZM-337.357 612V613.879H-335.478V612H-337.357ZM-382.793 612H-384.672V613.879H-382.793V612ZM-382.793 415.379V413.499H-384.672V415.379H-382.793ZM-337.357 415.379H-335.478V413.499H-337.357V415.379ZM-282.091 511.032L-283.456 512.324L-283.438 512.343L-283.42 512.361L-282.091 511.032ZM-328.323 511.032L-329.67 509.722L-329.68 509.731L-329.689 509.741L-328.323 511.032ZM-328.323 564.705L-329.689 565.996L-329.68 566.006L-329.67 566.015L-328.323 564.705ZM-282.091 564.705L-280.744 566.015L-280.735 566.006L-280.726 565.997L-282.091 564.705ZM-335.757 485.712C-331.699 479.119 -325.85 473.759 -318.139 469.646L-319.908 466.33C-328.139 470.72 -334.513 476.519 -338.958 483.742L-335.757 485.712ZM-318.139 469.646C-310.476 465.559 -301.664 463.491 -291.656 463.491V459.732C-302.196 459.732 -311.629 461.914 -319.908 466.33L-318.139 469.646ZM-291.656 463.491C-279.769 463.491 -269.046 466.5 -259.439 472.505L-257.447 469.317C-267.679 462.922 -279.098 459.732 -291.656 459.732V463.491ZM-259.439 472.505C-249.844 478.501 -242.277 487.08 -236.747 498.311L-233.375 496.651C-239.182 484.855 -247.202 475.72 -257.447 469.317L-259.439 472.505ZM-236.737 498.332C-231.047 509.539 -228.172 522.612 -228.172 537.603H-224.413C-224.413 522.126 -227.384 508.451 -233.385 496.631L-236.737 498.332ZM-228.172 537.603C-228.172 552.593 -231.047 565.759 -236.742 577.149L-233.38 578.83C-227.384 566.838 -224.413 553.08 -224.413 537.603H-228.172ZM-236.747 577.16C-242.278 588.395 -249.852 597.069 -259.459 603.245L-257.427 606.407C-247.195 599.829 -239.18 590.612 -233.375 578.82L-236.747 577.16ZM-259.439 603.232C-269.046 609.237 -279.769 612.246 -291.656 612.246V616.005C-279.098 616.005 -267.679 612.815 -257.447 606.42L-259.439 603.232ZM-291.656 612.246C-301.861 612.246 -310.674 610.258 -318.153 606.349L-319.894 609.68C-311.785 613.919 -302.353 616.005 -291.656 616.005V612.246ZM-318.124 606.365C-325.664 602.252 -331.531 596.882 -335.775 590.261L-338.94 592.289C-334.327 599.485 -327.972 605.275 -319.924 609.664L-318.124 606.365ZM-339.237 591.275V612H-335.478V591.275H-339.237ZM-337.357 610.121H-382.793V613.879H-337.357V610.121ZM-380.913 612V415.379H-384.672V612H-380.913ZM-382.793 417.258H-337.357V413.499H-382.793V417.258ZM-339.237 415.379V484.727H-335.478V415.379H-339.237ZM-270.646 537.603C-270.646 525.903 -273.947 516.518 -280.762 509.703L-283.42 512.361C-277.48 518.3 -274.405 526.629 -274.405 537.603H-270.646ZM-280.725 509.741C-287.289 502.803 -295.492 499.322 -305.207 499.322V503.081C-296.5 503.081 -289.293 506.154 -283.456 512.324L-280.725 509.741ZM-305.207 499.322C-314.755 499.322 -322.945 502.809 -329.67 509.722L-326.976 512.343C-320.948 506.147 -313.727 503.081 -305.207 503.081V499.322ZM-329.689 509.741C-336.298 516.727 -339.502 526.18 -339.502 537.868H-335.744C-335.744 526.883 -332.749 518.445 -326.958 512.324L-329.689 509.741ZM-339.502 537.868C-339.502 549.557 -336.298 559.01 -329.689 565.996L-326.958 563.413C-332.749 557.292 -335.744 548.854 -335.744 537.868H-339.502ZM-329.67 566.015C-322.945 572.928 -314.755 576.415 -305.207 576.415V572.656C-313.727 572.656 -320.948 569.589 -326.976 563.394L-329.67 566.015ZM-305.207 576.415C-295.659 576.415 -287.47 572.928 -280.744 566.015L-283.438 563.394C-289.466 569.589 -296.687 572.656 -305.207 572.656V576.415ZM-280.726 565.997C-273.948 558.843 -270.646 549.307 -270.646 537.603H-274.405C-274.405 548.572 -277.479 557.104 -283.455 563.412L-280.726 565.997ZM-63.4926 548.762V550.642H-61.8176L-61.6256 548.978L-63.4926 548.762ZM-166.32 548.762V546.883H-168.35L-168.194 548.906L-166.32 548.762ZM-157.552 570.019L-158.857 571.371L-158.834 571.394L-158.809 571.416L-157.552 570.019ZM-114.508 562.845V560.965H-115.709L-116.213 562.055L-114.508 562.845ZM-66.1496 562.845L-64.3283 563.308L-63.7319 560.965H-66.1496V562.845ZM-79.7006 589.149L-81.139 587.94L-81.1471 587.95L-81.1551 587.959L-79.7006 589.149ZM-103.88 607.483L-103.102 609.194L-103.102 609.194L-103.88 607.483ZM-175.354 604.826L-176.256 606.475L-176.256 606.475L-175.354 604.826ZM-201.925 578.256L-200.281 577.345L-200.281 577.345L-201.925 578.256ZM-202.19 497.481L-203.834 496.571L-203.84 496.58L-203.845 496.59L-202.19 497.481ZM-175.62 470.911L-174.718 472.56L-174.718 472.56L-175.62 470.911ZM-98.2999 470.645L-99.1925 472.299L-99.1925 472.299L-98.2999 470.645ZM-72.2608 496.418L-73.9037 497.331L-73.8982 497.341L-73.8926 497.351L-72.2608 496.418ZM-109.194 523.52V525.4H-107.314V523.52H-109.194ZM-117.165 504.921L-115.934 503.501L-115.934 503.501L-117.165 504.921ZM-156.489 504.655L-157.692 503.212L-157.704 503.222L-157.716 503.232L-156.489 504.655ZM-166.055 523.52L-167.913 523.238L-168.242 525.4H-166.055V523.52ZM-64.5749 535.477C-64.5749 539.65 -64.8357 544.007 -65.3596 548.547L-61.6256 548.978C-61.0867 544.307 -60.8161 539.806 -60.8161 535.477H-64.5749ZM-63.4926 546.883H-166.32V550.642H-63.4926V546.883ZM-168.194 548.906C-167.461 558.438 -164.413 566.007 -158.857 571.371L-156.247 568.667C-160.965 564.111 -163.763 557.509 -164.446 548.618L-168.194 548.906ZM-158.809 571.416C-153.126 576.53 -146.204 579.072 -138.156 579.072V575.313C-145.341 575.313 -151.35 573.072 -156.295 568.622L-158.809 571.416ZM-138.156 579.072C-132.222 579.072 -127.062 577.819 -122.766 575.212C-118.462 572.601 -115.15 568.706 -112.802 563.634L-116.213 562.055C-118.294 566.549 -121.138 569.828 -124.716 571.999C-128.303 574.175 -132.752 575.313 -138.156 575.313V579.072ZM-114.508 564.724H-66.1496V560.965H-114.508V564.724ZM-67.9709 562.381C-70.3801 571.846 -74.7647 580.36 -81.139 587.94L-78.2622 590.359C-71.5284 582.351 -66.879 573.329 -64.3283 563.308L-67.9709 562.381ZM-81.1551 587.959C-87.338 595.516 -95.1606 601.455 -104.657 605.772L-103.102 609.194C-93.1138 604.654 -84.817 598.371 -78.246 590.34L-81.1551 587.959ZM-104.657 605.772C-114.127 610.076 -124.751 612.246 -136.561 612.246V616.005C-124.282 616.005 -113.118 613.747 -103.102 609.194L-104.657 605.772ZM-136.561 612.246C-150.811 612.246 -163.425 609.208 -174.452 603.177L-176.256 606.475C-164.61 612.844 -151.362 616.005 -136.561 616.005V612.246ZM-174.452 603.177C-185.471 597.151 -194.073 588.553 -200.281 577.345L-203.569 579.166C-197.023 590.985 -187.911 600.101 -176.256 606.475L-174.452 603.177ZM-200.281 577.345C-206.479 566.154 -209.611 553.015 -209.611 537.868H-213.369C-213.369 553.543 -210.125 567.329 -203.569 579.166L-200.281 577.345ZM-209.611 537.868C-209.611 522.713 -206.564 509.567 -200.536 498.372L-203.845 496.59C-210.217 508.423 -213.369 522.202 -213.369 537.868H-209.611ZM-200.546 498.392C-194.339 487.183 -185.736 478.585 -174.718 472.56L-176.522 469.262C-188.177 475.636 -197.288 484.752 -203.834 496.571L-200.546 498.392ZM-174.718 472.56C-163.694 466.531 -150.993 463.491 -136.561 463.491V459.732C-151.535 459.732 -164.872 462.891 -176.522 469.262L-174.718 472.56ZM-136.561 463.491C-122.483 463.491 -110.044 466.443 -99.1925 472.299L-97.4073 468.991C-108.875 462.802 -121.943 459.732 -136.561 459.732V463.491ZM-99.1925 472.299C-88.3509 478.15 -79.9305 486.483 -73.9037 497.331L-70.618 495.506C-76.9907 484.035 -85.9298 475.185 -97.4073 468.991L-99.1925 472.299ZM-73.8926 497.351C-67.702 508.184 -64.5749 520.873 -64.5749 535.477H-60.8161C-60.8161 520.323 -64.0659 506.972 -70.6291 495.486L-73.8926 497.351ZM-107.314 523.52C-107.314 515.248 -110.161 508.505 -115.934 503.501L-118.396 506.341C-113.541 510.549 -111.073 516.205 -111.073 523.52H-107.314ZM-115.934 503.501C-121.636 498.56 -128.734 496.133 -137.093 496.133V499.892C-129.509 499.892 -123.323 502.071 -118.396 506.341L-115.934 503.501ZM-137.093 496.133C-145.102 496.133 -152.006 498.473 -157.692 503.212L-155.286 506.099C-150.345 501.981 -144.318 499.892 -137.093 499.892V496.133ZM-157.716 503.232C-163.262 508.013 -166.62 514.745 -167.913 523.238L-164.197 523.803C-163.009 515.999 -159.99 510.155 -155.262 506.079L-157.716 503.232ZM-166.055 525.4H-109.194V521.641H-166.055V525.4ZM274.251 425.475L276.07 425.949L276.683 423.596H274.251V425.475ZM225.627 612V613.879H227.079L227.446 612.474L225.627 612ZM170.626 612L168.8 612.443L169.148 613.879H170.626V612ZM140.867 489.244L142.694 488.802L139.045 488.787L140.867 489.244ZM110.046 612V613.879H111.512L111.869 612.458L110.046 612ZM55.0449 612L53.2231 612.462L53.5825 613.879H55.0449V612ZM7.74943 425.475V423.596H5.33402L5.92769 425.937L7.74943 425.475ZM56.3734 425.475L58.2171 425.111L57.9177 423.596H56.3734V425.475ZM83.2095 561.25L81.3658 561.615L85.0351 561.697L83.2095 561.25ZM116.423 425.475V423.596H114.948L114.597 425.029L116.423 425.475ZM166.375 425.475L168.205 425.046L167.864 423.596H166.375V425.475ZM198.26 561.25L196.43 561.68L200.103 561.618L198.26 561.25ZM225.362 425.475V423.596H223.82L223.518 425.107L225.362 425.475ZM272.433 425.001L223.809 611.526L227.446 612.474L276.07 425.949L272.433 425.001ZM225.627 610.121H170.626V613.879H225.627V610.121ZM172.453 611.557L142.694 488.802L139.041 489.687L168.8 612.443L172.453 611.557ZM139.045 488.787L108.223 611.542L111.869 612.458L142.69 489.702L139.045 488.787ZM110.046 610.121H55.0449V613.879H110.046V610.121ZM56.8666 611.538L9.57116 425.013L5.92769 425.937L53.2231 612.462L56.8666 611.538ZM7.74943 427.355H56.3734V423.596H7.74943V427.355ZM54.5297 425.84L81.3658 561.615L85.0533 560.886L58.2171 425.111L54.5297 425.84ZM85.0351 561.697L118.248 425.922L114.597 425.029L81.384 560.804L85.0351 561.697ZM116.423 427.355H166.375V423.596H116.423V427.355ZM164.545 425.905L196.43 561.68L200.089 560.821L168.205 425.046L164.545 425.905ZM200.103 561.618L227.205 425.843L223.518 425.107L196.417 560.883L200.103 561.618ZM225.362 427.355H274.251V423.596H225.362V427.355ZM342.473 488.447H340.594V494.769L344.047 489.474L342.473 488.447ZM362.401 469.317L363.341 470.944L363.354 470.936L363.368 470.928L362.401 469.317ZM388.971 462.143H390.851V460.263H388.971V462.143ZM388.971 510.235V512.115H390.851V510.235H388.971ZM350.975 517.675L352.187 519.111L352.2 519.1L352.213 519.089L350.975 517.675ZM342.473 612V613.879H344.352V612H342.473ZM297.037 612H295.158V613.879H297.037V612ZM297.037 463.737V461.857H295.158V463.737H297.037ZM342.473 463.737H344.352V461.857H342.473V463.737ZM344.047 489.474C349.209 481.559 355.64 475.393 363.341 470.944L361.461 467.689C353.219 472.451 346.365 479.04 340.899 487.421L344.047 489.474ZM363.368 470.928C371.032 466.329 379.552 464.022 388.971 464.022V460.263C378.905 460.263 369.711 462.739 361.434 467.705L363.368 470.928ZM387.092 462.143V510.235H390.851V462.143H387.092ZM388.971 508.356H376.483V512.115H388.971V508.356ZM376.483 508.356C364.914 508.356 355.886 510.881 349.738 516.26L352.213 519.089C357.402 514.549 365.379 512.115 376.483 512.115V508.356ZM349.763 516.238C343.462 521.555 340.594 530.757 340.594 543.183H344.352C344.352 531.164 347.152 523.36 352.187 519.111L349.763 516.238ZM340.594 543.183V612H344.352V543.183H340.594ZM342.473 610.121H297.037V613.879H342.473V610.121ZM298.917 612V463.737H295.158V612H298.917ZM297.037 465.616H342.473V461.857H297.037V465.616ZM340.594 463.737V488.447H344.352V463.737H340.594ZM410.157 497.481L408.481 496.631L408.476 496.641L408.471 496.651L410.157 497.481ZM433.805 470.911L434.801 472.505L434.801 472.505L433.805 470.911ZM494.385 467.988L493.485 469.638L493.493 469.642L493.501 469.646L494.385 467.988ZM512.719 484.727L511.118 485.712L514.598 491.367V484.727H512.719ZM512.719 463.737V461.857H510.84V463.737H512.719ZM558.154 463.737H560.034V461.857H558.154V463.737ZM558.154 612V613.879H560.034V612H558.154ZM512.719 612H510.84V613.879H512.719V612ZM512.719 591.009H514.598V584.595L511.137 589.995L512.719 591.009ZM494.12 607.749L493.235 606.09L493.227 606.095L493.22 606.099L494.12 607.749ZM433.805 604.826L432.788 606.407L432.798 606.413L432.809 606.42L433.805 604.826ZM410.157 577.99L408.466 578.81L408.473 578.825L408.481 578.841L410.157 577.99ZM503.154 511.032L501.788 512.324L501.797 512.333L501.807 512.343L503.154 511.032ZM457.187 511.032L455.84 509.722L455.839 509.722L457.187 511.032ZM457.187 564.705L455.804 565.978L455.822 565.997L455.84 566.015L457.187 564.705ZM503.154 564.705L501.807 563.394L501.797 563.403L501.788 563.413L503.154 564.705ZM403.534 537.603C403.534 522.603 406.324 509.523 411.843 498.311L408.471 496.651C402.654 508.467 399.775 522.135 399.775 537.603H403.534ZM411.833 498.332C417.54 487.09 425.201 478.505 434.801 472.505L432.809 469.317C422.57 475.717 414.465 484.844 408.481 496.631L411.833 498.332ZM434.801 472.505C444.408 466.5 455.131 463.491 467.018 463.491V459.732C454.46 459.732 443.041 462.922 432.809 469.317L434.801 472.505ZM467.018 463.491C477.21 463.491 486.013 465.562 493.485 469.638L495.285 466.338C487.17 461.912 477.727 459.732 467.018 459.732V463.491ZM493.501 469.646C501.212 473.759 507.061 479.119 511.118 485.712L514.32 483.742C509.874 476.519 503.501 470.72 495.27 466.33L493.501 469.646ZM514.598 484.727V463.737H510.84V484.727H514.598ZM512.719 465.616H558.154V461.857H512.719V465.616ZM556.275 463.737V612H560.034V463.737H556.275ZM558.154 610.121H512.719V613.879H558.154V610.121ZM514.598 612V591.009H510.84V612H514.598ZM511.137 589.995C506.899 596.606 500.952 601.975 493.235 606.09L495.004 609.407C503.23 605.02 509.682 599.229 514.301 592.024L511.137 589.995ZM493.22 606.099C485.747 610.175 476.945 612.246 466.752 612.246V616.005C477.462 616.005 486.904 613.825 495.02 609.399L493.22 606.099ZM466.752 612.246C455.048 612.246 444.413 609.24 434.801 603.232L432.809 606.42C443.036 612.812 454.366 616.005 466.752 616.005V612.246ZM434.821 603.245C425.208 597.066 417.542 588.384 411.833 577.139L408.481 578.841C414.463 590.623 422.562 599.833 432.788 606.407L434.821 603.245ZM411.848 577.17C406.323 565.775 403.534 552.601 403.534 537.603H399.775C399.775 553.072 402.654 566.823 408.466 578.81L411.848 577.17ZM514.598 537.868C514.598 526.166 511.296 516.706 504.501 509.722L501.807 512.343C507.765 518.466 510.84 526.897 510.84 537.868H514.598ZM504.519 509.741C497.964 502.811 489.853 499.322 480.303 499.322V503.081C488.821 503.081 495.944 506.146 501.788 512.324L504.519 509.741ZM480.303 499.322C470.755 499.322 462.566 502.809 455.84 509.722L458.534 512.343C464.562 506.147 471.783 503.081 480.303 503.081V499.322ZM455.839 509.722C449.212 516.539 446.008 525.917 446.008 537.603H449.766C449.766 526.615 452.762 518.279 458.534 512.342L455.839 509.722ZM446.008 537.603C446.008 549.293 449.213 558.822 455.804 565.978L458.569 563.431C452.761 557.125 449.766 548.586 449.766 537.603H446.008ZM455.84 566.015C462.566 572.928 470.755 576.415 480.303 576.415V572.656C471.783 572.656 464.562 569.589 458.534 563.394L455.84 566.015ZM480.303 576.415C489.853 576.415 497.964 572.926 504.519 565.996L501.788 563.413C495.944 569.591 488.821 572.656 480.303 572.656V576.415ZM504.501 566.015C511.296 559.031 514.598 549.571 514.598 537.868H510.84C510.84 548.839 507.765 557.27 501.807 563.394L504.501 566.015ZM636.46 484.727H634.581V491.142L638.043 485.742L636.46 484.727ZM654.794 467.988L653.894 466.338L653.894 466.338L654.794 467.988ZM715.375 470.911L714.379 472.505L714.379 472.505L715.375 470.911ZM738.757 497.481L737.071 498.311L737.076 498.322L737.081 498.332L738.757 497.481ZM738.757 577.99L737.076 577.149L737.071 577.16L738.757 577.99ZM715.375 604.826L716.371 606.42L716.381 606.413L716.391 606.407L715.375 604.826ZM654.794 607.749L653.894 609.399L653.902 609.403L653.91 609.407L654.794 607.749ZM636.46 591.275L638.031 590.242L634.581 584.999V591.275H636.46ZM636.46 682.677V684.557H638.34V682.677H636.46ZM591.025 682.677H589.146V684.557H591.025V682.677ZM591.025 463.737V461.857H589.146V463.737H591.025ZM636.46 463.737H638.34V461.857H636.46V463.737ZM691.727 511.032L690.362 512.324L690.38 512.343L690.398 512.361L691.727 511.032ZM645.494 511.032L644.147 509.722L644.138 509.731L644.129 509.741L645.494 511.032ZM645.494 564.705L644.129 565.996L644.138 566.006L644.147 566.015L645.494 564.705ZM691.727 564.705L693.074 566.015L693.083 566.006L693.091 565.997L691.727 564.705ZM638.043 485.742C642.287 479.121 648.154 473.751 655.694 469.638L653.894 466.338C645.846 470.728 639.491 476.518 634.878 483.713L638.043 485.742ZM655.694 469.638C663.167 465.562 671.969 463.491 682.162 463.491V459.732C671.452 459.732 662.009 461.912 653.894 466.338L655.694 469.638ZM682.162 463.491C694.048 463.491 704.771 466.5 714.379 472.505L716.371 469.317C706.139 462.922 694.72 459.732 682.162 459.732V463.491ZM714.379 472.505C723.973 478.501 731.541 487.08 737.071 498.311L740.443 496.651C734.636 484.855 726.615 475.72 716.371 469.317L714.379 472.505ZM737.081 498.332C742.771 509.539 745.646 522.612 745.646 537.603H749.404C749.404 522.126 746.434 508.451 740.433 496.631L737.081 498.332ZM745.646 537.603C745.646 552.593 742.771 565.759 737.076 577.149L740.438 578.83C746.434 566.838 749.404 553.08 749.404 537.603H745.646ZM737.071 577.16C731.539 588.395 723.966 597.069 714.358 603.245L716.391 606.407C726.623 599.829 734.637 590.612 740.443 578.82L737.071 577.16ZM714.379 603.232C704.771 609.237 694.048 612.246 682.162 612.246V616.005C694.72 616.005 706.139 612.815 716.371 606.42L714.379 603.232ZM682.162 612.246C672.153 612.246 663.342 610.178 655.678 606.09L653.91 609.407C662.188 613.822 671.622 616.005 682.162 616.005V612.246ZM655.694 606.099C648.142 601.98 642.273 596.69 638.031 590.242L634.89 592.308C639.505 599.322 645.858 605.015 653.894 609.399L655.694 606.099ZM634.581 591.275V682.677H638.34V591.275H634.581ZM636.46 680.798H591.025V684.557H636.46V680.798ZM592.904 682.677V463.737H589.146V682.677H592.904ZM591.025 465.616H636.46V461.857H591.025V465.616ZM634.581 463.737V484.727H638.34V463.737H634.581ZM703.172 537.603C703.172 525.903 699.871 516.518 693.056 509.703L690.398 512.361C696.337 518.3 699.413 526.629 699.413 537.603H703.172ZM693.092 509.741C686.529 502.803 678.326 499.322 668.611 499.322V503.081C677.318 503.081 684.525 506.154 690.362 512.324L693.092 509.741ZM668.611 499.322C659.062 499.322 650.873 502.809 644.147 509.722L646.841 512.343C652.869 506.147 660.091 503.081 668.611 503.081V499.322ZM644.129 509.741C637.52 516.727 634.315 526.18 634.315 537.868H638.074C638.074 526.883 641.069 518.445 646.86 512.324L644.129 509.741ZM634.315 537.868C634.315 549.557 637.52 559.01 644.129 565.996L646.86 563.413C641.069 557.292 638.074 548.854 638.074 537.868H634.315ZM644.147 566.015C650.873 572.928 659.062 576.415 668.611 576.415V572.656C660.091 572.656 652.869 569.589 646.841 563.394L644.147 566.015ZM668.611 576.415C678.159 576.415 686.348 572.928 693.074 566.015L690.38 563.394C684.352 569.589 677.13 572.656 668.611 572.656V576.415ZM693.091 565.997C699.869 558.843 703.172 549.307 703.172 537.603H699.413C699.413 548.572 696.339 557.104 690.363 563.412L693.091 565.997ZM816.797 484.727H814.918V491.142L818.379 485.742L816.797 484.727ZM835.131 467.988L834.231 466.338L834.231 466.338L835.131 467.988ZM895.711 470.911L894.715 472.505L894.715 472.505L895.711 470.911ZM919.093 497.481L917.407 498.311L917.412 498.322L917.418 498.332L919.093 497.481ZM919.093 577.99L917.412 577.149L917.407 577.16L919.093 577.99ZM895.711 604.826L896.707 606.42L896.718 606.413L896.728 606.407L895.711 604.826ZM835.131 607.749L834.231 609.399L834.239 609.403L834.246 609.407L835.131 607.749ZM816.797 591.275L818.367 590.242L814.918 584.999V591.275H816.797ZM816.797 682.677V684.557H818.677V682.677H816.797ZM771.362 682.677H769.482V684.557H771.362V682.677ZM771.362 463.737V461.857H769.482V463.737H771.362ZM816.797 463.737H818.677V461.857H816.797V463.737ZM872.064 511.032L870.698 512.324L870.716 512.343L870.735 512.361L872.064 511.032ZM825.831 511.032L824.484 509.722L824.475 509.731L824.466 509.741L825.831 511.032ZM825.831 564.705L824.466 565.996L824.475 566.006L824.484 566.015L825.831 564.705ZM872.064 564.705L873.411 566.015L873.419 566.006L873.428 565.997L872.064 564.705ZM818.379 485.742C822.624 479.121 828.491 473.751 836.031 469.638L834.231 466.338C826.183 470.728 819.828 476.518 815.215 483.713L818.379 485.742ZM836.031 469.638C843.503 465.562 852.306 463.491 862.498 463.491V459.732C851.789 459.732 842.346 461.912 834.231 466.338L836.031 469.638ZM862.498 463.491C874.385 463.491 885.108 466.5 894.715 472.505L896.707 469.317C886.475 462.922 875.056 459.732 862.498 459.732V463.491ZM894.715 472.505C904.31 478.501 911.878 487.08 917.407 498.311L920.78 496.651C914.972 484.855 906.952 475.72 896.707 469.317L894.715 472.505ZM917.418 498.332C923.107 509.539 925.982 522.612 925.982 537.603H929.741C929.741 522.126 926.771 508.451 920.769 496.631L917.418 498.332ZM925.982 537.603C925.982 552.593 923.107 565.759 917.412 577.149L920.774 578.83C926.77 566.838 929.741 553.08 929.741 537.603H925.982ZM917.407 577.16C911.876 588.395 904.302 597.069 894.695 603.245L896.728 606.407C906.96 599.829 914.974 590.612 920.78 578.82L917.407 577.16ZM894.715 603.232C885.108 609.237 874.385 612.246 862.498 612.246V616.005C875.056 616.005 886.475 612.815 896.707 606.42L894.715 603.232ZM862.498 612.246C852.49 612.246 843.679 610.178 836.015 606.09L834.246 609.407C842.525 613.822 851.959 616.005 862.498 616.005V612.246ZM836.031 606.099C828.479 601.98 822.609 596.69 818.367 590.242L815.227 592.308C819.842 599.322 826.194 605.015 834.231 609.399L836.031 606.099ZM814.918 591.275V682.677H818.677V591.275H814.918ZM816.797 680.798H771.362V684.557H816.797V680.798ZM773.241 682.677V463.737H769.482V682.677H773.241ZM771.362 465.616H816.797V461.857H771.362V465.616ZM814.918 463.737V484.727H818.677V463.737H814.918ZM883.508 537.603C883.508 525.903 880.207 516.518 873.393 509.703L870.735 512.361C876.674 518.3 879.75 526.629 879.75 537.603H883.508ZM873.429 509.741C866.866 502.803 858.663 499.322 848.947 499.322V503.081C857.654 503.081 864.862 506.154 870.698 512.324L873.429 509.741ZM848.947 499.322C839.399 499.322 831.21 502.809 824.484 509.722L827.178 512.343C833.206 506.147 840.428 503.081 848.947 503.081V499.322ZM824.466 509.741C817.857 516.727 814.652 526.18 814.652 537.868H818.411C818.411 526.883 821.406 518.445 827.196 512.324L824.466 509.741ZM814.652 537.868C814.652 549.557 817.857 559.01 824.466 565.996L827.196 563.413C821.406 557.292 818.411 548.854 818.411 537.868H814.652ZM824.484 566.015C831.21 572.928 839.399 576.415 848.947 576.415V572.656C840.428 572.656 833.206 569.589 827.178 563.394L824.484 566.015ZM848.947 576.415C858.496 576.415 866.685 572.928 873.411 566.015L870.717 563.394C864.689 569.589 857.467 572.656 848.947 572.656V576.415ZM873.428 565.997C880.206 558.843 883.508 549.307 883.508 537.603H879.75C879.75 548.572 876.675 557.104 870.699 563.412L873.428 565.997ZM1090.66 548.762V550.642H1092.34L1092.53 548.978L1090.66 548.762ZM987.834 548.762V546.883H985.805L985.96 548.906L987.834 548.762ZM996.602 570.019L995.297 571.371L995.321 571.394L995.345 571.416L996.602 570.019ZM1039.65 562.845V560.965H1038.45L1037.94 562.055L1039.65 562.845ZM1088 562.845L1089.83 563.308L1090.42 560.965H1088V562.845ZM1074.45 589.149L1073.02 587.94L1073.01 587.95L1073 587.959L1074.45 589.149ZM1050.27 607.483L1051.05 609.194L1051.05 609.194L1050.27 607.483ZM978.8 604.826L977.898 606.475L977.898 606.475L978.8 604.826ZM952.23 578.256L953.874 577.345L953.874 577.345L952.23 578.256ZM951.964 497.481L950.32 496.571L950.315 496.58L950.309 496.59L951.964 497.481ZM978.534 470.911L979.436 472.56L979.436 472.56L978.534 470.911ZM1055.85 470.645L1054.96 472.299L1054.96 472.299L1055.85 470.645ZM1081.89 496.418L1080.25 497.331L1080.26 497.341L1080.26 497.351L1081.89 496.418ZM1044.96 523.52V525.4H1046.84V523.52H1044.96ZM1036.99 504.921L1038.22 503.501L1038.22 503.501L1036.99 504.921ZM997.665 504.655L996.462 503.212L996.45 503.222L996.438 503.232L997.665 504.655ZM988.1 523.52L986.242 523.238L985.913 525.4H988.1V523.52ZM1089.58 535.477C1089.58 539.65 1089.32 544.007 1088.79 548.547L1092.53 548.978C1093.07 544.307 1093.34 539.806 1093.34 535.477H1089.58ZM1090.66 546.883H987.834V550.642H1090.66V546.883ZM985.96 548.906C986.693 558.438 989.741 566.007 995.297 571.371L997.908 568.667C993.189 564.111 990.392 557.509 989.708 548.618L985.96 548.906ZM995.345 571.416C1001.03 576.53 1007.95 579.072 1016 579.072V575.313C1008.81 575.313 1002.8 573.072 997.86 568.622L995.345 571.416ZM1016 579.072C1021.93 579.072 1027.09 577.819 1031.39 575.212C1035.69 572.601 1039 568.706 1041.35 563.634L1037.94 562.055C1035.86 566.549 1033.02 569.828 1029.44 571.999C1025.85 574.175 1021.4 575.313 1016 575.313V579.072ZM1039.65 564.724H1088V560.965H1039.65V564.724ZM1086.18 562.381C1083.77 571.846 1079.39 580.36 1073.02 587.94L1075.89 590.359C1082.63 582.351 1087.28 573.329 1089.83 563.308L1086.18 562.381ZM1073 587.959C1066.82 595.516 1058.99 601.455 1049.5 605.772L1051.05 609.194C1061.04 604.654 1069.34 598.371 1075.91 590.34L1073 587.959ZM1049.5 605.772C1040.03 610.076 1029.4 612.246 1017.59 612.246V616.005C1029.87 616.005 1041.04 613.747 1051.05 609.194L1049.5 605.772ZM1017.59 612.246C1003.34 612.246 990.729 609.208 979.702 603.177L977.898 606.475C989.545 612.844 1002.79 616.005 1017.59 616.005V612.246ZM979.702 603.177C968.684 597.151 960.082 588.553 953.874 577.345L950.586 579.166C957.132 590.985 966.243 600.101 977.898 606.475L979.702 603.177ZM953.874 577.345C947.676 566.154 944.544 553.015 944.544 537.868H940.785C940.785 553.543 944.03 567.329 950.586 579.166L953.874 577.345ZM944.544 537.868C944.544 522.713 947.591 509.567 953.619 498.372L950.309 496.59C943.938 508.423 940.785 522.202 940.785 537.868H944.544ZM953.608 498.392C959.816 487.183 968.418 478.585 979.436 472.56L977.633 469.262C965.977 475.636 956.866 484.752 950.32 496.571L953.608 498.392ZM979.436 472.56C990.46 466.531 1003.16 463.491 1017.59 463.491V459.732C1002.62 459.732 989.282 462.891 977.633 469.262L979.436 472.56ZM1017.59 463.491C1031.67 463.491 1044.11 466.443 1054.96 472.299L1056.75 468.991C1045.28 462.802 1032.21 459.732 1017.59 459.732V463.491ZM1054.96 472.299C1065.8 478.15 1074.22 486.483 1080.25 497.331L1083.54 495.506C1077.16 484.035 1068.22 475.185 1056.75 468.991L1054.96 472.299ZM1080.26 497.351C1086.45 508.184 1089.58 520.873 1089.58 535.477H1093.34C1093.34 520.323 1090.09 506.972 1083.53 495.486L1080.26 497.351ZM1046.84 523.52C1046.84 515.248 1043.99 508.505 1038.22 503.501L1035.76 506.341C1040.61 510.549 1043.08 516.205 1043.08 523.52H1046.84ZM1038.22 503.501C1032.52 498.56 1025.42 496.133 1017.06 496.133V499.892C1024.64 499.892 1030.83 502.071 1035.76 506.341L1038.22 503.501ZM1017.06 496.133C1009.05 496.133 1002.15 498.473 996.462 503.212L998.868 506.099C1003.81 501.981 1009.84 499.892 1017.06 499.892V496.133ZM996.438 503.232C990.892 508.013 987.534 514.745 986.242 523.238L989.958 523.803C991.145 515.999 994.164 510.155 998.892 506.079L996.438 503.232ZM988.1 525.4H1044.96V521.641H988.1V525.4ZM1114.9 497.481L1113.22 496.631L1113.22 496.641L1113.21 496.651L1114.9 497.481ZM1138.54 470.911L1139.54 472.505L1139.54 472.505L1138.54 470.911ZM1198.33 467.722L1197.47 469.396L1197.48 469.4L1197.49 469.403L1198.33 467.722ZM1217.46 484.196L1215.9 485.239L1219.34 490.403V484.196H1217.46ZM1217.46 415.379V413.499H1215.58V415.379H1217.46ZM1262.89 415.379H1264.77V413.499H1262.89V415.379ZM1262.89 612V613.879H1264.77V612H1262.89ZM1217.46 612H1215.58V613.879H1217.46V612ZM1217.46 590.744H1219.34V583.958L1215.85 589.777L1217.46 590.744ZM1199.13 607.749L1198.24 606.09L1198.23 606.095L1198.23 606.099L1199.13 607.749ZM1138.54 604.826L1137.53 606.407L1137.54 606.413L1137.55 606.42L1138.54 604.826ZM1114.9 577.99L1113.21 578.81L1113.21 578.825L1113.22 578.841L1114.9 577.99ZM1207.89 511.032L1206.53 512.324L1206.54 512.333L1206.55 512.343L1207.89 511.032ZM1161.93 511.032L1160.58 509.722L1160.58 509.722L1161.93 511.032ZM1161.93 564.705L1160.54 565.978L1160.56 565.997L1160.58 566.015L1161.93 564.705ZM1207.89 564.705L1206.55 563.394L1206.54 563.403L1206.53 563.413L1207.89 564.705ZM1108.27 537.603C1108.27 522.603 1111.06 509.523 1116.58 498.311L1113.21 496.651C1107.39 508.467 1104.51 522.135 1104.51 537.603H1108.27ZM1116.57 498.332C1122.28 487.09 1129.94 478.505 1139.54 472.505L1137.55 469.317C1127.31 475.717 1119.2 484.844 1113.22 496.631L1116.57 498.332ZM1139.54 472.505C1149.15 466.5 1159.87 463.491 1171.76 463.491V459.732C1159.2 459.732 1147.78 462.922 1137.55 469.317L1139.54 472.505ZM1171.76 463.491C1181.23 463.491 1189.79 465.469 1197.47 469.396L1199.18 466.049C1190.92 461.828 1181.77 459.732 1171.76 459.732V463.491ZM1197.49 469.403C1205.37 473.346 1211.49 478.628 1215.9 485.239L1219.02 483.154C1214.22 475.947 1207.58 470.247 1199.17 466.041L1197.49 469.403ZM1219.34 484.196V415.379H1215.58V484.196H1219.34ZM1217.46 417.258H1262.89V413.499H1217.46V417.258ZM1261.01 415.379V612H1264.77V415.379H1261.01ZM1262.89 610.121H1217.46V613.879H1262.89V610.121ZM1219.34 612V590.744H1215.58V612H1219.34ZM1215.85 589.777C1211.79 596.543 1205.94 601.984 1198.24 606.09L1200.01 609.407C1208.25 605.011 1214.63 599.115 1219.07 591.711L1215.85 589.777ZM1198.23 606.099C1190.75 610.175 1181.95 612.246 1171.76 612.246V616.005C1182.47 616.005 1191.91 613.825 1200.03 609.399L1198.23 606.099ZM1171.76 612.246C1159.87 612.246 1149.15 609.237 1139.54 603.232L1137.55 606.42C1147.78 612.815 1159.2 616.005 1171.76 616.005V612.246ZM1139.56 603.245C1129.95 597.066 1122.28 588.384 1116.57 577.139L1113.22 578.841C1119.2 590.623 1127.3 599.833 1137.53 606.407L1139.56 603.245ZM1116.59 577.17C1111.06 565.775 1108.27 552.601 1108.27 537.603H1104.51C1104.51 553.072 1107.39 566.823 1113.21 578.81L1116.59 577.17ZM1219.34 537.868C1219.34 526.166 1216.04 516.706 1209.24 509.722L1206.55 512.343C1212.5 518.466 1215.58 526.897 1215.58 537.868H1219.34ZM1209.26 509.741C1202.7 502.811 1194.59 499.322 1185.04 499.322V503.081C1193.56 503.081 1200.68 506.146 1206.53 512.324L1209.26 509.741ZM1185.04 499.322C1175.49 499.322 1167.31 502.809 1160.58 509.722L1163.27 512.343C1169.3 506.147 1176.52 503.081 1185.04 503.081V499.322ZM1160.58 509.722C1153.95 516.539 1150.75 525.917 1150.75 537.603H1154.51C1154.51 526.615 1157.5 518.279 1163.27 512.342L1160.58 509.722ZM1150.75 537.603C1150.75 549.293 1153.95 558.822 1160.54 565.978L1163.31 563.431C1157.5 557.125 1154.51 548.586 1154.51 537.603H1150.75ZM1160.58 566.015C1167.31 572.928 1175.49 576.415 1185.04 576.415V572.656C1176.52 572.656 1169.3 569.589 1163.27 563.394L1160.58 566.015ZM1185.04 576.415C1194.59 576.415 1202.7 572.926 1209.26 565.996L1206.53 563.413C1200.68 569.591 1193.56 572.656 1185.04 572.656V576.415ZM1209.24 566.015C1216.04 559.031 1219.34 549.571 1219.34 537.868H1215.58C1215.58 548.839 1212.5 557.27 1206.55 563.394L1209.24 566.015ZM1382.89 607.217L1382.18 608.956L1382.18 608.956L1382.89 607.217ZM1356.85 587.555L1355.34 588.668L1355.35 588.678L1355.35 588.688L1356.85 587.555ZM1346.76 556.202V554.323H1344.82L1344.88 556.256L1346.76 556.202ZM1395.12 556.202L1396.99 556.01L1396.81 554.323H1395.12V556.202ZM1402.29 572.144L1401.02 573.532L1401.04 573.548L1401.06 573.563L1402.29 572.144ZM1434.17 572.941L1435.32 574.429L1435.34 574.413L1435.36 574.396L1434.17 572.941ZM1435.24 548.497L1433.91 549.826L1433.93 549.845L1433.95 549.863L1435.24 548.497ZM1423.81 541.057L1423.05 542.777L1423.07 542.782L1423.08 542.788L1423.81 541.057ZM1404.68 534.414L1404.13 536.21L1404.14 536.213L1404.14 536.215L1404.68 534.414ZM1355.53 506.781L1357.02 505.647L1357.02 505.647L1355.53 506.781ZM1366.15 437.698L1367.3 439.184L1367.31 439.178L1367.32 439.173L1366.15 437.698ZM1465 437.698L1463.83 439.173L1463.84 439.178L1463.85 439.184L1465 437.698ZM1485.19 478.616V480.496H1487.17L1487.07 478.521L1485.19 478.616ZM1436.03 478.616L1434.16 478.727L1434.26 480.496H1436.03V478.616ZM1429.39 464.534L1428.16 465.952L1428.18 465.968L1428.19 465.983L1429.39 464.534ZM1400.43 463.737L1401.64 465.174L1401.66 465.156L1401.68 465.137L1400.43 463.737ZM1403.88 490.307L1404.84 488.691L1404.84 488.691L1403.88 490.307ZM1430.45 501.201L1431.06 499.421L1431.04 499.417L1431.03 499.413L1430.45 501.201ZM1459.68 512.892L1458.84 514.573L1458.85 514.577L1458.86 514.581L1459.68 512.892ZM1479.34 529.1L1477.86 530.251L1477.86 530.251L1479.34 529.1ZM1479.34 585.43L1477.76 584.425L1477.75 584.436L1477.74 584.448L1479.34 585.43ZM1455.96 606.154L1455.12 604.474L1455.12 604.474L1455.96 606.154ZM1419.56 611.981C1406.13 611.981 1394.15 609.8 1383.61 605.478L1382.18 608.956C1393.25 613.492 1405.72 615.739 1419.56 615.739V611.981ZM1383.61 605.478C1373.09 601.168 1364.69 594.813 1358.35 586.423L1355.35 588.688C1362.13 597.656 1371.09 604.41 1382.18 608.956L1383.61 605.478ZM1358.37 586.442C1352.25 578.111 1348.98 568.042 1348.64 556.148L1344.88 556.256C1345.24 568.807 1348.71 579.64 1355.34 588.668L1358.37 586.442ZM1346.76 558.081H1395.12V554.323H1346.76V558.081ZM1393.25 556.394C1393.99 563.638 1396.53 569.427 1401.02 573.532L1403.56 570.756C1399.91 567.422 1397.66 562.583 1396.99 556.01L1393.25 556.394ZM1401.06 573.563C1405.54 577.463 1411.33 579.338 1418.23 579.338V575.579C1412.03 575.579 1407.19 573.911 1403.52 570.726L1401.06 573.563ZM1418.23 579.338C1425.23 579.338 1431 577.773 1435.32 574.429L1433.03 571.454C1429.56 574.132 1424.7 575.579 1418.23 575.579V579.338ZM1435.36 574.396C1439.74 570.815 1441.9 565.919 1441.9 559.922H1438.14C1438.14 564.908 1436.4 568.691 1432.98 571.487L1435.36 574.396ZM1441.9 559.922C1441.9 554.828 1440.11 550.516 1436.53 547.13L1433.95 549.863C1436.74 552.5 1438.14 555.804 1438.14 559.922H1441.9ZM1436.57 547.168C1433.36 543.958 1429.33 541.353 1424.54 539.326L1423.08 542.788C1427.5 544.658 1431.1 547.012 1433.91 549.826L1436.57 547.168ZM1424.57 539.337C1420.03 537.341 1413.57 535.101 1405.22 532.613L1404.14 536.215C1412.44 538.688 1418.73 540.876 1423.05 542.777L1424.57 539.337ZM1405.24 532.619C1393.24 528.915 1383.51 525.228 1376.01 521.566L1374.36 524.943C1382.1 528.721 1392.03 532.474 1404.13 536.21L1405.24 532.619ZM1376.01 521.566C1368.68 517.985 1362.35 512.692 1357.02 505.647L1354.03 507.914C1359.68 515.395 1366.46 521.085 1374.36 524.943L1376.01 521.566ZM1357.02 505.647C1351.84 498.794 1349.17 489.749 1349.17 478.351H1345.41C1345.41 490.334 1348.23 500.243 1354.03 507.914L1357.02 505.647ZM1349.17 478.351C1349.17 461.512 1355.23 448.534 1367.3 439.184L1365 436.212C1351.92 446.346 1345.41 460.471 1345.41 478.351H1349.17ZM1367.32 439.173C1379.48 429.577 1395.43 424.698 1415.31 424.698V420.939C1394.81 420.939 1377.98 425.979 1364.99 436.222L1367.32 439.173ZM1415.31 424.698C1435.56 424.698 1451.67 429.581 1463.83 439.173L1466.16 436.222C1453.17 425.975 1436.16 420.939 1415.31 420.939V424.698ZM1463.85 439.184C1475.94 448.553 1482.45 461.658 1483.31 478.711L1487.07 478.521C1486.16 460.502 1479.21 446.327 1466.15 436.212L1463.85 439.184ZM1485.19 476.737H1436.03V480.496H1485.19V476.737ZM1437.91 478.506C1437.53 472.043 1435.12 466.832 1430.59 463.085L1428.19 465.983C1431.81 468.967 1433.83 473.144 1434.16 478.727L1437.91 478.506ZM1430.62 463.116C1426.15 459.223 1420.46 457.34 1413.72 457.34V461.099C1419.73 461.099 1424.49 462.759 1428.16 465.952L1430.62 463.116ZM1413.72 457.34C1407.87 457.34 1402.96 458.953 1399.18 462.336L1401.68 465.137C1404.63 462.498 1408.58 461.099 1413.72 461.099V457.34ZM1399.22 462.299C1395.33 465.577 1393.5 470.329 1393.5 476.225H1397.26C1397.26 471.139 1398.8 467.565 1401.64 465.174L1399.22 462.299ZM1393.5 476.225C1393.5 482.983 1396.75 488.258 1402.92 491.923L1404.84 488.691C1399.68 485.626 1397.26 481.512 1397.26 476.225H1393.5ZM1402.92 491.923C1408.78 495.398 1417.8 499.081 1429.88 502.989L1431.03 499.413C1419.02 495.527 1410.33 491.947 1404.84 488.691L1402.92 491.923ZM1429.85 502.981C1441.85 507.041 1451.51 510.906 1458.84 514.573L1460.52 511.211C1452.98 507.438 1443.15 503.51 1431.06 499.421L1429.85 502.981ZM1458.86 514.581C1466.2 518.167 1472.53 523.38 1477.86 530.251L1480.83 527.949C1475.17 520.649 1468.4 515.057 1460.51 511.203L1458.86 514.581ZM1477.86 530.251C1483.04 536.934 1485.7 545.621 1485.7 556.468H1489.46C1489.46 544.995 1486.63 535.438 1480.83 527.949L1477.86 530.251ZM1485.7 556.468C1485.7 566.753 1483.05 576.057 1477.76 584.425L1480.93 586.434C1486.62 577.443 1489.46 567.439 1489.46 556.468H1485.7ZM1477.74 584.448C1472.63 592.791 1465.12 599.473 1455.12 604.474L1456.8 607.835C1467.35 602.562 1475.43 595.428 1480.95 586.411L1477.74 584.448ZM1455.12 604.474C1445.16 609.455 1433.33 611.981 1419.56 611.981V615.739C1433.78 615.739 1446.22 613.128 1456.8 607.835L1455.12 604.474ZM1647.6 479.148L1646.2 480.41L1646.21 480.415L1646.21 480.421L1647.6 479.148ZM1663.01 612V613.879H1664.89V612H1663.01ZM1617.84 612H1615.96V613.879H1617.84V612ZM1610.13 508.375L1608.76 509.659L1608.76 509.659L1610.13 508.375ZM1568.68 508.375L1570.06 509.659L1570.06 509.659L1568.68 508.375ZM1560.98 612V613.879H1562.86V612H1560.98ZM1515.54 612H1513.66V613.879H1515.54V612ZM1515.54 415.379V413.499H1513.66V415.379H1515.54ZM1560.98 415.379H1562.86V413.499H1560.98V415.379ZM1560.98 483.665H1559.1V489.608L1562.52 484.745L1560.98 483.665ZM1579.84 467.988L1579.02 466.3L1579.02 466.3L1579.84 467.988ZM1606.68 464.022C1623.22 464.022 1636.33 469.512 1646.2 480.41L1648.99 477.886C1638.32 466.11 1624.15 460.263 1606.68 460.263V464.022ZM1646.21 480.421C1656.08 491.14 1661.13 506.046 1661.13 525.38H1664.89C1664.89 505.391 1659.66 489.474 1648.98 477.875L1646.21 480.421ZM1661.13 525.38V612H1664.89V525.38H1661.13ZM1663.01 610.121H1617.84V613.879H1663.01V610.121ZM1619.72 612V531.491H1615.96V612H1619.72ZM1619.72 531.491C1619.72 521.251 1617.06 513.03 1611.51 507.091L1608.76 509.659C1613.48 514.703 1615.96 521.892 1615.96 531.491H1619.72ZM1611.51 507.091C1605.96 501.16 1598.52 498.259 1589.41 498.259V502.018C1597.66 502.018 1604.03 504.607 1608.76 509.659L1611.51 507.091ZM1589.41 498.259C1580.3 498.259 1572.86 501.16 1567.31 507.091L1570.06 509.659C1574.78 504.607 1581.16 502.018 1589.41 502.018V498.259ZM1567.31 507.091C1561.76 513.03 1559.1 521.251 1559.1 531.491H1562.86C1562.86 521.892 1565.34 514.703 1570.06 509.659L1567.31 507.091ZM1559.1 531.491V612H1562.86V531.491H1559.1ZM1560.98 610.121H1515.54V613.879H1560.98V610.121ZM1517.42 612V415.379H1513.66V612H1517.42ZM1515.54 417.258H1560.98V413.499H1515.54V417.258ZM1559.1 415.379V483.665H1562.86V415.379H1559.1ZM1562.52 484.745C1566.92 478.478 1572.95 473.45 1580.67 469.676L1579.02 466.3C1570.79 470.321 1564.25 475.743 1559.44 482.584L1562.52 484.745ZM1580.67 469.676C1588.35 465.919 1597.01 464.022 1606.68 464.022V460.263C1596.51 460.263 1587.27 462.263 1579.02 466.3L1580.67 469.676ZM1697.77 441.418L1696.47 442.77L1696.49 442.794L1696.52 442.817L1697.77 441.418ZM1697.77 406.345L1699.05 407.722L1699.05 407.72L1697.77 406.345ZM1736.56 406.345L1735.26 407.697L1735.28 407.721L1735.31 407.744L1736.56 406.345ZM1736.56 441.418L1737.84 442.795L1737.84 442.793L1736.56 441.418ZM1740.02 463.737H1741.9V461.857H1740.02V463.737ZM1740.02 612V613.879H1741.9V612H1740.02ZM1694.58 612H1692.7V613.879H1694.58V612ZM1694.58 463.737V461.857H1692.7V463.737H1694.58ZM1717.43 446.447C1709.85 446.447 1703.76 444.267 1699.02 440.018L1696.52 442.817C1702.05 447.779 1709.07 450.205 1717.43 450.205V446.447ZM1699.07 440.065C1694.48 435.637 1692.21 430.281 1692.21 423.881H1688.45C1688.45 431.298 1691.14 437.633 1696.47 442.77L1699.07 440.065ZM1692.21 423.881C1692.21 417.291 1694.49 411.953 1699.05 407.722L1696.49 404.967C1691.13 409.947 1688.45 416.301 1688.45 423.881H1692.21ZM1699.05 407.72C1703.79 403.306 1709.87 401.05 1717.43 401.05V397.291C1709.06 397.291 1702.02 399.818 1696.49 404.969L1699.05 407.72ZM1717.43 401.05C1724.81 401.05 1730.7 403.298 1735.26 407.697L1737.87 404.992C1732.51 399.826 1725.64 397.291 1717.43 397.291V401.05ZM1735.31 407.744C1740.04 411.982 1742.39 417.313 1742.39 423.881H1746.15C1746.15 416.278 1743.36 409.918 1737.82 404.945L1735.31 407.744ZM1742.39 423.881C1742.39 430.258 1740.04 435.609 1735.28 440.042L1737.84 442.793C1743.36 437.661 1746.15 431.321 1746.15 423.881H1742.39ZM1735.28 440.04C1730.72 444.274 1724.83 446.447 1717.43 446.447V450.205C1725.62 450.205 1732.48 447.772 1737.84 442.795L1735.28 440.04ZM1738.14 463.737V612H1741.9V463.737H1738.14ZM1740.02 610.121H1694.58V613.879H1740.02V610.121ZM1696.46 612V463.737H1692.7V612H1696.46ZM1694.58 465.616H1740.02V461.857H1694.58V465.616ZM1818.38 484.727H1816.5V491.367L1819.98 485.712L1818.38 484.727ZM1836.71 467.988L1835.83 466.33L1835.83 466.33L1836.71 467.988ZM1897.29 470.911L1896.3 472.505L1896.3 472.505L1897.29 470.911ZM1920.68 497.481L1918.99 498.311L1918.99 498.322L1919 498.332L1920.68 497.481ZM1920.68 577.99L1918.99 577.149L1918.99 577.16L1920.68 577.99ZM1897.29 604.826L1898.29 606.42L1898.3 606.413L1898.31 606.407L1897.29 604.826ZM1836.71 608.014L1835.81 609.664L1835.83 609.672L1835.84 609.68L1836.71 608.014ZM1818.38 591.275L1819.96 590.261L1816.5 584.861V591.275H1818.38ZM1818.38 612V613.879H1820.26V612H1818.38ZM1772.94 612H1771.06V613.879H1772.94V612ZM1772.94 415.379V413.499H1771.06V415.379H1772.94ZM1818.38 415.379H1820.26V413.499H1818.38V415.379ZM1873.65 511.032L1872.28 512.324L1872.3 512.343L1872.32 512.361L1873.65 511.032ZM1827.41 511.032L1826.07 509.722L1826.06 509.731L1826.05 509.741L1827.41 511.032ZM1827.41 564.705L1826.05 565.996L1826.06 566.006L1826.07 566.015L1827.41 564.705ZM1873.65 564.705L1874.99 566.015L1875 566.006L1875.01 565.997L1873.65 564.705ZM1819.98 485.712C1824.04 479.119 1829.89 473.759 1837.6 469.646L1835.83 466.33C1827.6 470.72 1821.22 476.519 1816.78 483.742L1819.98 485.712ZM1837.6 469.646C1845.26 465.559 1854.07 463.491 1864.08 463.491V459.732C1853.54 459.732 1844.11 461.914 1835.83 466.33L1837.6 469.646ZM1864.08 463.491C1875.97 463.491 1886.69 466.5 1896.3 472.505L1898.29 469.317C1888.06 462.922 1876.64 459.732 1864.08 459.732V463.491ZM1896.3 472.505C1905.89 478.501 1913.46 487.08 1918.99 498.311L1922.36 496.651C1916.55 484.855 1908.53 475.72 1898.29 469.317L1896.3 472.505ZM1919 498.332C1924.69 509.539 1927.56 522.612 1927.56 537.603H1931.32C1931.32 522.126 1928.35 508.451 1922.35 496.631L1919 498.332ZM1927.56 537.603C1927.56 552.593 1924.69 565.759 1918.99 577.149L1922.36 578.83C1928.35 566.838 1931.32 553.08 1931.32 537.603H1927.56ZM1918.99 577.16C1913.46 588.395 1905.88 597.069 1896.28 603.245L1898.31 606.407C1908.54 599.829 1916.56 590.612 1922.36 578.82L1918.99 577.16ZM1896.3 603.232C1886.69 609.237 1875.97 612.246 1864.08 612.246V616.005C1876.64 616.005 1888.06 612.815 1898.29 606.42L1896.3 603.232ZM1864.08 612.246C1853.88 612.246 1845.06 610.258 1837.58 606.349L1835.84 609.68C1843.95 613.919 1853.38 616.005 1864.08 616.005V612.246ZM1837.61 606.365C1830.07 602.252 1824.21 596.882 1819.96 590.261L1816.8 592.289C1821.41 599.485 1827.76 605.275 1835.81 609.664L1837.61 606.365ZM1816.5 591.275V612H1820.26V591.275H1816.5ZM1818.38 610.121H1772.94V613.879H1818.38V610.121ZM1774.82 612V415.379H1771.06V612H1774.82ZM1772.94 417.258H1818.38V413.499H1772.94V417.258ZM1816.5 415.379V484.727H1820.26V415.379H1816.5ZM1885.09 537.603C1885.09 525.903 1881.79 516.518 1874.97 509.703L1872.32 512.361C1878.26 518.3 1881.33 526.629 1881.33 537.603H1885.09ZM1875.01 509.741C1868.45 502.803 1860.24 499.322 1850.53 499.322V503.081C1859.24 503.081 1866.44 506.154 1872.28 512.324L1875.01 509.741ZM1850.53 499.322C1840.98 499.322 1832.79 502.809 1826.07 509.722L1828.76 512.343C1834.79 506.147 1842.01 503.081 1850.53 503.081V499.322ZM1826.05 509.741C1819.44 516.727 1816.23 526.18 1816.23 537.868H1819.99C1819.99 526.883 1822.99 518.445 1828.78 512.324L1826.05 509.741ZM1816.23 537.868C1816.23 549.557 1819.44 559.01 1826.05 565.996L1828.78 563.413C1822.99 557.292 1819.99 548.854 1819.99 537.868H1816.23ZM1826.07 566.015C1832.79 572.928 1840.98 576.415 1850.53 576.415V572.656C1842.01 572.656 1834.79 569.589 1828.76 563.394L1826.07 566.015ZM1850.53 576.415C1860.08 576.415 1868.27 572.928 1874.99 566.015L1872.3 563.394C1866.27 569.589 1859.05 572.656 1850.53 572.656V576.415ZM1875.01 565.997C1881.79 558.843 1885.09 549.307 1885.09 537.603H1881.33C1881.33 548.572 1878.26 557.104 1872.28 563.412L1875.01 565.997ZM1952.75 497.481L1951.07 496.631L1951.07 496.641L1951.06 496.651L1952.75 497.481ZM1976.4 470.911L1977.39 472.505L1977.39 472.505L1976.4 470.911ZM2036.98 467.988L2036.08 469.638L2036.08 469.642L2036.09 469.646L2036.98 467.988ZM2055.31 484.727L2053.71 485.712L2057.19 491.367V484.727H2055.31ZM2055.31 463.737V461.857H2053.43V463.737H2055.31ZM2100.75 463.737H2102.63V461.857H2100.75V463.737ZM2100.75 612V613.879H2102.63V612H2100.75ZM2055.31 612H2053.43V613.879H2055.31V612ZM2055.31 591.009H2057.19V584.595L2053.73 589.995L2055.31 591.009ZM2036.71 607.749L2035.83 606.09L2035.82 606.095L2035.81 606.099L2036.71 607.749ZM1976.4 604.826L1975.38 606.407L1975.39 606.413L1975.4 606.42L1976.4 604.826ZM1952.75 577.99L1951.06 578.81L1951.07 578.825L1951.07 578.841L1952.75 577.99ZM2045.75 511.032L2044.38 512.324L2044.39 512.333L2044.4 512.343L2045.75 511.032ZM1999.78 511.032L1998.43 509.722L1998.43 509.722L1999.78 511.032ZM1999.78 564.705L1998.4 565.978L1998.41 565.997L1998.43 566.015L1999.78 564.705ZM2045.75 564.705L2044.4 563.394L2044.39 563.403L2044.38 563.413L2045.75 564.705ZM1946.13 537.603C1946.13 522.603 1948.92 509.523 1954.43 498.311L1951.06 496.651C1945.25 508.467 1942.37 522.135 1942.37 537.603H1946.13ZM1954.42 498.332C1960.13 487.09 1967.79 478.505 1977.39 472.505L1975.4 469.317C1965.16 475.717 1957.06 484.844 1951.07 496.631L1954.42 498.332ZM1977.39 472.505C1987 466.5 1997.72 463.491 2009.61 463.491V459.732C1997.05 459.732 1985.63 462.922 1975.4 469.317L1977.39 472.505ZM2009.61 463.491C2019.8 463.491 2028.6 465.562 2036.08 469.638L2037.88 466.338C2029.76 461.912 2020.32 459.732 2009.61 459.732V463.491ZM2036.09 469.646C2043.8 473.759 2049.65 479.119 2053.71 485.712L2056.91 483.742C2052.47 476.519 2046.09 470.72 2037.86 466.33L2036.09 469.646ZM2057.19 484.727V463.737H2053.43V484.727H2057.19ZM2055.31 465.616H2100.75V461.857H2055.31V465.616ZM2098.87 463.737V612H2102.63V463.737H2098.87ZM2100.75 610.121H2055.31V613.879H2100.75V610.121ZM2057.19 612V591.009H2053.43V612H2057.19ZM2053.73 589.995C2049.49 596.606 2043.54 601.975 2035.83 606.09L2037.6 609.407C2045.82 605.02 2052.27 599.229 2056.89 592.024L2053.73 589.995ZM2035.81 606.099C2028.34 610.175 2019.54 612.246 2009.34 612.246V616.005C2020.05 616.005 2029.5 613.825 2037.61 609.399L2035.81 606.099ZM2009.34 612.246C1997.64 612.246 1987 609.24 1977.39 603.232L1975.4 606.42C1985.63 612.812 1996.96 616.005 2009.34 616.005V612.246ZM1977.41 603.245C1967.8 597.066 1960.13 588.384 1954.42 577.139L1951.07 578.841C1957.05 590.623 1965.15 599.833 1975.38 606.407L1977.41 603.245ZM1954.44 577.17C1948.91 565.775 1946.13 552.601 1946.13 537.603H1942.37C1942.37 553.072 1945.25 566.823 1951.06 578.81L1954.44 577.17ZM2057.19 537.868C2057.19 526.166 2053.89 516.706 2047.09 509.722L2044.4 512.343C2050.36 518.466 2053.43 526.897 2053.43 537.868H2057.19ZM2047.11 509.741C2040.56 502.811 2032.44 499.322 2022.89 499.322V503.081C2031.41 503.081 2038.54 506.146 2044.38 512.324L2047.11 509.741ZM2022.89 499.322C2013.35 499.322 2005.16 502.809 1998.43 509.722L2001.13 512.343C2007.15 506.147 2014.38 503.081 2022.89 503.081V499.322ZM1998.43 509.722C1991.8 516.539 1988.6 525.917 1988.6 537.603H1992.36C1992.36 526.615 1995.35 518.279 2001.13 512.342L1998.43 509.722ZM1988.6 537.603C1988.6 549.293 1991.8 558.822 1998.4 565.978L2001.16 563.431C1995.35 557.125 1992.36 548.586 1992.36 537.603H1988.6ZM1998.43 566.015C2005.16 572.928 2013.35 576.415 2022.89 576.415V572.656C2014.38 572.656 2007.15 569.589 2001.13 563.394L1998.43 566.015ZM2022.89 576.415C2032.44 576.415 2040.56 572.926 2047.11 565.996L2044.38 563.413C2038.54 569.591 2031.41 572.656 2022.89 572.656V576.415ZM2047.09 566.015C2053.89 559.031 2057.19 549.571 2057.19 537.868H2053.43C2053.43 548.839 2050.36 557.27 2044.4 563.394L2047.09 566.015ZM2183.81 575.598L2182.64 574.127L2181.93 574.691V575.598H2183.81ZM2192.05 568.956L2190.85 567.507L2193.09 570.52L2192.05 568.956ZM2232.97 533.617L2231.7 532.229L2231.69 532.234L2231.69 532.24L2232.97 533.617ZM2263.79 458.157L2262.34 459.354L2262.34 459.354L2263.79 458.157ZM2232.7 459.751L2231.2 458.615L2231.2 458.624L2232.7 459.751ZM2227.12 481.008V482.887H2229V481.008H2227.12ZM2183.28 481.008L2181.4 480.963L2181.36 482.887H2183.28V481.008ZM2192.85 443.278L2191.24 442.294L2191.24 442.304L2191.23 442.315L2192.85 443.278ZM2217.03 420.958L2216.22 419.26L2216.21 419.265L2217.03 420.958ZM2298.07 429.992L2296.73 431.31L2296.73 431.316L2296.74 431.321L2298.07 429.992ZM2294.88 525.115L2296.34 526.291L2296.35 526.283L2294.88 525.115ZM2245.46 572.41L2244.31 570.921L2239.93 574.289H2245.46V572.41ZM2317.2 572.41H2319.08V570.531H2317.2V572.41ZM2317.2 609.343V611.222H2319.08V609.343H2317.2ZM2183.81 609.343H2181.93V611.222H2183.81V609.343ZM2184.98 577.07C2187.99 574.679 2190.19 572.926 2191.57 571.814C2192.25 571.26 2192.75 570.857 2193.04 570.611C2193.16 570.51 2193.32 570.378 2193.42 570.272C2193.44 570.253 2193.47 570.222 2193.51 570.184C2193.53 570.158 2193.61 570.072 2193.69 569.951C2193.72 569.895 2193.81 569.758 2193.88 569.566C2193.92 569.45 2194.13 568.878 2193.85 568.204C2193.49 567.317 2192.68 567.086 2192.3 567.049C2191.96 567.015 2191.69 567.085 2191.62 567.106C2191.42 567.159 2191.28 567.232 2191.25 567.246C2191.2 567.274 2191.16 567.299 2191.13 567.314C2191.08 567.344 2191.03 567.373 2191.01 567.392L2193.09 570.52C2193.1 570.516 2193.08 570.528 2193.05 570.547C2193.03 570.555 2193 570.576 2192.95 570.6C2192.93 570.611 2192.79 570.681 2192.6 570.733C2192.53 570.753 2192.27 570.823 2191.93 570.79C2191.55 570.752 2190.74 570.522 2190.38 569.635C2190.1 568.963 2190.31 568.392 2190.35 568.277C2190.42 568.086 2190.5 567.951 2190.54 567.897C2190.61 567.78 2190.69 567.699 2190.7 567.68C2190.73 567.648 2190.76 567.625 2190.77 567.614C2190.8 567.581 2190.78 567.601 2190.62 567.733C2190.36 567.952 2189.9 568.334 2189.21 568.888C2187.84 569.99 2185.65 571.736 2182.64 574.127L2184.98 577.07ZM2193.25 570.404C2210.62 556.046 2224.29 544.241 2234.25 534.994L2231.69 532.24C2221.81 541.416 2208.2 553.169 2190.85 567.507L2193.25 570.404ZM2234.23 535.006C2244.43 525.708 2253.03 515.946 2260.03 505.717L2256.92 503.594C2250.11 513.558 2241.7 523.104 2231.7 532.229L2234.23 535.006ZM2260.03 505.717C2267.09 495.394 2270.72 485.199 2270.72 475.162H2266.96C2266.96 484.256 2263.68 493.723 2256.92 503.594L2260.03 505.717ZM2270.72 475.162C2270.72 467.625 2268.97 461.478 2265.24 456.96L2262.34 459.354C2265.34 462.984 2266.96 468.174 2266.96 475.162H2270.72ZM2265.24 456.96C2261.42 452.34 2255.77 450.166 2248.64 450.166V453.925C2254.98 453.925 2259.43 455.826 2262.34 459.354L2265.24 456.96ZM2248.64 450.166C2241.36 450.166 2235.47 452.986 2231.2 458.615L2234.2 460.887C2237.72 456.242 2242.47 453.925 2248.64 453.925V450.166ZM2231.2 458.624C2227.14 464.033 2225.24 471.578 2225.24 481.008H2229C2229 472.015 2230.82 465.389 2234.21 460.879L2231.2 458.624ZM2227.12 479.128H2183.28V482.887H2227.12V479.128ZM2185.16 481.052C2185.51 466.23 2188.64 453.991 2194.46 444.24L2191.23 442.315C2185 452.757 2181.76 465.672 2181.4 480.963L2185.16 481.052ZM2194.45 444.261C2200.47 434.447 2208.27 427.266 2217.84 422.651L2216.21 419.265C2205.94 424.216 2197.62 431.915 2191.24 442.294L2194.45 444.261ZM2217.83 422.657C2227.65 418.004 2238.53 415.664 2250.5 415.664V411.905C2238.03 411.905 2226.59 414.347 2216.22 419.26L2217.83 422.657ZM2250.5 415.664C2271.28 415.664 2286.57 420.986 2296.73 431.31L2299.41 428.674C2288.3 417.388 2271.89 411.905 2250.5 411.905V415.664ZM2296.74 431.321C2307.14 441.725 2312.39 455.305 2312.39 472.239H2316.15C2316.15 454.455 2310.6 439.87 2299.39 428.663L2296.74 431.321ZM2312.39 472.239C2312.39 490.727 2306.1 507.948 2293.4 523.946L2296.35 526.283C2309.52 509.688 2316.15 491.659 2316.15 472.239H2312.39ZM2293.41 523.939C2280.59 539.919 2264.23 555.582 2244.31 570.921L2246.6 573.899C2266.71 558.416 2283.3 542.549 2296.34 526.291L2293.41 523.939ZM2245.46 574.289H2317.2V570.531H2245.46V574.289ZM2315.32 572.41V609.343H2319.08V572.41H2315.32ZM2317.2 607.464H2183.81V611.222H2317.2V607.464ZM2185.69 609.343V575.598H2181.93V609.343H2185.69ZM2343.31 607.217L2342.01 608.57L2342.03 608.594L2342.06 608.617L2343.31 607.217ZM2343.31 571.879L2342.03 570.503L2342.02 570.514L2342.01 570.526L2343.31 571.879ZM2382.1 571.879L2380.8 573.231L2380.81 573.243L2380.82 573.254L2382.1 571.879ZM2382.1 607.217L2383.38 608.595L2383.39 608.593L2382.1 607.217ZM2362.97 612.246C2355.39 612.246 2349.31 610.067 2344.57 605.818L2342.06 608.617C2347.59 613.579 2354.62 616.005 2362.97 616.005V612.246ZM2344.62 605.864C2340.02 601.437 2337.75 596.08 2337.75 589.681H2333.99C2333.99 597.098 2336.68 603.432 2342.01 608.57L2344.62 605.864ZM2337.75 589.681C2337.75 583.089 2340.04 577.649 2344.62 573.231L2342.01 570.526C2336.67 575.674 2333.99 582.101 2333.99 589.681H2337.75ZM2344.59 573.254C2349.33 568.84 2355.41 566.584 2362.97 566.584V562.825C2354.6 562.825 2347.56 565.352 2342.03 570.503L2344.59 573.254ZM2362.97 566.584C2370.35 566.584 2376.24 568.832 2380.8 573.231L2383.41 570.526C2378.05 565.36 2371.19 562.825 2362.97 562.825V566.584ZM2380.82 573.254C2385.58 577.677 2387.93 583.111 2387.93 589.681H2391.69C2391.69 582.079 2388.91 575.645 2383.39 570.503L2380.82 573.254ZM2387.93 589.681C2387.93 596.058 2385.59 601.408 2380.82 605.842L2383.39 608.593C2388.9 603.461 2391.69 597.12 2391.69 589.681H2387.93ZM2380.83 605.84C2376.27 610.074 2370.37 612.246 2362.97 612.246V616.005C2371.17 616.005 2378.02 613.572 2383.38 608.595L2380.83 605.84ZM2429.73 440.355L2428.17 439.301L2428.16 439.312L2429.73 440.355ZM2543.71 440.355L2542.15 441.397L2542.16 441.408L2543.71 440.355ZM2543.71 584.898L2542.16 583.845L2542.15 583.856L2543.71 584.898ZM2429.73 584.898L2428.16 585.941L2428.17 585.951L2429.73 584.898ZM2511.03 471.177L2509.29 471.875L2509.29 471.886L2511.03 471.177ZM2462.67 471.177L2464.41 471.886L2464.42 471.875L2462.67 471.177ZM2458.95 542.385L2457.1 542.714L2457.1 542.722L2458.95 542.385ZM2467.46 561.516L2466.03 562.739L2466.05 562.767L2466.08 562.793L2467.46 561.516ZM2505.98 561.516L2504.58 560.264L2504.58 560.268L2505.98 561.516ZM2514.75 542.385L2516.6 542.722L2516.6 542.714L2514.75 542.385ZM2414.07 512.361C2414.07 482.107 2419.88 458.516 2431.29 441.397L2428.16 439.312C2416.19 457.267 2410.31 481.68 2410.31 512.361H2414.07ZM2431.28 441.408C2442.72 424.514 2461.09 415.929 2486.85 415.929V412.171C2460.18 412.171 2440.47 421.123 2428.17 439.301L2431.28 441.408ZM2486.85 415.929C2512.61 415.929 2530.89 424.513 2542.15 441.397L2545.28 439.312C2533.15 421.123 2513.52 412.171 2486.85 412.171V415.929ZM2542.16 441.408C2553.74 458.525 2559.64 482.111 2559.64 512.361H2563.39C2563.39 481.675 2557.42 457.258 2545.27 439.301L2542.16 441.408ZM2559.64 512.361C2559.64 542.97 2553.74 566.731 2542.16 583.845L2545.27 585.951C2557.42 567.992 2563.39 543.395 2563.39 512.361H2559.64ZM2542.15 583.856C2530.89 600.739 2512.61 609.323 2486.85 609.323V613.082C2513.52 613.082 2533.15 604.13 2545.28 585.941L2542.15 583.856ZM2486.85 609.323C2461.09 609.323 2442.72 600.739 2431.28 583.845L2428.17 585.951C2440.47 604.13 2460.18 613.082 2486.85 613.082V609.323ZM2431.29 583.856C2419.88 566.74 2414.07 542.974 2414.07 512.361H2410.31C2410.31 543.391 2416.19 567.983 2428.16 585.941L2431.29 583.856ZM2518.76 512.361C2518.76 494.379 2516.8 480.365 2512.77 470.467L2509.29 471.886C2513.05 481.118 2515 494.561 2515 512.361H2518.76ZM2512.78 470.479C2510.69 465.273 2507.46 461.279 2503.04 458.608C2498.64 455.949 2493.21 454.683 2486.85 454.683V458.442C2492.72 458.442 2497.43 459.612 2501.09 461.825C2504.73 464.025 2507.47 467.337 2509.29 471.875L2512.78 470.479ZM2486.85 454.683C2480.5 454.683 2475.07 455.949 2470.67 458.608C2466.25 461.279 2463.01 465.273 2460.93 470.479L2464.42 471.875C2466.23 467.337 2468.97 464.025 2472.61 461.825C2476.27 459.612 2480.98 458.442 2486.85 458.442V454.683ZM2460.93 470.467C2456.9 480.365 2454.95 494.379 2454.95 512.361H2458.71C2458.71 494.561 2460.65 481.118 2464.41 471.886L2460.93 470.467ZM2454.95 512.361C2454.95 524.469 2455.66 534.596 2457.1 542.714L2460.8 542.056C2459.41 534.233 2458.71 524.344 2458.71 512.361H2454.95ZM2457.1 542.722C2458.57 550.774 2461.52 557.478 2466.03 562.739L2468.88 560.293C2464.89 555.635 2462.17 549.585 2460.8 542.049L2457.1 542.722ZM2466.08 562.793C2470.96 568.068 2477.99 570.57 2486.85 570.57V566.811C2478.71 566.811 2472.81 564.53 2468.83 560.239L2466.08 562.793ZM2486.85 570.57C2495.71 570.57 2502.67 568.069 2507.39 562.765L2504.58 560.268C2500.79 564.528 2495 566.811 2486.85 566.811V570.57ZM2507.39 562.768C2512.08 557.504 2515.13 550.79 2516.6 542.722L2512.9 542.049C2511.54 549.568 2508.74 555.608 2504.58 560.264L2507.39 562.768ZM2516.6 542.714C2518.04 534.596 2518.76 524.469 2518.76 512.361H2515C2515 524.344 2514.29 534.233 2512.9 542.056L2516.6 542.714Z" fill="url(#paint0_linear_4801_5137)" fill-opacity="0.4"/>
<path d="M884 833.564C890.6 823.817 907.984 804.023 924.721 802.823C945.642 801.324 950.872 807.697 958.717 815.194C966.562 822.692 976.649 847.434 988.604 845.935C1000.56 844.435 1006.16 837.687 1008.78 824.192C1011.39 810.696 1015.88 795.701 1028.95 794.201C1033.43 793.451 1042.03 793.077 1053.61 803.198C1065.19 813.32 1085.74 812.945 1099.56 788.953C1113.38 764.961 1121.97 748.466 1140.65 746.591C1159.33 744.717 1200.43 764.961 1246.75 770.209C1293.08 775.457 1333.42 777.706 1364.06 765.71C1394.69 753.714 1432.05 733.096 1456.33 719.975C1480.62 706.854 1548.98 664.493 1606.89 692.234C1616.23 695.233 1624.07 697.857 1633.78 716.976C1643.5 736.095 1659.94 728.222 1663.67 712.852C1667.41 697.482 1669.28 690.359 1676 687.735" stroke="url(#paint1_linear_4801_5137)" stroke-width="2"/>
<path d="M559 833.564C552.4 823.817 535.016 804.023 518.279 802.823C497.358 801.324 492.128 807.697 484.283 815.194C476.438 822.692 466.351 847.434 454.396 845.935C442.442 844.435 436.838 837.687 434.223 824.192C431.608 810.696 427.125 795.701 414.049 794.201C409.566 793.451 400.974 793.077 389.392 803.198C377.811 813.32 357.264 812.945 343.442 788.953C329.619 764.961 321.026 748.466 302.347 746.591C283.668 744.717 242.574 764.961 196.249 770.209C149.925 775.457 109.577 777.706 78.9434 765.71C48.3094 753.714 10.951 733.096 -13.3321 719.975C-37.6151 706.854 -105.981 664.493 -163.887 692.234C-173.226 695.233 -181.072 697.857 -190.785 716.976C-200.498 736.095 -216.936 728.222 -220.672 712.852C-224.408 697.482 -226.275 690.359 -233 687.735" stroke="url(#paint2_linear_4801_5137)" stroke-width="2"/>
<defs>
<filter id="filter0_f_4801_5137" x="-519" y="68" width="2400" height="878" filterUnits="userSpaceOnUse" color-interpolation-filters="sRGB">
<feFlood flood-opacity="0" result="BackgroundImageFix"/>
<feBlend mode="normal" in="SourceGraphic" in2="BackgroundImageFix" result="shape"/>
<feGaussianBlur stdDeviation="134.5" result="effect1_foregroundBlur_4801_5137"/>
</filter>
<filter id="filter1_f_4801_5137" x="266" y="458" width="879" height="815" filterUnits="userSpaceOnUse" color-interpolation-filters="sRGB">
<feFlood flood-opacity="0" result="BackgroundImageFix"/>
<feBlend mode="normal" in="SourceGraphic" in2="BackgroundImageFix" result="shape"/>
<feGaussianBlur stdDeviation="88.5" result="effect1_foregroundBlur_4801_5137"/>
</filter>
<filter id="filter2_f_4801_5137" x="-334" y="-661" width="1130" height="1073" filterUnits="userSpaceOnUse" color-interpolation-filters="sRGB">
<feFlood flood-opacity="0" result="BackgroundImageFix"/>
<feBlend mode="normal" in="SourceGraphic" in2="BackgroundImageFix" result="shape"/>
<feGaussianBlur stdDeviation="137" result="effect1_foregroundBlur_4801_5137"/>
</filter>
<linearGradient id="paint0_linear_4801_5137" x1="584.5" y1="421.175" x2="584.5" y2="620.675" gradientUnits="userSpaceOnUse">
<stop stop-color="#BFDDFF"/>
<stop offset="1" stop-color="#BFDDFF" stop-opacity="0"/>
</linearGradient>
<linearGradient id="paint1_linear_4801_5137" x1="1441.5" y1="728.5" x2="884" y2="835" gradientUnits="userSpaceOnUse">
<stop stop-color="#FD7D00"/>
<stop offset="1" stop-color="#43311F"/>
</linearGradient>
<linearGradient id="paint2_linear_4801_5137" x1="1.49997" y1="728.5" x2="559" y2="835" gradientUnits="userSpaceOnUse">
<stop stop-color="#FD7D00"/>
<stop offset="1" stop-color="#43311F"/>
</linearGradient>
</defs>
</svg>
