<svg width="1440" height="946" viewBox="0 0 1440 946" fill="none" xmlns="http://www.w3.org/2000/svg">
<path d="M581.969 403.694C575.659 404.228 569.665 406.682 564.791 410.725L584.584 434.584L581.969 403.694Z" fill="#4133B8"/>
<g filter="url(#filter0_f_3401_5077)">
<ellipse cx="681" cy="507" rx="931" ry="170" fill="black"/>
</g>
<g filter="url(#filter1_f_3401_5077)">
<ellipse cx="231" cy="-124.5" rx="291" ry="262.5" fill="white" fill-opacity="0.26"/>
</g>
<path d="M-67.0581 607.217L-67.7708 608.956L-67.7708 608.956L-67.0581 607.217ZM-93.0971 587.555L-94.6117 588.668L-94.6044 588.678L-94.597 588.688L-93.0971 587.555ZM-103.194 556.202V554.323H-105.129L-105.073 556.256L-103.194 556.202ZM-54.8357 556.202L-52.9661 556.01L-53.1392 554.323H-54.8357V556.202ZM-47.6617 572.144L-48.9289 573.532L-48.912 573.548L-48.8949 573.563L-47.6617 572.144ZM-15.7771 572.941L-14.6279 574.429L-14.6072 574.413L-14.587 574.396L-15.7771 572.941ZM-14.7143 548.497L-16.0432 549.826L-16.0242 549.845L-16.0047 549.863L-14.7143 548.497ZM-26.1396 541.057L-26.8965 542.777L-26.8842 542.782L-26.8719 542.788L-26.1396 541.057ZM-45.2703 534.414L-45.8249 536.21L-45.8159 536.213L-45.8068 536.215L-45.2703 534.414ZM-94.4257 506.781L-92.9266 505.647L-92.9266 505.647L-94.4257 506.781ZM-83.7975 437.698L-82.6466 439.184L-82.6401 439.178L-82.6336 439.173L-83.7975 437.698ZM15.0446 437.698L13.8808 439.173L13.8872 439.178L13.8937 439.184L15.0446 437.698ZM35.2382 478.616V480.496H37.2149L37.1152 478.521L35.2382 478.616ZM-13.9172 478.616L-15.7933 478.727L-15.6892 480.496H-13.9172V478.616ZM-20.5598 464.534L-21.793 465.952L-21.7751 465.968L-21.7567 465.983L-20.5598 464.534ZM-49.5216 463.737L-48.311 465.174L-48.2894 465.156L-48.2684 465.137L-49.5216 463.737ZM-46.0674 490.307L-45.1079 488.691L-45.1079 488.691L-46.0674 490.307ZM-19.497 501.201L-18.8948 499.421L-18.9066 499.417L-18.9184 499.413L-19.497 501.201ZM9.73054 512.892L8.89006 514.573L8.89791 514.577L8.9058 514.581L9.73054 512.892ZM29.3927 529.1L27.9072 530.251L27.9072 530.251L29.3927 529.1ZM29.3927 585.43L27.8045 584.425L27.7971 584.436L27.7898 584.448L29.3927 585.43ZM6.01068 606.154L5.17019 604.474L5.17019 604.474L6.01068 606.154ZM-30.3909 611.981C-43.8264 611.981 -55.8009 609.8 -66.3454 605.478L-67.7708 608.956C-56.7046 613.492 -44.2343 615.739 -30.3909 615.739V611.981ZM-66.3454 605.478C-76.8625 601.168 -85.2615 594.813 -91.5973 586.423L-94.597 588.688C-87.8247 597.656 -78.8643 604.41 -67.7708 608.956L-66.3454 605.478ZM-91.5826 586.442C-97.7038 578.111 -100.971 568.042 -101.315 556.148L-105.073 556.256C-104.709 568.807 -101.244 579.64 -94.6117 588.668L-91.5826 586.442ZM-103.194 558.081H-54.8357V554.323H-103.194V558.081ZM-56.7053 556.394C-55.9622 563.638 -53.4254 569.427 -48.9289 573.532L-46.3944 570.756C-50.0462 567.422 -52.292 562.583 -52.9661 556.01L-56.7053 556.394ZM-48.8949 573.563C-44.4093 577.463 -38.6254 579.338 -31.7194 579.338V575.579C-37.9215 575.579 -42.7657 573.911 -46.4284 570.726L-48.8949 573.563ZM-31.7194 579.338C-24.723 579.338 -18.9562 577.773 -14.6279 574.429L-16.9262 571.454C-20.392 574.132 -25.2534 575.579 -31.7194 575.579V579.338ZM-14.587 574.396C-10.2106 570.815 -8.05221 565.919 -8.05221 559.922H-11.811C-11.811 564.908 -13.5496 568.691 -16.9672 571.487L-14.587 574.396ZM-8.05221 559.922C-8.05221 554.828 -9.83882 550.516 -13.4238 547.13L-16.0047 549.863C-13.2128 552.5 -11.811 555.804 -11.811 559.922H-8.05221ZM-13.3853 547.168C-16.5949 543.958 -20.6171 541.353 -25.4073 539.326L-26.8719 542.788C-22.451 544.658 -18.8563 547.012 -16.0432 549.826L-13.3853 547.168ZM-25.3827 539.337C-29.9179 537.341 -36.3822 535.101 -44.7338 532.613L-45.8068 536.215C-37.5076 538.688 -31.2181 540.876 -26.8965 542.777L-25.3827 539.337ZM-44.7158 532.619C-56.7084 528.915 -66.44 525.228 -73.9388 521.566L-75.5883 524.943C-67.8533 528.721 -57.9228 532.474 -45.8249 536.21L-44.7158 532.619ZM-73.9388 521.566C-81.271 517.985 -87.5999 512.692 -92.9266 505.647L-95.9248 507.914C-90.269 515.395 -83.4898 521.085 -75.5883 524.943L-73.9388 521.566ZM-92.9266 505.647C-98.1087 498.794 -100.783 489.749 -100.783 478.351H-104.542C-104.542 490.334 -101.725 500.243 -95.9248 507.914L-92.9266 505.647ZM-100.783 478.351C-100.783 461.512 -94.7176 448.534 -82.6466 439.184L-84.9484 436.212C-98.0307 446.346 -104.542 460.471 -104.542 478.351H-100.783ZM-82.6336 439.173C-70.4669 429.577 -54.5255 424.698 -34.6421 424.698V420.939C-55.1459 420.939 -71.9747 425.979 -84.9614 436.222L-82.6336 439.173ZM-34.6421 424.698C-14.3957 424.698 1.71953 429.581 13.8808 439.173L16.2085 436.222C3.21637 425.975 -13.7929 420.939 -34.6421 420.939V424.698ZM13.8937 439.184C25.989 448.553 32.4999 461.658 33.3612 478.711L37.1152 478.521C36.2051 460.502 29.2537 446.327 16.1956 436.212L13.8937 439.184ZM35.2382 476.737H-13.9172V480.496H35.2382V476.737ZM-12.041 478.506C-12.4212 472.043 -14.8275 466.832 -19.3628 463.085L-21.7567 465.983C-18.1438 468.967 -16.1217 473.144 -15.7933 478.727L-12.041 478.506ZM-19.3266 463.116C-23.8028 459.223 -29.4927 457.34 -36.2364 457.34V461.099C-30.2262 461.099 -25.4651 462.759 -21.793 465.952L-19.3266 463.116ZM-36.2364 457.34C-42.0853 457.34 -46.9938 458.953 -50.7748 462.336L-48.2684 465.137C-45.3182 462.498 -41.3698 461.099 -36.2364 461.099V457.34ZM-50.7322 462.299C-54.6242 465.577 -56.4494 470.329 -56.4494 476.225H-52.6906C-52.6906 471.139 -51.1502 467.565 -48.311 465.174L-50.7322 462.299ZM-56.4494 476.225C-56.4494 482.983 -53.2004 488.258 -47.0269 491.923L-45.1079 488.691C-50.2711 485.626 -52.6906 481.512 -52.6906 476.225H-56.4494ZM-47.0269 491.923C-41.174 495.398 -32.1559 499.081 -20.0755 502.989L-18.9184 499.413C-30.9286 495.527 -39.6241 491.947 -45.1079 488.691L-47.0269 491.923ZM-20.0991 502.981C-8.09764 507.041 1.55636 510.906 8.89006 514.573L10.571 511.211C3.02527 507.438 -6.80573 503.51 -18.8948 499.421L-20.0991 502.981ZM8.9058 514.581C16.2494 518.167 22.5818 523.38 27.9072 530.251L30.8782 527.949C25.2211 520.649 18.4455 515.057 10.5553 511.203L8.9058 514.581ZM27.9072 530.251C33.0859 536.934 35.7501 545.621 35.7501 556.468H39.5089C39.5089 544.995 36.682 535.438 30.8782 527.949L27.9072 530.251ZM35.7501 556.468C35.7501 566.753 33.0986 576.057 27.8045 584.425L30.9809 586.434C36.6692 577.443 39.5089 567.439 39.5089 556.468H35.7501ZM27.7898 584.448C22.6822 592.791 15.1711 599.473 5.17019 604.474L6.85117 607.835C17.3981 602.562 25.475 595.428 30.9955 586.411L27.7898 584.448ZM5.17019 604.474C-4.79191 609.455 -16.6261 611.981 -30.3909 611.981V615.739C-16.168 615.739 -3.73455 613.128 6.85117 607.835L5.17019 604.474ZM227.139 425.475H229.019V423.596H227.139V425.475ZM227.139 612V613.879H229.019V612H227.139ZM181.704 612H179.824V613.879H181.704V612ZM181.704 535.211H183.583V533.332H181.704V535.211ZM111.026 535.211V533.332H109.147V535.211H111.026ZM111.026 612V613.879H112.906V612H111.026ZM65.5908 612H63.7114V613.879H65.5908V612ZM65.5908 425.475V423.596H63.7114V425.475H65.5908ZM111.026 425.475H112.906V423.596H111.026V425.475ZM111.026 498.544H109.147V500.424H111.026V498.544ZM181.704 498.544V500.424H183.583V498.544H181.704ZM181.704 425.475V423.596H179.824V425.475H181.704ZM225.26 425.475V612H229.019V425.475H225.26ZM227.139 610.121H181.704V613.879H227.139V610.121ZM183.583 612V535.211H179.824V612H183.583ZM181.704 533.332H111.026V537.091H181.704V533.332ZM109.147 535.211V612H112.906V535.211H109.147ZM111.026 610.121H65.5908V613.879H111.026V610.121ZM67.4702 612V425.475H63.7114V612H67.4702ZM65.5908 427.355H111.026V423.596H65.5908V427.355ZM109.147 425.475V498.544H112.906V425.475H109.147ZM111.026 500.424H181.704V496.665H111.026V500.424ZM183.583 498.544V425.475H179.824V498.544H183.583ZM181.704 427.355H227.139V423.596H181.704V427.355ZM305.375 425.475H307.254V423.596H305.375V425.475ZM305.375 612V613.879H307.254V612H305.375ZM259.939 612H258.06V613.879H259.939V612ZM259.939 425.475V423.596H258.06V425.475H259.939ZM303.495 425.475V612H307.254V425.475H303.495ZM305.375 610.121H259.939V613.879H305.375V610.121ZM261.819 612V425.475H258.06V612H261.819ZM259.939 427.355H305.375V423.596H259.939V427.355ZM451.226 516.346L450.692 514.544L450.834 518.184L451.226 516.346ZM477.265 532.554L475.776 533.702L475.782 533.709L475.788 533.717L477.265 532.554ZM470.622 598.449L471.828 599.891L471.83 599.889L470.622 598.449ZM338.301 612H336.422V613.879H338.301V612ZM338.301 425.475V423.596H336.422V425.475H338.301ZM466.637 438.495L465.448 439.951L465.454 439.955L465.46 439.96L466.637 438.495ZM474.076 501.201L472.612 500.023L472.603 500.034L472.595 500.045L474.076 501.201ZM383.737 500.935H381.857V502.815H383.737V500.935ZM430.501 496.153L431.691 497.607L431.698 497.602L430.501 496.153ZM430.501 466.925L429.272 468.348L429.288 468.361L429.304 468.374L430.501 466.925ZM383.737 461.877V459.998H381.857V461.877H383.737ZM434.752 570.284L435.949 571.733L435.955 571.728L434.752 570.284ZM434.486 539.728L433.249 541.143L433.263 541.155L433.278 541.167L434.486 539.728ZM383.737 534.149V532.269H381.857V534.149H383.737ZM383.737 575.333H381.857V577.212H383.737V575.333ZM450.834 518.184C461.217 520.397 469.503 525.563 475.776 533.702L478.753 531.407C471.919 522.54 462.845 516.901 451.617 514.508L450.834 518.184ZM475.788 533.717C482.076 541.704 485.217 550.858 485.217 561.25H488.975C488.975 550.032 485.562 540.056 478.742 531.392L475.788 533.717ZM485.217 561.25C485.217 576.338 479.931 588.189 469.414 597.009L471.83 599.889C483.279 590.287 488.975 577.339 488.975 561.25H485.217ZM469.417 597.007C459.059 605.667 444.399 610.121 425.187 610.121V613.879C444.945 613.879 460.575 609.299 471.828 599.891L469.417 597.007ZM425.187 610.121H338.301V613.879H425.187V610.121ZM340.181 612V425.475H336.422V612H340.181ZM338.301 427.355H422.264V423.596H338.301V427.355ZM422.264 427.355C440.948 427.355 455.263 431.633 465.448 439.951L467.825 437.039C456.754 427.997 441.487 423.596 422.264 423.596V427.355ZM465.46 439.96C475.785 448.254 480.965 459.476 480.965 473.834H484.724C484.724 458.433 479.099 446.095 467.814 437.03L465.46 439.96ZM480.965 473.834C480.965 484.467 478.143 493.151 472.612 500.023L475.54 502.38C481.701 494.726 484.724 485.165 484.724 473.834H480.965ZM472.595 500.045C467.188 506.973 459.915 511.812 450.692 514.544L451.76 518.148C461.668 515.213 469.628 509.955 475.558 502.357L472.595 500.045ZM383.737 502.815H413.496V499.056H383.737V502.815ZM413.496 502.815C421.169 502.815 427.33 501.175 431.691 497.607L429.311 494.698C425.877 497.507 420.702 499.056 413.496 499.056V502.815ZM431.698 497.602C436.294 493.805 438.491 488.349 438.491 481.539H434.733C434.733 487.483 432.856 491.769 429.304 494.704L431.698 497.602ZM438.491 481.539C438.491 474.729 436.294 469.273 431.698 465.476L429.304 468.374C432.856 471.309 434.733 475.595 434.733 481.539H438.491ZM431.729 465.503C427.367 461.735 421.189 459.998 413.496 459.998V463.756C420.681 463.756 425.841 465.384 429.272 468.348L431.729 465.503ZM413.496 459.998H383.737V463.756H413.496V459.998ZM381.857 461.877V500.935H385.616V461.877H381.857ZM417.216 577.212C425.081 577.212 431.417 575.477 435.949 571.733L433.555 568.835C429.939 571.823 424.584 573.453 417.216 573.453V577.212ZM435.955 571.728C440.715 567.761 443.008 562.137 443.008 555.139H439.25C439.25 561.249 437.291 565.722 433.549 568.841L435.955 571.728ZM443.008 555.139C443.008 548.113 440.608 542.416 435.695 538.289L433.278 541.167C437.221 544.48 439.25 549.057 439.25 555.139H443.008ZM435.724 538.314C431.026 534.203 424.596 532.269 416.684 532.269V536.028C424.006 536.028 429.444 537.813 433.249 541.143L435.724 538.314ZM416.684 532.269H383.737V536.028H416.684V532.269ZM381.857 534.149V575.333H385.616V534.149H381.857ZM383.737 577.212H417.216V573.453H383.737V577.212ZM629.561 579.053L631.341 578.45L630.909 577.173H629.561V579.053ZM559.947 579.053V577.173H558.599L558.167 578.45L559.947 579.053ZM548.787 612V613.879H550.135L550.567 612.603L548.787 612ZM501.226 612L499.459 611.361L498.547 613.879H501.226V612ZM568.715 425.475V423.596H567.396L566.948 424.836L568.715 425.475ZM621.325 425.475L623.092 424.836L622.643 423.596H621.325V425.475ZM688.813 612V613.879H691.492L690.581 611.361L688.813 612ZM640.721 612L638.941 612.603L639.373 613.879H640.721V612ZM617.87 543.98V545.859H620.491L619.65 543.377L617.87 543.98ZM594.754 475.694L596.534 475.091L594.744 469.802L592.972 475.097L594.754 475.694ZM571.903 543.98L570.121 543.383L569.293 545.859H571.903V543.98ZM629.561 577.173H559.947V580.932H629.561V577.173ZM558.167 578.45L547.007 611.397L550.567 612.603L561.727 579.656L558.167 578.45ZM548.787 610.121H501.226V613.879H548.787V610.121ZM502.993 612.639L570.482 426.115L566.948 424.836L499.459 611.361L502.993 612.639ZM568.715 427.355H621.325V423.596H568.715V427.355ZM619.557 426.115L687.046 612.639L690.581 611.361L623.092 424.836L619.557 426.115ZM688.813 610.121H640.721V613.879H688.813V610.121ZM642.501 611.397L631.341 578.45L627.781 579.656L638.941 612.603L642.501 611.397ZM619.65 543.377L596.534 475.091L592.974 476.296L616.09 544.582L619.65 543.377ZM592.972 475.097L570.121 543.383L573.686 544.576L596.536 476.29L592.972 475.097ZM571.903 545.859H617.87V542.1H571.903V545.859ZM754.789 461.877V459.998H752.91V461.877H754.789ZM754.789 499.607H752.91V501.486H754.789V499.607ZM815.635 499.607H817.515V497.728H815.635V499.607ZM815.635 534.68V536.559H817.515V534.68H815.635ZM754.789 534.68V532.801H752.91V534.68H754.789ZM754.789 575.598H752.91V577.478H754.789V575.598ZM823.607 575.598H825.486V573.719H823.607V575.598ZM823.607 612V613.879H825.486V612H823.607ZM709.354 612H707.474V613.879H709.354V612ZM709.354 425.475V423.596H707.474V425.475H709.354ZM823.607 425.475H825.486V423.596H823.607V425.475ZM823.607 461.877V463.756H825.486V461.877H823.607ZM752.91 461.877V499.607H756.669V461.877H752.91ZM754.789 501.486H815.635V497.728H754.789V501.486ZM813.756 499.607V534.68H817.515V499.607H813.756ZM815.635 532.801H754.789V536.559H815.635V532.801ZM752.91 534.68V575.598H756.669V534.68H752.91ZM754.789 577.478H823.607V573.719H754.789V577.478ZM821.727 575.598V612H825.486V575.598H821.727ZM823.607 610.121H709.354V613.879H823.607V610.121ZM711.233 612V425.475H707.474V612H711.233ZM709.354 427.355H823.607V423.596H709.354V427.355ZM821.727 425.475V461.877H825.486V425.475H821.727ZM823.607 459.998H754.789V463.756H823.607V459.998ZM857.355 469.317L858.998 470.229L859.003 470.221L857.355 469.317ZM890.568 435.572L891.49 437.21L891.496 437.206L890.568 435.572ZM996.053 440.886L997.173 439.377L997.173 439.377L996.053 440.886ZM1027.67 488.713V490.592H1030.11L1029.49 488.235L1027.67 488.713ZM977.719 488.713L976.023 489.523L976.534 490.592H977.719V488.713ZM961.777 470.911L960.804 472.519L960.813 472.524L960.822 472.53L961.777 470.911ZM904.651 479.413L906.054 480.664L906.054 480.664L904.651 479.413ZM961.777 566.033L960.822 564.414L960.813 564.42L960.804 564.425L961.777 566.033ZM977.719 548.231V546.352H976.534L976.023 547.421L977.719 548.231ZM1027.67 548.231L1029.49 548.709L1030.11 546.352H1027.67V548.231ZM996.053 596.058L997.162 597.575L997.173 597.567L996.053 596.058ZM890.568 601.372L889.632 603.001L889.644 603.008L889.656 603.015L890.568 601.372ZM857.355 567.627L858.998 566.715L858.998 566.715L857.355 567.627ZM847.278 518.472C847.278 500.329 851.2 484.265 858.998 470.229L855.712 468.404C847.568 483.064 843.519 499.77 843.519 518.472H847.278ZM859.003 470.221C866.809 455.997 877.631 445.006 891.49 437.21L889.647 433.934C875.164 442.081 863.844 453.586 855.708 468.412L859.003 470.221ZM891.496 437.206C905.535 429.234 921.418 425.229 939.192 425.229V421.47C920.831 421.47 904.298 425.614 889.64 433.938L891.496 437.206ZM939.192 425.229C960.985 425.229 979.533 430.975 994.934 442.396L997.173 439.377C981.043 427.415 961.683 421.47 939.192 421.47V425.229ZM994.934 442.396C1010.33 453.815 1020.64 469.383 1025.85 489.191L1029.49 488.235C1024.07 467.656 1013.3 451.339 997.173 439.377L994.934 442.396ZM1027.67 486.834H977.719V490.592H1027.67V486.834ZM979.416 487.904C975.548 479.799 969.987 473.571 962.732 469.292L960.822 472.53C967.384 476.399 972.452 482.039 976.023 489.523L979.416 487.904ZM962.75 469.303C955.696 465.033 947.647 462.92 938.661 462.92V466.679C947.034 466.679 954.396 468.64 960.804 472.519L962.75 469.303ZM938.661 462.92C924.175 462.92 912.312 467.989 903.247 478.163L906.054 480.664C914.349 471.353 925.159 466.679 938.661 466.679V462.92ZM903.247 478.163C894.19 488.33 889.752 501.834 889.752 518.472H893.511C893.511 502.517 897.752 489.982 906.054 480.664L903.247 478.163ZM889.752 518.472C889.752 535.11 894.19 548.614 903.247 558.781L906.054 556.28C897.752 546.962 893.511 534.427 893.511 518.472H889.752ZM903.247 558.781C912.312 568.955 924.175 574.024 938.661 574.024V570.265C925.159 570.265 914.349 565.591 906.054 556.28L903.247 558.781ZM938.661 574.024C947.647 574.024 955.696 571.911 962.75 567.641L960.804 564.425C954.396 568.304 947.034 570.265 938.661 570.265V574.024ZM962.732 567.652C969.987 563.373 975.548 557.145 979.416 549.04L976.023 547.421C972.452 554.905 967.384 560.545 960.822 564.414L962.732 567.652ZM977.719 550.11H1027.67V546.352H977.719V550.11ZM1025.85 547.753C1020.64 567.561 1010.33 583.129 994.934 594.548L997.173 597.567C1013.3 585.605 1024.07 569.287 1029.49 548.709L1025.85 547.753ZM994.945 594.54C979.544 605.788 960.992 611.449 939.192 611.449V615.208C961.677 615.208 981.032 609.355 997.162 597.575L994.945 594.54ZM939.192 611.449C921.411 611.449 905.522 607.53 891.481 599.729L889.656 603.015C904.31 611.156 920.838 615.208 939.192 615.208V611.449ZM891.505 599.743C877.632 591.765 866.804 580.765 858.998 566.715L855.712 568.54C863.849 583.185 875.163 594.682 889.632 603.001L891.505 599.743ZM858.998 566.715C851.2 552.679 847.278 536.615 847.278 518.472H843.519C843.519 537.174 847.568 553.88 855.712 568.54L858.998 566.715ZM1095.35 601.638L1094.43 603.277L1094.44 603.281L1095.35 601.638ZM1060.54 567.627L1058.92 568.568L1058.92 568.58L1058.93 568.591L1060.54 567.627ZM1060.54 469.051L1058.93 468.087L1058.93 468.094L1058.92 468.101L1060.54 469.051ZM1095.35 435.041L1094.44 433.397L1094.43 433.402L1095.35 435.041ZM1191.8 435.041L1190.88 436.68L1190.89 436.685L1191.8 435.041ZM1226.34 469.051L1224.71 469.985L1224.72 469.993L1224.72 470L1226.34 469.051ZM1226.34 567.627L1227.97 568.577L1227.97 568.568L1226.34 567.627ZM1191.8 601.638L1192.72 603.277L1192.72 603.277L1191.8 601.638ZM1179.31 557.531L1177.92 556.265L1177.92 556.272L1177.91 556.279L1179.31 557.531ZM1179.31 478.882L1177.91 480.134L1177.92 480.147L1177.94 480.16L1179.31 478.882ZM1107.57 478.616L1106.2 477.338L1106.19 477.345L1106.18 477.352L1107.57 478.616ZM1107.57 557.796L1106.17 559.048L1106.18 559.061L1106.2 559.074L1107.57 557.796ZM1143.71 611.981C1126.48 611.981 1110.67 607.981 1096.26 599.994L1094.44 603.281C1109.43 611.591 1125.87 615.739 1143.71 615.739V611.981ZM1096.27 599.998C1082.04 592.013 1070.67 580.911 1062.16 566.663L1058.93 568.591C1067.78 583.394 1079.62 594.965 1094.43 603.277L1096.27 599.998ZM1062.17 566.686C1053.85 552.291 1049.67 536.146 1049.67 518.206H1045.91C1045.91 536.756 1050.24 553.559 1058.92 568.568L1062.17 566.686ZM1049.67 518.206C1049.67 500.266 1053.85 484.214 1062.17 470L1058.92 468.101C1050.24 482.939 1045.91 499.656 1045.91 518.206H1049.67ZM1062.16 470.015C1070.67 455.767 1082.04 444.665 1096.27 436.68L1094.43 433.402C1079.62 441.713 1067.78 453.285 1058.93 468.087L1062.16 470.015ZM1096.26 436.685C1110.67 428.698 1126.48 424.698 1143.71 424.698V420.939C1125.87 420.939 1109.43 425.087 1094.44 433.397L1096.26 436.685ZM1143.71 424.698C1160.94 424.698 1176.65 428.698 1190.88 436.68L1192.72 433.402C1177.9 425.087 1161.55 420.939 1143.71 420.939V424.698ZM1190.89 436.685C1205.3 444.667 1216.56 455.759 1224.71 469.985L1227.97 468.116C1219.48 453.292 1207.71 441.711 1192.71 433.397L1190.89 436.685ZM1224.72 470C1233.04 484.214 1237.22 500.266 1237.22 518.206H1240.98C1240.98 499.656 1236.65 482.939 1227.97 468.101L1224.72 470ZM1237.22 518.206C1237.22 536.146 1233.04 552.291 1224.72 566.686L1227.97 568.568C1236.65 553.559 1240.98 536.756 1240.98 518.206H1237.22ZM1224.72 566.678C1216.39 580.918 1205.11 592.015 1190.88 599.998L1192.72 603.277C1207.54 594.963 1219.3 583.387 1227.97 568.577L1224.72 566.678ZM1190.88 599.998C1176.65 607.981 1160.94 611.981 1143.71 611.981V615.739C1161.55 615.739 1177.9 611.591 1192.72 603.277L1190.88 599.998ZM1143.71 574.289C1159.05 574.289 1171.46 569.151 1180.72 558.782L1177.91 556.279C1169.46 565.749 1158.13 570.531 1143.71 570.531V574.289ZM1180.7 558.796C1190.12 548.459 1194.74 534.865 1194.74 518.206H1190.99C1190.99 534.14 1186.58 546.762 1177.92 556.265L1180.7 558.796ZM1194.74 518.206C1194.74 501.378 1190.12 487.773 1180.69 477.604L1177.94 480.16C1186.58 489.476 1190.99 502.087 1190.99 518.206H1194.74ZM1180.72 477.63C1171.46 467.261 1159.05 462.123 1143.71 462.123V465.882C1158.13 465.882 1169.46 470.663 1177.91 480.134L1180.72 477.63ZM1143.71 462.123C1128.21 462.123 1115.63 467.159 1106.2 477.338L1108.95 479.894C1117.58 470.588 1129.1 465.882 1143.71 465.882V462.123ZM1106.18 477.352C1096.94 487.525 1092.41 501.216 1092.41 518.206H1096.17C1096.17 501.895 1100.5 489.193 1108.96 479.88L1106.18 477.352ZM1092.41 518.206C1092.41 535.027 1096.94 548.707 1106.17 559.048L1108.98 556.545C1100.5 547.046 1096.17 534.333 1096.17 518.206H1092.41ZM1106.2 559.074C1115.63 569.253 1128.21 574.289 1143.71 574.289V570.531C1129.1 570.531 1117.58 565.824 1108.95 556.518L1106.2 559.074ZM1309.81 425.475H1311.69V423.596H1309.81V425.475ZM1309.81 612V613.879H1311.69V612H1309.81ZM1264.38 612H1262.5V613.879H1264.38V612ZM1264.38 425.475V423.596H1262.5V425.475H1264.38ZM1307.93 425.475V612H1311.69V425.475H1307.93ZM1309.81 610.121H1264.38V613.879H1309.81V610.121ZM1266.25 612V425.475H1262.5V612H1266.25ZM1264.38 427.355H1309.81V423.596H1264.38V427.355ZM1509.6 612V613.879H1511.48V612H1509.6ZM1464.16 612L1462.6 613.036L1463.15 613.879H1464.16V612ZM1388.17 496.95L1389.74 495.914L1386.29 490.695V496.95H1388.17ZM1388.17 612V613.879H1390.05V612H1388.17ZM1342.74 612H1340.86V613.879H1342.74V612ZM1342.74 425.475V423.596H1340.86V425.475H1342.74ZM1388.17 425.475L1389.74 424.443L1389.19 423.596H1388.17V425.475ZM1464.16 541.057L1462.59 542.089L1466.04 547.336V541.057H1464.16ZM1464.16 425.475V423.596H1462.28V425.475H1464.16ZM1509.6 425.475H1511.48V423.596H1509.6V425.475ZM1509.6 610.121H1464.16V613.879H1509.6V610.121ZM1465.73 610.964L1389.74 495.914L1386.6 497.986L1462.6 613.036L1465.73 610.964ZM1386.29 496.95V612H1390.05V496.95H1386.29ZM1388.17 610.121H1342.74V613.879H1388.17V610.121ZM1344.62 612V425.475H1340.86V612H1344.62ZM1342.74 427.355H1388.17V423.596H1342.74V427.355ZM1386.6 426.508L1462.59 542.089L1465.73 540.024L1389.74 424.443L1386.6 426.508ZM1466.04 541.057V425.475H1462.28V541.057H1466.04ZM1464.16 427.355H1509.6V423.596H1464.16V427.355ZM1507.72 425.475V612H1511.48V425.475H1507.72Z" fill="url(#paint0_linear_3401_5077)" fill-opacity="0.4"/>
<path d="M884 833.564C890.6 823.817 907.984 804.023 924.721 802.823C945.642 801.324 950.872 807.697 958.717 815.194C966.562 822.692 976.649 847.434 988.604 845.935C1000.56 844.435 1006.16 837.687 1008.78 824.192C1011.39 810.696 1015.88 795.701 1028.95 794.201C1033.43 793.451 1042.03 793.077 1053.61 803.198C1065.19 813.32 1085.74 812.945 1099.56 788.953C1113.38 764.961 1121.97 748.466 1140.65 746.591C1159.33 744.717 1200.43 764.961 1246.75 770.209C1293.08 775.457 1333.42 777.706 1364.06 765.71C1394.69 753.714 1432.05 733.096 1456.33 719.975C1480.62 706.854 1548.98 664.493 1606.89 692.234C1616.23 695.233 1624.07 697.857 1633.78 716.976C1643.5 736.095 1659.94 728.222 1663.67 712.852C1667.41 697.482 1669.28 690.359 1676 687.735" stroke="url(#paint1_linear_3401_5077)" stroke-width="2"/>
<path d="M559 833.564C552.4 823.817 535.016 804.023 518.279 802.823C497.358 801.324 492.128 807.697 484.283 815.194C476.438 822.692 466.351 847.434 454.396 845.935C442.442 844.435 436.838 837.687 434.223 824.192C431.608 810.696 427.125 795.701 414.049 794.201C409.566 793.451 400.974 793.077 389.392 803.198C377.811 813.32 357.264 812.945 343.442 788.953C329.619 764.961 321.026 748.466 302.347 746.591C283.668 744.717 242.574 764.961 196.249 770.209C149.925 775.457 109.577 777.706 78.9434 765.71C48.3094 753.714 10.951 733.096 -13.3321 719.975C-37.6151 706.854 -105.981 664.493 -163.887 692.234C-173.226 695.233 -181.072 697.857 -190.785 716.976C-200.498 736.095 -216.936 728.222 -220.672 712.852C-224.408 697.482 -226.275 690.359 -233 687.735" stroke="url(#paint2_linear_3401_5077)" stroke-width="2"/>
<defs>
<filter id="filter0_f_3401_5077" x="-519" y="68" width="2400" height="878" filterUnits="userSpaceOnUse" color-interpolation-filters="sRGB">
<feFlood flood-opacity="0" result="BackgroundImageFix"/>
<feBlend mode="normal" in="SourceGraphic" in2="BackgroundImageFix" result="shape"/>
<feGaussianBlur stdDeviation="134.5" result="effect1_foregroundBlur_3401_5077"/>
</filter>
<filter id="filter1_f_3401_5077" x="-334" y="-661" width="1130" height="1073" filterUnits="userSpaceOnUse" color-interpolation-filters="sRGB">
<feFlood flood-opacity="0" result="BackgroundImageFix"/>
<feBlend mode="normal" in="SourceGraphic" in2="BackgroundImageFix" result="shape"/>
<feGaussianBlur stdDeviation="137" result="effect1_foregroundBlur_3401_5077"/>
</filter>
<linearGradient id="paint0_linear_3401_5077" x1="706.146" y1="421.175" x2="706.146" y2="620.675" gradientUnits="userSpaceOnUse">
<stop stop-color="#BFDDFF"/>
<stop offset="1" stop-color="#BFDDFF" stop-opacity="0"/>
</linearGradient>
<linearGradient id="paint1_linear_3401_5077" x1="1441.5" y1="728.5" x2="884" y2="835" gradientUnits="userSpaceOnUse">
<stop stop-color="#FD7D00"/>
<stop offset="1" stop-color="#43311F"/>
</linearGradient>
<linearGradient id="paint2_linear_3401_5077" x1="1.49997" y1="728.5" x2="559" y2="835" gradientUnits="userSpaceOnUse">
<stop stop-color="#FD7D00"/>
<stop offset="1" stop-color="#43311F"/>
</linearGradient>
</defs>
</svg>
