<svg width="430" height="891" viewBox="0 0 430 891" fill="none" xmlns="http://www.w3.org/2000/svg">
<path opacity="0.5" d="M-25.8877 449.76L-26.6004 451.499L-25.8877 449.76ZM-43.5277 436.44L-45.0423 437.553L-45.035 437.563L-45.0276 437.573L-43.5277 436.44ZM-50.3677 415.2V413.321H-52.3024L-52.2463 415.254L-50.3677 415.2ZM-17.6077 415.2L-15.7382 415.008L-15.9112 413.321H-17.6077V415.2ZM-12.7477 426L-14.0149 427.388L-13.9981 427.403L-13.9809 427.418L-12.7477 426ZM8.85227 426.54L10.0014 428.027L10.0221 428.011L10.0424 427.995L8.85227 426.54ZM9.57227 409.98L8.24335 411.309L8.26232 411.328L8.28184 411.346L9.57227 409.98ZM1.83227 404.94L1.07536 406.66L1.08764 406.666L1.09998 406.671L1.83227 404.94ZM-11.1277 400.44L-11.6823 402.236L-11.6733 402.238L-11.6643 402.241L-11.1277 400.44ZM-44.4277 381.72L-42.9286 380.587L-44.4277 381.72ZM-37.2277 334.92L-36.0768 336.406L-36.0703 336.401L-36.0639 336.396L-37.2277 334.92ZM29.7323 334.92L28.5684 336.396L28.5748 336.401L28.5813 336.406L29.7323 334.92ZM43.4123 362.64V364.519H45.389L45.2893 362.545L43.4123 362.64ZM10.1123 362.64L8.23612 362.75L8.34019 364.519H10.1123V362.64ZM5.61227 353.1L4.37905 354.518L4.397 354.534L4.41532 354.549L5.61227 353.1ZM-14.0077 352.56L-12.7972 353.998L-12.7756 353.979L-12.7546 353.961L-14.0077 352.56ZM-11.6677 370.56L-10.7082 368.944L-11.6677 370.56ZM6.33227 377.94L6.93443 376.16L6.92263 376.156L6.91078 376.152L6.33227 377.94ZM26.1323 385.86L25.2918 387.541L25.2996 387.545L25.3075 387.549L26.1323 385.86ZM39.4523 396.84L37.9668 397.991H37.9668L39.4523 396.84ZM39.4523 435L37.864 433.995L37.8566 434.007L37.8494 434.019L39.4523 435ZM23.6123 449.04L22.7718 447.359L23.6123 449.04ZM-1.04773 452.381C-10.0838 452.381 -18.1159 450.914 -25.175 448.021L-26.6004 451.499C-19.0196 454.606 -10.4917 456.139 -1.04773 456.139V452.381ZM-25.175 448.021C-32.2068 445.139 -37.8061 440.899 -42.0279 435.307L-45.0276 437.573C-40.3694 443.741 -34.2086 448.381 -26.6004 451.499L-25.175 448.021ZM-42.0132 435.327C-46.0774 429.795 -48.2586 423.097 -48.4891 415.146L-52.2463 415.254C-51.9968 423.863 -49.618 431.325 -45.0423 437.553L-42.0132 435.327ZM-50.3677 417.079H-17.6077V413.321H-50.3677V417.079ZM-19.4773 415.392C-18.9628 420.408 -17.1973 424.482 -14.0149 427.388L-11.4805 424.612C-13.8182 422.478 -15.2926 419.352 -15.7382 415.008L-19.4773 415.392ZM-13.9809 427.418C-10.8095 430.176 -6.73968 431.479 -1.94773 431.479V427.721C-6.03578 427.721 -9.16592 426.624 -11.5145 424.582L-13.9809 427.418ZM-1.94773 431.479C2.87747 431.479 6.93021 430.4 10.0014 428.027L7.70312 425.053C5.49432 426.76 2.34706 427.721 -1.94773 427.721V431.479ZM10.0424 427.995C13.1617 425.442 14.6917 421.946 14.6917 417.72H10.9329C10.9329 420.934 9.82279 423.318 7.66217 425.085L10.0424 427.995ZM14.6917 417.72C14.6917 414.112 13.4193 411.028 10.8627 408.614L8.28184 411.346C10.0453 413.012 10.9329 415.088 10.9329 417.72H14.6917ZM10.9012 408.651C8.66297 406.413 5.86925 404.607 2.56455 403.209L1.09998 406.671C4.03529 407.913 6.40157 409.467 8.24335 411.309L10.9012 408.651ZM2.58917 403.22C-0.517632 401.853 -4.92508 400.327 -10.5912 398.639L-11.6643 402.241C-6.05038 403.913 -1.81783 405.387 1.07536 406.66L2.58917 403.22ZM-10.5732 398.644C-18.6805 396.141 -25.2411 393.654 -30.283 391.191L-31.9325 394.569C-26.6544 397.146 -19.8949 399.699 -11.6823 402.236L-10.5732 398.644ZM-30.283 391.191C-35.1583 388.81 -39.3732 385.289 -42.9286 380.587L-45.9268 382.853C-42.0423 387.991 -37.3772 391.91 -31.9325 394.569L-30.283 391.191ZM-42.9286 380.587C-46.3395 376.075 -48.1283 370.088 -48.1283 362.46H-51.8871C-51.8871 370.672 -49.9559 377.525 -45.9268 382.853L-42.9286 380.587ZM-48.1283 362.46C-48.1283 351.22 -44.0912 342.614 -36.0768 336.406L-38.3787 333.434C-47.4043 340.426 -51.8871 350.18 -51.8871 362.46H-48.1283ZM-36.0639 336.396C-27.9539 329.999 -17.2976 326.719 -3.92773 326.719V322.961C-17.9179 322.961 -29.4616 326.401 -38.3916 333.444L-36.0639 336.396ZM-3.92773 326.719C9.6909 326.719 20.4639 330.003 28.5684 336.396L30.8961 333.444C21.9607 326.397 10.2936 322.961 -3.92773 322.961V326.719ZM28.5813 336.406C36.6199 342.633 40.9597 351.338 41.5353 362.735L45.2893 362.545C44.6648 350.182 39.8846 340.407 30.8832 333.434L28.5813 336.406ZM43.4123 360.761H10.1123V364.519H43.4123V360.761ZM11.9884 362.53C11.7225 358.01 10.0304 354.312 6.80921 351.651L4.41532 354.549C6.71416 356.448 8.022 359.11 8.23612 362.75L11.9884 362.53ZM6.84548 351.682C3.68341 348.932 -0.320992 347.621 -5.00774 347.621V351.379C-1.05447 351.379 2.02113 352.468 4.37905 354.518L6.84548 351.682ZM-5.00774 347.621C-9.08548 347.621 -12.5656 348.748 -15.2609 351.159L-12.7546 353.961C-10.8899 352.292 -8.36999 351.379 -5.00774 351.379V347.621ZM-15.2183 351.122C-18.0248 353.486 -19.3071 356.895 -19.3071 361.02H-15.5483C-15.5483 357.705 -14.5507 355.474 -12.7972 353.998L-15.2183 351.122ZM-19.3071 361.02C-19.3071 365.836 -16.9724 369.596 -12.6272 372.176L-10.7082 368.944C-14.0431 366.964 -15.5483 364.364 -15.5483 361.02H-19.3071ZM-12.6272 372.176C-8.60265 374.566 -2.44135 377.077 5.75375 379.728L6.91078 376.152C-1.21411 373.523 -7.05282 371.114 -10.7082 368.944L-12.6272 372.176ZM5.73011 379.72C13.8463 382.465 20.3578 385.074 25.2918 387.541L26.9728 384.179C21.8267 381.606 15.1382 378.935 6.93443 376.16L5.73011 379.72ZM25.3075 387.549C30.1942 389.935 34.4126 393.405 37.9668 397.991L40.9378 395.689C37.0519 390.675 32.3903 386.825 26.957 384.171L25.3075 387.549ZM37.9668 397.991C41.3742 402.388 43.1529 408.133 43.1529 415.38H46.9117C46.9117 407.507 44.9703 400.892 40.9378 395.689L37.9668 397.991ZM43.1529 415.38C43.1529 422.237 41.387 428.427 37.864 433.995L41.0405 436.005C44.9575 429.813 46.9117 422.923 46.9117 415.38H43.1529ZM37.8494 434.019C34.4559 439.561 29.4588 444.016 22.7718 447.359L24.4528 450.721C31.6858 447.104 37.2486 442.199 41.0551 435.981L37.8494 434.019ZM22.7718 447.359C16.1236 450.683 8.20323 452.381 -1.04773 452.381V456.139C8.6613 456.139 17.1809 454.357 24.4528 450.721L22.7718 447.359ZM173.414 326.64H175.294V324.761H173.414V326.64ZM173.414 453V454.879H175.294V453H173.414ZM142.634 453H140.755V454.879H142.634V453ZM142.634 400.98H144.514V399.101H142.634V400.98ZM94.7545 400.98V399.101H92.8751V400.98H94.7545ZM94.7545 453V454.879H96.6339V453H94.7545ZM63.9745 453H62.0951V454.879H63.9745V453ZM63.9745 326.64V324.761H62.0951V326.64H63.9745ZM94.7545 326.64H96.6339V324.761H94.7545V326.64ZM94.7545 376.14H92.8751V378.019H94.7545V376.14ZM142.634 376.14V378.019H144.514V376.14H142.634ZM142.634 326.64V324.761H140.755V326.64H142.634ZM171.535 326.64V453H175.294V326.64H171.535ZM173.414 451.121H142.634V454.879H173.414V451.121ZM144.514 453V400.98H140.755V453H144.514ZM142.634 399.101H94.7545V402.859H142.634V399.101ZM92.8751 400.98V453H96.6339V400.98H92.8751ZM94.7545 451.121H63.9745V454.879H94.7545V451.121ZM65.8538 453V326.64H62.0951V453H65.8538ZM63.9745 328.519H94.7545V324.761H63.9745V328.519ZM92.8751 326.64V376.14H96.6339V326.64H92.8751ZM94.7545 378.019H142.634V374.261H94.7545V378.019ZM144.514 376.14V326.64H140.755V376.14H144.514ZM142.634 328.519H173.414V324.761H142.634V328.519ZM226.415 326.64H228.294V324.761H226.415V326.64ZM226.415 453V454.879H228.294V453H226.415ZM195.635 453H193.755V454.879H195.635V453ZM195.635 326.64V324.761H193.755V326.64H195.635ZM224.535 326.64V453H228.294V326.64H224.535ZM226.415 451.121H195.635V454.879H226.415V451.121ZM197.514 453V326.64H193.755V453H197.514ZM195.635 328.519H226.415V324.761H195.635V328.519ZM325.221 388.2L324.687 386.398L324.829 390.038L325.221 388.2ZM342.861 399.18L341.372 400.327L341.378 400.335L341.384 400.343L342.861 399.18ZM338.361 443.82L339.566 445.262L339.568 445.26L338.361 443.82ZM248.721 453H246.841V454.879H248.721V453ZM248.721 326.64V324.761H246.841V326.64H248.721ZM335.661 335.46L334.472 336.916L334.478 336.92L334.484 336.925L335.661 335.46ZM340.701 377.94L339.236 376.762L339.228 376.773L339.219 376.784L340.701 377.94ZM279.501 377.76H277.621V379.639H279.501V377.76ZM311.181 374.52L312.371 375.975L312.378 375.969L311.181 374.52ZM311.181 354.72L309.952 356.142L309.968 356.156L309.984 356.169L311.181 354.72ZM279.501 351.3V349.421H277.621V351.3H279.501ZM314.061 424.74L315.258 426.189L315.264 426.184L314.061 424.74ZM313.881 404.04L312.643 405.454L312.657 405.467L312.672 405.479L313.881 404.04ZM279.501 400.26V398.381H277.621V400.26H279.501ZM279.501 428.16H277.621V430.039H279.501V428.16ZM324.829 390.038C331.727 391.508 337.213 394.931 341.372 400.327L344.349 398.033C339.628 391.909 333.354 388.012 325.612 386.362L324.829 390.038ZM341.384 400.343C345.557 405.644 347.641 411.713 347.641 418.62H351.4C351.4 410.887 349.044 403.996 344.337 398.017L341.384 400.343ZM347.641 418.62C347.641 428.679 344.127 436.531 337.153 442.38L339.568 445.26C347.475 438.629 351.4 429.68 351.4 418.62H347.641ZM337.155 442.378C330.283 448.124 320.508 451.121 307.581 451.121V454.879C321.053 454.879 331.798 451.756 339.566 445.262L337.155 442.378ZM307.581 451.121H248.721V454.879H307.581V451.121ZM250.6 453V326.64H246.841V453H250.6ZM248.721 328.519H305.601V324.761H248.721V328.519ZM305.601 328.519C318.171 328.519 327.715 331.398 334.472 336.916L336.849 334.004C329.206 327.762 318.71 324.761 305.601 324.761V328.519ZM334.484 336.925C341.323 342.419 344.761 349.842 344.761 359.4H348.52C348.52 348.798 344.638 340.261 336.838 333.995L334.484 336.925ZM344.761 359.4C344.761 366.491 342.882 372.233 339.236 376.762L342.165 379.118C346.439 373.807 348.52 367.189 348.52 359.4H344.761ZM339.219 376.784C335.64 381.369 330.824 384.58 324.687 386.398L325.754 390.002C332.577 387.98 338.081 384.351 342.182 379.096L339.219 376.784ZM279.501 379.639H299.661V375.881H279.501V379.639ZM299.661 379.639C304.934 379.639 309.267 378.514 312.371 375.975L309.99 373.065C307.814 374.846 304.467 375.881 299.661 375.881V379.639ZM312.378 375.969C315.659 373.258 317.2 369.373 317.2 364.62H313.441C313.441 368.507 312.222 371.222 309.984 373.071L312.378 375.969ZM317.2 364.62C317.2 359.867 315.659 355.982 312.378 353.271L309.984 356.169C312.222 358.018 313.441 360.733 313.441 364.62H317.2ZM312.409 353.298C309.303 350.616 304.955 349.421 299.661 349.421V353.179C304.447 353.179 307.778 354.264 309.952 356.142L312.409 353.298ZM299.661 349.421H279.501V353.179H299.661V349.421ZM277.621 351.3V377.76H281.38V351.3H277.621ZM302.181 430.039C307.589 430.039 312.039 428.847 315.258 426.189L312.864 423.291C310.562 425.193 307.092 426.281 302.181 426.281V430.039ZM315.264 426.184C318.653 423.36 320.26 419.364 320.26 414.48H316.501C316.501 418.476 315.228 421.32 312.857 423.296L315.264 426.184ZM320.26 414.48C320.26 409.568 318.574 405.528 315.089 402.601L312.672 405.479C315.187 407.592 316.501 410.512 316.501 414.48H320.26ZM315.118 402.626C311.792 399.715 307.276 398.381 301.821 398.381V402.139C306.685 402.139 310.209 403.325 312.643 405.454L315.118 402.626ZM301.821 398.381H279.501V402.139H301.821V398.381ZM277.621 400.26V428.16H281.38V400.26H277.621ZM279.501 430.039H302.181V426.281H279.501V430.039ZM446.033 430.68L447.813 430.077L447.381 428.801H446.033V430.68ZM398.873 430.68V428.801H397.525L397.093 430.077L398.873 430.68ZM391.313 453V454.879H392.661L393.093 453.603L391.313 453ZM359.093 453L357.326 452.361L356.414 454.879H359.093V453ZM404.813 326.64V324.761H403.494L403.046 326.001L404.813 326.64ZM440.453 326.64L442.22 326.001L441.772 324.761H440.453V326.64ZM486.173 453V454.879H488.852L487.94 452.361L486.173 453ZM453.593 453L451.813 453.603L452.245 454.879H453.593V453ZM438.113 406.92V408.799H440.733L439.893 406.317L438.113 406.92ZM422.453 360.66L424.233 360.057L422.443 354.768L420.671 360.064L422.453 360.66ZM406.973 406.92L405.191 406.324L404.362 408.799H406.973V406.92ZM446.033 428.801H398.873V432.559H446.033V428.801ZM397.093 430.077L389.533 452.397L393.093 453.603L400.653 431.283L397.093 430.077ZM391.313 451.121H359.093V454.879H391.313V451.121ZM360.86 453.639L406.58 327.279L403.046 326.001L357.326 452.361L360.86 453.639ZM404.813 328.519H440.453V324.761H404.813V328.519ZM438.686 327.279L484.406 453.639L487.94 452.361L442.22 326.001L438.686 327.279ZM486.173 451.121H453.593V454.879H486.173V451.121ZM455.373 452.397L447.813 430.077L444.253 431.283L451.813 453.603L455.373 452.397ZM439.893 406.317L424.233 360.057L420.673 361.263L436.333 407.523L439.893 406.317ZM420.671 360.064L405.191 406.324L408.755 407.516L424.235 361.256L420.671 360.064ZM406.973 408.799H438.113V405.041H406.973V408.799ZM-24.7768 531.3V529.421H-26.6562V531.3H-24.7768ZM-24.7768 556.86H-26.6562V558.739H-24.7768V556.86ZM16.4432 556.86H18.3226V554.981H16.4432V556.86ZM16.4432 580.62V582.499H18.3226V580.62H16.4432ZM-24.7768 580.62V578.741H-26.6562V580.62H-24.7768ZM-24.7768 608.34H-26.6562V610.219H-24.7768V608.34ZM21.8432 608.34H23.7226V606.461H21.8432V608.34ZM21.8432 633V634.879H23.7226V633H21.8432ZM-55.5568 633H-57.4362V634.879H-55.5568V633ZM-55.5568 506.64V504.761H-57.4362V506.64H-55.5568ZM21.8432 506.64H23.7226V504.761H21.8432V506.64ZM21.8432 531.3V533.179H23.7226V531.3H21.8432ZM-26.6562 531.3V556.86H-22.8974V531.3H-26.6562ZM-24.7768 558.739H16.4432V554.981H-24.7768V558.739ZM14.5638 556.86V580.62H18.3226V556.86H14.5638ZM16.4432 578.741H-24.7768V582.499H16.4432V578.741ZM-26.6562 580.62V608.34H-22.8974V580.62H-26.6562ZM-24.7768 610.219H21.8432V606.461H-24.7768V610.219ZM19.9638 608.34V633H23.7226V608.34H19.9638ZM21.8432 631.121H-55.5568V634.879H21.8432V631.121ZM-53.6774 633V506.64H-57.4362V633H-53.6774ZM-55.5568 508.519H21.8432V504.761H-55.5568V508.519ZM19.9638 506.64V531.3H23.7226V506.64H19.9638ZM21.8432 529.421H-24.7768V533.179H21.8432V529.421ZM44.706 536.34L46.3489 537.253L46.3536 537.244L44.706 536.34ZM67.206 513.48L68.1274 515.118L68.1341 515.114L67.206 513.48ZM138.666 517.08L139.785 515.57L138.666 517.08ZM160.086 549.48V551.359H162.524L161.904 549.002L160.086 549.48ZM126.246 549.48L124.55 550.29L125.061 551.359H126.246V549.48ZM115.446 537.42L114.473 539.028L114.482 539.033L114.491 539.039L115.446 537.42ZM76.746 543.18L78.1493 544.43L76.746 543.18ZM115.446 601.86L114.491 600.241L114.482 600.247L114.473 600.252L115.446 601.86ZM126.246 589.8V587.921H125.061L124.55 588.99L126.246 589.8ZM160.086 589.8L161.904 590.278L162.524 587.921H160.086V589.8ZM138.666 622.2L139.774 623.718L139.785 623.71L138.666 622.2ZM67.206 625.8L66.2692 627.429L66.2812 627.436L66.2933 627.443L67.206 625.8ZM44.706 602.94L46.3489 602.027L44.706 602.94ZM38.4854 569.64C38.4854 557.44 41.1222 546.661 46.3489 537.253L43.0631 535.427C37.4898 545.459 34.7266 556.88 34.7266 569.64H38.4854ZM46.3536 537.244C51.5882 527.706 58.8393 520.343 68.1274 515.118L66.2846 511.842C56.3727 517.417 48.6238 525.294 43.0584 535.436L46.3536 537.244ZM68.1341 515.114C77.5448 509.77 88.1996 507.079 100.146 507.079V503.321C87.6124 503.321 76.3072 506.15 66.2779 511.846L68.1341 515.114ZM100.146 507.079C114.797 507.079 127.231 510.94 137.547 518.59L139.785 515.57C128.741 507.38 115.495 503.321 100.146 503.321V507.079ZM137.547 518.59C147.861 526.238 154.77 536.663 158.269 549.958L161.904 549.002C158.202 534.937 150.831 523.762 139.785 515.57L137.547 518.59ZM160.086 547.601H126.246V551.359H160.086V547.601ZM127.942 548.67C125.274 543.08 121.428 538.766 116.401 535.801L114.491 539.039C118.824 541.594 122.178 545.32 124.55 550.29L127.942 548.67ZM116.419 535.812C111.536 532.857 105.973 531.401 99.786 531.401V535.159C105.359 535.159 110.236 536.463 114.473 539.028L116.419 535.812ZM99.786 531.401C89.8137 531.401 81.6075 534.898 75.3428 541.93L78.1493 544.43C83.6445 538.262 90.7983 535.159 99.786 535.159V531.401ZM75.3428 541.93C69.0851 548.954 66.0466 558.258 66.0466 569.64H69.8054C69.8054 558.942 72.6469 550.606 78.1493 544.43L75.3428 541.93ZM66.0466 569.64C66.0466 581.022 69.0851 590.326 75.3428 597.35L78.1493 594.85C72.6469 588.674 69.8054 580.338 69.8054 569.64H66.0466ZM75.3428 597.35C81.6075 604.382 89.8137 607.879 99.786 607.879V604.121C90.7983 604.121 83.6445 601.018 78.1493 594.85L75.3428 597.35ZM99.786 607.879C105.973 607.879 111.536 606.423 116.419 603.468L114.473 600.252C110.236 602.817 105.359 604.121 99.786 604.121V607.879ZM116.401 603.479C121.428 600.514 125.274 596.2 127.942 590.609L124.55 588.99C122.178 593.96 118.824 597.686 114.491 600.241L116.401 603.479ZM126.246 591.679H160.086V587.921H126.246V591.679ZM158.269 589.322C154.77 602.617 147.861 613.042 137.547 620.69L139.785 623.71C150.831 615.518 158.202 604.343 161.904 590.278L158.269 589.322ZM137.558 620.682C127.242 628.216 114.803 632.021 100.146 632.021V635.779C115.489 635.779 128.73 631.784 139.774 623.718L137.558 620.682ZM100.146 632.021C88.1925 632.021 77.5321 629.387 68.1187 624.157L66.2933 627.443C76.32 633.013 87.6196 635.779 100.146 635.779V632.021ZM68.1428 624.171C58.8402 618.822 51.5837 611.45 46.3489 602.027L43.0631 603.853C48.6283 613.87 56.3718 621.738 66.2692 627.429L68.1428 624.171ZM46.3489 602.027C41.1222 592.619 38.4854 581.84 38.4854 569.64H34.7266C34.7266 582.4 37.4898 593.821 43.0631 603.853L46.3489 602.027ZM205.935 625.98L205.016 627.619L205.024 627.624L205.935 625.98ZM182.355 602.94L180.728 603.881L180.735 603.893L180.742 603.904L182.355 602.94ZM182.355 536.16L180.742 535.196L180.738 535.203L180.733 535.211L182.355 536.16ZM205.935 513.12L205.024 511.476L205.016 511.481L205.935 513.12ZM271.275 513.12L270.356 514.759L270.364 514.764L271.275 513.12ZM294.675 536.16L293.045 537.095L293.049 537.102L293.053 537.109L294.675 536.16ZM294.675 602.94L296.297 603.889L296.302 603.881L294.675 602.94ZM271.275 625.98L272.195 627.619L271.275 625.98ZM262.815 596.1L261.426 594.835L261.42 594.841L261.413 594.848L262.815 596.1ZM262.815 542.82L261.413 544.072L261.425 544.085L261.437 544.098L262.815 542.82ZM214.215 542.64L212.837 541.362L212.831 541.369L212.825 541.376L214.215 542.64ZM214.215 596.28L212.813 597.532L212.825 597.545L212.837 597.558L214.215 596.28ZM238.695 632.381C227.12 632.381 216.515 629.695 206.846 624.336L205.024 627.624C215.275 633.305 226.511 636.139 238.695 636.139V632.381ZM206.855 624.341C197.306 618.984 189.683 611.539 183.969 601.976L180.742 603.904C186.788 614.021 194.885 621.936 205.016 627.619L206.855 624.341ZM183.982 601.999C178.4 592.346 175.595 581.515 175.595 569.46H171.836C171.836 582.125 174.791 593.614 180.728 603.881L183.982 601.999ZM175.595 569.46C175.595 557.405 178.4 546.637 183.977 537.109L180.733 535.211C174.791 545.363 171.836 556.795 171.836 569.46H175.595ZM183.969 537.124C189.683 527.561 197.306 520.116 206.855 514.759L205.016 511.481C194.885 517.164 186.788 525.079 180.742 535.196L183.969 537.124ZM206.846 514.764C216.515 509.405 227.12 506.719 238.695 506.719V502.961C226.511 502.961 215.275 505.795 205.024 511.476L206.846 514.764ZM238.695 506.719C250.271 506.719 260.812 509.405 270.356 514.759L272.195 511.481C262.059 505.795 250.88 502.961 238.695 502.961V506.719ZM270.364 514.764C280.026 520.118 287.576 527.553 293.045 537.095L296.306 535.225C290.495 525.087 282.445 517.162 272.186 511.476L270.364 514.764ZM293.053 537.109C298.631 546.637 301.436 557.405 301.436 569.46H305.195C305.195 556.795 302.24 545.363 296.297 535.211L293.053 537.109ZM301.436 569.46C301.436 581.515 298.631 592.346 293.048 601.999L296.302 603.881C302.24 593.614 305.195 582.125 305.195 569.46H301.436ZM293.053 601.991C287.46 611.546 279.901 618.986 270.356 624.341L272.195 627.619C282.329 621.934 290.37 614.014 296.297 603.889L293.053 601.991ZM270.356 624.341C260.812 629.695 250.271 632.381 238.695 632.381V636.139C250.88 636.139 262.059 633.305 272.195 627.619L270.356 624.341ZM238.695 608.059C249.24 608.059 257.816 604.521 264.217 597.352L261.413 594.848C255.815 601.119 248.311 604.301 238.695 604.301V608.059ZM264.205 597.365C270.705 590.228 273.875 580.862 273.875 569.46H270.116C270.116 580.138 267.166 588.532 261.426 594.835L264.205 597.365ZM273.875 569.46C273.875 557.945 270.708 548.568 264.193 541.542L261.437 544.098C267.162 550.272 270.116 558.655 270.116 569.46H273.875ZM264.217 541.568C257.816 534.399 249.24 530.861 238.695 530.861V534.619C248.311 534.619 255.815 537.801 261.413 544.072L264.217 541.568ZM238.695 530.861C228.049 530.861 219.362 534.326 212.837 541.362L215.593 543.918C221.309 537.754 228.942 534.619 238.695 534.619V530.861ZM212.825 541.376C206.433 548.406 203.336 557.841 203.336 569.46H207.095C207.095 558.519 209.997 550.074 215.606 543.904L212.825 541.376ZM203.336 569.46C203.336 580.967 206.437 590.39 212.813 597.532L215.617 595.028C209.994 588.73 207.095 580.273 207.095 569.46H203.336ZM212.837 597.558C219.362 604.594 228.049 608.059 238.695 608.059V604.301C228.942 604.301 221.309 601.166 215.593 595.002L212.837 597.558ZM351.219 506.64H353.099V504.761H351.219V506.64ZM351.219 633V634.879H353.099V633H351.219ZM320.439 633H318.56V634.879H320.439V633ZM320.439 506.64V504.761H318.56V506.64H320.439ZM349.34 506.64V633H353.099V506.64H349.34ZM351.219 631.121H320.439V634.879H351.219V631.121ZM322.319 633V506.64H318.56V633H322.319ZM320.439 508.519H351.219V504.761H320.439V508.519ZM486.565 633V634.879H488.445V633H486.565ZM455.785 633L454.217 634.036L454.774 634.879H455.785V633ZM404.305 555.06L405.873 554.024L402.426 548.805V555.06H404.305ZM404.305 633V634.879H406.185V633H404.305ZM373.525 633H371.646V634.879H373.525V633ZM373.525 506.64V504.761H371.646V506.64H373.525ZM404.305 506.64L405.876 505.608L405.319 504.761H404.305V506.64ZM455.785 584.94L454.215 585.972L457.665 591.219V584.94H455.785ZM455.785 506.64V504.761H453.906V506.64H455.785ZM486.565 506.64H488.445V504.761H486.565V506.64ZM486.565 631.121H455.785V634.879H486.565V631.121ZM457.353 631.964L405.873 554.024L402.737 556.096L454.217 634.036L457.353 631.964ZM402.426 555.06V633H406.185V555.06H402.426ZM404.305 631.121H373.525V634.879H404.305V631.121ZM375.405 633V506.64H371.646V633H375.405ZM373.525 508.519H404.305V504.761H373.525V508.519ZM402.735 507.672L454.215 585.972L457.356 583.908L405.876 505.608L402.735 507.672ZM457.665 584.94V506.64H453.906V584.94H457.665ZM455.785 508.519H486.565V504.761H455.785V508.519ZM484.686 506.64V633H488.445V506.64H484.686Z" fill="url(#paint0_linear_4805_5154)" fill-opacity="0.4"/>
<g filter="url(#filter0_f_4805_5154)">
<ellipse cx="151" cy="-224.5" rx="291" ry="262.5" fill="white" fill-opacity="0.26"/>
</g>
<path d="M290 792.836C294.333 786.438 305.747 773.445 316.736 772.657C330.472 771.673 333.906 775.856 339.057 780.778C344.208 785.7 350.83 801.941 358.679 800.957C366.528 799.973 370.208 795.543 371.925 786.684C373.642 777.825 376.585 767.981 385.17 766.997C388.113 766.505 393.755 766.259 401.358 772.903C408.962 779.548 422.453 779.301 431.528 763.552C440.604 747.802 446.245 736.974 458.509 735.744C470.774 734.514 497.755 747.802 528.17 751.248C558.585 754.693 585.075 756.169 605.189 748.294C625.302 740.42 649.83 726.885 665.774 718.272C681.717 709.659 726.604 681.851 764.623 700.061C770.755 702.03 775.906 703.753 782.283 716.303C788.66 728.854 799.453 723.686 801.906 713.596C804.358 703.507 805.585 698.831 810 697.108" stroke="url(#paint1_linear_4805_5154)" stroke-width="2"/>
<path d="M140 792.891C135.667 786.489 124.253 773.488 113.264 772.7C99.5283 771.715 96.0943 775.901 90.9434 780.826C85.7925 785.75 79.1698 802.001 71.3208 801.016C63.4717 800.031 59.7925 795.599 58.0755 786.735C56.3585 777.871 53.4151 768.022 44.8302 767.037C41.8868 766.545 36.2453 766.299 28.6415 772.947C21.0377 779.595 7.54717 779.348 -1.5283 763.59C-10.6038 747.832 -16.2453 736.998 -28.5094 735.767C-40.7736 734.536 -67.7547 747.832 -98.1698 751.279C-128.585 754.726 -155.075 756.203 -175.189 748.324C-195.302 740.445 -219.83 726.903 -235.774 718.285C-251.717 709.667 -296.604 681.844 -334.623 700.065C-340.755 702.035 -345.906 703.758 -352.283 716.315C-358.66 728.873 -369.453 723.702 -371.906 713.607C-374.358 703.512 -375.585 698.834 -380 697.11" stroke="url(#paint2_linear_4805_5154)" stroke-width="2"/>
<circle cx="379.5" cy="200.5" r="18.5" fill="#FF7B1C"/>
<g clip-path="url(#clip0_4805_5154)">
<g filter="url(#filter1_dd_4805_5154)">
<path d="M147.45 828.271C147.35 828.953 146.721 829.481 146.033 829.462C144.742 829.424 143.462 829.711 142.312 830.298C141.161 830.885 140.177 831.753 139.451 832.82C138.724 833.888 138.278 835.122 138.154 836.407C138.03 837.693 138.232 838.989 138.741 840.176C140.277 843.763 144.276 845.441 147.797 844.548C149.478 844.12 151.46 844.245 152.565 845.583L170.746 867.635C171.828 868.948 171.61 870.865 170.894 872.404L170.845 872.514C170.012 874.375 169.953 876.49 170.68 878.394C171.407 880.298 172.86 881.836 174.721 882.669C178.595 884.403 182.551 882.873 184.285 878.999C184.606 878.227 184.809 877.412 184.889 876.581C184.931 876.245 185.098 875.937 185.358 875.72C185.618 875.503 185.951 875.393 186.289 875.413C187.579 875.511 189.043 875.407 190.143 874.936C191.071 874.538 191.911 873.962 192.616 873.239C193.322 872.517 193.877 871.663 194.252 870.725C194.627 869.788 194.813 868.786 194.801 867.777C194.789 866.767 194.577 865.77 194.18 864.842C192.645 861.26 188.653 859.578 185.135 860.467C183.456 860.891 181.481 860.763 180.378 859.427L162.183 837.358C161.105 836.05 161.319 834.137 162.033 832.6C162.356 831.906 162.574 831.167 162.677 830.408C162.912 828.712 162.571 826.986 161.709 825.507C161.2 824.624 160.519 823.852 159.707 823.236C158.895 822.62 157.967 822.173 156.98 821.92C156.13 821.701 155.249 821.629 154.375 821.706C153.253 821.806 152.167 822.152 151.195 822.719C150.323 823.224 149.559 823.895 148.948 824.696C148.336 825.496 147.889 826.409 147.631 827.383C147.552 827.678 147.491 827.974 147.45 828.271Z" fill="#DCD4E1"/>
</g>
<path d="M147.45 828.271C147.35 828.953 146.721 829.481 146.033 829.462C144.742 829.424 143.462 829.711 142.312 830.298C141.161 830.885 140.177 831.753 139.451 832.82C138.724 833.888 138.278 835.122 138.154 836.407C138.03 837.693 138.232 838.989 138.741 840.176C140.277 843.763 144.276 845.441 147.797 844.548C149.478 844.12 151.46 844.245 152.565 845.583L170.746 867.635C171.828 868.948 171.61 870.865 170.894 872.404L170.845 872.514C170.012 874.375 169.953 876.49 170.68 878.394C171.407 880.298 172.86 881.836 174.721 882.669C178.595 884.403 182.551 882.873 184.285 878.999C184.606 878.227 184.809 877.412 184.889 876.581C184.931 876.245 185.098 875.937 185.358 875.72C185.618 875.503 185.951 875.393 186.289 875.413C187.579 875.511 189.043 875.407 190.143 874.936C191.071 874.538 191.911 873.962 192.616 873.239C193.322 872.517 193.877 871.663 194.252 870.725C194.627 869.788 194.813 868.786 194.801 867.777C194.789 866.767 194.577 865.77 194.18 864.842C192.645 861.26 188.653 859.578 185.135 860.467C183.456 860.891 181.481 860.763 180.378 859.427L162.183 837.358C161.105 836.05 161.319 834.137 162.033 832.6C162.356 831.906 162.574 831.167 162.677 830.408C162.912 828.712 162.571 826.986 161.709 825.507C161.2 824.624 160.519 823.852 159.707 823.236C158.895 822.62 157.967 822.173 156.98 821.92C156.13 821.701 155.249 821.629 154.375 821.706C153.253 821.806 152.167 822.152 151.195 822.719C150.323 823.224 149.559 823.895 148.948 824.696C148.336 825.496 147.889 826.409 147.631 827.383C147.552 827.678 147.491 827.974 147.45 828.271Z" fill="url(#paint3_radial_4805_5154)"/>
<path d="M147.45 828.271C147.35 828.953 146.721 829.481 146.033 829.462C144.742 829.424 143.462 829.711 142.312 830.298C141.161 830.885 140.177 831.753 139.451 832.82C138.724 833.888 138.278 835.122 138.154 836.407C138.03 837.693 138.232 838.989 138.741 840.176C140.277 843.763 144.276 845.441 147.797 844.548C149.478 844.12 151.46 844.245 152.565 845.583L170.746 867.635C171.828 868.948 171.61 870.865 170.894 872.404L170.845 872.514C170.012 874.375 169.953 876.49 170.68 878.394C171.407 880.298 172.86 881.836 174.721 882.669C178.595 884.403 182.551 882.873 184.285 878.999C184.606 878.227 184.809 877.412 184.889 876.581C184.931 876.245 185.098 875.937 185.358 875.72C185.618 875.503 185.951 875.393 186.289 875.413C187.579 875.511 189.043 875.407 190.143 874.936C191.071 874.538 191.911 873.962 192.616 873.239C193.322 872.517 193.877 871.663 194.252 870.725C194.627 869.788 194.813 868.786 194.801 867.777C194.789 866.767 194.577 865.77 194.18 864.842C192.645 861.26 188.653 859.578 185.135 860.467C183.456 860.891 181.481 860.763 180.378 859.427L162.183 837.358C161.105 836.05 161.319 834.137 162.033 832.6C162.356 831.906 162.574 831.167 162.677 830.408C162.912 828.712 162.571 826.986 161.709 825.507C161.2 824.624 160.519 823.852 159.707 823.236C158.895 822.62 157.967 822.173 156.98 821.92C156.13 821.701 155.249 821.629 154.375 821.706C153.253 821.806 152.167 822.152 151.195 822.719C150.323 823.224 149.559 823.895 148.948 824.696C148.336 825.496 147.889 826.409 147.631 827.383C147.552 827.678 147.491 827.974 147.45 828.271Z" fill="url(#paint4_radial_4805_5154)"/>
<path d="M147.45 828.271C147.35 828.953 146.721 829.481 146.033 829.462C144.742 829.424 143.462 829.711 142.312 830.298C141.161 830.885 140.177 831.753 139.451 832.82C138.724 833.888 138.278 835.122 138.154 836.407C138.03 837.693 138.232 838.989 138.741 840.176C140.277 843.763 144.276 845.441 147.797 844.548C149.478 844.12 151.46 844.245 152.565 845.583L170.746 867.635C171.828 868.948 171.61 870.865 170.894 872.404L170.845 872.514C170.012 874.375 169.953 876.49 170.68 878.394C171.407 880.298 172.86 881.836 174.721 882.669C178.595 884.403 182.551 882.873 184.285 878.999C184.606 878.227 184.809 877.412 184.889 876.581C184.931 876.245 185.098 875.937 185.358 875.72C185.618 875.503 185.951 875.393 186.289 875.413C187.579 875.511 189.043 875.407 190.143 874.936C191.071 874.538 191.911 873.962 192.616 873.239C193.322 872.517 193.877 871.663 194.252 870.725C194.627 869.788 194.813 868.786 194.801 867.777C194.789 866.767 194.577 865.77 194.18 864.842C192.645 861.26 188.653 859.578 185.135 860.467C183.456 860.891 181.481 860.763 180.378 859.427L162.183 837.358C161.105 836.05 161.319 834.137 162.033 832.6C162.356 831.906 162.574 831.167 162.677 830.408C162.912 828.712 162.571 826.986 161.709 825.507C161.2 824.624 160.519 823.852 159.707 823.236C158.895 822.62 157.967 822.173 156.98 821.92C156.13 821.701 155.249 821.629 154.375 821.706C153.253 821.806 152.167 822.152 151.195 822.719C150.323 823.224 149.559 823.895 148.948 824.696C148.336 825.496 147.889 826.409 147.631 827.383C147.552 827.678 147.491 827.974 147.45 828.271Z" fill="url(#paint5_radial_4805_5154)"/>
<path d="M147.45 828.271C147.35 828.953 146.721 829.481 146.033 829.462C144.742 829.424 143.462 829.711 142.312 830.298C141.161 830.885 140.177 831.753 139.451 832.82C138.724 833.888 138.278 835.122 138.154 836.407C138.03 837.693 138.232 838.989 138.741 840.176C140.277 843.763 144.276 845.441 147.797 844.548C149.478 844.12 151.46 844.245 152.565 845.583L170.746 867.635C171.828 868.948 171.61 870.865 170.894 872.404L170.845 872.514C170.012 874.375 169.953 876.49 170.68 878.394C171.407 880.298 172.86 881.836 174.721 882.669C178.595 884.403 182.551 882.873 184.285 878.999C184.606 878.227 184.809 877.412 184.889 876.581C184.931 876.245 185.098 875.937 185.358 875.72C185.618 875.503 185.951 875.393 186.289 875.413C187.579 875.511 189.043 875.407 190.143 874.936C191.071 874.538 191.911 873.962 192.616 873.239C193.322 872.517 193.877 871.663 194.252 870.725C194.627 869.788 194.813 868.786 194.801 867.777C194.789 866.767 194.577 865.77 194.18 864.842C192.645 861.26 188.653 859.578 185.135 860.467C183.456 860.891 181.481 860.763 180.378 859.427L162.183 837.358C161.105 836.05 161.319 834.137 162.033 832.6C162.356 831.906 162.574 831.167 162.677 830.408C162.912 828.712 162.571 826.986 161.709 825.507C161.2 824.624 160.519 823.852 159.707 823.236C158.895 822.62 157.967 822.173 156.98 821.92C156.13 821.701 155.249 821.629 154.375 821.706C153.253 821.806 152.167 822.152 151.195 822.719C150.323 823.224 149.559 823.895 148.948 824.696C148.336 825.496 147.889 826.409 147.631 827.383C147.552 827.678 147.491 827.974 147.45 828.271Z" fill="url(#paint6_radial_4805_5154)"/>
<path d="M147.45 828.271C147.35 828.953 146.721 829.481 146.033 829.462C144.742 829.424 143.462 829.711 142.312 830.298C141.161 830.885 140.177 831.753 139.451 832.82C138.724 833.888 138.278 835.122 138.154 836.407C138.03 837.693 138.232 838.989 138.741 840.176C140.277 843.763 144.276 845.441 147.797 844.548C149.478 844.12 151.46 844.245 152.565 845.583L170.746 867.635C171.828 868.948 171.61 870.865 170.894 872.404L170.845 872.514C170.012 874.375 169.953 876.49 170.68 878.394C171.407 880.298 172.86 881.836 174.721 882.669C178.595 884.403 182.551 882.873 184.285 878.999C184.606 878.227 184.809 877.412 184.889 876.581C184.931 876.245 185.098 875.937 185.358 875.72C185.618 875.503 185.951 875.393 186.289 875.413C187.579 875.511 189.043 875.407 190.143 874.936C191.071 874.538 191.911 873.962 192.616 873.239C193.322 872.517 193.877 871.663 194.252 870.725C194.627 869.788 194.813 868.786 194.801 867.777C194.789 866.767 194.577 865.77 194.18 864.842C192.645 861.26 188.653 859.578 185.135 860.467C183.456 860.891 181.481 860.763 180.378 859.427L162.183 837.358C161.105 836.05 161.319 834.137 162.033 832.6C162.356 831.906 162.574 831.167 162.677 830.408C162.912 828.712 162.571 826.986 161.709 825.507C161.2 824.624 160.519 823.852 159.707 823.236C158.895 822.62 157.967 822.173 156.98 821.92C156.13 821.701 155.249 821.629 154.375 821.706C153.253 821.806 152.167 822.152 151.195 822.719C150.323 823.224 149.559 823.895 148.948 824.696C148.336 825.496 147.889 826.409 147.631 827.383C147.552 827.678 147.491 827.974 147.45 828.271Z" fill="url(#paint7_radial_4805_5154)"/>
<path d="M147.45 828.271C147.35 828.953 146.721 829.481 146.033 829.462C144.742 829.424 143.462 829.711 142.312 830.298C141.161 830.885 140.177 831.753 139.451 832.82C138.724 833.888 138.278 835.122 138.154 836.407C138.03 837.693 138.232 838.989 138.741 840.176C140.277 843.763 144.276 845.441 147.797 844.548C149.478 844.12 151.46 844.245 152.565 845.583L170.746 867.635C171.828 868.948 171.61 870.865 170.894 872.404L170.845 872.514C170.012 874.375 169.953 876.49 170.68 878.394C171.407 880.298 172.86 881.836 174.721 882.669C178.595 884.403 182.551 882.873 184.285 878.999C184.606 878.227 184.809 877.412 184.889 876.581C184.931 876.245 185.098 875.937 185.358 875.72C185.618 875.503 185.951 875.393 186.289 875.413C187.579 875.511 189.043 875.407 190.143 874.936C191.071 874.538 191.911 873.962 192.616 873.239C193.322 872.517 193.877 871.663 194.252 870.725C194.627 869.788 194.813 868.786 194.801 867.777C194.789 866.767 194.577 865.77 194.18 864.842C192.645 861.26 188.653 859.578 185.135 860.467C183.456 860.891 181.481 860.763 180.378 859.427L162.183 837.358C161.105 836.05 161.319 834.137 162.033 832.6C162.356 831.906 162.574 831.167 162.677 830.408C162.912 828.712 162.571 826.986 161.709 825.507C161.2 824.624 160.519 823.852 159.707 823.236C158.895 822.62 157.967 822.173 156.98 821.92C156.13 821.701 155.249 821.629 154.375 821.706C153.253 821.806 152.167 822.152 151.195 822.719C150.323 823.224 149.559 823.895 148.948 824.696C148.336 825.496 147.889 826.409 147.631 827.383C147.552 827.678 147.491 827.974 147.45 828.271Z" fill="url(#paint8_radial_4805_5154)"/>
<path d="M147.45 828.271C147.35 828.953 146.721 829.481 146.033 829.462C144.742 829.424 143.462 829.711 142.312 830.298C141.161 830.885 140.177 831.753 139.451 832.82C138.724 833.888 138.278 835.122 138.154 836.407C138.03 837.693 138.232 838.989 138.741 840.176C140.277 843.763 144.276 845.441 147.797 844.548C149.478 844.12 151.46 844.245 152.565 845.583L170.746 867.635C171.828 868.948 171.61 870.865 170.894 872.404L170.845 872.514C170.012 874.375 169.953 876.49 170.68 878.394C171.407 880.298 172.86 881.836 174.721 882.669C178.595 884.403 182.551 882.873 184.285 878.999C184.606 878.227 184.809 877.412 184.889 876.581C184.931 876.245 185.098 875.937 185.358 875.72C185.618 875.503 185.951 875.393 186.289 875.413C187.579 875.511 189.043 875.407 190.143 874.936C191.071 874.538 191.911 873.962 192.616 873.239C193.322 872.517 193.877 871.663 194.252 870.725C194.627 869.788 194.813 868.786 194.801 867.777C194.789 866.767 194.577 865.77 194.18 864.842C192.645 861.26 188.653 859.578 185.135 860.467C183.456 860.891 181.481 860.763 180.378 859.427L162.183 837.358C161.105 836.05 161.319 834.137 162.033 832.6C162.356 831.906 162.574 831.167 162.677 830.408C162.912 828.712 162.571 826.986 161.709 825.507C161.2 824.624 160.519 823.852 159.707 823.236C158.895 822.62 157.967 822.173 156.98 821.92C156.13 821.701 155.249 821.629 154.375 821.706C153.253 821.806 152.167 822.152 151.195 822.719C150.323 823.224 149.559 823.895 148.948 824.696C148.336 825.496 147.889 826.409 147.631 827.383C147.552 827.678 147.491 827.974 147.45 828.271Z" fill="url(#paint9_radial_4805_5154)"/>
<path d="M147.45 828.271C147.35 828.953 146.721 829.481 146.033 829.462C144.742 829.424 143.462 829.711 142.312 830.298C141.161 830.885 140.177 831.753 139.451 832.82C138.724 833.888 138.278 835.122 138.154 836.407C138.03 837.693 138.232 838.989 138.741 840.176C140.277 843.763 144.276 845.441 147.797 844.548C149.478 844.12 151.46 844.245 152.565 845.583L170.746 867.635C171.828 868.948 171.61 870.865 170.894 872.404L170.845 872.514C170.012 874.375 169.953 876.49 170.68 878.394C171.407 880.298 172.86 881.836 174.721 882.669C178.595 884.403 182.551 882.873 184.285 878.999C184.606 878.227 184.809 877.412 184.889 876.581C184.931 876.245 185.098 875.937 185.358 875.72C185.618 875.503 185.951 875.393 186.289 875.413C187.579 875.511 189.043 875.407 190.143 874.936C191.071 874.538 191.911 873.962 192.616 873.239C193.322 872.517 193.877 871.663 194.252 870.725C194.627 869.788 194.813 868.786 194.801 867.777C194.789 866.767 194.577 865.77 194.18 864.842C192.645 861.26 188.653 859.578 185.135 860.467C183.456 860.891 181.481 860.763 180.378 859.427L162.183 837.358C161.105 836.05 161.319 834.137 162.033 832.6C162.356 831.906 162.574 831.167 162.677 830.408C162.912 828.712 162.571 826.986 161.709 825.507C161.2 824.624 160.519 823.852 159.707 823.236C158.895 822.62 157.967 822.173 156.98 821.92C156.13 821.701 155.249 821.629 154.375 821.706C153.253 821.806 152.167 822.152 151.195 822.719C150.323 823.224 149.559 823.895 148.948 824.696C148.336 825.496 147.889 826.409 147.631 827.383C147.552 827.678 147.491 827.974 147.45 828.271Z" fill="url(#paint10_radial_4805_5154)"/>
<path d="M147.45 828.271C147.35 828.953 146.721 829.481 146.033 829.462C144.742 829.424 143.462 829.711 142.312 830.298C141.161 830.885 140.177 831.753 139.451 832.82C138.724 833.888 138.278 835.122 138.154 836.407C138.03 837.693 138.232 838.989 138.741 840.176C140.277 843.763 144.276 845.441 147.797 844.548C149.478 844.12 151.46 844.245 152.565 845.583L170.746 867.635C171.828 868.948 171.61 870.865 170.894 872.404L170.845 872.514C170.012 874.375 169.953 876.49 170.68 878.394C171.407 880.298 172.86 881.836 174.721 882.669C178.595 884.403 182.551 882.873 184.285 878.999C184.606 878.227 184.809 877.412 184.889 876.581C184.931 876.245 185.098 875.937 185.358 875.72C185.618 875.503 185.951 875.393 186.289 875.413C187.579 875.511 189.043 875.407 190.143 874.936C191.071 874.538 191.911 873.962 192.616 873.239C193.322 872.517 193.877 871.663 194.252 870.725C194.627 869.788 194.813 868.786 194.801 867.777C194.789 866.767 194.577 865.77 194.18 864.842C192.645 861.26 188.653 859.578 185.135 860.467C183.456 860.891 181.481 860.763 180.378 859.427L162.183 837.358C161.105 836.05 161.319 834.137 162.033 832.6C162.356 831.906 162.574 831.167 162.677 830.408C162.912 828.712 162.571 826.986 161.709 825.507C161.2 824.624 160.519 823.852 159.707 823.236C158.895 822.62 157.967 822.173 156.98 821.92C156.13 821.701 155.249 821.629 154.375 821.706C153.253 821.806 152.167 822.152 151.195 822.719C150.323 823.224 149.559 823.895 148.948 824.696C148.336 825.496 147.889 826.409 147.631 827.383C147.552 827.678 147.491 827.974 147.45 828.271Z" fill="url(#paint11_radial_4805_5154)"/>
<path d="M147.45 828.271C147.35 828.953 146.721 829.481 146.033 829.462C144.742 829.424 143.462 829.711 142.312 830.298C141.161 830.885 140.177 831.753 139.451 832.82C138.724 833.888 138.278 835.122 138.154 836.407C138.03 837.693 138.232 838.989 138.741 840.176C140.277 843.763 144.276 845.441 147.797 844.548C149.478 844.12 151.46 844.245 152.565 845.583L170.746 867.635C171.828 868.948 171.61 870.865 170.894 872.404L170.845 872.514C170.012 874.375 169.953 876.49 170.68 878.394C171.407 880.298 172.86 881.836 174.721 882.669C178.595 884.403 182.551 882.873 184.285 878.999C184.606 878.227 184.809 877.412 184.889 876.581C184.931 876.245 185.098 875.937 185.358 875.72C185.618 875.503 185.951 875.393 186.289 875.413C187.579 875.511 189.043 875.407 190.143 874.936C191.071 874.538 191.911 873.962 192.616 873.239C193.322 872.517 193.877 871.663 194.252 870.725C194.627 869.788 194.813 868.786 194.801 867.777C194.789 866.767 194.577 865.77 194.18 864.842C192.645 861.26 188.653 859.578 185.135 860.467C183.456 860.891 181.481 860.763 180.378 859.427L162.183 837.358C161.105 836.05 161.319 834.137 162.033 832.6C162.356 831.906 162.574 831.167 162.677 830.408C162.912 828.712 162.571 826.986 161.709 825.507C161.2 824.624 160.519 823.852 159.707 823.236C158.895 822.62 157.967 822.173 156.98 821.92C156.13 821.701 155.249 821.629 154.375 821.706C153.253 821.806 152.167 822.152 151.195 822.719C150.323 823.224 149.559 823.895 148.948 824.696C148.336 825.496 147.889 826.409 147.631 827.383C147.552 827.678 147.491 827.974 147.45 828.271Z" fill="url(#paint12_radial_4805_5154)"/>
<g filter="url(#filter2_f_4805_5154)">
<path d="M185.773 869.768C183.084 871.085 183.275 874.231 183.707 875.641L186.069 874.301C185.091 872.819 185.464 870.663 185.773 869.768Z" fill="#A49CAA"/>
</g>
<g filter="url(#filter3_f_4805_5154)">
<path d="M146.054 837.081C146.414 834.223 144.783 831.199 144.217 830.472L146.727 830.076C148.308 833.97 146.92 836.526 146.054 837.081Z" fill="url(#paint13_linear_4805_5154)"/>
</g>
</g>
<defs>
<filter id="filter0_f_4805_5154" x="-414" y="-761" width="1130" height="1073" filterUnits="userSpaceOnUse" color-interpolation-filters="sRGB">
<feFlood flood-opacity="0" result="BackgroundImageFix"/>
<feBlend mode="normal" in="SourceGraphic" in2="BackgroundImageFix" result="shape"/>
<feGaussianBlur stdDeviation="137" result="effect1_foregroundBlur_4805_5154"/>
</filter>
<filter id="filter1_dd_4805_5154" x="136.368" y="819.176" width="61.6836" height="66.7022" filterUnits="userSpaceOnUse" color-interpolation-filters="sRGB">
<feFlood flood-opacity="0" result="BackgroundImageFix"/>
<feColorMatrix in="SourceAlpha" type="matrix" values="0 0 0 0 0 0 0 0 0 0 0 0 0 0 0 0 0 0 127 0" result="hardAlpha"/>
<feOffset dx="0.75"/>
<feGaussianBlur stdDeviation="1.25"/>
<feComposite in2="hardAlpha" operator="out"/>
<feColorMatrix type="matrix" values="0 0 0 0 0.580392 0 0 0 0 0.568627 0 0 0 0 0.584314 0 0 0 1 0"/>
<feBlend mode="normal" in2="BackgroundImageFix" result="effect1_dropShadow_4805_5154"/>
<feColorMatrix in="SourceAlpha" type="matrix" values="0 0 0 0 0 0 0 0 0 0 0 0 0 0 0 0 0 0 127 0" result="hardAlpha"/>
<feOffset dy="-0.75"/>
<feGaussianBlur stdDeviation="0.75"/>
<feComposite in2="hardAlpha" operator="out"/>
<feColorMatrix type="matrix" values="0 0 0 0 0.756863 0 0 0 0 0.662745 0 0 0 0 0.815686 0 0 0 1 0"/>
<feBlend mode="normal" in2="effect1_dropShadow_4805_5154" result="effect2_dropShadow_4805_5154"/>
<feBlend mode="normal" in="SourceGraphic" in2="effect2_dropShadow_4805_5154" result="shape"/>
</filter>
<filter id="filter2_f_4805_5154" x="182.452" y="868.768" width="4.61621" height="7.87273" filterUnits="userSpaceOnUse" color-interpolation-filters="sRGB">
<feFlood flood-opacity="0" result="BackgroundImageFix"/>
<feBlend mode="normal" in="SourceGraphic" in2="BackgroundImageFix" result="shape"/>
<feGaussianBlur stdDeviation="0.5" result="effect1_foregroundBlur_4805_5154"/>
</filter>
<filter id="filter3_f_4805_5154" x="143.217" y="829.076" width="5.23145" height="9.00567" filterUnits="userSpaceOnUse" color-interpolation-filters="sRGB">
<feFlood flood-opacity="0" result="BackgroundImageFix"/>
<feBlend mode="normal" in="SourceGraphic" in2="BackgroundImageFix" result="shape"/>
<feGaussianBlur stdDeviation="0.5" result="effect1_foregroundBlur_4805_5154"/>
</filter>
<linearGradient id="paint0_linear_4805_5154" x1="-84.3603" y1="326.1" x2="522.698" y2="572.036" gradientUnits="userSpaceOnUse">
<stop stop-color="#BFDDFF"/>
<stop offset="1" stop-color="#BFDDFF" stop-opacity="0"/>
</linearGradient>
<linearGradient id="paint1_linear_4805_5154" x1="656.035" y1="723.868" x2="290.005" y2="793.805" gradientUnits="userSpaceOnUse">
<stop stop-color="#FD7D00"/>
<stop offset="1" stop-color="#43311F"/>
</linearGradient>
<linearGradient id="paint2_linear_4805_5154" x1="-226.035" y1="723.885" x2="140.009" y2="793.785" gradientUnits="userSpaceOnUse">
<stop stop-color="#FD7D00"/>
<stop offset="1" stop-color="#43311F"/>
</linearGradient>
<radialGradient id="paint3_radial_4805_5154" cx="0" cy="0" r="1" gradientUnits="userSpaceOnUse" gradientTransform="translate(150.982 827.212) rotate(83.6506) scale(9.15836 9.1836)">
<stop stop-color="#FBFAFC"/>
<stop offset="1" stop-color="#E5E5E5" stop-opacity="0"/>
</radialGradient>
<radialGradient id="paint4_radial_4805_5154" cx="0" cy="0" r="1" gradientUnits="userSpaceOnUse" gradientTransform="translate(140.684 834.203) rotate(26.0495) scale(6.46421 6.16167)">
<stop stop-color="#FBFAFC"/>
<stop offset="1" stop-color="#E5E5E5" stop-opacity="0"/>
</radialGradient>
<radialGradient id="paint5_radial_4805_5154" cx="0" cy="0" r="1" gradientUnits="userSpaceOnUse" gradientTransform="translate(145.29 823.181) rotate(72.6385) scale(16.5576 3.58433)">
<stop stop-color="#FBFAFC"/>
<stop offset="1" stop-color="#E5E5E5" stop-opacity="0"/>
</radialGradient>
<radialGradient id="paint6_radial_4805_5154" cx="0" cy="0" r="1" gradientUnits="userSpaceOnUse" gradientTransform="translate(144.372 850.399) rotate(-72.1295) scale(15.4902 9.47134)">
<stop stop-color="#BDA5CC"/>
<stop offset="1" stop-color="#BDA5CC" stop-opacity="0"/>
</radialGradient>
<radialGradient id="paint7_radial_4805_5154" cx="0" cy="0" r="1" gradientUnits="userSpaceOnUse" gradientTransform="translate(196.021 865.519) rotate(-179.999) scale(6.9381 6.59743)">
<stop stop-color="#9B9A9B"/>
<stop offset="1" stop-color="#9B9A9B" stop-opacity="0"/>
</radialGradient>
<radialGradient id="paint8_radial_4805_5154" cx="0" cy="0" r="1" gradientUnits="userSpaceOnUse" gradientTransform="translate(185.011 864.859) rotate(-71.9775) scale(6.12236 4.48011)">
<stop stop-color="#E8E3EB"/>
<stop offset="1" stop-color="#E8E3EB" stop-opacity="0"/>
</radialGradient>
<radialGradient id="paint9_radial_4805_5154" cx="0" cy="0" r="1" gradientUnits="userSpaceOnUse" gradientTransform="translate(189.413 877.357) rotate(-94.2341) scale(9.43249 6.97977)">
<stop stop-color="#C6AED5"/>
<stop offset="1" stop-color="#C6AED5" stop-opacity="0"/>
</radialGradient>
<radialGradient id="paint10_radial_4805_5154" cx="0" cy="0" r="1" gradientUnits="userSpaceOnUse" gradientTransform="translate(169.562 872.294) rotate(-2.64549) scale(11.1271 6.17984)">
<stop offset="0.289" stop-color="#F5EEF9"/>
<stop offset="1" stop-color="#F5EEF9" stop-opacity="0"/>
</radialGradient>
<radialGradient id="paint11_radial_4805_5154" cx="0" cy="0" r="1" gradientUnits="userSpaceOnUse" gradientTransform="translate(178.636 832.624) rotate(94.7535) scale(51.4027 51.9048)">
<stop offset="0.857" stop-color="#D5BBE5" stop-opacity="0"/>
<stop offset="1" stop-color="#D5BBE5"/>
</radialGradient>
<radialGradient id="paint12_radial_4805_5154" cx="0" cy="0" r="1" gradientUnits="userSpaceOnUse" gradientTransform="translate(186.56 883.421) rotate(-105.279) scale(12.358 5.87145)">
<stop stop-color="#A199A7"/>
<stop offset="1" stop-color="#A199A7" stop-opacity="0"/>
</radialGradient>
<linearGradient id="paint13_linear_4805_5154" x1="145.576" y1="830.443" x2="146.297" y2="840.904" gradientUnits="userSpaceOnUse">
<stop stop-color="#B6B0BB"/>
<stop offset="1" stop-color="#C6BFCB" stop-opacity="0"/>
</linearGradient>
<clipPath id="clip0_4805_5154">
<rect width="68" height="68" fill="white" transform="matrix(-0.995407 -0.095733 -0.095733 0.995407 203.197 822.51)"/>
</clipPath>
</defs>
</svg>
