<svg width="427" height="193" viewBox="0 0 427 193" fill="none" xmlns="http://www.w3.org/2000/svg">
<path d="M-117 192.226C-110.702 180.156 -94.6592 176.406 -80.5848 173.996L-2.03155 160.536C11.7982 158.166 25.8514 155.716 38.2344 149.486C45.9259 145.606 53.128 139.926 56.0217 132.196C58.3727 125.976 57.7131 119.096 56.1812 112.666C50.245 87.8357 32.3195 67.3957 17.3195 46.2157C13.8621 41.3357 10.4259 36.0357 10.277 30.2157C10.1068 23.6257 14.2663 17.4257 19.8514 13.4057C25.4365 9.38567 32.2344 7.2357 39.0004 5.6157C68.628 -1.4643 100.085 0.105694 129.798 6.89569C159.511 13.6857 187.649 25.5057 214.724 38.8957C235.511 49.1357 257.426 58.0357 275.883 71.6657C336.788 116.666 402.947 109.226 380.139 31.7857" stroke="url(#paint0_linear_4829_4745)" stroke-width="1.5" stroke-miterlimit="10" stroke-linecap="round" stroke-dasharray="9.74 9.74"/>
<defs>
<linearGradient id="paint0_linear_4829_4745" x1="133.873" y1="1" x2="133.873" y2="192.226" gradientUnits="userSpaceOnUse">
<stop stop-color="white"/>
<stop offset="1" stop-color="white" stop-opacity="0"/>
</linearGradient>
</defs>
</svg>
