<svg width="345" height="369" viewBox="0 0 345 369" fill="none" xmlns="http://www.w3.org/2000/svg">
<g opacity="0.5" clip-path="url(#clip0_876_164)">
<path d="M315.344 231.137L198.74 264.386C198.63 264.418 198.536 264.488 198.474 264.584C198.413 264.679 198.387 264.794 198.403 264.907C198.419 265.02 198.474 265.123 198.56 265.198C198.646 265.273 198.755 265.315 198.869 265.315C198.913 265.315 198.957 265.309 198.999 265.296L315.603 232.037C315.706 231.99 315.788 231.907 315.835 231.804C315.883 231.701 315.891 231.585 315.86 231.476C315.829 231.367 315.759 231.273 315.665 231.211C315.57 231.148 315.456 231.122 315.344 231.137Z" fill="url(#paint0_linear_876_164)"/>
<path d="M324.385 217.289L212.856 253.723C212.794 253.741 212.737 253.771 212.688 253.811C212.638 253.851 212.597 253.9 212.567 253.957C212.537 254.013 212.519 254.075 212.513 254.138C212.508 254.202 212.515 254.266 212.535 254.326C212.555 254.387 212.587 254.443 212.629 254.491C212.67 254.539 212.722 254.578 212.779 254.606C212.836 254.634 212.899 254.65 212.962 254.653C213.026 254.656 213.09 254.646 213.15 254.624L324.679 218.18C324.74 218.162 324.797 218.133 324.847 218.093C324.896 218.052 324.937 218.003 324.967 217.947C324.997 217.89 325.015 217.829 325.021 217.765C325.026 217.702 325.019 217.638 324.999 217.577C324.979 217.516 324.948 217.46 324.906 217.412C324.864 217.364 324.813 217.325 324.755 217.297C324.698 217.27 324.635 217.254 324.572 217.251C324.508 217.247 324.444 217.257 324.385 217.279V217.289Z" fill="url(#paint1_linear_876_164)"/>
<path d="M332.26 203.373L226.548 242.096C226.445 242.135 226.359 242.209 226.305 242.305C226.251 242.401 226.232 242.513 226.252 242.622C226.271 242.73 226.328 242.829 226.412 242.9C226.496 242.971 226.602 243.011 226.712 243.012C226.767 243.013 226.822 243.004 226.874 242.984L332.585 204.277C332.648 204.26 332.706 204.23 332.757 204.189C332.808 204.148 332.85 204.097 332.88 204.039C332.91 203.981 332.928 203.918 332.932 203.853C332.937 203.788 332.928 203.723 332.906 203.661C332.884 203.6 332.85 203.544 332.806 203.496C332.761 203.448 332.707 203.411 332.648 203.385C332.588 203.359 332.523 203.346 332.458 203.346C332.393 203.346 332.329 203.359 332.269 203.386L332.26 203.373Z" fill="url(#paint2_linear_876_164)"/>
<path d="M338.893 189.521L239.685 229.618C239.584 229.661 239.501 229.737 239.45 229.833C239.398 229.93 239.381 230.041 239.402 230.148C239.423 230.256 239.48 230.352 239.563 230.423C239.647 230.493 239.752 230.533 239.861 230.535C239.922 230.534 239.982 230.523 240.038 230.5L339.262 190.4C339.32 190.376 339.373 190.342 339.417 190.298C339.461 190.254 339.497 190.202 339.521 190.145C339.545 190.087 339.558 190.026 339.558 189.964C339.558 189.901 339.547 189.84 339.523 189.782C339.5 189.724 339.465 189.672 339.421 189.627C339.378 189.583 339.326 189.548 339.268 189.524C339.211 189.499 339.149 189.487 339.087 189.486C339.025 189.486 338.963 189.498 338.905 189.521H338.893Z" fill="url(#paint3_linear_876_164)"/>
<path d="M344.21 175.894L252.099 216.443C252 216.487 251.92 216.564 251.87 216.66C251.821 216.756 251.806 216.867 251.828 216.973C251.851 217.079 251.908 217.174 251.992 217.243C252.076 217.311 252.181 217.349 252.289 217.35C252.354 217.35 252.419 217.336 252.479 217.309L344.593 176.763C344.708 176.712 344.798 176.618 344.844 176.5C344.889 176.383 344.887 176.252 344.836 176.137C344.785 176.022 344.691 175.931 344.573 175.886C344.456 175.84 344.325 175.843 344.21 175.894Z" fill="url(#paint4_linear_876_164)"/>
<path d="M348.157 162.634L263.662 202.696C263.606 202.723 263.555 202.76 263.514 202.807C263.472 202.853 263.44 202.907 263.419 202.966C263.398 203.024 263.389 203.086 263.392 203.149C263.395 203.211 263.411 203.272 263.438 203.328C263.464 203.384 263.502 203.435 263.548 203.476C263.594 203.518 263.648 203.55 263.707 203.571C263.766 203.592 263.828 203.601 263.89 203.598C263.952 203.595 264.013 203.579 264.07 203.552L348.565 163.487C348.621 163.46 348.672 163.423 348.714 163.377C348.756 163.331 348.788 163.276 348.809 163.218C348.83 163.159 348.839 163.097 348.836 163.034C348.832 162.972 348.816 162.911 348.789 162.855C348.734 162.742 348.637 162.656 348.519 162.615C348.4 162.573 348.271 162.58 348.157 162.634Z" fill="url(#paint5_linear_876_164)"/>
<path d="M350.689 149.889L274.264 188.548C274.153 188.604 274.068 188.702 274.028 188.82C273.989 188.939 273.997 189.068 274.052 189.18C274.08 189.235 274.118 189.285 274.165 189.325C274.212 189.366 274.266 189.397 274.325 189.416C274.384 189.436 274.446 189.443 274.507 189.438C274.569 189.434 274.629 189.417 274.684 189.389L351.125 150.732C351.18 150.704 351.23 150.665 351.271 150.618C351.311 150.57 351.342 150.516 351.361 150.456C351.381 150.397 351.388 150.335 351.383 150.272C351.379 150.21 351.362 150.15 351.333 150.094C351.305 150.038 351.266 149.989 351.219 149.948C351.172 149.908 351.117 149.877 351.057 149.857C350.998 149.838 350.936 149.831 350.873 149.835C350.811 149.84 350.751 149.857 350.695 149.885L350.689 149.889Z" fill="url(#paint6_linear_876_164)"/>
<path d="M352.417 137.995C352.359 137.886 352.26 137.804 352.141 137.767C352.023 137.731 351.895 137.742 351.785 137.799L283.744 174.139C283.651 174.189 283.578 174.269 283.535 174.365C283.493 174.462 283.484 174.57 283.509 174.672C283.535 174.774 283.594 174.865 283.677 174.93C283.761 174.995 283.863 175.03 283.968 175.03C284.047 175.031 284.124 175.011 284.193 174.973L352.224 138.633C352.279 138.604 352.327 138.564 352.367 138.516C352.406 138.469 352.435 138.413 352.453 138.354C352.471 138.295 352.477 138.233 352.471 138.171C352.465 138.109 352.446 138.049 352.417 137.995Z" fill="url(#paint7_linear_876_164)"/>
<path d="M291.859 160.277C291.9 160.35 291.96 160.411 292.033 160.454C292.106 160.496 292.188 160.519 292.273 160.52C292.353 160.52 292.433 160.5 292.503 160.46L351.87 127.324C351.976 127.262 352.054 127.162 352.088 127.045C352.122 126.927 352.11 126.801 352.053 126.692C351.993 126.585 351.893 126.506 351.775 126.472C351.657 126.438 351.53 126.451 351.421 126.509L292.042 159.632C291.933 159.694 291.852 159.796 291.818 159.917C291.784 160.037 291.798 160.167 291.859 160.277Z" fill="url(#paint8_linear_876_164)"/>
<path d="M298.877 145.832C298.94 145.937 299.041 146.014 299.159 146.046C299.276 146.079 299.402 146.064 299.509 146.006L350.047 116.934C350.15 116.869 350.224 116.766 350.253 116.648C350.282 116.53 350.264 116.405 350.204 116.299C350.143 116.193 350.044 116.115 349.927 116.08C349.811 116.045 349.685 116.057 349.576 116.113L299.039 145.185C298.932 145.25 298.855 145.354 298.825 145.475C298.794 145.597 298.813 145.725 298.877 145.832Z" fill="url(#paint9_linear_876_164)"/>
<path d="M304.53 131.597C304.593 131.701 304.694 131.778 304.812 131.81C304.929 131.843 305.055 131.828 305.162 131.77L346.805 107.546C346.909 107.482 346.984 107.381 347.016 107.264C347.047 107.146 347.033 107.021 346.976 106.914C346.945 106.86 346.903 106.813 346.854 106.775C346.804 106.737 346.748 106.709 346.687 106.693C346.627 106.677 346.564 106.674 346.503 106.682C346.441 106.691 346.381 106.712 346.328 106.743L304.701 130.965C304.596 131.027 304.52 131.128 304.488 131.246C304.456 131.364 304.471 131.49 304.53 131.597Z" fill="url(#paint10_linear_876_164)"/>
<path d="M309.16 117.979C309.242 117.979 309.322 117.958 309.394 117.919L342.172 99.3064C342.282 99.2444 342.362 99.1414 342.396 99.0202C342.429 98.899 342.413 98.7695 342.351 98.6601C342.289 98.5508 342.186 98.4705 342.065 98.437C341.944 98.4036 341.814 98.4196 341.705 98.4816L308.926 117.094C308.836 117.146 308.765 117.226 308.725 117.322C308.685 117.419 308.678 117.525 308.704 117.626C308.731 117.727 308.79 117.816 308.872 117.88C308.955 117.943 309.056 117.978 309.16 117.979Z" fill="url(#paint11_linear_876_164)"/>
<path d="M311.486 104.392C311.525 104.47 311.585 104.535 311.659 104.581C311.734 104.627 311.819 104.651 311.906 104.651C311.982 104.652 312.057 104.633 312.124 104.597L336.162 92.2892C336.221 92.2629 336.274 92.225 336.317 92.1777C336.36 92.1305 336.394 92.0749 336.415 92.0143C336.437 91.9538 336.445 91.8895 336.441 91.8255C336.437 91.7614 336.42 91.6989 336.391 91.6417C336.361 91.5845 336.321 91.5338 336.272 91.4927C336.222 91.4516 336.165 91.4209 336.104 91.4026C336.042 91.3842 335.978 91.3786 335.914 91.3859C335.85 91.3933 335.788 91.4136 335.733 91.4455L311.691 103.754C311.636 103.782 311.587 103.821 311.546 103.869C311.506 103.916 311.475 103.971 311.456 104.03C311.437 104.09 311.43 104.152 311.435 104.214C311.44 104.276 311.458 104.337 311.486 104.392Z" fill="url(#paint12_linear_876_164)"/>
<path d="M312.702 91.6767C312.735 91.7691 312.795 91.8492 312.875 91.9059C312.954 91.9625 313.05 91.9928 313.148 91.9927C313.2 91.9922 313.253 91.9837 313.303 91.9674L328.831 86.5796C328.89 86.5588 328.944 86.5267 328.99 86.4851C329.036 86.4434 329.074 86.3931 329.101 86.3369C329.128 86.2807 329.143 86.2198 329.147 86.1576C329.15 86.0954 329.141 86.0332 329.12 85.9744C329.099 85.9157 329.067 85.8617 329.026 85.8153C328.984 85.769 328.934 85.7314 328.877 85.7045C328.821 85.6777 328.76 85.6622 328.698 85.6589C328.636 85.6556 328.574 85.6645 328.515 85.6853L312.987 91.0573C312.926 91.078 312.871 91.1107 312.824 91.1535C312.777 91.1963 312.738 91.2482 312.712 91.3061C312.685 91.364 312.671 91.4267 312.669 91.4904C312.667 91.5541 312.679 91.6175 312.702 91.6767Z" fill="url(#paint13_linear_876_164)"/>
<path d="M312.744 80.1324L320.075 82.218C320.117 82.2297 320.161 82.235 320.204 82.2338C320.318 82.2331 320.428 82.1914 320.514 82.1164C320.599 82.0414 320.655 81.9381 320.671 81.8253C320.686 81.7126 320.661 81.5979 320.599 81.5024C320.537 81.4068 320.443 81.3367 320.334 81.3048L313.003 79.2192C312.882 79.1848 312.752 79.2 312.642 79.2613C312.532 79.3227 312.451 79.4252 312.416 79.5463C312.382 79.6674 312.397 79.7972 312.459 79.9071C312.52 80.017 312.622 80.0981 312.744 80.1324Z" fill="url(#paint14_linear_876_164)"/>
<path d="M310.604 79.2654H310.626C310.748 79.2656 310.865 79.2187 310.954 79.1345C311.042 79.0503 311.094 78.9354 311.1 78.8135L311.558 68.7932C311.563 68.6677 311.519 68.5452 311.434 68.4523C311.35 68.3594 311.232 68.3036 311.106 68.2971C310.981 68.2935 310.86 68.3386 310.767 68.4229C310.674 68.5072 310.618 68.6241 310.61 68.7489L310.152 78.7693C310.149 78.8316 310.158 78.8938 310.179 78.9525C310.201 79.0111 310.233 79.065 310.275 79.1111C310.317 79.1572 310.368 79.1945 310.424 79.221C310.48 79.2475 310.542 79.2626 310.604 79.2654Z" fill="url(#paint15_linear_876_164)"/>
<path d="M299.86 77.6997C299.918 77.7257 299.98 77.7397 300.044 77.7409C300.107 77.7422 300.17 77.7307 300.229 77.7071C300.288 77.6835 300.342 77.6484 300.387 77.6037C300.432 77.559 300.468 77.5057 300.492 77.4469L308.246 59.1189C308.295 59.0029 308.296 58.8721 308.249 58.7553C308.201 58.6386 308.11 58.5455 307.994 58.4964C307.878 58.4474 307.747 58.4465 307.63 58.4939C307.513 58.5413 307.42 58.6331 307.371 58.7492L299.616 77.0772C299.567 77.1922 299.565 77.3218 299.611 77.4382C299.656 77.5546 299.746 77.6485 299.86 77.6997Z" fill="url(#paint16_linear_876_164)"/>
<path d="M288.342 77.6049C288.451 77.6613 288.579 77.6727 288.697 77.6368C288.815 77.6008 288.914 77.5202 288.974 77.4121L303.456 50.4826C303.515 50.3715 303.528 50.2414 303.492 50.1208C303.456 50.0002 303.373 49.899 303.262 49.8395C303.151 49.78 303.02 49.7671 302.9 49.8035C302.779 49.84 302.678 49.9228 302.619 50.0339L288.139 76.9634C288.11 77.0186 288.092 77.0792 288.086 77.1416C288.08 77.204 288.087 77.2669 288.106 77.3266C288.125 77.3864 288.155 77.4417 288.196 77.4895C288.236 77.5373 288.286 77.5765 288.342 77.6049Z" fill="url(#paint17_linear_876_164)"/>
<path d="M276.097 78.9798C276.168 79.0205 276.249 79.0422 276.331 79.043C276.414 79.0434 276.496 79.0216 276.568 78.98C276.64 78.9384 276.7 78.8783 276.742 78.806L297.304 43.098C297.367 42.989 297.384 42.8596 297.351 42.7381C297.318 42.6166 297.239 42.513 297.13 42.4502C297.021 42.3873 296.892 42.3703 296.77 42.4029C296.649 42.4355 296.545 42.515 296.482 42.624L275.92 78.332C275.858 78.4415 275.842 78.571 275.875 78.6923C275.908 78.8136 275.988 78.9169 276.097 78.9798Z" fill="url(#paint18_linear_876_164)"/>
<path d="M263.232 81.7972C263.304 81.8393 263.386 81.8611 263.469 81.8604C263.552 81.8611 263.634 81.8399 263.706 81.7988C263.778 81.7577 263.839 81.6983 263.88 81.6266L289.808 37.02C289.866 36.9118 289.88 36.7854 289.846 36.6672C289.813 36.5491 289.735 36.4486 289.629 36.3868C289.523 36.325 289.397 36.3067 289.278 36.3358C289.159 36.3649 289.055 36.4391 288.99 36.5429L263.059 81.1494C263.028 81.2034 263.007 81.2629 262.999 81.3247C262.991 81.3864 262.995 81.4492 263.011 81.5093C263.027 81.5695 263.055 81.6259 263.093 81.6753C263.131 81.7247 263.179 81.7661 263.232 81.7972Z" fill="url(#paint19_linear_876_164)"/>
<path d="M249.884 86.0319C249.957 86.0717 250.038 86.0923 250.121 86.092C250.204 86.092 250.286 86.0701 250.358 86.0285C250.43 85.9869 250.49 85.9271 250.532 85.855L281.058 32.372C281.12 32.2626 281.136 32.1331 281.102 32.0119C281.069 31.8907 280.988 31.7878 280.879 31.7257C280.77 31.6637 280.64 31.6477 280.519 31.6812C280.398 31.7147 280.295 31.7949 280.233 31.9043L249.707 85.3936C249.648 85.502 249.633 85.6295 249.666 85.7488C249.699 85.8681 249.777 85.9697 249.884 86.0319Z" fill="url(#paint20_linear_876_164)"/>
<path d="M236.202 91.6283C236.272 91.668 236.352 91.6887 236.432 91.6883C236.517 91.6883 236.6 91.6654 236.673 91.622C236.746 91.5786 236.806 91.5164 236.846 91.4418L271.145 29.1677C271.18 29.1131 271.203 29.052 271.213 28.9882C271.223 28.9243 271.22 28.859 271.204 28.7964C271.188 28.7337 271.16 28.675 271.12 28.6238C271.081 28.5726 271.031 28.53 270.974 28.4987C270.918 28.4674 270.855 28.448 270.791 28.4417C270.727 28.4354 270.662 28.4423 270.6 28.4621C270.539 28.4818 270.482 28.514 270.433 28.5565C270.384 28.5991 270.345 28.6511 270.317 28.7095L236.028 90.9836C235.967 91.0925 235.951 91.2209 235.983 91.3414C236.016 91.4619 236.094 91.5649 236.202 91.6283Z" fill="url(#paint21_linear_876_164)"/>
<path d="M222.333 98.5305C222.4 98.5664 222.475 98.5849 222.551 98.5843C222.637 98.5845 222.722 98.561 222.796 98.5165C222.87 98.4719 222.931 98.4079 222.971 98.3315L260.183 27.4653C260.241 27.3538 260.253 27.2238 260.215 27.1038C260.178 26.9838 260.094 26.8837 259.983 26.8254C259.871 26.7672 259.741 26.7556 259.621 26.7932C259.501 26.8308 259.401 26.9146 259.343 27.0261L222.124 97.8891C222.067 98.0018 222.057 98.1327 222.096 98.253C222.135 98.3733 222.22 98.4731 222.333 98.5305Z" fill="url(#paint22_linear_876_164)"/>
<path d="M208.422 106.657C208.487 106.691 208.56 106.708 208.634 106.708C208.722 106.707 208.808 106.682 208.883 106.635C208.958 106.588 209.018 106.521 209.057 106.442L248.285 27.2779C248.319 27.2218 248.34 27.1594 248.348 27.0947C248.356 27.0301 248.35 26.9644 248.332 26.9019C248.313 26.8394 248.282 26.7814 248.24 26.7315C248.198 26.6816 248.146 26.6409 248.088 26.6119C248.03 26.5829 247.966 26.5663 247.901 26.5631C247.836 26.5599 247.771 26.5701 247.71 26.5931C247.649 26.6162 247.593 26.6516 247.547 26.6971C247.5 26.7426 247.463 26.7972 247.438 26.8576L208.22 106.022C208.163 106.133 208.152 106.262 208.19 106.381C208.228 106.5 208.311 106.599 208.422 106.657Z" fill="url(#paint23_linear_876_164)"/>
<path d="M194.632 115.923C194.694 115.953 194.762 115.968 194.831 115.967C194.921 115.967 195.01 115.942 195.086 115.893C195.162 115.844 195.223 115.774 195.26 115.692L235.588 28.6058C235.614 28.5491 235.629 28.4879 235.632 28.4256C235.634 28.3632 235.624 28.301 235.603 28.2425C235.581 28.1839 235.548 28.1302 235.506 28.0844C235.464 28.0386 235.413 28.0015 235.356 27.9754C235.299 27.9492 235.238 27.9345 235.176 27.932C235.113 27.9295 235.051 27.9394 234.993 27.9609C234.934 27.9825 234.88 28.0154 234.835 28.0577C234.789 28.1 234.752 28.151 234.726 28.2076L194.398 115.294C194.372 115.351 194.357 115.412 194.355 115.474C194.353 115.536 194.362 115.599 194.384 115.657C194.406 115.715 194.439 115.769 194.481 115.815C194.524 115.86 194.575 115.897 194.632 115.923Z" fill="url(#paint24_linear_876_164)"/>
<path d="M181.101 126.224C181.159 126.252 181.223 126.266 181.287 126.265C181.38 126.266 181.471 126.238 181.549 126.187C181.626 126.136 181.687 126.063 181.724 125.978L222.225 31.4244C222.275 31.3087 222.276 31.1782 222.229 31.0614C222.183 30.9447 222.091 30.8513 221.976 30.8019C221.86 30.7524 221.729 30.7509 221.613 30.7977C221.496 30.8446 221.403 30.9358 221.353 31.0515L180.851 125.592C180.825 125.65 180.811 125.713 180.81 125.776C180.808 125.839 180.819 125.902 180.843 125.961C180.866 126.02 180.901 126.074 180.945 126.119C180.99 126.164 181.043 126.2 181.101 126.224Z" fill="url(#paint25_linear_876_164)"/>
<path d="M167.99 137.452C168.044 137.473 168.102 137.483 168.161 137.483C168.258 137.482 168.353 137.451 168.432 137.395C168.511 137.338 168.571 137.259 168.603 137.167L208.346 35.7311C208.393 35.6138 208.39 35.483 208.34 35.3674C208.289 35.2519 208.195 35.161 208.078 35.1149C207.961 35.0689 207.83 35.0713 207.714 35.1216C207.599 35.172 207.508 35.2662 207.462 35.3835L167.722 136.82C167.696 136.879 167.684 136.942 167.684 137.006C167.684 137.07 167.697 137.134 167.722 137.193C167.747 137.252 167.783 137.305 167.83 137.349C167.876 137.394 167.93 137.429 167.99 137.452Z" fill="url(#paint26_linear_876_164)"/>
<path d="M155.448 149.476C155.499 149.495 155.552 149.505 155.606 149.505C155.704 149.505 155.8 149.475 155.88 149.418C155.96 149.362 156.02 149.281 156.052 149.189L194.114 41.4643C194.135 41.4055 194.144 41.3433 194.141 41.2811C194.137 41.2189 194.122 41.158 194.095 41.1018C194.068 41.0456 194.03 40.9953 193.984 40.9536C193.938 40.912 193.884 40.8799 193.825 40.8591C193.766 40.8384 193.704 40.8294 193.642 40.8327C193.58 40.836 193.519 40.8515 193.463 40.8784C193.406 40.9052 193.356 40.9429 193.314 40.9892C193.273 41.0355 193.241 41.0895 193.22 41.1483L155.132 148.873C155.112 148.933 155.105 148.997 155.11 149.06C155.115 149.123 155.133 149.185 155.162 149.241C155.192 149.298 155.232 149.348 155.282 149.388C155.331 149.428 155.387 149.458 155.448 149.476Z" fill="url(#paint27_linear_876_164)"/>
<path d="M143.576 162.172C143.622 162.184 143.67 162.191 143.718 162.191C143.819 162.191 143.917 162.159 143.998 162.099C144.079 162.039 144.139 161.955 144.17 161.859L179.647 48.551C179.685 48.4308 179.673 48.3004 179.615 48.1887C179.556 48.077 179.456 47.9931 179.336 47.9554C179.215 47.9177 179.085 47.9293 178.973 47.9876C178.862 48.046 178.778 48.1464 178.74 48.2666L143.266 161.578C143.228 161.698 143.24 161.828 143.298 161.939C143.356 162.05 143.456 162.134 143.576 162.172Z" fill="url(#paint28_linear_876_164)"/>
<path d="M132.548 175.393C132.588 175.406 132.629 175.412 132.671 175.412C132.775 175.412 132.876 175.377 132.959 175.314C133.042 175.251 133.101 175.162 133.129 175.061L165.14 56.9186C165.161 56.8572 165.169 56.7921 165.164 56.7274C165.159 56.6628 165.14 56.5998 165.11 56.5425C165.08 56.4852 165.038 56.4348 164.987 56.3943C164.936 56.3539 164.878 56.3243 164.815 56.3074C164.752 56.2905 164.687 56.2866 164.623 56.296C164.558 56.3055 164.497 56.328 164.442 56.3621C164.387 56.3963 164.339 56.4415 164.302 56.4948C164.265 56.5481 164.239 56.6085 164.227 56.6721L132.213 174.812C132.196 174.872 132.192 174.935 132.2 174.997C132.208 175.058 132.228 175.118 132.26 175.172C132.291 175.226 132.332 175.273 132.382 175.311C132.431 175.349 132.487 175.377 132.548 175.393Z" fill="url(#paint29_linear_876_164)"/>
<path d="M122.464 189.003C122.498 189.006 122.533 189.006 122.568 189.003C122.675 189.003 122.779 188.967 122.862 188.9C122.946 188.834 123.005 188.741 123.029 188.636L150.742 66.4677C150.761 66.4055 150.766 66.3402 150.758 66.2759C150.75 66.2115 150.729 66.1494 150.697 66.0935C150.664 66.0376 150.62 65.989 150.568 65.9507C150.515 65.9124 150.456 65.8853 150.392 65.871C150.329 65.8567 150.264 65.8556 150.2 65.8676C150.136 65.8796 150.076 65.9046 150.022 65.941C149.968 65.9774 149.923 66.0244 149.888 66.0791C149.853 66.1338 149.83 66.1951 149.82 66.2591L122.103 188.425C122.088 188.486 122.086 188.55 122.096 188.613C122.106 188.676 122.128 188.736 122.162 188.79C122.196 188.843 122.239 188.89 122.291 188.927C122.343 188.963 122.402 188.989 122.464 189.003Z" fill="url(#paint30_linear_876_164)"/>
<path d="M113.435 202.844H113.521C113.632 202.844 113.74 202.805 113.826 202.733C113.912 202.662 113.969 202.562 113.988 202.452L136.611 77.1139C136.627 76.9928 136.596 76.8701 136.524 76.7713C136.453 76.6725 136.345 76.6052 136.225 76.5836C136.105 76.562 135.981 76.5877 135.879 76.6553C135.777 76.7229 135.705 76.8272 135.679 76.9464L113.053 202.285C113.041 202.347 113.041 202.41 113.054 202.472C113.066 202.534 113.091 202.593 113.127 202.645C113.162 202.697 113.208 202.741 113.261 202.775C113.314 202.81 113.373 202.833 113.435 202.844Z" fill="url(#paint31_linear_876_164)"/>
<path d="M105.57 216.774H105.63C105.746 216.774 105.857 216.732 105.944 216.656C106.031 216.58 106.086 216.474 106.101 216.36L122.9 88.7369C122.908 88.6746 122.903 88.6114 122.887 88.5508C122.871 88.4902 122.843 88.4334 122.804 88.3837C122.766 88.3339 122.718 88.2922 122.664 88.2609C122.61 88.2296 122.55 88.2093 122.487 88.2013C122.425 88.1932 122.362 88.1974 122.301 88.2138C122.241 88.2301 122.184 88.2582 122.134 88.2965C122.084 88.3348 122.043 88.3825 122.011 88.4369C121.98 88.4913 121.96 88.5514 121.952 88.6136L105.163 216.24C105.154 216.302 105.158 216.364 105.174 216.425C105.19 216.485 105.218 216.542 105.255 216.591C105.293 216.641 105.341 216.683 105.395 216.714C105.449 216.745 105.508 216.766 105.57 216.774Z" fill="url(#paint32_linear_876_164)"/>
<path d="M98.9475 230.631H98.9854C99.1045 230.631 99.2193 230.587 99.3066 230.506C99.394 230.425 99.4474 230.314 99.4562 230.195L109.761 101.191C109.766 101.129 109.759 101.066 109.739 101.007C109.72 100.947 109.689 100.892 109.649 100.845C109.567 100.749 109.451 100.689 109.325 100.679C109.199 100.669 109.075 100.709 108.979 100.791C108.883 100.873 108.823 100.99 108.813 101.115L98.5114 230.119C98.5062 230.181 98.5134 230.244 98.5325 230.304C98.5517 230.363 98.5824 230.418 98.6229 230.466C98.6635 230.513 98.713 230.553 98.7687 230.581C98.8244 230.609 98.8852 230.626 98.9475 230.631Z" fill="url(#paint33_linear_876_164)"/>
<path d="M93.6383 244.266C93.7618 244.266 93.8805 244.218 93.9691 244.132C94.0576 244.045 94.109 243.928 94.1123 243.805L97.3197 114.352C97.3213 114.29 97.3107 114.228 97.2885 114.17C97.2662 114.112 97.2326 114.058 97.1898 114.013C97.147 113.968 97.0956 113.932 97.0388 113.906C96.9819 113.881 96.9206 113.867 96.8583 113.865C96.7961 113.864 96.7341 113.874 96.676 113.897C96.6178 113.919 96.5647 113.952 96.5195 113.995C96.4743 114.038 96.438 114.089 96.4126 114.146C96.3873 114.203 96.3733 114.265 96.3717 114.327L93.1769 243.776C93.1735 243.902 93.2201 244.024 93.3066 244.116C93.393 244.208 93.5123 244.262 93.6383 244.266Z" fill="url(#paint34_linear_876_164)"/>
<path d="M89.6914 257.532C89.7537 257.53 89.8149 257.515 89.8716 257.49C89.9284 257.464 89.9795 257.427 90.022 257.382C90.0646 257.336 90.0978 257.283 90.1197 257.225C90.1415 257.166 90.1517 257.104 90.1496 257.042L85.7256 128.07C85.7199 127.944 85.6654 127.826 85.5739 127.741C85.4824 127.655 85.3611 127.609 85.2358 127.611C85.1736 127.613 85.1123 127.628 85.0556 127.653C84.9989 127.679 84.9478 127.716 84.9052 127.761C84.8626 127.807 84.8295 127.86 84.8076 127.919C84.7857 127.977 84.7755 128.039 84.7776 128.101L89.2016 257.073C89.2032 257.136 89.2173 257.197 89.2428 257.254C89.2684 257.311 89.3051 257.362 89.3506 257.405C89.3962 257.448 89.4498 257.481 89.5083 257.503C89.5668 257.524 89.6291 257.534 89.6914 257.532Z" fill="url(#paint35_linear_876_164)"/>
<path d="M87.1506 270.282H87.1917C87.3165 270.269 87.4312 270.208 87.5105 270.111C87.5899 270.013 87.6275 269.889 87.6152 269.764L75.1553 142.198C75.1493 142.136 75.131 142.075 75.1017 142.02C75.0723 141.965 75.0323 141.916 74.9841 141.876C74.9358 141.836 74.8802 141.807 74.8203 141.788C74.7605 141.77 74.6977 141.764 74.6355 141.77C74.5732 141.776 74.5128 141.794 74.4576 141.823C74.4024 141.853 74.3535 141.893 74.3137 141.941C74.274 141.989 74.2441 142.045 74.2258 142.105C74.2076 142.165 74.2013 142.227 74.2073 142.29L86.6735 269.852C86.6846 269.971 86.7398 270.081 86.8282 270.16C86.9166 270.24 87.0317 270.284 87.1506 270.282Z" fill="url(#paint36_linear_876_164)"/>
<path d="M85.5863 281.98C85.6049 282.091 85.6622 282.191 85.7478 282.263C85.8334 282.336 85.9419 282.375 86.0539 282.375C86.0802 282.378 86.1067 282.378 86.1329 282.375C86.1942 282.365 86.253 282.343 86.3057 282.31C86.3585 282.278 86.4043 282.235 86.4404 282.184C86.4765 282.134 86.5023 282.077 86.5163 282.016C86.5302 281.955 86.532 281.893 86.5216 281.832L65.6467 156.579C65.6365 156.516 65.6142 156.457 65.581 156.403C65.5477 156.35 65.5043 156.303 65.4531 156.266C65.4019 156.229 65.3439 156.203 65.2825 156.189C65.2211 156.174 65.1575 156.172 65.0952 156.182C65.033 156.192 64.9734 156.215 64.9197 156.248C64.8661 156.281 64.8196 156.324 64.7827 156.376C64.7459 156.427 64.7195 156.485 64.7051 156.546C64.6907 156.608 64.6885 156.671 64.6987 156.733L85.5863 281.98Z" fill="url(#paint37_linear_876_164)"/>
<path d="M85.9531 293.321C85.978 293.424 86.0371 293.517 86.1208 293.583C86.2045 293.648 86.3079 293.684 86.4145 293.684C86.4512 293.689 86.4884 293.689 86.5251 293.684C86.6471 293.654 86.7523 293.577 86.818 293.47C86.8836 293.363 86.9044 293.234 86.8759 293.112L57.3362 171.057C57.3068 170.935 57.2301 170.829 57.1228 170.763C57.0156 170.698 56.8866 170.677 56.7642 170.706C56.6419 170.736 56.5362 170.813 56.4704 170.92C56.4046 171.027 56.3841 171.156 56.4135 171.278L85.9531 293.321Z" fill="url(#paint38_linear_876_164)"/>
<path d="M215.57 321.541L89.4517 303.501C89.3903 303.492 89.3277 303.495 89.2675 303.51C89.2073 303.526 89.1508 303.553 89.1012 303.59C89.0516 303.628 89.0098 303.674 88.9783 303.728C88.9468 303.781 88.9262 303.841 88.9177 303.902C88.9066 303.955 88.9066 304.01 88.9177 304.063L88.5195 303.975C88.594 303.915 88.6485 303.834 88.6756 303.743C88.7027 303.651 88.7012 303.553 88.6712 303.463L50.312 185.475C50.273 185.355 50.188 185.255 50.0757 185.198C49.9634 185.141 49.833 185.131 49.7131 185.17C49.5933 185.209 49.4938 185.294 49.4366 185.406C49.3794 185.518 49.3692 185.649 49.4082 185.769L86.5256 299.908L44.6461 199.669C44.6248 199.608 44.5913 199.552 44.5475 199.504C44.5036 199.457 44.4505 199.418 44.3913 199.392C44.3321 199.365 44.2682 199.352 44.2034 199.351C44.1386 199.35 44.0743 199.363 44.0146 199.388C43.9549 199.413 43.9009 199.45 43.8561 199.497C43.8112 199.544 43.7764 199.599 43.7539 199.66C43.7313 199.721 43.7215 199.785 43.7249 199.85C43.7284 199.915 43.745 199.978 43.7739 200.036L85.3974 299.668L40.4243 213.488C40.3661 213.377 40.2659 213.293 40.1459 213.255C40.0259 213.218 39.8959 213.229 39.7844 213.287C39.6729 213.346 39.5892 213.446 39.5516 213.566C39.5139 213.686 39.5255 213.816 39.5838 213.927L84.244 299.475L37.6562 226.795C37.5852 226.696 37.4792 226.629 37.36 226.606C37.2407 226.584 37.1173 226.608 37.0152 226.673C36.9131 226.739 36.8401 226.841 36.8112 226.959C36.7823 227.077 36.7997 227.201 36.8598 227.307L83.018 299.33L36.3732 239.403C36.293 239.314 36.1819 239.259 36.0625 239.248C35.943 239.238 35.824 239.273 35.7294 239.347C35.6349 239.42 35.5717 239.527 35.5528 239.646C35.5339 239.764 35.5606 239.885 35.6274 239.985L81.7066 299.197L36.6323 251.215C36.546 251.125 36.4277 251.073 36.303 251.07C36.1784 251.066 36.0574 251.112 35.9664 251.198C35.8754 251.283 35.8216 251.4 35.8167 251.525C35.8118 251.65 35.8562 251.771 35.9403 251.863L80.332 299.111L38.383 262.086C38.2887 262.002 38.1649 261.959 38.039 261.966C37.9131 261.974 37.7953 262.031 37.7114 262.125C37.6276 262.22 37.5847 262.343 37.5921 262.469C37.5995 262.595 37.6567 262.713 37.7509 262.797L78.831 299.064L41.6251 271.888C41.5233 271.814 41.3962 271.783 41.2717 271.803C41.1473 271.822 41.0357 271.891 40.9615 271.992C40.8873 272.094 40.8567 272.221 40.8762 272.346C40.8958 272.47 40.964 272.582 41.0658 272.656L77.2383 299.077L46.3461 280.559C46.2928 280.523 46.2327 280.499 46.1695 280.487C46.1063 280.475 46.0414 280.476 45.9786 280.49C45.9159 280.504 45.8567 280.531 45.8045 280.568C45.7524 280.606 45.7085 280.654 45.6755 280.709C45.6424 280.764 45.6209 280.826 45.6123 280.889C45.6037 280.953 45.6082 281.018 45.6254 281.08C45.6426 281.142 45.6722 281.199 45.7125 281.25C45.7527 281.3 45.8028 281.341 45.8595 281.371L75.5003 299.137L52.4576 287.941C52.4016 287.914 52.3407 287.898 52.2786 287.894C52.2164 287.89 52.1542 287.899 52.0953 287.919C52.0365 287.94 51.9822 287.972 51.9357 288.013C51.8891 288.054 51.8512 288.104 51.824 288.16C51.7968 288.217 51.7809 288.277 51.7773 288.34C51.7736 288.402 51.7822 288.464 51.8026 288.523C51.823 288.582 51.8548 288.636 51.8961 288.682C51.9375 288.729 51.9876 288.767 52.0436 288.794L73.617 299.276L59.9215 293.989C59.8634 293.967 59.8015 293.956 59.7392 293.957C59.677 293.959 59.6156 293.973 59.5587 293.998C59.5018 294.023 59.4504 294.059 59.4074 294.105C59.3645 294.15 59.3309 294.203 59.3085 294.261C59.2861 294.319 59.2753 294.381 59.2768 294.443C59.2784 294.505 59.2922 294.567 59.3174 294.624C59.3426 294.681 59.3788 294.732 59.4239 294.775C59.469 294.818 59.5221 294.851 59.5802 294.874L71.5882 299.503L68.6494 298.631C68.5897 298.614 68.527 298.608 68.4651 298.614C68.4031 298.621 68.3431 298.64 68.2883 298.669C68.2336 298.699 68.1853 298.74 68.1461 298.788C68.107 298.836 68.0777 298.892 68.0601 298.952C68.0424 299.012 68.0368 299.074 68.0433 299.136C68.0499 299.198 68.0686 299.258 68.0984 299.313C68.1282 299.368 68.1685 299.416 68.2169 299.455C68.2654 299.494 68.3211 299.524 68.3808 299.541L77.9683 302.385C77.9887 302.473 78.0333 302.552 78.097 302.616C78.1607 302.679 78.241 302.723 78.3285 302.742L81.4348 303.415L82.6703 303.782L83.7858 304.212L84.797 304.702L85.7103 305.251L86.5445 305.858L87.3029 306.528L87.9918 307.261L88.6238 308.067L89.1926 308.952L89.7045 309.931L91.0538 313.167C91.0901 313.254 91.1512 313.327 91.2294 313.379C91.3075 313.431 91.3993 313.458 91.4931 313.458H91.5436L95.7148 321.453C95.7552 321.529 95.8157 321.593 95.8897 321.638C95.9638 321.682 96.0487 321.706 96.1351 321.705C96.2122 321.706 96.2883 321.688 96.3563 321.652C96.4661 321.594 96.5486 321.495 96.5858 321.377C96.6231 321.258 96.6122 321.13 96.5554 321.02L94.9754 317.964L101.741 328.522C101.783 328.589 101.842 328.644 101.912 328.682C101.981 328.72 102.06 328.74 102.139 328.74C102.224 328.739 102.308 328.716 102.381 328.673C102.454 328.63 102.514 328.567 102.554 328.493C102.595 328.418 102.615 328.334 102.612 328.249C102.609 328.164 102.583 328.081 102.537 328.01L95.0165 316.273L109.037 334.285C109.081 334.343 109.138 334.389 109.202 334.421C109.267 334.453 109.338 334.469 109.41 334.469C109.516 334.47 109.619 334.434 109.701 334.368C109.75 334.33 109.791 334.282 109.822 334.228C109.853 334.174 109.873 334.115 109.88 334.053C109.888 333.991 109.883 333.929 109.867 333.869C109.85 333.809 109.822 333.753 109.783 333.704L95.0038 314.712L117.538 338.694C117.582 338.741 117.635 338.778 117.695 338.804C117.754 338.829 117.818 338.842 117.882 338.842C118 338.841 118.113 338.794 118.198 338.713C118.29 338.626 118.343 338.507 118.346 338.382C118.35 338.256 118.303 338.134 118.217 338.043L94.9343 313.265L127.141 341.705C127.228 341.783 127.341 341.825 127.457 341.825C127.524 341.825 127.591 341.81 127.653 341.782C127.714 341.755 127.769 341.714 127.814 341.664C127.896 341.569 127.938 341.445 127.93 341.32C127.921 341.195 127.864 341.077 127.77 340.994L94.8395 311.922L137.752 343.241C137.802 343.28 137.86 343.309 137.921 343.326C137.983 343.342 138.047 343.346 138.11 343.338C138.173 343.329 138.233 343.308 138.288 343.275C138.343 343.243 138.39 343.199 138.428 343.148C138.465 343.097 138.492 343.038 138.507 342.976C138.521 342.914 138.523 342.85 138.512 342.787C138.501 342.725 138.478 342.665 138.444 342.611C138.409 342.558 138.364 342.512 138.312 342.476L94.7036 310.633L149.264 343.339C149.337 343.384 149.422 343.408 149.508 343.408C149.611 343.409 149.713 343.375 149.796 343.312C149.878 343.249 149.938 343.161 149.966 343.06C149.994 342.96 149.987 342.854 149.949 342.757C149.91 342.661 149.84 342.58 149.751 342.527L94.514 309.426L161.506 341.974C161.571 342.005 161.642 342.021 161.715 342.021C161.822 342.021 161.926 341.984 162.009 341.917C162.093 341.85 162.152 341.757 162.176 341.653C162.199 341.548 162.187 341.439 162.141 341.342C162.094 341.245 162.016 341.167 161.92 341.121L94.296 308.257L174.408 339.174C174.463 339.195 174.521 339.206 174.579 339.206C174.676 339.205 174.771 339.174 174.85 339.117C174.929 339.061 174.989 338.981 175.021 338.89C175.066 338.772 175.062 338.642 175.011 338.527C174.96 338.413 174.866 338.322 174.75 338.277L94.0369 307.141L187.794 334.949C187.837 334.962 187.882 334.968 187.927 334.968C188.041 334.969 188.152 334.928 188.239 334.854C188.326 334.779 188.382 334.676 188.399 334.563C188.416 334.449 188.391 334.334 188.329 334.238C188.267 334.142 188.172 334.071 188.063 334.039L93.7146 306.063L201.518 329.365C201.551 329.368 201.583 329.368 201.616 329.365C201.742 329.379 201.868 329.342 201.966 329.262C202.064 329.183 202.127 329.068 202.14 328.942C202.154 328.816 202.117 328.69 202.037 328.592C201.958 328.494 201.843 328.431 201.717 328.417L93.3006 304.983L215.428 322.454H215.498C215.624 322.463 215.748 322.422 215.843 322.339C215.938 322.256 215.996 322.139 216.005 322.014C216.014 321.888 215.972 321.764 215.89 321.669C215.807 321.574 215.69 321.515 215.564 321.506L215.57 321.541Z" fill="url(#paint39_linear_876_164)"/>
<path d="M229.458 313.412L101.323 303.673C101.198 303.664 101.073 303.704 100.977 303.786C100.882 303.868 100.823 303.985 100.813 304.111C100.803 304.237 100.844 304.361 100.926 304.457C101.008 304.552 101.125 304.612 101.251 304.621L229.392 314.36H229.426C229.552 314.365 229.675 314.32 229.767 314.235C229.86 314.15 229.914 314.031 229.919 313.905C229.924 313.78 229.879 313.657 229.794 313.565C229.709 313.472 229.59 313.417 229.464 313.412H229.458Z" fill="url(#paint40_linear_876_164)"/>
<path d="M243.233 304.151L113.989 302.334C113.864 302.333 113.745 302.382 113.656 302.469C113.567 302.556 113.516 302.674 113.515 302.799C113.513 302.925 113.561 303.046 113.649 303.137C113.736 303.227 113.856 303.28 113.982 303.282L243.226 305.099C243.351 305.1 243.47 305.051 243.559 304.964C243.648 304.877 243.699 304.759 243.7 304.634C243.702 304.508 243.654 304.387 243.566 304.296C243.479 304.206 243.359 304.153 243.233 304.151Z" fill="url(#paint41_linear_876_164)"/>
<path d="M256.745 293.856L127.34 299.49C127.214 299.493 127.094 299.545 127.007 299.636C126.92 299.727 126.873 299.848 126.875 299.974C126.878 300.1 126.93 300.219 127.021 300.306C127.111 300.393 127.233 300.441 127.359 300.438H127.381L256.786 294.804C256.911 294.798 257.029 294.743 257.115 294.651C257.2 294.559 257.245 294.437 257.241 294.311C257.239 294.249 257.224 294.187 257.198 294.13C257.172 294.073 257.135 294.022 257.089 293.979C257.042 293.937 256.988 293.904 256.929 293.883C256.87 293.862 256.807 293.853 256.745 293.856Z" fill="url(#paint42_linear_876_164)"/>
<path d="M269.84 282.645L141.194 295.184C141.068 295.19 140.95 295.245 140.865 295.338C140.78 295.431 140.736 295.554 140.742 295.68C140.748 295.805 140.803 295.924 140.896 296.008C140.989 296.093 141.112 296.138 141.238 296.132H141.285L269.938 283.593C270.001 283.587 270.061 283.569 270.116 283.539C270.171 283.51 270.22 283.47 270.26 283.422C270.3 283.373 270.33 283.318 270.348 283.258C270.366 283.198 270.373 283.135 270.366 283.073C270.36 283.011 270.342 282.95 270.313 282.895C270.283 282.84 270.244 282.791 270.195 282.751C270.147 282.711 270.091 282.682 270.032 282.663C269.972 282.645 269.909 282.639 269.847 282.645H269.84Z" fill="url(#paint43_linear_876_164)"/>
<path d="M282.392 270.636L155.426 289.438C155.3 289.447 155.183 289.505 155.101 289.601C155.019 289.696 154.977 289.821 154.987 289.946C154.996 290.072 155.055 290.189 155.15 290.271C155.245 290.354 155.37 290.395 155.495 290.386H155.565L282.531 271.568C282.592 271.559 282.651 271.538 282.705 271.506C282.758 271.474 282.805 271.432 282.842 271.382C282.879 271.332 282.905 271.275 282.92 271.215C282.935 271.155 282.938 271.092 282.929 271.031C282.908 270.908 282.841 270.797 282.741 270.724C282.64 270.65 282.515 270.618 282.392 270.636Z" fill="url(#paint44_linear_876_164)"/>
<path d="M294.245 257.936L169.864 282.328C169.738 282.34 169.623 282.401 169.542 282.499C169.462 282.596 169.424 282.722 169.436 282.847C169.448 282.973 169.51 283.089 169.607 283.169C169.705 283.249 169.83 283.288 169.956 283.276H170.047L294.428 258.871C294.546 258.842 294.649 258.768 294.714 258.665C294.78 258.563 294.803 258.439 294.779 258.319C294.756 258.199 294.687 258.094 294.588 258.023C294.488 257.953 294.365 257.924 294.245 257.942V257.936Z" fill="url(#paint45_linear_876_164)"/>
<path d="M305.273 244.725L184.355 273.961C184.23 273.976 184.115 274.04 184.037 274.139C183.958 274.238 183.922 274.365 183.937 274.49C183.951 274.616 184.015 274.731 184.115 274.809C184.214 274.888 184.34 274.924 184.466 274.909C184.503 274.913 184.54 274.913 184.577 274.909L305.494 245.673C305.616 245.643 305.722 245.567 305.788 245.459C305.854 245.352 305.874 245.223 305.845 245.101C305.816 244.978 305.739 244.873 305.632 244.807C305.524 244.741 305.395 244.721 305.273 244.75V244.725Z" fill="url(#paint46_linear_876_164)"/>
</g>
<defs>
<linearGradient id="paint0_linear_876_164" x1="205.216" y1="236.118" x2="292.413" y2="286.288" gradientUnits="userSpaceOnUse">
<stop stop-color="#FF7B1C"/>
<stop offset="1" stop-color="#7E42CA"/>
</linearGradient>
<linearGradient id="paint1_linear_876_164" x1="219.041" y1="222.705" x2="307.709" y2="267.356" gradientUnits="userSpaceOnUse">
<stop stop-color="#FF7B1C"/>
<stop offset="1" stop-color="#7E42CA"/>
</linearGradient>
<linearGradient id="paint2_linear_876_164" x1="232.436" y1="209.13" x2="320.07" y2="248.59" gradientUnits="userSpaceOnUse">
<stop stop-color="#FF7B1C"/>
<stop offset="1" stop-color="#7E42CA"/>
</linearGradient>
<linearGradient id="paint3_linear_876_164" x1="245.207" y1="195.473" x2="330.011" y2="230.116" gradientUnits="userSpaceOnUse">
<stop stop-color="#FF7B1C"/>
<stop offset="1" stop-color="#7E42CA"/>
</linearGradient>
<linearGradient id="paint4_linear_876_164" x1="257.219" y1="181.905" x2="337.797" y2="212.156" gradientUnits="userSpaceOnUse">
<stop stop-color="#FF7B1C"/>
<stop offset="1" stop-color="#7E42CA"/>
</linearGradient>
<linearGradient id="paint5_linear_876_164" x1="268.35" y1="168.569" x2="343.608" y2="194.818" gradientUnits="userSpaceOnUse">
<stop stop-color="#FF7B1C"/>
<stop offset="1" stop-color="#7E42CA"/>
</linearGradient>
<linearGradient id="paint6_linear_876_164" x1="278.495" y1="155.61" x2="347.554" y2="178.198" gradientUnits="userSpaceOnUse">
<stop stop-color="#FF7B1C"/>
<stop offset="1" stop-color="#7E42CA"/>
</linearGradient>
<linearGradient id="paint7_linear_876_164" x1="287.498" y1="143.183" x2="349.679" y2="162.442" gradientUnits="userSpaceOnUse">
<stop stop-color="#FF7B1C"/>
<stop offset="1" stop-color="#7E42CA"/>
</linearGradient>
<linearGradient id="paint8_linear_876_164" x1="295.3" y1="131.421" x2="350.069" y2="147.653" gradientUnits="userSpaceOnUse">
<stop stop-color="#FF7B1C"/>
<stop offset="1" stop-color="#7E42CA"/>
</linearGradient>
<linearGradient id="paint9_linear_876_164" x1="301.797" y1="120.436" x2="348.76" y2="133.92" gradientUnits="userSpaceOnUse">
<stop stop-color="#FF7B1C"/>
<stop offset="1" stop-color="#7E42CA"/>
</linearGradient>
<linearGradient id="paint10_linear_876_164" x1="306.942" y1="110.345" x2="345.865" y2="121.373" gradientUnits="userSpaceOnUse">
<stop stop-color="#FF7B1C"/>
<stop offset="1" stop-color="#7E42CA"/>
</linearGradient>
<linearGradient id="paint11_linear_876_164" x1="310.646" y1="101.272" x2="341.4" y2="110.15" gradientUnits="userSpaceOnUse">
<stop stop-color="#FF7B1C"/>
<stop offset="1" stop-color="#7E42CA"/>
</linearGradient>
<linearGradient id="paint12_linear_876_164" x1="312.885" y1="93.3178" x2="335.355" y2="100.408" gradientUnits="userSpaceOnUse">
<stop stop-color="#FF7B1C"/>
<stop offset="1" stop-color="#7E42CA"/>
</linearGradient>
<linearGradient id="paint13_linear_876_164" x1="313.625" y1="86.582" x2="327.309" y2="92.5413" gradientUnits="userSpaceOnUse">
<stop stop-color="#FF7B1C"/>
<stop offset="1" stop-color="#7E42CA"/>
</linearGradient>
<linearGradient id="paint14_linear_876_164" x1="312.879" y1="79.6435" x2="319.644" y2="82.7341" gradientUnits="userSpaceOnUse">
<stop stop-color="#FF7B1C"/>
<stop offset="1" stop-color="#7E42CA"/>
</linearGradient>
<linearGradient id="paint15_linear_876_164" x1="310.233" y1="69.8965" x2="311.623" y2="69.9263" gradientUnits="userSpaceOnUse">
<stop stop-color="#FF7B1C"/>
<stop offset="1" stop-color="#7E42CA"/>
</linearGradient>
<linearGradient id="paint16_linear_876_164" x1="300.083" y1="61.271" x2="308.635" y2="61.9173" gradientUnits="userSpaceOnUse">
<stop stop-color="#FF7B1C"/>
<stop offset="1" stop-color="#7E42CA"/>
</linearGradient>
<linearGradient id="paint17_linear_876_164" x1="288.979" y1="53.8482" x2="304.092" y2="55.2485" gradientUnits="userSpaceOnUse">
<stop stop-color="#FF7B1C"/>
<stop offset="1" stop-color="#7E42CA"/>
</linearGradient>
<linearGradient id="paint18_linear_876_164" x1="277.107" y1="47.7324" x2="298.153" y2="49.7998" gradientUnits="userSpaceOnUse">
<stop stop-color="#FF7B1C"/>
<stop offset="1" stop-color="#7E42CA"/>
</linearGradient>
<linearGradient id="paint19_linear_876_164" x1="264.554" y1="42.9633" x2="290.843" y2="45.56" gradientUnits="userSpaceOnUse">
<stop stop-color="#FF7B1C"/>
<stop offset="1" stop-color="#7E42CA"/>
</linearGradient>
<linearGradient id="paint20_linear_876_164" x1="251.475" y1="39.6015" x2="282.277" y2="42.5831" gradientUnits="userSpaceOnUse">
<stop stop-color="#FF7B1C"/>
<stop offset="1" stop-color="#7E42CA"/>
</linearGradient>
<linearGradient id="paint21_linear_876_164" x1="238.013" y1="37.6632" x2="272.539" y2="40.8848" gradientUnits="userSpaceOnUse">
<stop stop-color="#FF7B1C"/>
<stop offset="1" stop-color="#7E42CA"/>
</linearGradient>
<linearGradient id="paint22_linear_876_164" x1="224.287" y1="37.2442" x2="261.695" y2="40.5724" gradientUnits="userSpaceOnUse">
<stop stop-color="#FF7B1C"/>
<stop offset="1" stop-color="#7E42CA"/>
</linearGradient>
<linearGradient id="paint23_linear_876_164" x1="210.5" y1="38.2503" x2="249.921" y2="41.5592" gradientUnits="userSpaceOnUse">
<stop stop-color="#FF7B1C"/>
<stop offset="1" stop-color="#7E42CA"/>
</linearGradient>
<linearGradient id="paint24_linear_876_164" x1="196.75" y1="40.7702" x2="237.28" y2="43.9515" gradientUnits="userSpaceOnUse">
<stop stop-color="#FF7B1C"/>
<stop offset="1" stop-color="#7E42CA"/>
</linearGradient>
<linearGradient id="paint25_linear_876_164" x1="183.215" y1="44.691" x2="223.954" y2="47.6514" gradientUnits="userSpaceOnUse">
<stop stop-color="#FF7B1C"/>
<stop offset="1" stop-color="#7E42CA"/>
</linearGradient>
<linearGradient id="paint26_linear_876_164" x1="170.045" y1="50.0155" x2="210.073" y2="52.6786" gradientUnits="userSpaceOnUse">
<stop stop-color="#FF7B1C"/>
<stop offset="1" stop-color="#7E42CA"/>
</linearGradient>
<linearGradient id="paint27_linear_876_164" x1="157.374" y1="56.6801" x2="195.797" y2="58.9905" gradientUnits="userSpaceOnUse">
<stop stop-color="#FF7B1C"/>
<stop offset="1" stop-color="#7E42CA"/>
</linearGradient>
<linearGradient id="paint28_linear_876_164" x1="145.358" y1="64.5961" x2="181.241" y2="66.5112" gradientUnits="userSpaceOnUse">
<stop stop-color="#FF7B1C"/>
<stop offset="1" stop-color="#7E42CA"/>
</linearGradient>
<linearGradient id="paint29_linear_876_164" x1="134.11" y1="73.6629" x2="166.611" y2="75.1688" gradientUnits="userSpaceOnUse">
<stop stop-color="#FF7B1C"/>
<stop offset="1" stop-color="#7E42CA"/>
</linearGradient>
<linearGradient id="paint30_linear_876_164" x1="123.754" y1="83.8182" x2="152.037" y2="84.9206" gradientUnits="userSpaceOnUse">
<stop stop-color="#FF7B1C"/>
<stop offset="1" stop-color="#7E42CA"/>
</linearGradient>
<linearGradient id="paint31_linear_876_164" x1="114.412" y1="94.9902" x2="137.676" y2="95.7173" gradientUnits="userSpaceOnUse">
<stop stop-color="#FF7B1C"/>
<stop offset="1" stop-color="#7E42CA"/>
</linearGradient>
<linearGradient id="paint32_linear_876_164" x1="106.188" y1="106.948" x2="123.71" y2="107.353" gradientUnits="userSpaceOnUse">
<stop stop-color="#FF7B1C"/>
<stop offset="1" stop-color="#7E42CA"/>
</linearGradient>
<linearGradient id="paint33_linear_876_164" x1="99.1628" y1="119.629" x2="110.277" y2="119.79" gradientUnits="userSpaceOnUse">
<stop stop-color="#FF7B1C"/>
<stop offset="1" stop-color="#7E42CA"/>
</linearGradient>
<linearGradient id="paint34_linear_876_164" x1="93.4172" y1="132.882" x2="97.5102" y2="132.904" gradientUnits="userSpaceOnUse">
<stop stop-color="#FF7B1C"/>
<stop offset="1" stop-color="#7E42CA"/>
</linearGradient>
<linearGradient id="paint35_linear_876_164" x1="85.0891" y1="146.558" x2="90.3966" y2="146.595" gradientUnits="userSpaceOnUse">
<stop stop-color="#FF7B1C"/>
<stop offset="1" stop-color="#7E42CA"/>
</linearGradient>
<linearGradient id="paint36_linear_876_164" x1="74.9835" y1="160.509" x2="88.23" y2="160.741" gradientUnits="userSpaceOnUse">
<stop stop-color="#FF7B1C"/>
<stop offset="1" stop-color="#7E42CA"/>
</linearGradient>
<linearGradient id="paint37_linear_876_164" x1="65.9596" y1="174.58" x2="87.5139" y2="175.205" gradientUnits="userSpaceOnUse">
<stop stop-color="#FF7B1C"/>
<stop offset="1" stop-color="#7E42CA"/>
</linearGradient>
<linearGradient id="paint38_linear_876_164" x1="58.1698" y1="188.63" x2="88.2381" y2="189.878" gradientUnits="userSpaceOnUse">
<stop stop-color="#FF7B1C"/>
<stop offset="1" stop-color="#7E42CA"/>
</linearGradient>
<linearGradient id="paint39_linear_876_164" x1="46.02" y1="208.226" x2="218.033" y2="241.062" gradientUnits="userSpaceOnUse">
<stop stop-color="#FF7B1C"/>
<stop offset="1" stop-color="#7E42CA"/>
</linearGradient>
<linearGradient id="paint40_linear_876_164" x1="108.304" y1="305.231" x2="133.369" y2="355.913" gradientUnits="userSpaceOnUse">
<stop stop-color="#FF7B1C"/>
<stop offset="1" stop-color="#7E42CA"/>
</linearGradient>
<linearGradient id="paint41_linear_876_164" x1="121.07" y1="302.737" x2="123.107" y2="318.796" gradientUnits="userSpaceOnUse">
<stop stop-color="#FF7B1C"/>
<stop offset="1" stop-color="#7E42CA"/>
</linearGradient>
<linearGradient id="paint42_linear_876_164" x1="134.441" y1="294.816" x2="145.182" y2="330.424" gradientUnits="userSpaceOnUse">
<stop stop-color="#FF7B1C"/>
<stop offset="1" stop-color="#7E42CA"/>
</linearGradient>
<linearGradient id="paint43_linear_876_164" x1="148.264" y1="284.61" x2="183.956" y2="342.029" gradientUnits="userSpaceOnUse">
<stop stop-color="#FF7B1C"/>
<stop offset="1" stop-color="#7E42CA"/>
</linearGradient>
<linearGradient id="paint44_linear_876_164" x1="162.411" y1="273.512" x2="220.513" y2="336.508" gradientUnits="userSpaceOnUse">
<stop stop-color="#FF7B1C"/>
<stop offset="1" stop-color="#7E42CA"/>
</linearGradient>
<linearGradient id="paint45_linear_876_164" x1="176.709" y1="261.631" x2="250.173" y2="322.467" gradientUnits="userSpaceOnUse">
<stop stop-color="#FF7B1C"/>
<stop offset="1" stop-color="#7E42CA"/>
</linearGradient>
<linearGradient id="paint46_linear_876_164" x1="191.01" y1="249.127" x2="273.671" y2="305.019" gradientUnits="userSpaceOnUse">
<stop stop-color="#FF7B1C"/>
<stop offset="1" stop-color="#7E42CA"/>
</linearGradient>
<clipPath id="clip0_876_164">
<rect width="351" height="369" fill="white"/>
</clipPath>
</defs>
</svg>
