<svg width="436" height="577" viewBox="0 0 436 577" fill="none" xmlns="http://www.w3.org/2000/svg">
<g filter="url(#filter0_f_4813_4738)">
<circle cx="164.5" cy="164.5" r="164.5" transform="matrix(-1 0 0 1 575 155)" fill="#FD7D00" fill-opacity="0.24"/>
</g>
<g filter="url(#filter1_d_4813_4738)">
<path d="M810.29 267.305L360.4 524.624C357.842 526.087 354.687 526.025 352.188 524.463L11.3502 311.407C6.21881 308.199 6.36902 300.676 11.6244 297.676L458.865 42.3499C461.403 40.9009 464.53 40.9513 467.02 42.4814L810.506 253.544C815.683 256.725 815.564 264.288 810.29 267.305Z" fill="url(#paint0_linear_4813_4738)" fill-opacity="0.08" shape-rendering="crispEdges"/>
<path d="M810.29 267.305L360.4 524.624C357.842 526.087 354.687 526.025 352.188 524.463L11.3502 311.407C6.21881 308.199 6.36902 300.676 11.6244 297.676L458.865 42.3499C461.403 40.9009 464.53 40.9513 467.02 42.4814L810.506 253.544C815.683 256.725 815.564 264.288 810.29 267.305Z" stroke="url(#paint1_linear_4813_4738)" shape-rendering="crispEdges"/>
</g>
<defs>
<filter id="filter0_f_4813_4738" x="153" y="62" width="515" height="515" filterUnits="userSpaceOnUse" color-interpolation-filters="sRGB">
<feFlood flood-opacity="0" result="BackgroundImageFix"/>
<feBlend mode="normal" in="SourceGraphic" in2="BackgroundImageFix" result="shape"/>
<feGaussianBlur stdDeviation="46.5" result="effect1_foregroundBlur_4813_4738"/>
</filter>
<filter id="filter1_d_4813_4738" x="7.09082" y="0.797852" width="1019.73" height="567.382" filterUnits="userSpaceOnUse" color-interpolation-filters="sRGB">
<feFlood flood-opacity="0" result="BackgroundImageFix"/>
<feColorMatrix in="SourceAlpha" type="matrix" values="0 0 0 0 0 0 0 0 0 0 0 0 0 0 0 0 0 0 127 0" result="hardAlpha"/>
<feOffset dx="171" dy="1"/>
<feGaussianBlur stdDeviation="20.5"/>
<feComposite in2="hardAlpha" operator="out"/>
<feColorMatrix type="matrix" values="0 0 0 0 0 0 0 0 0 0 0 0 0 0 0 0 0 0 0.4 0"/>
<feBlend mode="normal" in2="BackgroundImageFix" result="effect1_dropShadow_4813_4738"/>
<feBlend mode="normal" in="SourceGraphic" in2="effect1_dropShadow_4813_4738" result="shape"/>
</filter>
<linearGradient id="paint0_linear_4813_4738" x1="411" y1="40" x2="411" y2="527" gradientUnits="userSpaceOnUse">
<stop stop-color="white"/>
<stop offset="1" stop-color="white" stop-opacity="0"/>
</linearGradient>
<linearGradient id="paint1_linear_4813_4738" x1="1072.9" y1="-256.224" x2="410.281" y2="526.391" gradientUnits="userSpaceOnUse">
<stop stop-color="white" stop-opacity="0.45"/>
<stop offset="1" stop-color="white" stop-opacity="0"/>
</linearGradient>
</defs>
</svg>
