<svg width="544" height="544" viewBox="0 0 544 544" fill="none" xmlns="http://www.w3.org/2000/svg">
<g filter="url(#filter0_f_4812_4735)">
<circle cx="272" cy="272" r="100" fill="#FD7D00" fill-opacity="0.24"/>
</g>
<g filter="url(#filter1_dd_4812_4735)">
<path d="M353.411 200.105C353.311 200.787 352.682 201.316 351.994 201.296C350.703 201.258 349.423 201.546 348.273 202.132C347.122 202.719 346.138 203.587 345.412 204.654C344.685 205.722 344.239 206.956 344.115 208.241C343.991 209.527 344.193 210.823 344.702 212.01C346.238 215.597 350.237 217.275 353.758 216.382C355.439 215.954 357.421 216.079 358.526 217.417L376.707 239.47C377.789 240.782 377.571 242.699 376.855 244.238L376.806 244.349C375.973 246.209 375.914 248.324 376.641 250.228C377.368 252.133 378.821 253.67 380.682 254.503C384.556 256.238 388.512 254.707 390.246 250.833C390.567 250.061 390.77 249.246 390.85 248.415C390.891 248.079 391.059 247.771 391.319 247.554C391.579 247.337 391.912 247.228 392.25 247.247C393.54 247.346 395.004 247.241 396.104 246.77C397.032 246.373 397.872 245.796 398.577 245.074C399.282 244.351 399.838 243.497 400.213 242.559C400.588 241.622 400.774 240.62 400.762 239.611C400.749 238.601 400.538 237.604 400.14 236.677C398.606 233.094 394.614 231.412 391.096 232.301C389.417 232.725 387.442 232.597 386.339 231.261L368.144 209.192C367.066 207.884 367.28 205.971 367.994 204.434C368.317 203.74 368.535 203.001 368.638 202.242C368.873 200.546 368.532 198.82 367.67 197.341C367.161 196.458 366.48 195.686 365.668 195.07C364.855 194.454 363.928 194.007 362.941 193.754C362.091 193.535 361.21 193.463 360.336 193.54C359.214 193.64 358.128 193.986 357.155 194.554C356.284 195.058 355.52 195.73 354.909 196.53C354.297 197.33 353.85 198.243 353.592 199.217C353.513 199.513 353.452 199.808 353.411 200.105Z" fill="#DCD4E1"/>
</g>
<path d="M353.411 200.105C353.311 200.787 352.682 201.316 351.994 201.296C350.703 201.258 349.423 201.546 348.273 202.132C347.122 202.719 346.138 203.587 345.412 204.654C344.685 205.722 344.239 206.956 344.115 208.241C343.991 209.527 344.193 210.823 344.702 212.01C346.238 215.597 350.237 217.275 353.758 216.382C355.439 215.954 357.421 216.079 358.526 217.417L376.707 239.47C377.789 240.782 377.571 242.699 376.855 244.238L376.806 244.349C375.973 246.209 375.914 248.324 376.641 250.228C377.368 252.133 378.821 253.67 380.682 254.503C384.556 256.238 388.512 254.707 390.246 250.833C390.567 250.061 390.77 249.246 390.85 248.415C390.891 248.079 391.059 247.771 391.319 247.554C391.579 247.337 391.912 247.228 392.25 247.247C393.54 247.346 395.004 247.241 396.104 246.77C397.032 246.373 397.872 245.796 398.577 245.074C399.282 244.351 399.838 243.497 400.213 242.559C400.588 241.622 400.774 240.62 400.762 239.611C400.749 238.601 400.538 237.604 400.14 236.677C398.606 233.094 394.614 231.412 391.096 232.301C389.417 232.725 387.442 232.597 386.339 231.261L368.144 209.192C367.066 207.884 367.28 205.971 367.994 204.434C368.317 203.74 368.535 203.001 368.638 202.242C368.873 200.546 368.532 198.82 367.67 197.341C367.161 196.458 366.48 195.686 365.668 195.07C364.855 194.454 363.928 194.007 362.941 193.754C362.091 193.535 361.21 193.463 360.336 193.54C359.214 193.64 358.128 193.986 357.155 194.554C356.284 195.058 355.52 195.73 354.909 196.53C354.297 197.33 353.85 198.243 353.592 199.217C353.513 199.513 353.452 199.808 353.411 200.105Z" fill="url(#paint0_radial_4812_4735)"/>
<path d="M353.411 200.105C353.311 200.787 352.682 201.316 351.994 201.296C350.703 201.258 349.423 201.546 348.273 202.132C347.122 202.719 346.138 203.587 345.412 204.654C344.685 205.722 344.239 206.956 344.115 208.241C343.991 209.527 344.193 210.823 344.702 212.01C346.238 215.597 350.237 217.275 353.758 216.382C355.439 215.954 357.421 216.079 358.526 217.417L376.707 239.47C377.789 240.782 377.571 242.699 376.855 244.238L376.806 244.349C375.973 246.209 375.914 248.324 376.641 250.228C377.368 252.133 378.821 253.67 380.682 254.503C384.556 256.238 388.512 254.707 390.246 250.833C390.567 250.061 390.77 249.246 390.85 248.415C390.891 248.079 391.059 247.771 391.319 247.554C391.579 247.337 391.912 247.228 392.25 247.247C393.54 247.346 395.004 247.241 396.104 246.77C397.032 246.373 397.872 245.796 398.577 245.074C399.282 244.351 399.838 243.497 400.213 242.559C400.588 241.622 400.774 240.62 400.762 239.611C400.749 238.601 400.538 237.604 400.14 236.677C398.606 233.094 394.614 231.412 391.096 232.301C389.417 232.725 387.442 232.597 386.339 231.261L368.144 209.192C367.066 207.884 367.28 205.971 367.994 204.434C368.317 203.74 368.535 203.001 368.638 202.242C368.873 200.546 368.532 198.82 367.67 197.341C367.161 196.458 366.48 195.686 365.668 195.07C364.855 194.454 363.928 194.007 362.941 193.754C362.091 193.535 361.21 193.463 360.336 193.54C359.214 193.64 358.128 193.986 357.155 194.554C356.284 195.058 355.52 195.73 354.909 196.53C354.297 197.33 353.85 198.243 353.592 199.217C353.513 199.513 353.452 199.808 353.411 200.105Z" fill="url(#paint1_radial_4812_4735)"/>
<path d="M353.411 200.105C353.311 200.787 352.682 201.316 351.994 201.296C350.703 201.258 349.423 201.546 348.273 202.132C347.122 202.719 346.138 203.587 345.412 204.654C344.685 205.722 344.239 206.956 344.115 208.241C343.991 209.527 344.193 210.823 344.702 212.01C346.238 215.597 350.237 217.275 353.758 216.382C355.439 215.954 357.421 216.079 358.526 217.417L376.707 239.47C377.789 240.782 377.571 242.699 376.855 244.238L376.806 244.349C375.973 246.209 375.914 248.324 376.641 250.228C377.368 252.133 378.821 253.67 380.682 254.503C384.556 256.238 388.512 254.707 390.246 250.833C390.567 250.061 390.77 249.246 390.85 248.415C390.891 248.079 391.059 247.771 391.319 247.554C391.579 247.337 391.912 247.228 392.25 247.247C393.54 247.346 395.004 247.241 396.104 246.77C397.032 246.373 397.872 245.796 398.577 245.074C399.282 244.351 399.838 243.497 400.213 242.559C400.588 241.622 400.774 240.62 400.762 239.611C400.749 238.601 400.538 237.604 400.14 236.677C398.606 233.094 394.614 231.412 391.096 232.301C389.417 232.725 387.442 232.597 386.339 231.261L368.144 209.192C367.066 207.884 367.28 205.971 367.994 204.434C368.317 203.74 368.535 203.001 368.638 202.242C368.873 200.546 368.532 198.82 367.67 197.341C367.161 196.458 366.48 195.686 365.668 195.07C364.855 194.454 363.928 194.007 362.941 193.754C362.091 193.535 361.21 193.463 360.336 193.54C359.214 193.64 358.128 193.986 357.155 194.554C356.284 195.058 355.52 195.73 354.909 196.53C354.297 197.33 353.85 198.243 353.592 199.217C353.513 199.513 353.452 199.808 353.411 200.105Z" fill="url(#paint2_radial_4812_4735)"/>
<path d="M353.411 200.105C353.311 200.787 352.682 201.316 351.994 201.296C350.703 201.258 349.423 201.546 348.273 202.132C347.122 202.719 346.138 203.587 345.412 204.654C344.685 205.722 344.239 206.956 344.115 208.241C343.991 209.527 344.193 210.823 344.702 212.01C346.238 215.597 350.237 217.275 353.758 216.382C355.439 215.954 357.421 216.079 358.526 217.417L376.707 239.47C377.789 240.782 377.571 242.699 376.855 244.238L376.806 244.349C375.973 246.209 375.914 248.324 376.641 250.228C377.368 252.133 378.821 253.67 380.682 254.503C384.556 256.238 388.512 254.707 390.246 250.833C390.567 250.061 390.77 249.246 390.85 248.415C390.891 248.079 391.059 247.771 391.319 247.554C391.579 247.337 391.912 247.228 392.25 247.247C393.54 247.346 395.004 247.241 396.104 246.77C397.032 246.373 397.872 245.796 398.577 245.074C399.282 244.351 399.838 243.497 400.213 242.559C400.588 241.622 400.774 240.62 400.762 239.611C400.749 238.601 400.538 237.604 400.14 236.677C398.606 233.094 394.614 231.412 391.096 232.301C389.417 232.725 387.442 232.597 386.339 231.261L368.144 209.192C367.066 207.884 367.28 205.971 367.994 204.434C368.317 203.74 368.535 203.001 368.638 202.242C368.873 200.546 368.532 198.82 367.67 197.341C367.161 196.458 366.48 195.686 365.668 195.07C364.855 194.454 363.928 194.007 362.941 193.754C362.091 193.535 361.21 193.463 360.336 193.54C359.214 193.64 358.128 193.986 357.155 194.554C356.284 195.058 355.52 195.73 354.909 196.53C354.297 197.33 353.85 198.243 353.592 199.217C353.513 199.513 353.452 199.808 353.411 200.105Z" fill="url(#paint3_radial_4812_4735)"/>
<path d="M353.411 200.105C353.311 200.787 352.682 201.316 351.994 201.296C350.703 201.258 349.423 201.546 348.273 202.132C347.122 202.719 346.138 203.587 345.412 204.654C344.685 205.722 344.239 206.956 344.115 208.241C343.991 209.527 344.193 210.823 344.702 212.01C346.238 215.597 350.237 217.275 353.758 216.382C355.439 215.954 357.421 216.079 358.526 217.417L376.707 239.47C377.789 240.782 377.571 242.699 376.855 244.238L376.806 244.349C375.973 246.209 375.914 248.324 376.641 250.228C377.368 252.133 378.821 253.67 380.682 254.503C384.556 256.238 388.512 254.707 390.246 250.833C390.567 250.061 390.77 249.246 390.85 248.415C390.891 248.079 391.059 247.771 391.319 247.554C391.579 247.337 391.912 247.228 392.25 247.247C393.54 247.346 395.004 247.241 396.104 246.77C397.032 246.373 397.872 245.796 398.577 245.074C399.282 244.351 399.838 243.497 400.213 242.559C400.588 241.622 400.774 240.62 400.762 239.611C400.749 238.601 400.538 237.604 400.14 236.677C398.606 233.094 394.614 231.412 391.096 232.301C389.417 232.725 387.442 232.597 386.339 231.261L368.144 209.192C367.066 207.884 367.28 205.971 367.994 204.434C368.317 203.74 368.535 203.001 368.638 202.242C368.873 200.546 368.532 198.82 367.67 197.341C367.161 196.458 366.48 195.686 365.668 195.07C364.855 194.454 363.928 194.007 362.941 193.754C362.091 193.535 361.21 193.463 360.336 193.54C359.214 193.64 358.128 193.986 357.155 194.554C356.284 195.058 355.52 195.73 354.909 196.53C354.297 197.33 353.85 198.243 353.592 199.217C353.513 199.513 353.452 199.808 353.411 200.105Z" fill="url(#paint4_radial_4812_4735)"/>
<path d="M353.411 200.105C353.311 200.787 352.682 201.316 351.994 201.296C350.703 201.258 349.423 201.546 348.273 202.132C347.122 202.719 346.138 203.587 345.412 204.654C344.685 205.722 344.239 206.956 344.115 208.241C343.991 209.527 344.193 210.823 344.702 212.01C346.238 215.597 350.237 217.275 353.758 216.382C355.439 215.954 357.421 216.079 358.526 217.417L376.707 239.47C377.789 240.782 377.571 242.699 376.855 244.238L376.806 244.349C375.973 246.209 375.914 248.324 376.641 250.228C377.368 252.133 378.821 253.67 380.682 254.503C384.556 256.238 388.512 254.707 390.246 250.833C390.567 250.061 390.77 249.246 390.85 248.415C390.891 248.079 391.059 247.771 391.319 247.554C391.579 247.337 391.912 247.228 392.25 247.247C393.54 247.346 395.004 247.241 396.104 246.77C397.032 246.373 397.872 245.796 398.577 245.074C399.282 244.351 399.838 243.497 400.213 242.559C400.588 241.622 400.774 240.62 400.762 239.611C400.749 238.601 400.538 237.604 400.14 236.677C398.606 233.094 394.614 231.412 391.096 232.301C389.417 232.725 387.442 232.597 386.339 231.261L368.144 209.192C367.066 207.884 367.28 205.971 367.994 204.434C368.317 203.74 368.535 203.001 368.638 202.242C368.873 200.546 368.532 198.82 367.67 197.341C367.161 196.458 366.48 195.686 365.668 195.07C364.855 194.454 363.928 194.007 362.941 193.754C362.091 193.535 361.21 193.463 360.336 193.54C359.214 193.64 358.128 193.986 357.155 194.554C356.284 195.058 355.52 195.73 354.909 196.53C354.297 197.33 353.85 198.243 353.592 199.217C353.513 199.513 353.452 199.808 353.411 200.105Z" fill="url(#paint5_radial_4812_4735)"/>
<path d="M353.411 200.105C353.311 200.787 352.682 201.316 351.994 201.296C350.703 201.258 349.423 201.546 348.273 202.132C347.122 202.719 346.138 203.587 345.412 204.654C344.685 205.722 344.239 206.956 344.115 208.241C343.991 209.527 344.193 210.823 344.702 212.01C346.238 215.597 350.237 217.275 353.758 216.382C355.439 215.954 357.421 216.079 358.526 217.417L376.707 239.47C377.789 240.782 377.571 242.699 376.855 244.238L376.806 244.349C375.973 246.209 375.914 248.324 376.641 250.228C377.368 252.133 378.821 253.67 380.682 254.503C384.556 256.238 388.512 254.707 390.246 250.833C390.567 250.061 390.77 249.246 390.85 248.415C390.891 248.079 391.059 247.771 391.319 247.554C391.579 247.337 391.912 247.228 392.25 247.247C393.54 247.346 395.004 247.241 396.104 246.77C397.032 246.373 397.872 245.796 398.577 245.074C399.282 244.351 399.838 243.497 400.213 242.559C400.588 241.622 400.774 240.62 400.762 239.611C400.749 238.601 400.538 237.604 400.14 236.677C398.606 233.094 394.614 231.412 391.096 232.301C389.417 232.725 387.442 232.597 386.339 231.261L368.144 209.192C367.066 207.884 367.28 205.971 367.994 204.434C368.317 203.74 368.535 203.001 368.638 202.242C368.873 200.546 368.532 198.82 367.67 197.341C367.161 196.458 366.48 195.686 365.668 195.07C364.855 194.454 363.928 194.007 362.941 193.754C362.091 193.535 361.21 193.463 360.336 193.54C359.214 193.64 358.128 193.986 357.155 194.554C356.284 195.058 355.52 195.73 354.909 196.53C354.297 197.33 353.85 198.243 353.592 199.217C353.513 199.513 353.452 199.808 353.411 200.105Z" fill="url(#paint6_radial_4812_4735)"/>
<path d="M353.411 200.105C353.311 200.787 352.682 201.316 351.994 201.296C350.703 201.258 349.423 201.546 348.273 202.132C347.122 202.719 346.138 203.587 345.412 204.654C344.685 205.722 344.239 206.956 344.115 208.241C343.991 209.527 344.193 210.823 344.702 212.01C346.238 215.597 350.237 217.275 353.758 216.382C355.439 215.954 357.421 216.079 358.526 217.417L376.707 239.47C377.789 240.782 377.571 242.699 376.855 244.238L376.806 244.349C375.973 246.209 375.914 248.324 376.641 250.228C377.368 252.133 378.821 253.67 380.682 254.503C384.556 256.238 388.512 254.707 390.246 250.833C390.567 250.061 390.77 249.246 390.85 248.415C390.891 248.079 391.059 247.771 391.319 247.554C391.579 247.337 391.912 247.228 392.25 247.247C393.54 247.346 395.004 247.241 396.104 246.77C397.032 246.373 397.872 245.796 398.577 245.074C399.282 244.351 399.838 243.497 400.213 242.559C400.588 241.622 400.774 240.62 400.762 239.611C400.749 238.601 400.538 237.604 400.14 236.677C398.606 233.094 394.614 231.412 391.096 232.301C389.417 232.725 387.442 232.597 386.339 231.261L368.144 209.192C367.066 207.884 367.28 205.971 367.994 204.434C368.317 203.74 368.535 203.001 368.638 202.242C368.873 200.546 368.532 198.82 367.67 197.341C367.161 196.458 366.48 195.686 365.668 195.07C364.855 194.454 363.928 194.007 362.941 193.754C362.091 193.535 361.21 193.463 360.336 193.54C359.214 193.64 358.128 193.986 357.155 194.554C356.284 195.058 355.52 195.73 354.909 196.53C354.297 197.33 353.85 198.243 353.592 199.217C353.513 199.513 353.452 199.808 353.411 200.105Z" fill="url(#paint7_radial_4812_4735)"/>
<path d="M353.411 200.105C353.311 200.787 352.682 201.316 351.994 201.296C350.703 201.258 349.423 201.546 348.273 202.132C347.122 202.719 346.138 203.587 345.412 204.654C344.685 205.722 344.239 206.956 344.115 208.241C343.991 209.527 344.193 210.823 344.702 212.01C346.238 215.597 350.237 217.275 353.758 216.382C355.439 215.954 357.421 216.079 358.526 217.417L376.707 239.47C377.789 240.782 377.571 242.699 376.855 244.238L376.806 244.349C375.973 246.209 375.914 248.324 376.641 250.228C377.368 252.133 378.821 253.67 380.682 254.503C384.556 256.238 388.512 254.707 390.246 250.833C390.567 250.061 390.77 249.246 390.85 248.415C390.891 248.079 391.059 247.771 391.319 247.554C391.579 247.337 391.912 247.228 392.25 247.247C393.54 247.346 395.004 247.241 396.104 246.77C397.032 246.373 397.872 245.796 398.577 245.074C399.282 244.351 399.838 243.497 400.213 242.559C400.588 241.622 400.774 240.62 400.762 239.611C400.749 238.601 400.538 237.604 400.14 236.677C398.606 233.094 394.614 231.412 391.096 232.301C389.417 232.725 387.442 232.597 386.339 231.261L368.144 209.192C367.066 207.884 367.28 205.971 367.994 204.434C368.317 203.74 368.535 203.001 368.638 202.242C368.873 200.546 368.532 198.82 367.67 197.341C367.161 196.458 366.48 195.686 365.668 195.07C364.855 194.454 363.928 194.007 362.941 193.754C362.091 193.535 361.21 193.463 360.336 193.54C359.214 193.64 358.128 193.986 357.155 194.554C356.284 195.058 355.52 195.73 354.909 196.53C354.297 197.33 353.85 198.243 353.592 199.217C353.513 199.513 353.452 199.808 353.411 200.105Z" fill="url(#paint8_radial_4812_4735)"/>
<path d="M353.411 200.105C353.311 200.787 352.682 201.316 351.994 201.296C350.703 201.258 349.423 201.546 348.273 202.132C347.122 202.719 346.138 203.587 345.412 204.654C344.685 205.722 344.239 206.956 344.115 208.241C343.991 209.527 344.193 210.823 344.702 212.01C346.238 215.597 350.237 217.275 353.758 216.382C355.439 215.954 357.421 216.079 358.526 217.417L376.707 239.47C377.789 240.782 377.571 242.699 376.855 244.238L376.806 244.349C375.973 246.209 375.914 248.324 376.641 250.228C377.368 252.133 378.821 253.67 380.682 254.503C384.556 256.238 388.512 254.707 390.246 250.833C390.567 250.061 390.77 249.246 390.85 248.415C390.891 248.079 391.059 247.771 391.319 247.554C391.579 247.337 391.912 247.228 392.25 247.247C393.54 247.346 395.004 247.241 396.104 246.77C397.032 246.373 397.872 245.796 398.577 245.074C399.282 244.351 399.838 243.497 400.213 242.559C400.588 241.622 400.774 240.62 400.762 239.611C400.749 238.601 400.538 237.604 400.14 236.677C398.606 233.094 394.614 231.412 391.096 232.301C389.417 232.725 387.442 232.597 386.339 231.261L368.144 209.192C367.066 207.884 367.28 205.971 367.994 204.434C368.317 203.74 368.535 203.001 368.638 202.242C368.873 200.546 368.532 198.82 367.67 197.341C367.161 196.458 366.48 195.686 365.668 195.07C364.855 194.454 363.928 194.007 362.941 193.754C362.091 193.535 361.21 193.463 360.336 193.54C359.214 193.64 358.128 193.986 357.155 194.554C356.284 195.058 355.52 195.73 354.909 196.53C354.297 197.33 353.85 198.243 353.592 199.217C353.513 199.513 353.452 199.808 353.411 200.105Z" fill="url(#paint9_radial_4812_4735)"/>
<g filter="url(#filter2_f_4812_4735)">
<path d="M391.734 241.602C389.046 242.919 389.236 246.065 389.668 247.475L392.03 246.135C391.052 244.653 391.426 242.497 391.734 241.602Z" fill="#A49CAA"/>
</g>
<g filter="url(#filter3_f_4812_4735)">
<path d="M352.015 208.916C352.375 206.058 350.744 203.034 350.178 202.307L352.688 201.91C354.269 205.804 352.881 208.361 352.015 208.916Z" fill="url(#paint10_linear_4812_4735)"/>
</g>
<defs>
<filter id="filter0_f_4812_4735" x="0" y="0" width="544" height="544" filterUnits="userSpaceOnUse" color-interpolation-filters="sRGB">
<feFlood flood-opacity="0" result="BackgroundImageFix"/>
<feBlend mode="normal" in="SourceGraphic" in2="BackgroundImageFix" result="shape"/>
<feGaussianBlur stdDeviation="86" result="effect1_foregroundBlur_4812_4735"/>
</filter>
<filter id="filter1_dd_4812_4735" x="342.33" y="191.011" width="61.6831" height="66.7021" filterUnits="userSpaceOnUse" color-interpolation-filters="sRGB">
<feFlood flood-opacity="0" result="BackgroundImageFix"/>
<feColorMatrix in="SourceAlpha" type="matrix" values="0 0 0 0 0 0 0 0 0 0 0 0 0 0 0 0 0 0 127 0" result="hardAlpha"/>
<feOffset dx="0.75"/>
<feGaussianBlur stdDeviation="1.25"/>
<feComposite in2="hardAlpha" operator="out"/>
<feColorMatrix type="matrix" values="0 0 0 0 0.580392 0 0 0 0 0.568627 0 0 0 0 0.584314 0 0 0 1 0"/>
<feBlend mode="normal" in2="BackgroundImageFix" result="effect1_dropShadow_4812_4735"/>
<feColorMatrix in="SourceAlpha" type="matrix" values="0 0 0 0 0 0 0 0 0 0 0 0 0 0 0 0 0 0 127 0" result="hardAlpha"/>
<feOffset dy="-0.75"/>
<feGaussianBlur stdDeviation="0.75"/>
<feComposite in2="hardAlpha" operator="out"/>
<feColorMatrix type="matrix" values="0 0 0 0 0.756863 0 0 0 0 0.662745 0 0 0 0 0.815686 0 0 0 1 0"/>
<feBlend mode="normal" in2="effect1_dropShadow_4812_4735" result="effect2_dropShadow_4812_4735"/>
<feBlend mode="normal" in="SourceGraphic" in2="effect2_dropShadow_4812_4735" result="shape"/>
</filter>
<filter id="filter2_f_4812_4735" x="388.414" y="240.603" width="4.61621" height="7.87207" filterUnits="userSpaceOnUse" color-interpolation-filters="sRGB">
<feFlood flood-opacity="0" result="BackgroundImageFix"/>
<feBlend mode="normal" in="SourceGraphic" in2="BackgroundImageFix" result="shape"/>
<feGaussianBlur stdDeviation="0.5" result="effect1_foregroundBlur_4812_4735"/>
</filter>
<filter id="filter3_f_4812_4735" x="349.178" y="200.91" width="5.23096" height="9.00488" filterUnits="userSpaceOnUse" color-interpolation-filters="sRGB">
<feFlood flood-opacity="0" result="BackgroundImageFix"/>
<feBlend mode="normal" in="SourceGraphic" in2="BackgroundImageFix" result="shape"/>
<feGaussianBlur stdDeviation="0.5" result="effect1_foregroundBlur_4812_4735"/>
</filter>
<radialGradient id="paint0_radial_4812_4735" cx="0" cy="0" r="1" gradientUnits="userSpaceOnUse" gradientTransform="translate(356.943 199.046) rotate(83.6506) scale(9.15836 9.1836)">
<stop stop-color="#FBFAFC"/>
<stop offset="1" stop-color="#E5E5E5" stop-opacity="0"/>
</radialGradient>
<radialGradient id="paint1_radial_4812_4735" cx="0" cy="0" r="1" gradientUnits="userSpaceOnUse" gradientTransform="translate(346.645 206.037) rotate(26.0495) scale(6.46421 6.16167)">
<stop stop-color="#FBFAFC"/>
<stop offset="1" stop-color="#E5E5E5" stop-opacity="0"/>
</radialGradient>
<radialGradient id="paint2_radial_4812_4735" cx="0" cy="0" r="1" gradientUnits="userSpaceOnUse" gradientTransform="translate(351.251 195.015) rotate(72.6385) scale(16.5576 3.58433)">
<stop stop-color="#FBFAFC"/>
<stop offset="1" stop-color="#E5E5E5" stop-opacity="0"/>
</radialGradient>
<radialGradient id="paint3_radial_4812_4735" cx="0" cy="0" r="1" gradientUnits="userSpaceOnUse" gradientTransform="translate(350.333 222.233) rotate(-72.1295) scale(15.4902 9.47134)">
<stop stop-color="#BDA5CC"/>
<stop offset="1" stop-color="#BDA5CC" stop-opacity="0"/>
</radialGradient>
<radialGradient id="paint4_radial_4812_4735" cx="0" cy="0" r="1" gradientUnits="userSpaceOnUse" gradientTransform="translate(401.982 237.353) rotate(-179.999) scale(6.9381 6.59743)">
<stop stop-color="#9B9A9B"/>
<stop offset="1" stop-color="#9B9A9B" stop-opacity="0"/>
</radialGradient>
<radialGradient id="paint5_radial_4812_4735" cx="0" cy="0" r="1" gradientUnits="userSpaceOnUse" gradientTransform="translate(390.972 236.694) rotate(-71.9775) scale(6.12236 4.48011)">
<stop stop-color="#E8E3EB"/>
<stop offset="1" stop-color="#E8E3EB" stop-opacity="0"/>
</radialGradient>
<radialGradient id="paint6_radial_4812_4735" cx="0" cy="0" r="1" gradientUnits="userSpaceOnUse" gradientTransform="translate(395.374 249.191) rotate(-94.2341) scale(9.43249 6.97977)">
<stop stop-color="#C6AED5"/>
<stop offset="1" stop-color="#C6AED5" stop-opacity="0"/>
</radialGradient>
<radialGradient id="paint7_radial_4812_4735" cx="0" cy="0" r="1" gradientUnits="userSpaceOnUse" gradientTransform="translate(375.522 244.128) rotate(-2.64549) scale(11.1271 6.17984)">
<stop offset="0.289" stop-color="#F5EEF9"/>
<stop offset="1" stop-color="#F5EEF9" stop-opacity="0"/>
</radialGradient>
<radialGradient id="paint8_radial_4812_4735" cx="0" cy="0" r="1" gradientUnits="userSpaceOnUse" gradientTransform="translate(384.597 204.458) rotate(94.7535) scale(51.4027 51.9048)">
<stop offset="0.857" stop-color="#D5BBE5" stop-opacity="0"/>
<stop offset="1" stop-color="#D5BBE5"/>
</radialGradient>
<radialGradient id="paint9_radial_4812_4735" cx="0" cy="0" r="1" gradientUnits="userSpaceOnUse" gradientTransform="translate(392.521 255.255) rotate(-105.279) scale(12.358 5.87145)">
<stop stop-color="#A199A7"/>
<stop offset="1" stop-color="#A199A7" stop-opacity="0"/>
</radialGradient>
<linearGradient id="paint10_linear_4812_4735" x1="351.537" y1="202.277" x2="352.257" y2="212.739" gradientUnits="userSpaceOnUse">
<stop stop-color="#B6B0BB"/>
<stop offset="1" stop-color="#C6BFCB" stop-opacity="0"/>
</linearGradient>
</defs>
</svg>
