<svg width="430" height="671" viewBox="0 0 430 671" fill="none" xmlns="http://www.w3.org/2000/svg">
<g filter="url(#filter0_f_4829_4746)">
<circle cx="-109.432" cy="251.432" r="112.159" fill="#FD7D00" fill-opacity="0.24"/>
</g>
<g filter="url(#filter1_f_4829_4746)">
<circle cx="396.136" cy="240.182" r="68.1818" fill="#FD7D00" fill-opacity="0.24"/>
</g>
<path d="M30.8146 407.79L227.425 520.139C240.208 527.444 255.971 527.136 268.459 519.337L412.045 429.665C417.18 426.458 417.03 418.93 411.771 415.93L199.795 295.028C197.258 293.581 194.135 293.631 191.646 295.159L30.5983 394.027C25.418 397.207 25.5369 404.774 30.8146 407.79Z" fill="url(#paint0_linear_4829_4746)" fill-opacity="0.09" stroke="url(#paint1_linear_4829_4746)"/>
<g filter="url(#filter2_d_4829_4746)">
<path d="M-378.29 217.975L-76.5948 390.533C-74.0367 391.996 -70.8814 391.934 -68.3825 390.372L159.104 248.171C164.236 244.964 164.086 237.44 158.83 234.44L-141.098 63.2134C-143.637 61.7644 -146.763 61.8149 -149.253 63.345L-378.506 204.215C-383.683 207.395 -383.564 214.959 -378.29 217.975Z" fill="url(#paint2_linear_4829_4746)" fill-opacity="0.08" shape-rendering="crispEdges"/>
<path d="M-378.29 217.975L-76.5948 390.533C-74.0367 391.996 -70.8814 391.934 -68.3825 390.372L159.104 248.171C164.236 244.964 164.086 237.44 158.83 234.44L-141.098 63.2134C-143.637 61.7644 -146.763 61.8149 -149.253 63.345L-378.506 204.215C-383.683 207.395 -383.564 214.959 -378.29 217.975Z" stroke="url(#paint3_linear_4829_4746)" shape-rendering="crispEdges"/>
</g>
<g filter="url(#filter3_d_4829_4746)">
<path d="M156.27 227.79L361.183 344.884C368.853 349.266 378.31 349.081 385.803 344.402L537.5 249.665C542.635 246.458 542.485 238.93 537.226 235.93L333.477 119.72C325.867 115.38 316.496 115.531 309.03 120.114L156.053 214.027C150.873 217.207 150.992 224.774 156.27 227.79Z" fill="url(#paint4_linear_4829_4746)" fill-opacity="0.09" shape-rendering="crispEdges"/>
<path d="M156.27 227.79L361.183 344.884C368.853 349.266 378.31 349.081 385.803 344.402L537.5 249.665C542.635 246.458 542.485 238.93 537.226 235.93L333.477 119.72C325.867 115.38 316.496 115.531 309.03 120.114L156.053 214.027C150.873 217.207 150.992 224.774 156.27 227.79Z" stroke="url(#paint5_linear_4829_4746)" shape-rendering="crispEdges"/>
</g>
<g filter="url(#filter4_d_4829_4746)">
<path d="M232.633 137.108L437.546 254.202C445.216 258.584 454.674 258.4 462.166 253.72L613.864 158.983C618.999 155.776 618.849 148.248 613.589 145.249L409.84 29.0383C402.23 24.6978 392.86 24.8488 385.393 29.4323L232.417 123.345C227.236 126.525 227.355 134.093 232.633 137.108Z" stroke="url(#paint6_linear_4829_4746)" shape-rendering="crispEdges"/>
</g>
<g filter="url(#filter5_d_4829_4746)">
<path d="M429.678 372.336L634.591 489.429C642.261 493.812 651.719 493.627 659.211 488.948L810.909 394.21C816.044 391.003 815.893 383.475 810.634 380.476L606.885 264.266C599.275 259.925 589.904 260.076 582.438 264.66L429.462 358.572C424.281 361.752 424.4 369.32 429.678 372.336Z" stroke="url(#paint7_linear_4829_4746)" shape-rendering="crispEdges"/>
</g>
<g filter="url(#filter6_d_4829_4746)">
<path d="M137.861 402.336L342.774 519.429C350.444 523.812 359.901 523.627 367.394 518.948L519.091 424.21C524.226 421.003 524.076 413.475 518.817 410.476L315.068 294.266C307.458 289.925 298.087 290.076 290.621 294.66L137.644 388.572C132.464 391.752 132.583 399.32 137.861 402.336Z" stroke="url(#paint8_linear_4829_4746)" shape-rendering="crispEdges"/>
</g>
<g filter="url(#filter7_d_4829_4746)">
<path d="M-100.776 380.518L104.137 497.611C111.807 501.994 121.264 501.809 128.757 497.129L280.454 402.392C285.59 399.185 285.439 391.657 280.18 388.658L76.431 272.447C68.8209 268.107 59.4504 268.258 51.9841 272.842L-100.993 366.754C-106.173 369.934 -106.054 377.502 -100.776 380.518Z" stroke="url(#paint9_linear_4829_4746)" shape-rendering="crispEdges"/>
</g>
<g filter="url(#filter8_d_4829_4746)">
<g filter="url(#filter9_d_4829_4746)">
<path d="M208.851 305.507L58.2868 217.944C45.0436 210.242 45.022 191.121 58.2478 183.389L111.51 152.253C115.862 149.709 121.244 149.7 125.603 152.23L295.939 251.092C305.136 256.43 305.259 269.669 296.162 275.176L246.615 305.174C235.035 312.185 220.552 312.312 208.851 305.507Z" fill="black"/>
</g>
<path d="M297.909 266.936L236.248 303.932C228.066 307.478 219.43 303.591 216.134 301.205L54.0949 206.964C53.4895 206.612 52.9376 206.161 52.5264 205.594C48.0757 199.458 51.9338 194.768 54.5435 193.137L113.862 158.023C119.113 154.872 126.893 156.525 130.507 157.869C130.776 157.969 131.032 158.095 131.28 158.239L295.566 253.137C301.099 256.364 301.013 261.444 299.962 264.585C299.621 265.604 298.83 266.383 297.909 266.936Z" fill="url(#paint10_linear_4829_4746)"/>
<g filter="url(#filter10_b_4829_4746)">
<path d="M221.908 293.96L53.481 196.003C44.2111 190.612 44.1961 177.227 53.4538 171.815L114.323 136.23C118.674 133.686 124.057 133.678 128.416 136.208L295.94 233.442C305.137 238.78 305.26 252.019 296.163 257.526L236.198 293.834C231.816 296.487 226.336 296.535 221.908 293.96Z" fill="white" fill-opacity="0.17"/>
<path d="M221.908 293.96L53.481 196.003C44.2111 190.612 44.1961 177.227 53.4538 171.815L114.323 136.23C118.674 133.686 124.057 133.678 128.416 136.208L295.94 233.442C305.137 238.78 305.26 252.019 296.163 257.526L236.198 293.834C231.816 296.487 226.336 296.535 221.908 293.96Z" stroke="url(#paint11_linear_4829_4746)"/>
</g>
<g filter="url(#filter11_b_4829_4746)">
<path d="M197.145 260.952L90.9321 199.063C81.6754 193.669 81.6603 180.301 90.9048 174.886L127.542 153.427C130.965 151.422 135.202 151.415 138.631 153.41L261.176 224.671C265.767 227.341 265.829 233.952 261.287 236.707L221.676 260.736C214.156 265.297 204.744 265.38 197.145 260.952Z" fill="white" fill-opacity="0.17"/>
<path d="M197.145 260.952L90.9321 199.063C81.6754 193.669 81.6603 180.301 90.9048 174.886L127.542 153.427C130.965 151.422 135.202 151.415 138.631 153.41L261.176 224.671C265.767 227.341 265.829 233.952 261.287 236.707L221.676 260.736C214.156 265.297 204.744 265.38 197.145 260.952Z" stroke="url(#paint12_linear_4829_4746)"/>
</g>
<path d="M283.696 234.297L291.397 239.11C295.186 241.478 295.15 247.009 291.329 249.327L232.396 285.088C230.562 286.201 228.272 286.25 226.392 285.216L218.087 280.648C214.039 278.421 213.92 272.647 217.874 270.256L277.411 234.251C279.347 233.08 281.777 233.098 283.696 234.297Z" stroke="url(#paint13_linear_4829_4746)"/>
<g filter="url(#filter12_bd_4829_4746)">
<path d="M225.518 170.66L168.927 204.41C162.654 206.865 155.859 204.296 153.245 202.705L99.3816 172.705C91.7452 168.069 95.2907 161.91 98.018 159.41L153.245 127.364C159.245 123.001 166.2 125.546 168.927 127.364L220.745 157.024C230.018 161.66 227.791 168.046 225.518 170.66Z" fill="white" fill-opacity="0.21" shape-rendering="crispEdges"/>
<path d="M225.518 170.66L168.927 204.41C162.654 206.865 155.859 204.296 153.245 202.705L99.3816 172.705C91.7452 168.069 95.2907 161.91 98.018 159.41L153.245 127.364C159.245 123.001 166.2 125.546 168.927 127.364L220.745 157.024C230.018 161.66 227.791 168.046 225.518 170.66Z" stroke="url(#paint14_linear_4829_4746)" shape-rendering="crispEdges"/>
</g>
<path d="M264.228 212.731L206.515 247.131C203.856 248.717 200.52 248.625 197.952 246.896L191.098 242.283C188.026 240.215 188.19 235.641 191.403 233.798L249.879 200.26C252.407 198.81 255.524 198.85 258.014 200.364L264.265 204.163C267.485 206.121 267.465 210.801 264.228 212.731Z" fill="white" fill-opacity="0.2" stroke="url(#paint15_linear_4829_4746)"/>
</g>
<path d="M203.563 184.95L154.918 149.554L157.979 146.833L206.624 182.229L203.563 184.95ZM198.963 179.67C196.412 181.938 193.559 183.805 190.403 185.272C187.213 186.714 184.275 187.541 181.591 187.753L179.324 183.242C181.807 182.987 184.434 182.269 187.204 181.089C189.974 179.908 192.428 178.369 194.564 176.469C196.509 174.74 197.846 173.161 198.575 171.732C199.304 170.304 199.541 169.033 199.287 167.92C198.999 166.782 198.319 165.824 197.25 165.046C196.008 164.142 194.625 163.754 193.101 163.882C191.608 163.982 190.032 164.408 188.372 165.158C186.709 165.856 184.987 166.717 183.208 167.742C181.428 168.766 179.58 169.767 177.665 170.745C175.747 171.669 173.82 172.407 171.884 172.957C169.979 173.478 168.057 173.626 166.116 173.399C164.14 173.148 162.187 172.319 160.255 170.913C158.392 169.558 157.13 167.918 156.471 165.995C155.808 164.018 155.952 161.854 156.902 159.504C157.849 157.1 159.79 154.594 162.723 151.986C164.668 150.256 166.873 148.742 169.339 147.443C171.804 146.144 174.256 145.247 176.694 144.753L179.255 149.168C176.785 149.691 174.529 150.498 172.486 151.589C170.409 152.655 168.621 153.854 167.122 155.186C165.241 156.859 163.953 158.422 163.259 159.876C162.564 161.33 162.362 162.626 162.65 163.764C162.971 164.873 163.666 165.817 164.735 166.595C166.012 167.524 167.396 167.939 168.888 167.839C170.413 167.711 171.989 167.285 173.617 166.563C175.278 165.812 177.015 164.937 178.829 163.937C180.609 162.912 182.441 161.925 184.324 160.976C186.239 159.998 188.149 159.249 190.054 158.727C191.99 158.177 193.928 158.015 195.869 158.242C197.81 158.468 199.729 159.272 201.627 160.653C203.455 161.983 204.701 163.637 205.363 165.614C205.991 167.565 205.815 169.757 204.836 172.19C203.854 174.568 201.897 177.062 198.963 179.67Z" fill="white"/>
<g clip-path="url(#clip0_4829_4746)">
<g filter="url(#filter13_dd_4829_4746)">
<path d="M279.452 13.2706C279.352 13.9526 278.723 14.4813 278.035 14.4621C276.744 14.4238 275.464 14.7113 274.314 15.2982C273.163 15.8852 272.179 16.7525 271.453 17.8202C270.726 18.8879 270.28 20.1215 270.156 21.4071C270.032 22.6927 270.234 23.9888 270.743 25.1757C272.279 28.7625 276.278 30.4409 279.799 29.5477C281.48 29.1201 283.462 29.2446 284.567 30.5826L302.748 52.6353C303.83 53.9477 303.612 55.8651 302.896 57.4037L302.847 57.5143C302.014 59.3749 301.955 61.4899 302.682 63.3941C303.409 65.2984 304.862 66.836 306.723 67.6687C310.597 69.4034 314.553 67.8731 316.287 63.9988C316.608 63.2272 316.811 62.4121 316.891 61.5805C316.933 61.2445 317.1 60.9368 317.36 60.7199C317.62 60.5031 317.953 60.3933 318.291 60.4129C319.581 60.5114 321.045 60.4067 322.145 59.9361C323.073 59.5384 323.913 58.9619 324.618 58.2394C325.323 57.5169 325.879 56.6626 326.254 55.7253C326.629 54.788 326.815 53.786 326.803 52.7766C326.79 51.7672 326.579 50.7701 326.181 49.8424C324.647 46.2599 320.655 44.578 317.137 45.4671C315.458 45.8907 313.483 45.7626 312.38 44.4268L294.185 22.3579C293.107 21.0502 293.321 19.1366 294.035 17.5999C294.358 16.9056 294.576 16.1665 294.679 15.4075C294.914 13.7117 294.573 11.9861 293.711 10.5068C293.202 9.624 292.521 8.85193 291.709 8.236C290.897 7.62007 289.969 7.17271 288.982 6.92023C288.132 6.70124 287.251 6.62878 286.377 6.70596C285.255 6.8056 284.169 7.15166 283.196 7.71943C282.325 8.22375 281.561 8.89534 280.95 9.69564C280.338 10.4959 279.891 11.4092 279.633 12.3829C279.554 12.6783 279.493 12.9735 279.452 13.2706Z" fill="#DCD4E1"/>
</g>
<path d="M279.452 13.2706C279.352 13.9526 278.723 14.4813 278.035 14.4621C276.744 14.4238 275.464 14.7113 274.314 15.2982C273.163 15.8852 272.179 16.7525 271.453 17.8202C270.726 18.8879 270.28 20.1215 270.156 21.4071C270.032 22.6927 270.234 23.9888 270.743 25.1757C272.279 28.7625 276.278 30.4409 279.799 29.5477C281.48 29.1201 283.462 29.2446 284.567 30.5826L302.748 52.6353C303.83 53.9477 303.612 55.8651 302.896 57.4037L302.847 57.5143C302.014 59.3749 301.955 61.4899 302.682 63.3941C303.409 65.2984 304.862 66.836 306.723 67.6687C310.597 69.4034 314.553 67.8731 316.287 63.9988C316.608 63.2272 316.811 62.4121 316.891 61.5805C316.933 61.2445 317.1 60.9368 317.36 60.7199C317.62 60.5031 317.953 60.3933 318.291 60.4129C319.581 60.5114 321.045 60.4067 322.145 59.9361C323.073 59.5384 323.913 58.9619 324.618 58.2394C325.323 57.5169 325.879 56.6626 326.254 55.7253C326.629 54.788 326.815 53.786 326.803 52.7766C326.79 51.7672 326.579 50.7701 326.181 49.8424C324.647 46.2599 320.655 44.578 317.137 45.4671C315.458 45.8907 313.483 45.7626 312.38 44.4268L294.185 22.3579C293.107 21.0502 293.321 19.1366 294.035 17.5999C294.358 16.9056 294.576 16.1665 294.679 15.4075C294.914 13.7117 294.573 11.9861 293.711 10.5068C293.202 9.624 292.521 8.85193 291.709 8.236C290.897 7.62007 289.969 7.17271 288.982 6.92023C288.132 6.70124 287.251 6.62878 286.377 6.70596C285.255 6.8056 284.169 7.15166 283.196 7.71943C282.325 8.22375 281.561 8.89534 280.95 9.69564C280.338 10.4959 279.891 11.4092 279.633 12.3829C279.554 12.6783 279.493 12.9735 279.452 13.2706Z" fill="url(#paint16_radial_4829_4746)"/>
<path d="M279.452 13.2706C279.352 13.9526 278.723 14.4813 278.035 14.4621C276.744 14.4238 275.464 14.7113 274.314 15.2982C273.163 15.8852 272.179 16.7525 271.453 17.8202C270.726 18.8879 270.28 20.1215 270.156 21.4071C270.032 22.6927 270.234 23.9888 270.743 25.1757C272.279 28.7625 276.278 30.4409 279.799 29.5477C281.48 29.1201 283.462 29.2446 284.567 30.5826L302.748 52.6353C303.83 53.9477 303.612 55.8651 302.896 57.4037L302.847 57.5143C302.014 59.3749 301.955 61.4899 302.682 63.3941C303.409 65.2984 304.862 66.836 306.723 67.6687C310.597 69.4034 314.553 67.8731 316.287 63.9988C316.608 63.2272 316.811 62.4121 316.891 61.5805C316.933 61.2445 317.1 60.9368 317.36 60.7199C317.62 60.5031 317.953 60.3933 318.291 60.4129C319.581 60.5114 321.045 60.4067 322.145 59.9361C323.073 59.5384 323.913 58.9619 324.618 58.2394C325.323 57.5169 325.879 56.6626 326.254 55.7253C326.629 54.788 326.815 53.786 326.803 52.7766C326.79 51.7672 326.579 50.7701 326.181 49.8424C324.647 46.2599 320.655 44.578 317.137 45.4671C315.458 45.8907 313.483 45.7626 312.38 44.4268L294.185 22.3579C293.107 21.0502 293.321 19.1366 294.035 17.5999C294.358 16.9056 294.576 16.1665 294.679 15.4075C294.914 13.7117 294.573 11.9861 293.711 10.5068C293.202 9.624 292.521 8.85193 291.709 8.236C290.897 7.62007 289.969 7.17271 288.982 6.92023C288.132 6.70124 287.251 6.62878 286.377 6.70596C285.255 6.8056 284.169 7.15166 283.196 7.71943C282.325 8.22375 281.561 8.89534 280.95 9.69564C280.338 10.4959 279.891 11.4092 279.633 12.3829C279.554 12.6783 279.493 12.9735 279.452 13.2706Z" fill="url(#paint17_radial_4829_4746)"/>
<path d="M279.452 13.2706C279.352 13.9526 278.723 14.4813 278.035 14.4621C276.744 14.4238 275.464 14.7113 274.314 15.2982C273.163 15.8852 272.179 16.7525 271.453 17.8202C270.726 18.8879 270.28 20.1215 270.156 21.4071C270.032 22.6927 270.234 23.9888 270.743 25.1757C272.279 28.7625 276.278 30.4409 279.799 29.5477C281.48 29.1201 283.462 29.2446 284.567 30.5826L302.748 52.6353C303.83 53.9477 303.612 55.8651 302.896 57.4037L302.847 57.5143C302.014 59.3749 301.955 61.4899 302.682 63.3941C303.409 65.2984 304.862 66.836 306.723 67.6687C310.597 69.4034 314.553 67.8731 316.287 63.9988C316.608 63.2272 316.811 62.4121 316.891 61.5805C316.933 61.2445 317.1 60.9368 317.36 60.7199C317.62 60.5031 317.953 60.3933 318.291 60.4129C319.581 60.5114 321.045 60.4067 322.145 59.9361C323.073 59.5384 323.913 58.9619 324.618 58.2394C325.323 57.5169 325.879 56.6626 326.254 55.7253C326.629 54.788 326.815 53.786 326.803 52.7766C326.79 51.7672 326.579 50.7701 326.181 49.8424C324.647 46.2599 320.655 44.578 317.137 45.4671C315.458 45.8907 313.483 45.7626 312.38 44.4268L294.185 22.3579C293.107 21.0502 293.321 19.1366 294.035 17.5999C294.358 16.9056 294.576 16.1665 294.679 15.4075C294.914 13.7117 294.573 11.9861 293.711 10.5068C293.202 9.624 292.521 8.85193 291.709 8.236C290.897 7.62007 289.969 7.17271 288.982 6.92023C288.132 6.70124 287.251 6.62878 286.377 6.70596C285.255 6.8056 284.169 7.15166 283.196 7.71943C282.325 8.22375 281.561 8.89534 280.95 9.69564C280.338 10.4959 279.891 11.4092 279.633 12.3829C279.554 12.6783 279.493 12.9735 279.452 13.2706Z" fill="url(#paint18_radial_4829_4746)"/>
<path d="M279.452 13.2706C279.352 13.9526 278.723 14.4813 278.035 14.4621C276.744 14.4238 275.464 14.7113 274.314 15.2982C273.163 15.8852 272.179 16.7525 271.453 17.8202C270.726 18.8879 270.28 20.1215 270.156 21.4071C270.032 22.6927 270.234 23.9888 270.743 25.1757C272.279 28.7625 276.278 30.4409 279.799 29.5477C281.48 29.1201 283.462 29.2446 284.567 30.5826L302.748 52.6353C303.83 53.9477 303.612 55.8651 302.896 57.4037L302.847 57.5143C302.014 59.3749 301.955 61.4899 302.682 63.3941C303.409 65.2984 304.862 66.836 306.723 67.6687C310.597 69.4034 314.553 67.8731 316.287 63.9988C316.608 63.2272 316.811 62.4121 316.891 61.5805C316.933 61.2445 317.1 60.9368 317.36 60.7199C317.62 60.5031 317.953 60.3933 318.291 60.4129C319.581 60.5114 321.045 60.4067 322.145 59.9361C323.073 59.5384 323.913 58.9619 324.618 58.2394C325.323 57.5169 325.879 56.6626 326.254 55.7253C326.629 54.788 326.815 53.786 326.803 52.7766C326.79 51.7672 326.579 50.7701 326.181 49.8424C324.647 46.2599 320.655 44.578 317.137 45.4671C315.458 45.8907 313.483 45.7626 312.38 44.4268L294.185 22.3579C293.107 21.0502 293.321 19.1366 294.035 17.5999C294.358 16.9056 294.576 16.1665 294.679 15.4075C294.914 13.7117 294.573 11.9861 293.711 10.5068C293.202 9.624 292.521 8.85193 291.709 8.236C290.897 7.62007 289.969 7.17271 288.982 6.92023C288.132 6.70124 287.251 6.62878 286.377 6.70596C285.255 6.8056 284.169 7.15166 283.196 7.71943C282.325 8.22375 281.561 8.89534 280.95 9.69564C280.338 10.4959 279.891 11.4092 279.633 12.3829C279.554 12.6783 279.493 12.9735 279.452 13.2706Z" fill="url(#paint19_radial_4829_4746)"/>
<path d="M279.452 13.2706C279.352 13.9526 278.723 14.4813 278.035 14.4621C276.744 14.4238 275.464 14.7113 274.314 15.2982C273.163 15.8852 272.179 16.7525 271.453 17.8202C270.726 18.8879 270.28 20.1215 270.156 21.4071C270.032 22.6927 270.234 23.9888 270.743 25.1757C272.279 28.7625 276.278 30.4409 279.799 29.5477C281.48 29.1201 283.462 29.2446 284.567 30.5826L302.748 52.6353C303.83 53.9477 303.612 55.8651 302.896 57.4037L302.847 57.5143C302.014 59.3749 301.955 61.4899 302.682 63.3941C303.409 65.2984 304.862 66.836 306.723 67.6687C310.597 69.4034 314.553 67.8731 316.287 63.9988C316.608 63.2272 316.811 62.4121 316.891 61.5805C316.933 61.2445 317.1 60.9368 317.36 60.7199C317.62 60.5031 317.953 60.3933 318.291 60.4129C319.581 60.5114 321.045 60.4067 322.145 59.9361C323.073 59.5384 323.913 58.9619 324.618 58.2394C325.323 57.5169 325.879 56.6626 326.254 55.7253C326.629 54.788 326.815 53.786 326.803 52.7766C326.79 51.7672 326.579 50.7701 326.181 49.8424C324.647 46.2599 320.655 44.578 317.137 45.4671C315.458 45.8907 313.483 45.7626 312.38 44.4268L294.185 22.3579C293.107 21.0502 293.321 19.1366 294.035 17.5999C294.358 16.9056 294.576 16.1665 294.679 15.4075C294.914 13.7117 294.573 11.9861 293.711 10.5068C293.202 9.624 292.521 8.85193 291.709 8.236C290.897 7.62007 289.969 7.17271 288.982 6.92023C288.132 6.70124 287.251 6.62878 286.377 6.70596C285.255 6.8056 284.169 7.15166 283.196 7.71943C282.325 8.22375 281.561 8.89534 280.95 9.69564C280.338 10.4959 279.891 11.4092 279.633 12.3829C279.554 12.6783 279.493 12.9735 279.452 13.2706Z" fill="url(#paint20_radial_4829_4746)"/>
<path d="M279.452 13.2706C279.352 13.9526 278.723 14.4813 278.035 14.4621C276.744 14.4238 275.464 14.7113 274.314 15.2982C273.163 15.8852 272.179 16.7525 271.453 17.8202C270.726 18.8879 270.28 20.1215 270.156 21.4071C270.032 22.6927 270.234 23.9888 270.743 25.1757C272.279 28.7625 276.278 30.4409 279.799 29.5477C281.48 29.1201 283.462 29.2446 284.567 30.5826L302.748 52.6353C303.83 53.9477 303.612 55.8651 302.896 57.4037L302.847 57.5143C302.014 59.3749 301.955 61.4899 302.682 63.3941C303.409 65.2984 304.862 66.836 306.723 67.6687C310.597 69.4034 314.553 67.8731 316.287 63.9988C316.608 63.2272 316.811 62.4121 316.891 61.5805C316.933 61.2445 317.1 60.9368 317.36 60.7199C317.62 60.5031 317.953 60.3933 318.291 60.4129C319.581 60.5114 321.045 60.4067 322.145 59.9361C323.073 59.5384 323.913 58.9619 324.618 58.2394C325.323 57.5169 325.879 56.6626 326.254 55.7253C326.629 54.788 326.815 53.786 326.803 52.7766C326.79 51.7672 326.579 50.7701 326.181 49.8424C324.647 46.2599 320.655 44.578 317.137 45.4671C315.458 45.8907 313.483 45.7626 312.38 44.4268L294.185 22.3579C293.107 21.0502 293.321 19.1366 294.035 17.5999C294.358 16.9056 294.576 16.1665 294.679 15.4075C294.914 13.7117 294.573 11.9861 293.711 10.5068C293.202 9.624 292.521 8.85193 291.709 8.236C290.897 7.62007 289.969 7.17271 288.982 6.92023C288.132 6.70124 287.251 6.62878 286.377 6.70596C285.255 6.8056 284.169 7.15166 283.196 7.71943C282.325 8.22375 281.561 8.89534 280.95 9.69564C280.338 10.4959 279.891 11.4092 279.633 12.3829C279.554 12.6783 279.493 12.9735 279.452 13.2706Z" fill="url(#paint21_radial_4829_4746)"/>
<path d="M279.452 13.2706C279.352 13.9526 278.723 14.4813 278.035 14.4621C276.744 14.4238 275.464 14.7113 274.314 15.2982C273.163 15.8852 272.179 16.7525 271.453 17.8202C270.726 18.8879 270.28 20.1215 270.156 21.4071C270.032 22.6927 270.234 23.9888 270.743 25.1757C272.279 28.7625 276.278 30.4409 279.799 29.5477C281.48 29.1201 283.462 29.2446 284.567 30.5826L302.748 52.6353C303.83 53.9477 303.612 55.8651 302.896 57.4037L302.847 57.5143C302.014 59.3749 301.955 61.4899 302.682 63.3941C303.409 65.2984 304.862 66.836 306.723 67.6687C310.597 69.4034 314.553 67.8731 316.287 63.9988C316.608 63.2272 316.811 62.4121 316.891 61.5805C316.933 61.2445 317.1 60.9368 317.36 60.7199C317.62 60.5031 317.953 60.3933 318.291 60.4129C319.581 60.5114 321.045 60.4067 322.145 59.9361C323.073 59.5384 323.913 58.9619 324.618 58.2394C325.323 57.5169 325.879 56.6626 326.254 55.7253C326.629 54.788 326.815 53.786 326.803 52.7766C326.79 51.7672 326.579 50.7701 326.181 49.8424C324.647 46.2599 320.655 44.578 317.137 45.4671C315.458 45.8907 313.483 45.7626 312.38 44.4268L294.185 22.3579C293.107 21.0502 293.321 19.1366 294.035 17.5999C294.358 16.9056 294.576 16.1665 294.679 15.4075C294.914 13.7117 294.573 11.9861 293.711 10.5068C293.202 9.624 292.521 8.85193 291.709 8.236C290.897 7.62007 289.969 7.17271 288.982 6.92023C288.132 6.70124 287.251 6.62878 286.377 6.70596C285.255 6.8056 284.169 7.15166 283.196 7.71943C282.325 8.22375 281.561 8.89534 280.95 9.69564C280.338 10.4959 279.891 11.4092 279.633 12.3829C279.554 12.6783 279.493 12.9735 279.452 13.2706Z" fill="url(#paint22_radial_4829_4746)"/>
<path d="M279.452 13.2706C279.352 13.9526 278.723 14.4813 278.035 14.4621C276.744 14.4238 275.464 14.7113 274.314 15.2982C273.163 15.8852 272.179 16.7525 271.453 17.8202C270.726 18.8879 270.28 20.1215 270.156 21.4071C270.032 22.6927 270.234 23.9888 270.743 25.1757C272.279 28.7625 276.278 30.4409 279.799 29.5477C281.48 29.1201 283.462 29.2446 284.567 30.5826L302.748 52.6353C303.83 53.9477 303.612 55.8651 302.896 57.4037L302.847 57.5143C302.014 59.3749 301.955 61.4899 302.682 63.3941C303.409 65.2984 304.862 66.836 306.723 67.6687C310.597 69.4034 314.553 67.8731 316.287 63.9988C316.608 63.2272 316.811 62.4121 316.891 61.5805C316.933 61.2445 317.1 60.9368 317.36 60.7199C317.62 60.5031 317.953 60.3933 318.291 60.4129C319.581 60.5114 321.045 60.4067 322.145 59.9361C323.073 59.5384 323.913 58.9619 324.618 58.2394C325.323 57.5169 325.879 56.6626 326.254 55.7253C326.629 54.788 326.815 53.786 326.803 52.7766C326.79 51.7672 326.579 50.7701 326.181 49.8424C324.647 46.2599 320.655 44.578 317.137 45.4671C315.458 45.8907 313.483 45.7626 312.38 44.4268L294.185 22.3579C293.107 21.0502 293.321 19.1366 294.035 17.5999C294.358 16.9056 294.576 16.1665 294.679 15.4075C294.914 13.7117 294.573 11.9861 293.711 10.5068C293.202 9.624 292.521 8.85193 291.709 8.236C290.897 7.62007 289.969 7.17271 288.982 6.92023C288.132 6.70124 287.251 6.62878 286.377 6.70596C285.255 6.8056 284.169 7.15166 283.196 7.71943C282.325 8.22375 281.561 8.89534 280.95 9.69564C280.338 10.4959 279.891 11.4092 279.633 12.3829C279.554 12.6783 279.493 12.9735 279.452 13.2706Z" fill="url(#paint23_radial_4829_4746)"/>
<path d="M279.452 13.2706C279.352 13.9526 278.723 14.4813 278.035 14.4621C276.744 14.4238 275.464 14.7113 274.314 15.2982C273.163 15.8852 272.179 16.7525 271.453 17.8202C270.726 18.8879 270.28 20.1215 270.156 21.4071C270.032 22.6927 270.234 23.9888 270.743 25.1757C272.279 28.7625 276.278 30.4409 279.799 29.5477C281.48 29.1201 283.462 29.2446 284.567 30.5826L302.748 52.6353C303.83 53.9477 303.612 55.8651 302.896 57.4037L302.847 57.5143C302.014 59.3749 301.955 61.4899 302.682 63.3941C303.409 65.2984 304.862 66.836 306.723 67.6687C310.597 69.4034 314.553 67.8731 316.287 63.9988C316.608 63.2272 316.811 62.4121 316.891 61.5805C316.933 61.2445 317.1 60.9368 317.36 60.7199C317.62 60.5031 317.953 60.3933 318.291 60.4129C319.581 60.5114 321.045 60.4067 322.145 59.9361C323.073 59.5384 323.913 58.9619 324.618 58.2394C325.323 57.5169 325.879 56.6626 326.254 55.7253C326.629 54.788 326.815 53.786 326.803 52.7766C326.79 51.7672 326.579 50.7701 326.181 49.8424C324.647 46.2599 320.655 44.578 317.137 45.4671C315.458 45.8907 313.483 45.7626 312.38 44.4268L294.185 22.3579C293.107 21.0502 293.321 19.1366 294.035 17.5999C294.358 16.9056 294.576 16.1665 294.679 15.4075C294.914 13.7117 294.573 11.9861 293.711 10.5068C293.202 9.624 292.521 8.85193 291.709 8.236C290.897 7.62007 289.969 7.17271 288.982 6.92023C288.132 6.70124 287.251 6.62878 286.377 6.70596C285.255 6.8056 284.169 7.15166 283.196 7.71943C282.325 8.22375 281.561 8.89534 280.95 9.69564C280.338 10.4959 279.891 11.4092 279.633 12.3829C279.554 12.6783 279.493 12.9735 279.452 13.2706Z" fill="url(#paint24_radial_4829_4746)"/>
<g filter="url(#filter14_f_4829_4746)">
<path d="M317.774 54.7679C315.086 56.0848 315.277 59.2306 315.709 60.6406L318.071 59.3008C317.092 57.8191 317.466 55.6626 317.774 54.7679Z" fill="#A49CAA"/>
</g>
<g filter="url(#filter15_f_4829_4746)">
<path d="M278.056 22.081C278.416 19.223 276.785 16.1992 276.219 15.4723L278.729 15.0754C280.31 18.9697 278.922 21.5261 278.056 22.081Z" fill="url(#paint25_linear_4829_4746)"/>
</g>
</g>
<defs>
<filter id="filter0_f_4829_4746" x="-314.591" y="46.2727" width="410.318" height="410.318" filterUnits="userSpaceOnUse" color-interpolation-filters="sRGB">
<feFlood flood-opacity="0" result="BackgroundImageFix"/>
<feBlend mode="normal" in="SourceGraphic" in2="BackgroundImageFix" result="shape"/>
<feGaussianBlur stdDeviation="46.5" result="effect1_foregroundBlur_4829_4746"/>
</filter>
<filter id="filter1_f_4829_4746" x="155.954" y="0" width="480.363" height="480.364" filterUnits="userSpaceOnUse" color-interpolation-filters="sRGB">
<feFlood flood-opacity="0" result="BackgroundImageFix"/>
<feBlend mode="normal" in="SourceGraphic" in2="BackgroundImageFix" result="shape"/>
<feGaussianBlur stdDeviation="86" result="effect1_foregroundBlur_4829_4746"/>
</filter>
<filter id="filter2_d_4829_4746" x="-382.818" y="21.6609" width="758.182" height="412.428" filterUnits="userSpaceOnUse" color-interpolation-filters="sRGB">
<feFlood flood-opacity="0" result="BackgroundImageFix"/>
<feColorMatrix in="SourceAlpha" type="matrix" values="0 0 0 0 0 0 0 0 0 0 0 0 0 0 0 0 0 0 127 0" result="hardAlpha"/>
<feOffset dx="171" dy="1"/>
<feGaussianBlur stdDeviation="20.5"/>
<feComposite in2="hardAlpha" operator="out"/>
<feColorMatrix type="matrix" values="0 0 0 0 0 0 0 0 0 0 0 0 0 0 0 0 0 0 0.4 0"/>
<feBlend mode="normal" in2="BackgroundImageFix" result="effect1_dropShadow_4829_4746"/>
<feBlend mode="normal" in="SourceGraphic" in2="effect1_dropShadow_4829_4746" result="shape"/>
</filter>
<filter id="filter3_d_4829_4746" x="17.7393" y="93.0676" width="560.023" height="402.478" filterUnits="userSpaceOnUse" color-interpolation-filters="sRGB">
<feFlood flood-opacity="0" result="BackgroundImageFix"/>
<feColorMatrix in="SourceAlpha" type="matrix" values="0 0 0 0 0 0 0 0 0 0 0 0 0 0 0 0 0 0 127 0" result="hardAlpha"/>
<feOffset dx="-49" dy="62"/>
<feGaussianBlur stdDeviation="42.5"/>
<feComposite in2="hardAlpha" operator="out"/>
<feColorMatrix type="matrix" values="0 0 0 0 0 0 0 0 0 0 0 0 0 0 0 0 0 0 0.4 0"/>
<feBlend mode="normal" in2="BackgroundImageFix" result="effect1_dropShadow_4829_4746"/>
<feBlend mode="normal" in="SourceGraphic" in2="effect1_dropShadow_4829_4746" result="shape"/>
</filter>
<filter id="filter4_d_4829_4746" x="94.1025" y="2.38574" width="560.023" height="402.478" filterUnits="userSpaceOnUse" color-interpolation-filters="sRGB">
<feFlood flood-opacity="0" result="BackgroundImageFix"/>
<feColorMatrix in="SourceAlpha" type="matrix" values="0 0 0 0 0 0 0 0 0 0 0 0 0 0 0 0 0 0 127 0" result="hardAlpha"/>
<feOffset dx="-49" dy="62"/>
<feGaussianBlur stdDeviation="42.5"/>
<feComposite in2="hardAlpha" operator="out"/>
<feColorMatrix type="matrix" values="0 0 0 0 0 0 0 0 0 0 0 0 0 0 0 0 0 0 0.4 0"/>
<feBlend mode="normal" in2="BackgroundImageFix" result="effect1_dropShadow_4829_4746"/>
<feBlend mode="normal" in="SourceGraphic" in2="effect1_dropShadow_4829_4746" result="shape"/>
</filter>
<filter id="filter5_d_4829_4746" x="291.147" y="237.613" width="560.023" height="402.478" filterUnits="userSpaceOnUse" color-interpolation-filters="sRGB">
<feFlood flood-opacity="0" result="BackgroundImageFix"/>
<feColorMatrix in="SourceAlpha" type="matrix" values="0 0 0 0 0 0 0 0 0 0 0 0 0 0 0 0 0 0 127 0" result="hardAlpha"/>
<feOffset dx="-49" dy="62"/>
<feGaussianBlur stdDeviation="42.5"/>
<feComposite in2="hardAlpha" operator="out"/>
<feColorMatrix type="matrix" values="0 0 0 0 0 0 0 0 0 0 0 0 0 0 0 0 0 0 0.4 0"/>
<feBlend mode="normal" in2="BackgroundImageFix" result="effect1_dropShadow_4829_4746"/>
<feBlend mode="normal" in="SourceGraphic" in2="effect1_dropShadow_4829_4746" result="shape"/>
</filter>
<filter id="filter6_d_4829_4746" x="-0.669922" y="267.613" width="560.023" height="402.478" filterUnits="userSpaceOnUse" color-interpolation-filters="sRGB">
<feFlood flood-opacity="0" result="BackgroundImageFix"/>
<feColorMatrix in="SourceAlpha" type="matrix" values="0 0 0 0 0 0 0 0 0 0 0 0 0 0 0 0 0 0 127 0" result="hardAlpha"/>
<feOffset dx="-49" dy="62"/>
<feGaussianBlur stdDeviation="42.5"/>
<feComposite in2="hardAlpha" operator="out"/>
<feColorMatrix type="matrix" values="0 0 0 0 0 0 0 0 0 0 0 0 0 0 0 0 0 0 0.4 0"/>
<feBlend mode="normal" in2="BackgroundImageFix" result="effect1_dropShadow_4829_4746"/>
<feBlend mode="normal" in="SourceGraphic" in2="effect1_dropShadow_4829_4746" result="shape"/>
</filter>
<filter id="filter7_d_4829_4746" x="-239.307" y="245.795" width="560.024" height="402.478" filterUnits="userSpaceOnUse" color-interpolation-filters="sRGB">
<feFlood flood-opacity="0" result="BackgroundImageFix"/>
<feColorMatrix in="SourceAlpha" type="matrix" values="0 0 0 0 0 0 0 0 0 0 0 0 0 0 0 0 0 0 127 0" result="hardAlpha"/>
<feOffset dx="-49" dy="62"/>
<feGaussianBlur stdDeviation="42.5"/>
<feComposite in2="hardAlpha" operator="out"/>
<feColorMatrix type="matrix" values="0 0 0 0 0 0 0 0 0 0 0 0 0 0 0 0 0 0 0.4 0"/>
<feBlend mode="normal" in2="BackgroundImageFix" result="effect1_dropShadow_4829_4746"/>
<feBlend mode="normal" in="SourceGraphic" in2="effect1_dropShadow_4829_4746" result="shape"/>
</filter>
<filter id="filter8_d_4829_4746" x="16.0195" y="124.455" width="315.393" height="248.068" filterUnits="userSpaceOnUse" color-interpolation-filters="sRGB">
<feFlood flood-opacity="0" result="BackgroundImageFix"/>
<feColorMatrix in="SourceAlpha" type="matrix" values="0 0 0 0 0 0 0 0 0 0 0 0 0 0 0 0 0 0 127 0" result="hardAlpha"/>
<feOffset dx="-1" dy="33"/>
<feGaussianBlur stdDeviation="14.5"/>
<feComposite in2="hardAlpha" operator="out"/>
<feColorMatrix type="matrix" values="0 0 0 0 0 0 0 0 0 0 0 0 0 0 0 0 0 0 0.38 0"/>
<feBlend mode="normal" in2="BackgroundImageFix" result="effect1_dropShadow_4829_4746"/>
<feBlend mode="normal" in="SourceGraphic" in2="effect1_dropShadow_4829_4746" result="shape"/>
</filter>
<filter id="filter9_d_4829_4746" x="48.3413" y="150.339" width="254.57" height="171.184" filterUnits="userSpaceOnUse" color-interpolation-filters="sRGB">
<feFlood flood-opacity="0" result="BackgroundImageFix"/>
<feColorMatrix in="SourceAlpha" type="matrix" values="0 0 0 0 0 0 0 0 0 0 0 0 0 0 0 0 0 0 127 0" result="hardAlpha"/>
<feOffset dy="11"/>
<feComposite in2="hardAlpha" operator="out"/>
<feColorMatrix type="matrix" values="0 0 0 0 0.232986 0 0 0 0 0.22875 0 0 0 0 0.254167 0 0 0 1 0"/>
<feBlend mode="normal" in2="BackgroundImageFix" result="effect1_dropShadow_4829_4746"/>
<feBlend mode="normal" in="SourceGraphic" in2="effect1_dropShadow_4829_4746" result="shape"/>
</filter>
<filter id="filter10_b_4829_4746" x="43.0195" y="130.816" width="263.393" height="168.541" filterUnits="userSpaceOnUse" color-interpolation-filters="sRGB">
<feFlood flood-opacity="0" result="BackgroundImageFix"/>
<feGaussianBlur in="BackgroundImageFix" stdDeviation="1.5"/>
<feComposite in2="SourceAlpha" operator="in" result="effect1_backgroundBlur_4829_4746"/>
<feBlend mode="normal" in="SourceGraphic" in2="effect1_backgroundBlur_4829_4746" result="shape"/>
</filter>
<filter id="filter11_b_4829_4746" x="80.4805" y="148.419" width="187.676" height="119.297" filterUnits="userSpaceOnUse" color-interpolation-filters="sRGB">
<feFlood flood-opacity="0" result="BackgroundImageFix"/>
<feGaussianBlur in="BackgroundImageFix" stdDeviation="1.5"/>
<feComposite in2="SourceAlpha" operator="in" result="effect1_backgroundBlur_4829_4746"/>
<feBlend mode="normal" in="SourceGraphic" in2="effect1_backgroundBlur_4829_4746" result="shape"/>
</filter>
<filter id="filter12_bd_4829_4746" x="54.272" y="83.4551" width="243.744" height="191.47" filterUnits="userSpaceOnUse" color-interpolation-filters="sRGB">
<feFlood flood-opacity="0" result="BackgroundImageFix"/>
<feGaussianBlur in="BackgroundImageFix" stdDeviation="3"/>
<feComposite in2="SourceAlpha" operator="in" result="effect1_backgroundBlur_4829_4746"/>
<feColorMatrix in="SourceAlpha" type="matrix" values="0 0 0 0 0 0 0 0 0 0 0 0 0 0 0 0 0 0 127 0" result="hardAlpha"/>
<feOffset dx="15" dy="14"/>
<feGaussianBlur stdDeviation="27.5"/>
<feComposite in2="hardAlpha" operator="out"/>
<feColorMatrix type="matrix" values="0 0 0 0 0 0 0 0 0 0 0 0 0 0 0 0 0 0 0.25 0"/>
<feBlend mode="normal" in2="effect1_backgroundBlur_4829_4746" result="effect2_dropShadow_4829_4746"/>
<feBlend mode="normal" in="SourceGraphic" in2="effect2_dropShadow_4829_4746" result="shape"/>
</filter>
<filter id="filter13_dd_4829_4746" x="268.37" y="4.17603" width="61.6836" height="66.7021" filterUnits="userSpaceOnUse" color-interpolation-filters="sRGB">
<feFlood flood-opacity="0" result="BackgroundImageFix"/>
<feColorMatrix in="SourceAlpha" type="matrix" values="0 0 0 0 0 0 0 0 0 0 0 0 0 0 0 0 0 0 127 0" result="hardAlpha"/>
<feOffset dx="0.75"/>
<feGaussianBlur stdDeviation="1.25"/>
<feComposite in2="hardAlpha" operator="out"/>
<feColorMatrix type="matrix" values="0 0 0 0 0.580392 0 0 0 0 0.568627 0 0 0 0 0.584314 0 0 0 1 0"/>
<feBlend mode="normal" in2="BackgroundImageFix" result="effect1_dropShadow_4829_4746"/>
<feColorMatrix in="SourceAlpha" type="matrix" values="0 0 0 0 0 0 0 0 0 0 0 0 0 0 0 0 0 0 127 0" result="hardAlpha"/>
<feOffset dy="-0.75"/>
<feGaussianBlur stdDeviation="0.75"/>
<feComposite in2="hardAlpha" operator="out"/>
<feColorMatrix type="matrix" values="0 0 0 0 0.756863 0 0 0 0 0.662745 0 0 0 0 0.815686 0 0 0 1 0"/>
<feBlend mode="normal" in2="effect1_dropShadow_4829_4746" result="effect2_dropShadow_4829_4746"/>
<feBlend mode="normal" in="SourceGraphic" in2="effect2_dropShadow_4829_4746" result="shape"/>
</filter>
<filter id="filter14_f_4829_4746" x="314.454" y="53.7678" width="4.61621" height="7.8728" filterUnits="userSpaceOnUse" color-interpolation-filters="sRGB">
<feFlood flood-opacity="0" result="BackgroundImageFix"/>
<feBlend mode="normal" in="SourceGraphic" in2="BackgroundImageFix" result="shape"/>
<feGaussianBlur stdDeviation="0.5" result="effect1_foregroundBlur_4829_4746"/>
</filter>
<filter id="filter15_f_4829_4746" x="275.219" y="14.0754" width="5.23145" height="9.00562" filterUnits="userSpaceOnUse" color-interpolation-filters="sRGB">
<feFlood flood-opacity="0" result="BackgroundImageFix"/>
<feBlend mode="normal" in="SourceGraphic" in2="BackgroundImageFix" result="shape"/>
<feGaussianBlur stdDeviation="0.5" result="effect1_foregroundBlur_4829_4746"/>
</filter>
<linearGradient id="paint0_linear_4829_4746" x1="221.25" y1="292.682" x2="221.25" y2="532" gradientUnits="userSpaceOnUse">
<stop stop-color="white"/>
<stop offset="1" stop-color="white" stop-opacity="0"/>
</linearGradient>
<linearGradient id="paint1_linear_4829_4746" x1="-104.318" y1="147.114" x2="221.25" y2="532" gradientUnits="userSpaceOnUse">
<stop stop-color="white" stop-opacity="0.45"/>
<stop offset="1" stop-color="white" stop-opacity="0"/>
</linearGradient>
<linearGradient id="paint2_linear_4829_4746" x1="-109.773" y1="60.8635" x2="-109.773" y2="392.909" gradientUnits="userSpaceOnUse">
<stop stop-color="white"/>
<stop offset="1" stop-color="white" stop-opacity="0"/>
</linearGradient>
<linearGradient id="paint3_linear_4829_4746" x1="-561.066" y1="-141.107" x2="-109.282" y2="392.494" gradientUnits="userSpaceOnUse">
<stop stop-color="white" stop-opacity="0.45"/>
<stop offset="1" stop-color="white" stop-opacity="0"/>
</linearGradient>
<linearGradient id="paint4_linear_4829_4746" x1="346.705" y1="112.682" x2="346.705" y2="352" gradientUnits="userSpaceOnUse">
<stop stop-color="white"/>
<stop offset="1" stop-color="white" stop-opacity="0"/>
</linearGradient>
<linearGradient id="paint5_linear_4829_4746" x1="21.1368" y1="-32.8863" x2="346.705" y2="352" gradientUnits="userSpaceOnUse">
<stop stop-color="white" stop-opacity="0.45"/>
<stop offset="1" stop-color="white" stop-opacity="0"/>
</linearGradient>
<linearGradient id="paint6_linear_4829_4746" x1="28.9774" y1="74.1591" x2="423.068" y2="261.318" gradientUnits="userSpaceOnUse">
<stop stop-color="white" stop-opacity="0.45"/>
<stop offset="1" stop-color="white" stop-opacity="0"/>
</linearGradient>
<linearGradient id="paint7_linear_4829_4746" x1="328.636" y1="557.227" x2="620.113" y2="496.545" gradientUnits="userSpaceOnUse">
<stop stop-color="white" stop-opacity="0.45"/>
<stop offset="1" stop-color="white" stop-opacity="0"/>
</linearGradient>
<linearGradient id="paint8_linear_4829_4746" x1="36.8185" y1="587.227" x2="328.296" y2="526.545" gradientUnits="userSpaceOnUse">
<stop stop-color="white" stop-opacity="0.45"/>
<stop offset="1" stop-color="white" stop-opacity="0"/>
</linearGradient>
<linearGradient id="paint9_linear_4829_4746" x1="-201.818" y1="565.409" x2="172.5" y2="504.727" gradientUnits="userSpaceOnUse">
<stop stop-color="white" stop-opacity="0.45"/>
<stop offset="1" stop-color="white" stop-opacity="0"/>
</linearGradient>
<linearGradient id="paint10_linear_4829_4746" x1="113.18" y1="149.5" x2="218.862" y2="317.569" gradientUnits="userSpaceOnUse">
<stop stop-color="#FFA266"/>
<stop offset="1"/>
</linearGradient>
<linearGradient id="paint11_linear_4829_4746" x1="176.42" y1="129.728" x2="176.42" y2="298.137" gradientUnits="userSpaceOnUse">
<stop stop-color="white" stop-opacity="0.51"/>
<stop offset="1" stop-color="white" stop-opacity="0"/>
</linearGradient>
<linearGradient id="paint12_linear_4829_4746" x1="172.124" y1="148.487" x2="172.124" y2="268.137" gradientUnits="userSpaceOnUse">
<stop stop-color="white" stop-opacity="0.51"/>
<stop offset="1" stop-color="white" stop-opacity="0"/>
</linearGradient>
<linearGradient id="paint13_linear_4829_4746" x1="254.917" y1="231.558" x2="254.917" y2="286.887" gradientUnits="userSpaceOnUse">
<stop stop-color="white" stop-opacity="0.47"/>
<stop offset="1" stop-color="white" stop-opacity="0"/>
</linearGradient>
<linearGradient id="paint14_linear_4829_4746" x1="175.404" y1="32.5914" x2="161.144" y2="205.425" gradientUnits="userSpaceOnUse">
<stop stop-color="white"/>
<stop offset="1" stop-color="white" stop-opacity="0"/>
</linearGradient>
<linearGradient id="paint15_linear_4829_4746" x1="229.773" y1="195.864" x2="229.773" y2="249.728" gradientUnits="userSpaceOnUse">
<stop stop-color="white" stop-opacity="0.51"/>
<stop offset="1" stop-color="white" stop-opacity="0"/>
</linearGradient>
<radialGradient id="paint16_radial_4829_4746" cx="0" cy="0" r="1" gradientUnits="userSpaceOnUse" gradientTransform="translate(282.984 12.212) rotate(83.6506) scale(9.15836 9.1836)">
<stop stop-color="#FBFAFC"/>
<stop offset="1" stop-color="#E5E5E5" stop-opacity="0"/>
</radialGradient>
<radialGradient id="paint17_radial_4829_4746" cx="0" cy="0" r="1" gradientUnits="userSpaceOnUse" gradientTransform="translate(272.686 19.2027) rotate(26.0495) scale(6.46421 6.16167)">
<stop stop-color="#FBFAFC"/>
<stop offset="1" stop-color="#E5E5E5" stop-opacity="0"/>
</radialGradient>
<radialGradient id="paint18_radial_4829_4746" cx="0" cy="0" r="1" gradientUnits="userSpaceOnUse" gradientTransform="translate(277.292 8.18055) rotate(72.6385) scale(16.5576 3.58433)">
<stop stop-color="#FBFAFC"/>
<stop offset="1" stop-color="#E5E5E5" stop-opacity="0"/>
</radialGradient>
<radialGradient id="paint19_radial_4829_4746" cx="0" cy="0" r="1" gradientUnits="userSpaceOnUse" gradientTransform="translate(276.374 35.3985) rotate(-72.1295) scale(15.4902 9.47134)">
<stop stop-color="#BDA5CC"/>
<stop offset="1" stop-color="#BDA5CC" stop-opacity="0"/>
</radialGradient>
<radialGradient id="paint20_radial_4829_4746" cx="0" cy="0" r="1" gradientUnits="userSpaceOnUse" gradientTransform="translate(328.023 50.519) rotate(-179.999) scale(6.9381 6.59743)">
<stop stop-color="#9B9A9B"/>
<stop offset="1" stop-color="#9B9A9B" stop-opacity="0"/>
</radialGradient>
<radialGradient id="paint21_radial_4829_4746" cx="0" cy="0" r="1" gradientUnits="userSpaceOnUse" gradientTransform="translate(317.013 49.8593) rotate(-71.9775) scale(6.12236 4.48011)">
<stop stop-color="#E8E3EB"/>
<stop offset="1" stop-color="#E8E3EB" stop-opacity="0"/>
</radialGradient>
<radialGradient id="paint22_radial_4829_4746" cx="0" cy="0" r="1" gradientUnits="userSpaceOnUse" gradientTransform="translate(321.415 62.3571) rotate(-94.2341) scale(9.43249 6.97977)">
<stop stop-color="#C6AED5"/>
<stop offset="1" stop-color="#C6AED5" stop-opacity="0"/>
</radialGradient>
<radialGradient id="paint23_radial_4829_4746" cx="0" cy="0" r="1" gradientUnits="userSpaceOnUse" gradientTransform="translate(301.563 57.2935) rotate(-2.64549) scale(11.1271 6.17984)">
<stop offset="0.289" stop-color="#F5EEF9"/>
<stop offset="1" stop-color="#F5EEF9" stop-opacity="0"/>
</radialGradient>
<radialGradient id="paint24_radial_4829_4746" cx="0" cy="0" r="1" gradientUnits="userSpaceOnUse" gradientTransform="translate(310.638 17.6242) rotate(94.7535) scale(51.4027 51.9048)">
<stop offset="0.857" stop-color="#D5BBE5" stop-opacity="0"/>
<stop offset="1" stop-color="#D5BBE5"/>
</radialGradient>
<linearGradient id="paint25_linear_4829_4746" x1="277.578" y1="15.4428" x2="278.298" y2="25.9044" gradientUnits="userSpaceOnUse">
<stop stop-color="#B6B0BB"/>
<stop offset="1" stop-color="#C6BFCB" stop-opacity="0"/>
</linearGradient>
<clipPath id="clip0_4829_4746">
<rect width="68" height="68" fill="white" transform="matrix(-0.995407 -0.095733 -0.095733 0.995407 335.199 7.50977)"/>
</clipPath>
</defs>
</svg>
