<svg width="430" height="1613" viewBox="0 0 430 1613" fill="none" xmlns="http://www.w3.org/2000/svg">
<path d="M337.14 663.257C336.173 681.884 330.837 700.022 321.562 716.205C312.287 732.388 299.334 746.16 283.75 756.41C268.167 766.66 250.39 773.098 231.857 775.205C213.324 777.312 194.556 775.028 177.069 768.538L202.12 701.042C209.015 703.601 216.417 704.502 223.725 703.671C231.033 702.84 238.043 700.301 244.188 696.259C250.333 692.218 255.441 686.786 259.099 680.405C262.756 674.024 264.86 666.871 265.242 659.526L337.14 663.257Z" fill="url(#paint0_linear_4811_4735)"/>
<path d="M102.524 654.66C103.481 636.119 108.768 618.06 117.961 601.929C127.155 585.799 139.998 572.047 155.463 561.774L190.967 615.221C183.85 619.949 177.939 626.278 173.708 633.701C169.477 641.124 167.044 649.436 166.604 657.968L102.524 654.66Z" fill="url(#paint1_linear_4811_4735)"/>
<path d="M159.622 567.832C167.97 562.834 176.9 558.879 186.211 556.058L202.791 610.769C197.958 612.234 193.323 614.286 188.99 616.881L159.622 567.832Z" fill="url(#paint2_linear_4811_4735)"/>
<path d="M138.923 752.114C124.578 740.328 113.193 725.346 105.681 708.367C98.1685 691.389 94.7375 672.887 95.6629 654.344L168.204 657.964C167.844 665.177 169.179 672.374 172.101 678.978C175.023 685.583 179.452 691.411 185.032 695.995L138.923 752.114Z" fill="url(#paint3_linear_4811_4735)"/>
<path d="M184.949 551.062C201.871 546.612 219.594 546.143 236.727 549.693C253.861 553.242 269.939 560.713 283.7 571.52C297.462 582.326 308.532 596.174 316.043 611.977C323.554 627.78 327.302 645.109 326.992 662.604L264.395 661.494C264.534 653.67 262.858 645.92 259.499 638.853C256.14 631.785 251.189 625.592 245.034 620.759C238.88 615.926 231.689 612.585 224.027 610.998C216.364 609.41 208.438 609.62 200.87 611.61L184.949 551.062Z" fill="url(#paint4_linear_4811_4735)"/>
<path d="M178.391 782.741C157.876 776.803 139.339 765.447 124.73 749.868L183.859 694.421C188.506 699.377 194.402 702.989 200.928 704.878L178.391 782.741Z" fill="url(#paint5_linear_4811_4735)"/>
<circle cx="214.79" cy="659.497" r="50.7371" transform="rotate(-37.2335 214.79 659.497)" fill="#02011C"/>
<g filter="url(#filter0_f_4811_4735)">
<ellipse cx="-270" cy="806.5" rx="344" ry="302" fill="#FF7B1C" fill-opacity="0.49"/>
</g>
<g filter="url(#filter1_ddd_4811_4735)">
<path d="M32.9258 989.5L32.9237 782.186C32.9237 780.179 33.7847 778.269 35.2882 776.94L100.284 719.5" stroke="#FD7D00"/>
</g>
<g filter="url(#filter2_ddd_4811_4735)">
<path d="M119.499 858.5L119.501 813.855C119.502 812.327 120.002 810.841 120.926 809.623L143.795 779.5" stroke="#FD7D00"/>
</g>
<g filter="url(#filter3_ddd_4811_4735)">
<path d="M388.337 924.499L388.339 794.432C388.339 791.846 386.913 789.471 384.631 788.255L309.009 747.947" stroke="#FD7D00"/>
</g>
<path d="M52.02 983.5V971.04H60.14V972.88H54.22V976.08H59.08V977.94H54.22V981.66H60.08V983.5H52.02ZM61.56 983.5L64.78 978.84L61.6 974.2H63.98L65.98 977.08L67.84 974.2H70.12L67.18 978.76L70.52 983.5H68.08L65.98 980.54L63.98 983.5H61.56ZM76.56 983.74C75.6533 983.74 74.84 983.533 74.12 983.12C73.4 982.706 72.8267 982.14 72.4 981.42C71.9867 980.686 71.78 979.853 71.78 978.92C71.78 978 71.9867 977.166 72.4 976.42C72.8267 975.673 73.4 975.08 74.12 974.64C74.84 974.2 75.66 973.98 76.58 973.98C77.4333 973.98 78.18 974.14 78.82 974.46C79.46 974.78 79.9667 975.22 80.34 975.78L79.08 977.16L78.96 977.3L78.8 977.18C78.8 977.06 78.7867 976.953 78.76 976.86C78.7333 976.753 78.6467 976.613 78.5 976.44C78.2467 976.2 77.96 976.033 77.64 975.94C77.3333 975.846 76.9867 975.8 76.6 975.8C76.16 975.8 75.7467 975.92 75.36 976.16C74.9733 976.4 74.66 976.753 74.42 977.22C74.1933 977.686 74.08 978.253 74.08 978.92C74.08 979.52 74.2 980.046 74.44 980.5C74.68 980.94 74.9933 981.286 75.38 981.54C75.78 981.78 76.2067 981.9 76.66 981.9C77.0733 981.9 77.48 981.813 77.88 981.64C78.28 981.466 78.6533 981.166 79 980.74L80.26 982.18C79.7667 982.726 79.1933 983.126 78.54 983.38C77.8867 983.62 77.2267 983.74 76.56 983.74ZM82.1 970.08H84.54V970.26C84.4733 970.34 84.4267 970.433 84.4 970.54C84.3867 970.633 84.38 970.786 84.38 971V975.42C84.7133 974.94 85.1267 974.58 85.62 974.34C86.1133 974.1 86.6067 973.98 87.1 973.98C87.9933 973.98 88.7133 974.286 89.26 974.9C89.8067 975.5 90.08 976.493 90.08 977.88V983.5H87.8V977.92C87.8 977.106 87.68 976.54 87.44 976.22C87.2133 975.886 86.9 975.72 86.5 975.72C85.9267 975.72 85.4267 975.94 85 976.38C84.5867 976.806 84.38 977.4 84.38 978.16V983.5H82.1V970.08ZM94.96 983.74C93.9333 983.74 93.1333 983.5 92.56 983.02C92 982.54 91.72 981.906 91.72 981.12C91.72 980.133 92.16 979.32 93.04 978.68C93.9333 978.026 95.2267 977.7 96.92 977.7C97.0133 977.7 97.1333 977.7 97.28 977.7C97.44 977.7 97.6067 977.706 97.78 977.72C97.6867 976.946 97.4667 976.426 97.12 976.16C96.7733 975.88 96.3067 975.74 95.72 975.74C95.2933 975.74 94.8933 975.813 94.52 975.96C94.1467 976.093 93.7733 976.346 93.4 976.72L92.16 975.36C92.6933 974.866 93.2733 974.513 93.9 974.3C94.5267 974.086 95.1667 973.98 95.82 973.98C96.5933 973.98 97.3 974.106 97.94 974.36C98.58 974.6 99.0867 975.026 99.46 975.64C99.8333 976.24 100.02 977.073 100.02 978.14V983.5H97.68V982.5C97.3333 982.966 96.9333 983.293 96.48 983.48C96.0267 983.653 95.52 983.74 94.96 983.74ZM93.98 980.84C93.98 981.266 94.1133 981.566 94.38 981.74C94.66 981.9 95 981.98 95.4 981.98C96.12 981.98 96.68 981.766 97.08 981.34C97.48 980.9 97.72 980.213 97.8 979.28C97.6267 979.28 97.46 979.28 97.3 979.28C97.14 979.266 97 979.26 96.88 979.26C95.8133 979.26 95.06 979.406 94.62 979.7C94.1933 979.993 93.98 980.373 93.98 980.84ZM102.1 983.5V974.2H104.36V975.48C104.693 975.026 105.08 974.666 105.52 974.4C105.96 974.12 106.467 973.98 107.04 973.98C107.573 973.98 108.067 974.113 108.52 974.38C108.987 974.633 109.36 975.046 109.64 975.62C109.92 976.193 110.06 976.946 110.06 977.88V983.5H107.8V977.92C107.8 977.16 107.68 976.606 107.44 976.26C107.2 975.9 106.867 975.72 106.44 975.72C106.107 975.72 105.78 975.813 105.46 976C105.14 976.173 104.873 976.426 104.66 976.76C104.46 977.093 104.36 977.493 104.36 977.96V983.5H102.1ZM115.6 980.36C115.133 980.36 114.687 980.286 114.26 980.14C114.14 980.246 114.04 980.346 113.96 980.44C113.88 980.52 113.84 980.633 113.84 980.78C113.84 981.02 114.08 981.2 114.56 981.32C115.04 981.44 115.86 981.5 117.02 981.5C117.82 981.5 118.447 981.613 118.9 981.84C119.353 982.066 119.68 982.373 119.88 982.76C120.08 983.133 120.18 983.54 120.18 983.98C120.18 984.5 120.02 984.993 119.7 985.46C119.393 985.94 118.913 986.326 118.26 986.62C117.62 986.926 116.793 987.08 115.78 987.08C114.46 987.08 113.427 986.853 112.68 986.4C111.933 985.96 111.56 985.366 111.56 984.62C111.56 984.22 111.687 983.846 111.94 983.5C112.207 983.166 112.533 982.9 112.92 982.7C112.667 982.54 112.467 982.353 112.32 982.14C112.187 981.913 112.12 981.653 112.12 981.36C112.12 980.973 112.227 980.633 112.44 980.34C112.653 980.046 112.913 979.773 113.22 979.52C112.887 979.24 112.62 978.9 112.42 978.5C112.233 978.086 112.14 977.64 112.14 977.16C112.14 976.56 112.287 976.02 112.58 975.54C112.887 975.046 113.3 974.653 113.82 974.36C114.34 974.066 114.933 973.92 115.6 973.92C116.027 973.92 116.433 973.986 116.82 974.12C117.207 974.253 117.547 974.44 117.84 974.68C118.2 974.426 118.6 974.233 119.04 974.1C119.48 973.966 119.953 973.92 120.46 973.96L120.68 975.52C120.333 975.453 119.987 975.44 119.64 975.48C119.307 975.52 119 975.613 118.72 975.76C118.933 976.2 119.04 976.666 119.04 977.16C119.04 977.773 118.887 978.32 118.58 978.8C118.287 979.28 117.88 979.66 117.36 979.94C116.84 980.22 116.253 980.36 115.6 980.36ZM115.58 978.72C116.033 978.72 116.407 978.573 116.7 978.28C116.993 977.986 117.14 977.613 117.14 977.16C117.14 976.72 116.987 976.36 116.68 976.08C116.387 975.786 116.02 975.64 115.58 975.64C115.18 975.64 114.82 975.786 114.5 976.08C114.193 976.373 114.04 976.733 114.04 977.16C114.04 977.586 114.187 977.953 114.48 978.26C114.787 978.566 115.153 978.72 115.58 978.72ZM113.3 984.28C113.3 984.64 113.547 984.9 114.04 985.06C114.547 985.233 115.187 985.32 115.96 985.32C116.72 985.32 117.3 985.22 117.7 985.02C118.113 984.82 118.32 984.553 118.32 984.22C118.32 983.913 118.187 983.693 117.92 983.56C117.667 983.44 117.16 983.38 116.4 983.38C115.987 983.38 115.58 983.36 115.18 983.32C114.78 983.28 114.407 983.22 114.06 983.14C113.847 983.3 113.667 983.466 113.52 983.64C113.373 983.813 113.3 984.026 113.3 984.28ZM126.42 983.72C125.527 983.72 124.727 983.533 124.02 983.16C123.327 982.786 122.78 982.24 122.38 981.52C121.98 980.8 121.78 979.933 121.78 978.92C121.78 977.88 121.973 976.993 122.36 976.26C122.76 975.526 123.287 974.966 123.94 974.58C124.607 974.18 125.347 973.98 126.16 973.98C126.88 973.98 127.54 974.146 128.14 974.48C128.753 974.813 129.24 975.32 129.6 976C129.973 976.666 130.16 977.5 130.16 978.5C130.16 978.633 130.153 978.793 130.14 978.98C130.14 979.166 130.133 979.326 130.12 979.46H123.96C123.987 980.046 124.127 980.526 124.38 980.9C124.633 981.26 124.947 981.526 125.32 981.7C125.693 981.873 126.093 981.96 126.52 981.96C126.933 981.96 127.327 981.893 127.7 981.76C128.073 981.626 128.42 981.4 128.74 981.08L129.9 982.2C129.447 982.733 128.927 983.12 128.34 983.36C127.753 983.6 127.113 983.72 126.42 983.72ZM124 977.76H127.96C127.96 977.106 127.793 976.606 127.46 976.26C127.127 975.913 126.66 975.74 126.06 975.74C125.54 975.74 125.087 975.906 124.7 976.24C124.313 976.56 124.08 977.066 124 977.76ZM142.14 971.04H144.6V971.22C144.52 971.3 144.467 971.393 144.44 971.5C144.427 971.593 144.42 971.746 144.42 971.96V981.66H150.14V983.5H142.14V971.04ZM152.68 983.5V981.72H154.96V975.98H152.8V974.2H157.24V981.72H159.32V983.5H152.68ZM156 972.66C155.6 972.66 155.26 972.526 154.98 972.26C154.713 971.993 154.58 971.673 154.58 971.3C154.58 970.913 154.713 970.593 154.98 970.34C155.247 970.073 155.587 969.94 156 969.94C156.373 969.94 156.7 970.073 156.98 970.34C157.273 970.606 157.42 970.926 157.42 971.3C157.42 971.673 157.273 971.993 156.98 972.26C156.7 972.526 156.373 972.66 156 972.66ZM166.18 983.72C165.327 983.72 164.54 983.606 163.82 983.38C163.1 983.153 162.46 982.773 161.9 982.24L162.9 980.4L162.98 980.24L163.14 980.34C163.18 980.433 163.22 980.54 163.26 980.66C163.3 980.766 163.4 980.893 163.56 981.04C163.893 981.32 164.267 981.54 164.68 981.7C165.107 981.86 165.62 981.94 166.22 981.94C166.78 981.94 167.213 981.846 167.52 981.66C167.827 981.473 167.98 981.226 167.98 980.92C167.98 980.613 167.807 980.366 167.46 980.18C167.127 979.993 166.573 979.786 165.8 979.56C164.787 979.293 163.98 978.933 163.38 978.48C162.78 978.026 162.48 977.42 162.48 976.66C162.48 975.9 162.807 975.266 163.46 974.76C164.127 974.24 165.02 973.98 166.14 973.98C167.673 973.98 168.92 974.453 169.88 975.4L168.78 976.94L168.64 977.1L168.5 976.98C168.487 976.873 168.453 976.773 168.4 976.68C168.36 976.586 168.26 976.46 168.1 976.3C167.833 976.113 167.527 975.973 167.18 975.88C166.847 975.773 166.513 975.72 166.18 975.72C165.727 975.72 165.333 975.793 165 975.94C164.68 976.086 164.52 976.313 164.52 976.62C164.52 976.886 164.693 977.113 165.04 977.3C165.387 977.486 165.98 977.686 166.82 977.9C167.94 978.18 168.753 978.553 169.26 979.02C169.767 979.473 170.02 980.06 170.02 980.78C170.02 981.313 169.873 981.806 169.58 982.26C169.287 982.7 168.853 983.053 168.28 983.32C167.72 983.586 167.02 983.72 166.18 983.72ZM176.98 983.7C176.26 983.7 175.667 983.546 175.2 983.24C174.733 982.92 174.393 982.393 174.18 981.66C173.967 980.926 173.887 979.933 173.94 978.68L174.04 975.98H172.14L172.18 974.2H174.12L174.2 972L176.54 971.7L176.72 971.68L176.74 971.86C176.673 971.953 176.613 972.053 176.56 972.16C176.52 972.253 176.493 972.406 176.48 972.62L176.34 974.2H179.34L179.32 975.98H176.32L176.2 978.64C176.16 979.506 176.187 980.173 176.28 980.64C176.387 981.106 176.54 981.433 176.74 981.62C176.953 981.793 177.207 981.88 177.5 981.88C177.927 981.88 178.307 981.793 178.64 981.62C178.987 981.446 179.307 981.246 179.6 981.02L180.08 982.66C179.613 982.993 179.127 983.253 178.62 983.44C178.113 983.613 177.567 983.7 176.98 983.7ZM182.68 983.5V981.72H184.96V975.98H182.8V974.2H187.24V981.72H189.32V983.5H182.68ZM186 972.66C185.6 972.66 185.26 972.526 184.98 972.26C184.713 971.993 184.58 971.673 184.58 971.3C184.58 970.913 184.713 970.593 184.98 970.34C185.247 970.073 185.587 969.94 186 969.94C186.373 969.94 186.7 970.073 186.98 970.34C187.273 970.606 187.42 970.926 187.42 971.3C187.42 971.673 187.273 971.993 186.98 972.26C186.7 972.526 186.373 972.66 186 972.66ZM192.1 983.5V974.2H194.36V975.48C194.693 975.026 195.08 974.666 195.52 974.4C195.96 974.12 196.467 973.98 197.04 973.98C197.573 973.98 198.067 974.113 198.52 974.38C198.987 974.633 199.36 975.046 199.64 975.62C199.92 976.193 200.06 976.946 200.06 977.88V983.5H197.8V977.92C197.8 977.16 197.68 976.606 197.44 976.26C197.2 975.9 196.867 975.72 196.44 975.72C196.107 975.72 195.78 975.813 195.46 976C195.14 976.173 194.873 976.426 194.66 976.76C194.46 977.093 194.36 977.493 194.36 977.96V983.5H192.1ZM205.6 980.36C205.133 980.36 204.687 980.286 204.26 980.14C204.14 980.246 204.04 980.346 203.96 980.44C203.88 980.52 203.84 980.633 203.84 980.78C203.84 981.02 204.08 981.2 204.56 981.32C205.04 981.44 205.86 981.5 207.02 981.5C207.82 981.5 208.447 981.613 208.9 981.84C209.353 982.066 209.68 982.373 209.88 982.76C210.08 983.133 210.18 983.54 210.18 983.98C210.18 984.5 210.02 984.993 209.7 985.46C209.393 985.94 208.913 986.326 208.26 986.62C207.62 986.926 206.793 987.08 205.78 987.08C204.46 987.08 203.427 986.853 202.68 986.4C201.933 985.96 201.56 985.366 201.56 984.62C201.56 984.22 201.687 983.846 201.94 983.5C202.207 983.166 202.533 982.9 202.92 982.7C202.667 982.54 202.467 982.353 202.32 982.14C202.187 981.913 202.12 981.653 202.12 981.36C202.12 980.973 202.227 980.633 202.44 980.34C202.653 980.046 202.913 979.773 203.22 979.52C202.887 979.24 202.62 978.9 202.42 978.5C202.233 978.086 202.14 977.64 202.14 977.16C202.14 976.56 202.287 976.02 202.58 975.54C202.887 975.046 203.3 974.653 203.82 974.36C204.34 974.066 204.933 973.92 205.6 973.92C206.027 973.92 206.433 973.986 206.82 974.12C207.207 974.253 207.547 974.44 207.84 974.68C208.2 974.426 208.6 974.233 209.04 974.1C209.48 973.966 209.953 973.92 210.46 973.96L210.68 975.52C210.333 975.453 209.987 975.44 209.64 975.48C209.307 975.52 209 975.613 208.72 975.76C208.933 976.2 209.04 976.666 209.04 977.16C209.04 977.773 208.887 978.32 208.58 978.8C208.287 979.28 207.88 979.66 207.36 979.94C206.84 980.22 206.253 980.36 205.6 980.36ZM205.58 978.72C206.033 978.72 206.407 978.573 206.7 978.28C206.993 977.986 207.14 977.613 207.14 977.16C207.14 976.72 206.987 976.36 206.68 976.08C206.387 975.786 206.02 975.64 205.58 975.64C205.18 975.64 204.82 975.786 204.5 976.08C204.193 976.373 204.04 976.733 204.04 977.16C204.04 977.586 204.187 977.953 204.48 978.26C204.787 978.566 205.153 978.72 205.58 978.72ZM203.3 984.28C203.3 984.64 203.547 984.9 204.04 985.06C204.547 985.233 205.187 985.32 205.96 985.32C206.72 985.32 207.3 985.22 207.7 985.02C208.113 984.82 208.32 984.553 208.32 984.22C208.32 983.913 208.187 983.693 207.92 983.56C207.667 983.44 207.16 983.38 206.4 983.38C205.987 983.38 205.58 983.36 205.18 983.32C204.78 983.28 204.407 983.22 204.06 983.14C203.847 983.3 203.667 983.466 203.52 983.64C203.373 983.813 203.3 984.026 203.3 984.28ZM216.18 983.72C215.327 983.72 214.54 983.606 213.82 983.38C213.1 983.153 212.46 982.773 211.9 982.24L212.9 980.4L212.98 980.24L213.14 980.34C213.18 980.433 213.22 980.54 213.26 980.66C213.3 980.766 213.4 980.893 213.56 981.04C213.893 981.32 214.267 981.54 214.68 981.7C215.107 981.86 215.62 981.94 216.22 981.94C216.78 981.94 217.213 981.846 217.52 981.66C217.827 981.473 217.98 981.226 217.98 980.92C217.98 980.613 217.807 980.366 217.46 980.18C217.127 979.993 216.573 979.786 215.8 979.56C214.787 979.293 213.98 978.933 213.38 978.48C212.78 978.026 212.48 977.42 212.48 976.66C212.48 975.9 212.807 975.266 213.46 974.76C214.127 974.24 215.02 973.98 216.14 973.98C217.673 973.98 218.92 974.453 219.88 975.4L218.78 976.94L218.64 977.1L218.5 976.98C218.487 976.873 218.453 976.773 218.4 976.68C218.36 976.586 218.26 976.46 218.1 976.3C217.833 976.113 217.527 975.973 217.18 975.88C216.847 975.773 216.513 975.72 216.18 975.72C215.727 975.72 215.333 975.793 215 975.94C214.68 976.086 214.52 976.313 214.52 976.62C214.52 976.886 214.693 977.113 215.04 977.3C215.387 977.486 215.98 977.686 216.82 977.9C217.94 978.18 218.753 978.553 219.26 979.02C219.767 979.473 220.02 980.06 220.02 980.78C220.02 981.313 219.873 981.806 219.58 982.26C219.287 982.7 218.853 983.053 218.28 983.32C217.72 983.586 217.02 983.72 216.18 983.72ZM235.16 983.5V973.5L232.9 974.3L232.42 972.8L235.74 971.04H237.42V983.5H235.16ZM246.04 983.74C245.173 983.74 244.387 983.573 243.68 983.24C242.987 982.906 242.453 982.413 242.08 981.76L243.66 980.46L243.82 980.34L243.92 980.48C243.92 980.586 243.94 980.686 243.98 980.78C244.02 980.873 244.107 981.006 244.24 981.18C244.707 981.66 245.3 981.9 246.02 981.9C246.62 981.9 247.113 981.68 247.5 981.24C247.887 980.786 248.08 980.22 248.08 979.54C248.08 978.806 247.893 978.213 247.52 977.76C247.147 977.293 246.627 977.06 245.96 977.06C245.12 977.06 244.447 977.386 243.94 978.04L242.56 977.68L243.02 971.04H249.68V972.86H244.9L244.72 975.68C244.96 975.546 245.24 975.44 245.56 975.36C245.893 975.28 246.2 975.24 246.48 975.24C247.587 975.24 248.487 975.6 249.18 976.32C249.873 977.026 250.22 978.046 250.22 979.38C250.22 980.286 250.04 981.066 249.68 981.72C249.32 982.36 248.82 982.86 248.18 983.22C247.553 983.566 246.84 983.74 246.04 983.74ZM253.76 976.18C253.333 976.18 252.94 976.066 252.58 975.84C252.22 975.6 251.927 975.28 251.7 974.88C251.487 974.466 251.38 974.006 251.38 973.5C251.38 972.993 251.487 972.54 251.7 972.14C251.927 971.74 252.22 971.42 252.58 971.18C252.94 970.94 253.333 970.82 253.76 970.82C254.2 970.82 254.6 970.94 254.96 971.18C255.32 971.42 255.607 971.746 255.82 972.16C256.033 972.56 256.14 973.013 256.14 973.52C256.14 974.293 255.913 974.933 255.46 975.44C255.007 975.933 254.44 976.18 253.76 976.18ZM251.7 983.5L258.7 971.04H260.38L253.32 983.5H251.7ZM253.76 974.78C254.013 974.78 254.213 974.673 254.36 974.46C254.52 974.233 254.6 973.913 254.6 973.5C254.6 973.1 254.52 972.786 254.36 972.56C254.2 972.32 253.993 972.2 253.74 972.2C253.5 972.2 253.3 972.32 253.14 972.56C252.993 972.786 252.92 973.1 252.92 973.5C252.92 973.913 252.993 974.233 253.14 974.46C253.3 974.673 253.507 974.78 253.76 974.78ZM258.34 983.7C257.913 983.7 257.52 983.586 257.16 983.36C256.8 983.12 256.507 982.8 256.28 982.4C256.067 981.986 255.96 981.526 255.96 981.02C255.96 980.526 256.067 980.08 256.28 979.68C256.507 979.266 256.8 978.946 257.16 978.72C257.52 978.48 257.913 978.36 258.34 978.36C258.78 978.36 259.18 978.48 259.54 978.72C259.9 978.96 260.187 979.286 260.4 979.7C260.613 980.1 260.72 980.546 260.72 981.04C260.72 981.813 260.487 982.453 260.02 982.96C259.567 983.453 259.007 983.7 258.34 983.7ZM258.36 982.32C258.613 982.32 258.813 982.206 258.96 981.98C259.12 981.753 259.2 981.44 259.2 981.04C259.2 980.68 259.127 980.373 258.98 980.12C258.833 979.866 258.62 979.74 258.34 979.74C258.087 979.74 257.88 979.853 257.72 980.08C257.56 980.306 257.48 980.62 257.48 981.02C257.48 981.433 257.56 981.753 257.72 981.98C257.88 982.206 258.093 982.32 258.36 982.32Z" fill="white"/>
<path d="M204.84 920.5V908.04H208.06C209.153 908.04 210 908.193 210.6 908.5C211.213 908.793 211.727 909.213 212.14 909.76C212.553 910.32 212.873 910.986 213.1 911.76C213.34 912.533 213.46 913.4 213.46 914.36C213.433 915.613 213.227 916.706 212.84 917.64C212.453 918.56 211.847 919.266 211.02 919.76C210.207 920.253 209.14 920.5 207.82 920.5H204.84ZM207.04 918.74H207.76C208.613 918.74 209.293 918.56 209.8 918.2C210.32 917.84 210.693 917.333 210.92 916.68C211.147 916.026 211.253 915.26 211.24 914.38C211.24 913.46 211.14 912.66 210.94 911.98C210.753 911.3 210.42 910.773 209.94 910.4C209.46 910.026 208.807 909.84 207.98 909.84H207.04V918.74ZM219.42 920.72C218.527 920.72 217.727 920.533 217.02 920.16C216.327 919.786 215.78 919.24 215.38 918.52C214.98 917.8 214.78 916.933 214.78 915.92C214.78 914.88 214.973 913.993 215.36 913.26C215.76 912.526 216.287 911.966 216.94 911.58C217.607 911.18 218.347 910.98 219.16 910.98C219.88 910.98 220.54 911.146 221.14 911.48C221.753 911.813 222.24 912.32 222.6 913C222.973 913.666 223.16 914.5 223.16 915.5C223.16 915.633 223.153 915.793 223.14 915.98C223.14 916.166 223.133 916.326 223.12 916.46H216.96C216.987 917.046 217.127 917.526 217.38 917.9C217.633 918.26 217.947 918.526 218.32 918.7C218.693 918.873 219.093 918.96 219.52 918.96C219.933 918.96 220.327 918.893 220.7 918.76C221.073 918.626 221.42 918.4 221.74 918.08L222.9 919.2C222.447 919.733 221.927 920.12 221.34 920.36C220.753 920.6 220.113 920.72 219.42 920.72ZM217 914.76H220.96C220.96 914.106 220.793 913.606 220.46 913.26C220.127 912.913 219.66 912.74 219.06 912.74C218.54 912.74 218.087 912.906 217.7 913.24C217.313 913.56 217.08 914.066 217 914.76ZM224.56 920.5L227.78 915.84L224.6 911.2H226.98L228.98 914.08L230.84 911.2H233.12L230.18 915.76L233.52 920.5H231.08L228.98 917.54L226.98 920.5H224.56ZM245.14 908.04H247.6V908.22C247.52 908.3 247.467 908.393 247.44 908.5C247.427 908.593 247.42 908.746 247.42 908.96V918.66H253.14V920.5H245.14V908.04ZM255.68 920.5V918.72H257.96V912.98H255.8V911.2H260.24V918.72H262.32V920.5H255.68ZM259 909.66C258.6 909.66 258.26 909.526 257.98 909.26C257.713 908.993 257.58 908.673 257.58 908.3C257.58 907.913 257.713 907.593 257.98 907.34C258.247 907.073 258.587 906.94 259 906.94C259.373 906.94 259.7 907.073 259.98 907.34C260.273 907.606 260.42 907.926 260.42 908.3C260.42 908.673 260.273 908.993 259.98 909.26C259.7 909.526 259.373 909.66 259 909.66ZM270.8 923.84V919.62C270.587 919.98 270.273 920.253 269.86 920.44C269.46 920.626 269.027 920.72 268.56 920.72C267.72 920.72 267 920.52 266.4 920.12C265.8 919.706 265.333 919.133 265 918.4C264.68 917.666 264.52 916.82 264.52 915.86C264.52 914.366 264.88 913.18 265.6 912.3C266.333 911.42 267.333 910.98 268.6 910.98C269.147 910.98 269.6 911.08 269.96 911.28C270.333 911.466 270.64 911.746 270.88 912.12V911.2H273.08V923.84H270.8ZM268.94 918.98C269.46 918.98 269.9 918.733 270.26 918.24C270.633 917.746 270.82 916.92 270.82 915.76C270.82 914.613 270.64 913.82 270.28 913.38C269.92 912.926 269.473 912.7 268.94 912.7C268.34 912.7 267.833 912.94 267.42 913.42C267.007 913.886 266.8 914.673 266.8 915.78C266.8 916.86 266.993 917.666 267.38 918.2C267.767 918.72 268.287 918.98 268.94 918.98ZM278.24 920.74C277.293 920.74 276.513 920.42 275.9 919.78C275.287 919.14 274.98 918.1 274.98 916.66V911.2H277.26V916.66C277.26 917.486 277.393 918.073 277.66 918.42C277.94 918.753 278.287 918.92 278.7 918.92C279.26 918.92 279.713 918.72 280.06 918.32C280.42 917.92 280.6 917.313 280.6 916.5V911.2H282.86V919.02C282.86 919.313 282.867 919.58 282.88 919.82C282.907 920.046 282.967 920.273 283.06 920.5H281C280.893 920.3 280.833 920.1 280.82 919.9C280.807 919.7 280.8 919.5 280.8 919.3C280.52 919.78 280.147 920.14 279.68 920.38C279.227 920.62 278.747 920.74 278.24 920.74ZM285.68 920.5V918.72H287.96V912.98H285.8V911.2H290.24V918.72H292.32V920.5H285.68ZM289 909.66C288.6 909.66 288.26 909.526 287.98 909.26C287.713 908.993 287.58 908.673 287.58 908.3C287.58 907.913 287.713 907.593 287.98 907.34C288.247 907.073 288.587 906.94 289 906.94C289.373 906.94 289.7 907.073 289.98 907.34C290.273 907.606 290.42 907.926 290.42 908.3C290.42 908.673 290.273 908.993 289.98 909.26C289.7 909.526 289.373 909.66 289 909.66ZM298.52 920.72C297.827 920.72 297.187 920.54 296.6 920.18C296.027 919.82 295.56 919.273 295.2 918.54C294.84 917.806 294.66 916.893 294.66 915.8C294.66 914.72 294.833 913.826 295.18 913.12C295.527 912.4 295.993 911.86 296.58 911.5C297.167 911.14 297.82 910.96 298.54 910.96C299.007 910.96 299.44 911.046 299.84 911.22C300.24 911.393 300.553 911.673 300.78 912.06V907.08H303.2V907.26C303.12 907.34 303.067 907.433 303.04 907.54C303.027 907.633 303.02 907.786 303.02 908L303 919.26C303 919.473 303.013 919.68 303.04 919.88C303.067 920.08 303.127 920.286 303.22 920.5H301C300.893 920.286 300.833 920.12 300.82 920C300.807 919.866 300.8 919.693 300.8 919.48C300.547 919.906 300.22 920.22 299.82 920.42C299.42 920.62 298.987 920.72 298.52 920.72ZM298.9 918.9C300.127 918.9 300.74 917.873 300.74 915.82C300.74 913.753 300.107 912.72 298.84 912.72C298.2 912.72 297.713 912.993 297.38 913.54C297.047 914.086 296.88 914.826 296.88 915.76C296.88 916.746 297.073 917.52 297.46 918.08C297.86 918.626 298.34 918.9 298.9 918.9ZM305.68 920.5V918.72H307.96V912.98H305.8V911.2H310.24V918.72H312.32V920.5H305.68ZM309 909.66C308.6 909.66 308.26 909.526 307.98 909.26C307.713 908.993 307.58 908.673 307.58 908.3C307.58 907.913 307.713 907.593 307.98 907.34C308.247 907.073 308.587 906.94 309 906.94C309.373 906.94 309.7 907.073 309.98 907.34C310.273 907.606 310.42 907.926 310.42 908.3C310.42 908.673 310.273 908.993 309.98 909.26C309.7 909.526 309.373 909.66 309 909.66ZM319.98 920.7C319.26 920.7 318.667 920.546 318.2 920.24C317.733 919.92 317.393 919.393 317.18 918.66C316.967 917.926 316.887 916.933 316.94 915.68L317.04 912.98H315.14L315.18 911.2H317.12L317.2 909L319.54 908.7L319.72 908.68L319.74 908.86C319.673 908.953 319.613 909.053 319.56 909.16C319.52 909.253 319.493 909.406 319.48 909.62L319.34 911.2H322.34L322.32 912.98H319.32L319.2 915.64C319.16 916.506 319.187 917.173 319.28 917.64C319.387 918.106 319.54 918.433 319.74 918.62C319.953 918.793 320.207 918.88 320.5 918.88C320.927 918.88 321.307 918.793 321.64 918.62C321.987 918.446 322.307 918.246 322.6 918.02L323.08 919.66C322.613 919.993 322.127 920.253 321.62 920.44C321.113 920.613 320.567 920.7 319.98 920.7ZM326.52 924.02C326.067 924.02 325.667 923.946 325.32 923.8C324.973 923.653 324.633 923.44 324.3 923.16L325.08 921.6L325.16 921.42L325.34 921.5C325.38 921.606 325.427 921.706 325.48 921.8C325.533 921.893 325.653 922 325.84 922.12C326.04 922.226 326.267 922.28 326.52 922.28C326.92 922.28 327.24 922.113 327.48 921.78C327.733 921.446 327.987 920.92 328.24 920.2L324.62 911.2H326.88L329.26 917.34L330.26 914.5C330.46 913.926 330.627 913.373 330.76 912.84C330.893 912.306 330.98 911.76 331.02 911.2H333.12C333.067 911.8 332.927 912.433 332.7 913.1C332.473 913.766 332.247 914.4 332.02 915L329.72 921.32C329.347 922.306 328.893 923 328.36 923.4C327.84 923.813 327.227 924.02 326.52 924.02ZM345.14 918.82C346.1 917.886 346.933 917.08 347.64 916.4C348.347 915.706 348.933 915.093 349.4 914.56C349.867 914.013 350.213 913.5 350.44 913.02C350.667 912.526 350.78 912.006 350.78 911.46C350.78 910.313 350.193 909.74 349.02 909.74C348.593 909.74 348.207 909.813 347.86 909.96C347.513 910.106 347.2 910.346 346.92 910.68C346.8 910.866 346.72 911.006 346.68 911.1C346.653 911.193 346.647 911.293 346.66 911.4L346.54 911.54L346.4 911.44L344.84 910.24C345.293 909.48 345.887 908.893 346.62 908.48C347.367 908.066 348.173 907.86 349.04 907.86C349.76 907.86 350.413 908.013 351 908.32C351.587 908.613 352.053 909.026 352.4 909.56C352.747 910.093 352.92 910.726 352.92 911.46C352.92 912.313 352.72 913.106 352.32 913.84C351.92 914.56 351.353 915.3 350.62 916.06C349.9 916.82 349.06 917.686 348.1 918.66H352.04C352.253 918.66 352.407 918.646 352.5 918.62C352.607 918.593 352.7 918.54 352.78 918.46H352.96V920.5H345.14V918.82ZM359 920.74C357.693 920.74 356.653 920.186 355.88 919.08C355.12 917.973 354.74 916.393 354.74 914.34C354.74 912.313 355.12 910.726 355.88 909.58C356.653 908.433 357.693 907.86 359 907.86C360.307 907.86 361.34 908.433 362.1 909.58C362.873 910.726 363.26 912.313 363.26 914.34C363.26 916.393 362.873 917.973 362.1 919.08C361.34 920.186 360.307 920.74 359 920.74ZM356.84 914.34C356.84 914.886 356.867 915.393 356.92 915.86L360.76 911.3C360.4 910.22 359.813 909.68 359 909.68C358.28 909.68 357.74 910.093 357.38 910.92C357.02 911.733 356.84 912.873 356.84 914.34ZM359 919C359.72 919 360.26 918.6 360.62 917.8C360.98 916.986 361.16 915.833 361.16 914.34C361.16 913.82 361.133 913.333 361.08 912.88L357.24 917.42C357.6 918.473 358.187 919 359 919ZM366.76 913.18C366.333 913.18 365.94 913.066 365.58 912.84C365.22 912.6 364.927 912.28 364.7 911.88C364.487 911.466 364.38 911.006 364.38 910.5C364.38 909.993 364.487 909.54 364.7 909.14C364.927 908.74 365.22 908.42 365.58 908.18C365.94 907.94 366.333 907.82 366.76 907.82C367.2 907.82 367.6 907.94 367.96 908.18C368.32 908.42 368.607 908.746 368.82 909.16C369.033 909.56 369.14 910.013 369.14 910.52C369.14 911.293 368.913 911.933 368.46 912.44C368.007 912.933 367.44 913.18 366.76 913.18ZM364.7 920.5L371.7 908.04H373.38L366.32 920.5H364.7ZM366.76 911.78C367.013 911.78 367.213 911.673 367.36 911.46C367.52 911.233 367.6 910.913 367.6 910.5C367.6 910.1 367.52 909.786 367.36 909.56C367.2 909.32 366.993 909.2 366.74 909.2C366.5 909.2 366.3 909.32 366.14 909.56C365.993 909.786 365.92 910.1 365.92 910.5C365.92 910.913 365.993 911.233 366.14 911.46C366.3 911.673 366.507 911.78 366.76 911.78ZM371.34 920.7C370.913 920.7 370.52 920.586 370.16 920.36C369.8 920.12 369.507 919.8 369.28 919.4C369.067 918.986 368.96 918.526 368.96 918.02C368.96 917.526 369.067 917.08 369.28 916.68C369.507 916.266 369.8 915.946 370.16 915.72C370.52 915.48 370.913 915.36 371.34 915.36C371.78 915.36 372.18 915.48 372.54 915.72C372.9 915.96 373.187 916.286 373.4 916.7C373.613 917.1 373.72 917.546 373.72 918.04C373.72 918.813 373.487 919.453 373.02 919.96C372.567 920.453 372.007 920.7 371.34 920.7ZM371.36 919.32C371.613 919.32 371.813 919.206 371.96 918.98C372.12 918.753 372.2 918.44 372.2 918.04C372.2 917.68 372.127 917.373 371.98 917.12C371.833 916.866 371.62 916.74 371.34 916.74C371.087 916.74 370.88 916.853 370.72 917.08C370.56 917.306 370.48 917.62 370.48 918.02C370.48 918.433 370.56 918.753 370.72 918.98C370.88 919.206 371.093 919.32 371.36 919.32Z" fill="white"/>
<path d="M137.84 854.72C137.013 854.72 136.233 854.6 135.5 854.36C134.78 854.106 134.18 853.726 133.7 853.22L134.8 851.36L134.88 851.2L135.06 851.3C135.087 851.406 135.12 851.513 135.16 851.62C135.213 851.713 135.32 851.833 135.48 851.98C135.813 852.233 136.18 852.44 136.58 852.6C136.993 852.76 137.44 852.84 137.92 852.84C138.547 852.84 139.053 852.706 139.44 852.44C139.84 852.16 140.04 851.753 140.04 851.22C140.04 850.953 139.98 850.706 139.86 850.48C139.74 850.24 139.5 850 139.14 849.76C138.793 849.52 138.273 849.24 137.58 848.92C136.727 848.546 136.047 848.173 135.54 847.8C135.047 847.413 134.693 847 134.48 846.56C134.267 846.106 134.16 845.6 134.16 845.04C134.16 844.426 134.327 843.88 134.66 843.4C135.007 842.92 135.48 842.54 136.08 842.26C136.68 841.98 137.367 841.84 138.14 841.84C139.673 841.84 140.933 842.373 141.92 843.44L140.6 844.96L140.48 845.1L140.32 844.98C140.307 844.873 140.28 844.773 140.24 844.68C140.213 844.573 140.127 844.44 139.98 844.28C139.727 844.04 139.453 843.88 139.16 843.8C138.88 843.72 138.547 843.68 138.16 843.68C137.613 843.68 137.18 843.806 136.86 844.06C136.54 844.313 136.38 844.606 136.38 844.94C136.38 845.206 136.44 845.446 136.56 845.66C136.68 845.873 136.92 846.1 137.28 846.34C137.653 846.58 138.22 846.866 138.98 847.2C139.82 847.586 140.48 847.966 140.96 848.34C141.44 848.7 141.773 849.1 141.96 849.54C142.16 849.98 142.26 850.493 142.26 851.08C142.26 851.68 142.107 852.26 141.8 852.82C141.493 853.38 141.013 853.84 140.36 854.2C139.707 854.546 138.867 854.72 137.84 854.72ZM148.98 854.7C148.26 854.7 147.667 854.546 147.2 854.24C146.733 853.92 146.393 853.393 146.18 852.66C145.967 851.926 145.887 850.933 145.94 849.68L146.04 846.98H144.14L144.18 845.2H146.12L146.2 843L148.54 842.7L148.72 842.68L148.74 842.86C148.673 842.953 148.613 843.053 148.56 843.16C148.52 843.253 148.493 843.406 148.48 843.62L148.34 845.2H151.34L151.32 846.98H148.32L148.2 849.64C148.16 850.506 148.187 851.173 148.28 851.64C148.387 852.106 148.54 852.433 148.74 852.62C148.953 852.793 149.207 852.88 149.5 852.88C149.927 852.88 150.307 852.793 150.64 852.62C150.987 852.446 151.307 852.246 151.6 852.02L152.08 853.66C151.613 853.993 151.127 854.253 150.62 854.44C150.113 854.613 149.567 854.7 148.98 854.7ZM156.96 854.74C155.933 854.74 155.133 854.5 154.56 854.02C154 853.54 153.72 852.906 153.72 852.12C153.72 851.133 154.16 850.32 155.04 849.68C155.933 849.026 157.227 848.7 158.92 848.7C159.013 848.7 159.133 848.7 159.28 848.7C159.44 848.7 159.607 848.706 159.78 848.72C159.687 847.946 159.467 847.426 159.12 847.16C158.773 846.88 158.307 846.74 157.72 846.74C157.293 846.74 156.893 846.813 156.52 846.96C156.147 847.093 155.773 847.346 155.4 847.72L154.16 846.36C154.693 845.866 155.273 845.513 155.9 845.3C156.527 845.086 157.167 844.98 157.82 844.98C158.593 844.98 159.3 845.106 159.94 845.36C160.58 845.6 161.087 846.026 161.46 846.64C161.833 847.24 162.02 848.073 162.02 849.14V854.5H159.68V853.5C159.333 853.966 158.933 854.293 158.48 854.48C158.027 854.653 157.52 854.74 156.96 854.74ZM155.98 851.84C155.98 852.266 156.113 852.566 156.38 852.74C156.66 852.9 157 852.98 157.4 852.98C158.12 852.98 158.68 852.766 159.08 852.34C159.48 851.9 159.72 851.213 159.8 850.28C159.627 850.28 159.46 850.28 159.3 850.28C159.14 850.266 159 850.26 158.88 850.26C157.813 850.26 157.06 850.406 156.62 850.7C156.193 850.993 155.98 851.373 155.98 851.84ZM167.08 850.28L166.34 851.02V854.5H164.04V841.08H166.5V841.26C166.42 841.34 166.373 841.433 166.36 841.54C166.347 841.633 166.34 841.786 166.34 842V848.56L169.9 845.12C170.1 845.16 170.333 845.193 170.6 845.22C170.867 845.246 171.087 845.26 171.26 845.26H172.34L168.64 848.88L172.84 854.48L170.26 854.58L167.08 850.28ZM174.68 854.5V852.72H176.96V846.98H174.8V845.2H179.24V852.72H181.32V854.5H174.68ZM178 843.66C177.6 843.66 177.26 843.526 176.98 843.26C176.713 842.993 176.58 842.673 176.58 842.3C176.58 841.913 176.713 841.593 176.98 841.34C177.247 841.073 177.587 840.94 178 840.94C178.373 840.94 178.7 841.073 178.98 841.34C179.273 841.606 179.42 841.926 179.42 842.3C179.42 842.673 179.273 842.993 178.98 843.26C178.7 843.526 178.373 843.66 178 843.66ZM184.1 854.5V845.2H186.36V846.48C186.693 846.026 187.08 845.666 187.52 845.4C187.96 845.12 188.467 844.98 189.04 844.98C189.573 844.98 190.067 845.113 190.52 845.38C190.987 845.633 191.36 846.046 191.64 846.62C191.92 847.193 192.06 847.946 192.06 848.88V854.5H189.8V848.92C189.8 848.16 189.68 847.606 189.44 847.26C189.2 846.9 188.867 846.72 188.44 846.72C188.107 846.72 187.78 846.813 187.46 847C187.14 847.173 186.873 847.426 186.66 847.76C186.46 848.093 186.36 848.493 186.36 848.96V854.5H184.1ZM197.6 851.36C197.133 851.36 196.687 851.286 196.26 851.14C196.14 851.246 196.04 851.346 195.96 851.44C195.88 851.52 195.84 851.633 195.84 851.78C195.84 852.02 196.08 852.2 196.56 852.32C197.04 852.44 197.86 852.5 199.02 852.5C199.82 852.5 200.447 852.613 200.9 852.84C201.353 853.066 201.68 853.373 201.88 853.76C202.08 854.133 202.18 854.54 202.18 854.98C202.18 855.5 202.02 855.993 201.7 856.46C201.393 856.94 200.913 857.326 200.26 857.62C199.62 857.926 198.793 858.08 197.78 858.08C196.46 858.08 195.427 857.853 194.68 857.4C193.933 856.96 193.56 856.366 193.56 855.62C193.56 855.22 193.687 854.846 193.94 854.5C194.207 854.166 194.533 853.9 194.92 853.7C194.667 853.54 194.467 853.353 194.32 853.14C194.187 852.913 194.12 852.653 194.12 852.36C194.12 851.973 194.227 851.633 194.44 851.34C194.653 851.046 194.913 850.773 195.22 850.52C194.887 850.24 194.62 849.9 194.42 849.5C194.233 849.086 194.14 848.64 194.14 848.16C194.14 847.56 194.287 847.02 194.58 846.54C194.887 846.046 195.3 845.653 195.82 845.36C196.34 845.066 196.933 844.92 197.6 844.92C198.027 844.92 198.433 844.986 198.82 845.12C199.207 845.253 199.547 845.44 199.84 845.68C200.2 845.426 200.6 845.233 201.04 845.1C201.48 844.966 201.953 844.92 202.46 844.96L202.68 846.52C202.333 846.453 201.987 846.44 201.64 846.48C201.307 846.52 201 846.613 200.72 846.76C200.933 847.2 201.04 847.666 201.04 848.16C201.04 848.773 200.887 849.32 200.58 849.8C200.287 850.28 199.88 850.66 199.36 850.94C198.84 851.22 198.253 851.36 197.6 851.36ZM197.58 849.72C198.033 849.72 198.407 849.573 198.7 849.28C198.993 848.986 199.14 848.613 199.14 848.16C199.14 847.72 198.987 847.36 198.68 847.08C198.387 846.786 198.02 846.64 197.58 846.64C197.18 846.64 196.82 846.786 196.5 847.08C196.193 847.373 196.04 847.733 196.04 848.16C196.04 848.586 196.187 848.953 196.48 849.26C196.787 849.566 197.153 849.72 197.58 849.72ZM195.3 855.28C195.3 855.64 195.547 855.9 196.04 856.06C196.547 856.233 197.187 856.32 197.96 856.32C198.72 856.32 199.3 856.22 199.7 856.02C200.113 855.82 200.32 855.553 200.32 855.22C200.32 854.913 200.187 854.693 199.92 854.56C199.667 854.44 199.16 854.38 198.4 854.38C197.987 854.38 197.58 854.36 197.18 854.32C196.78 854.28 196.407 854.22 196.06 854.14C195.847 854.3 195.667 854.466 195.52 854.64C195.373 854.813 195.3 855.026 195.3 855.28ZM214.14 852.82C215.1 851.886 215.933 851.08 216.64 850.4C217.347 849.706 217.933 849.093 218.4 848.56C218.867 848.013 219.213 847.5 219.44 847.02C219.667 846.526 219.78 846.006 219.78 845.46C219.78 844.313 219.193 843.74 218.02 843.74C217.593 843.74 217.207 843.813 216.86 843.96C216.513 844.106 216.2 844.346 215.92 844.68C215.8 844.866 215.72 845.006 215.68 845.1C215.653 845.193 215.647 845.293 215.66 845.4L215.54 845.54L215.4 845.44L213.84 844.24C214.293 843.48 214.887 842.893 215.62 842.48C216.367 842.066 217.173 841.86 218.04 841.86C218.76 841.86 219.413 842.013 220 842.32C220.587 842.613 221.053 843.026 221.4 843.56C221.747 844.093 221.92 844.726 221.92 845.46C221.92 846.313 221.72 847.106 221.32 847.84C220.92 848.56 220.353 849.3 219.62 850.06C218.9 850.82 218.06 851.686 217.1 852.66H221.04C221.253 852.66 221.407 852.646 221.5 852.62C221.607 852.593 221.7 852.54 221.78 852.46H221.96V854.5H214.14V852.82ZM228 854.74C226.693 854.74 225.653 854.186 224.88 853.08C224.12 851.973 223.74 850.393 223.74 848.34C223.74 846.313 224.12 844.726 224.88 843.58C225.653 842.433 226.693 841.86 228 841.86C229.307 841.86 230.34 842.433 231.1 843.58C231.873 844.726 232.26 846.313 232.26 848.34C232.26 850.393 231.873 851.973 231.1 853.08C230.34 854.186 229.307 854.74 228 854.74ZM225.84 848.34C225.84 848.886 225.867 849.393 225.92 849.86L229.76 845.3C229.4 844.22 228.813 843.68 228 843.68C227.28 843.68 226.74 844.093 226.38 844.92C226.02 845.733 225.84 846.873 225.84 848.34ZM228 853C228.72 853 229.26 852.6 229.62 851.8C229.98 850.986 230.16 849.833 230.16 848.34C230.16 847.82 230.133 847.333 230.08 846.88L226.24 851.42C226.6 852.473 227.187 853 228 853ZM235.76 847.18C235.333 847.18 234.94 847.066 234.58 846.84C234.22 846.6 233.927 846.28 233.7 845.88C233.487 845.466 233.38 845.006 233.38 844.5C233.38 843.993 233.487 843.54 233.7 843.14C233.927 842.74 234.22 842.42 234.58 842.18C234.94 841.94 235.333 841.82 235.76 841.82C236.2 841.82 236.6 841.94 236.96 842.18C237.32 842.42 237.607 842.746 237.82 843.16C238.033 843.56 238.14 844.013 238.14 844.52C238.14 845.293 237.913 845.933 237.46 846.44C237.007 846.933 236.44 847.18 235.76 847.18ZM233.7 854.5L240.7 842.04H242.38L235.32 854.5H233.7ZM235.76 845.78C236.013 845.78 236.213 845.673 236.36 845.46C236.52 845.233 236.6 844.913 236.6 844.5C236.6 844.1 236.52 843.786 236.36 843.56C236.2 843.32 235.993 843.2 235.74 843.2C235.5 843.2 235.3 843.32 235.14 843.56C234.993 843.786 234.92 844.1 234.92 844.5C234.92 844.913 234.993 845.233 235.14 845.46C235.3 845.673 235.507 845.78 235.76 845.78ZM240.34 854.7C239.913 854.7 239.52 854.586 239.16 854.36C238.8 854.12 238.507 853.8 238.28 853.4C238.067 852.986 237.96 852.526 237.96 852.02C237.96 851.526 238.067 851.08 238.28 850.68C238.507 850.266 238.8 849.946 239.16 849.72C239.52 849.48 239.913 849.36 240.34 849.36C240.78 849.36 241.18 849.48 241.54 849.72C241.9 849.96 242.187 850.286 242.4 850.7C242.613 851.1 242.72 851.546 242.72 852.04C242.72 852.813 242.487 853.453 242.02 853.96C241.567 854.453 241.007 854.7 240.34 854.7ZM240.36 853.32C240.613 853.32 240.813 853.206 240.96 852.98C241.12 852.753 241.2 852.44 241.2 852.04C241.2 851.68 241.127 851.373 240.98 851.12C240.833 850.866 240.62 850.74 240.34 850.74C240.087 850.74 239.88 850.853 239.72 851.08C239.56 851.306 239.48 851.62 239.48 852.02C239.48 852.433 239.56 852.753 239.72 852.98C239.88 853.206 240.093 853.32 240.36 853.32Z" fill="white"/>
<g filter="url(#filter4_ddd_4811_4735)">
<path d="M375.5 505.5L375.501 563.007C375.501 565.482 374.194 567.773 372.064 569.033L323.463 597.778" stroke="#FD7D00"/>
</g>
<path d="M209.58 522.72C208.673 522.72 207.84 522.5 207.08 522.06C206.333 521.606 205.733 520.906 205.28 519.96C204.84 519.013 204.62 517.806 204.62 516.34C204.62 515.113 204.767 514.086 205.06 513.26C205.367 512.42 205.767 511.753 206.26 511.26C206.753 510.766 207.293 510.413 207.88 510.2C208.48 509.973 209.073 509.86 209.66 509.86C210.593 509.86 211.393 510.073 212.06 510.5C212.74 510.926 213.253 511.526 213.6 512.3L212.18 513.36L212.02 513.46L211.92 513.3C211.933 513.206 211.92 513.113 211.88 513.02C211.853 512.913 211.787 512.766 211.68 512.58C211.387 512.233 211.08 512 210.76 511.88C210.453 511.746 210.127 511.68 209.78 511.68C209.273 511.68 208.793 511.853 208.34 512.2C207.9 512.546 207.54 513.06 207.26 513.74C206.993 514.406 206.86 515.24 206.86 516.24C206.86 517.68 207.12 518.813 207.64 519.64C208.173 520.453 208.84 520.86 209.64 520.86C210.133 520.86 210.56 520.753 210.92 520.54C211.28 520.326 211.607 519.973 211.9 519.48L213.46 520.64C212.993 521.4 212.44 521.94 211.8 522.26C211.173 522.566 210.433 522.72 209.58 522.72ZM218.98 522.7C218.153 522.7 217.4 522.5 216.72 522.1C216.053 521.686 215.527 521.12 215.14 520.4C214.753 519.666 214.56 518.813 214.56 517.84C214.56 516.92 214.753 516.093 215.14 515.36C215.527 514.626 216.053 514.046 216.72 513.62C217.4 513.193 218.153 512.98 218.98 512.98C219.82 512.98 220.573 513.193 221.24 513.62C221.92 514.046 222.453 514.626 222.84 515.36C223.24 516.093 223.44 516.92 223.44 517.84C223.44 518.8 223.24 519.646 222.84 520.38C222.453 521.113 221.92 521.686 221.24 522.1C220.573 522.5 219.82 522.7 218.98 522.7ZM218.98 520.9C219.62 520.9 220.147 520.62 220.56 520.06C220.973 519.486 221.18 518.746 221.18 517.84C221.18 516.906 220.973 516.166 220.56 515.62C220.147 515.073 219.62 514.8 218.98 514.8C218.367 514.8 217.853 515.073 217.44 515.62C217.027 516.166 216.82 516.906 216.82 517.84C216.82 518.746 217.02 519.486 217.42 520.06C217.833 520.62 218.353 520.9 218.98 520.9ZM225.26 522.5V520.72H227.88V510.86H225.38V509.08H230.16V520.72H232.76V522.5H225.26ZM238.52 522.72C237.827 522.72 237.187 522.54 236.6 522.18C236.027 521.82 235.56 521.273 235.2 520.54C234.84 519.806 234.66 518.893 234.66 517.8C234.66 516.72 234.833 515.826 235.18 515.12C235.527 514.4 235.993 513.86 236.58 513.5C237.167 513.14 237.82 512.96 238.54 512.96C239.007 512.96 239.44 513.046 239.84 513.22C240.24 513.393 240.553 513.673 240.78 514.06V509.08H243.2V509.26C243.12 509.34 243.067 509.433 243.04 509.54C243.027 509.633 243.02 509.786 243.02 510L243 521.26C243 521.473 243.013 521.68 243.04 521.88C243.067 522.08 243.127 522.286 243.22 522.5H241C240.893 522.286 240.833 522.12 240.82 522C240.807 521.866 240.8 521.693 240.8 521.48C240.547 521.906 240.22 522.22 239.82 522.42C239.42 522.62 238.987 522.72 238.52 522.72ZM238.9 520.9C240.127 520.9 240.74 519.873 240.74 517.82C240.74 515.753 240.107 514.72 238.84 514.72C238.2 514.72 237.713 514.993 237.38 515.54C237.047 516.086 236.88 516.826 236.88 517.76C236.88 518.746 237.073 519.52 237.46 520.08C237.86 520.626 238.34 520.9 238.9 520.9ZM258.84 522.72C258.013 522.72 257.233 522.6 256.5 522.36C255.78 522.106 255.18 521.726 254.7 521.22L255.8 519.36L255.88 519.2L256.06 519.3C256.087 519.406 256.12 519.513 256.16 519.62C256.213 519.713 256.32 519.833 256.48 519.98C256.813 520.233 257.18 520.44 257.58 520.6C257.993 520.76 258.44 520.84 258.92 520.84C259.547 520.84 260.053 520.706 260.44 520.44C260.84 520.16 261.04 519.753 261.04 519.22C261.04 518.953 260.98 518.706 260.86 518.48C260.74 518.24 260.5 518 260.14 517.76C259.793 517.52 259.273 517.24 258.58 516.92C257.727 516.546 257.047 516.173 256.54 515.8C256.047 515.413 255.693 515 255.48 514.56C255.267 514.106 255.16 513.6 255.16 513.04C255.16 512.426 255.327 511.88 255.66 511.4C256.007 510.92 256.48 510.54 257.08 510.26C257.68 509.98 258.367 509.84 259.14 509.84C260.673 509.84 261.933 510.373 262.92 511.44L261.6 512.96L261.48 513.1L261.32 512.98C261.307 512.873 261.28 512.773 261.24 512.68C261.213 512.573 261.127 512.44 260.98 512.28C260.727 512.04 260.453 511.88 260.16 511.8C259.88 511.72 259.547 511.68 259.16 511.68C258.613 511.68 258.18 511.806 257.86 512.06C257.54 512.313 257.38 512.606 257.38 512.94C257.38 513.206 257.44 513.446 257.56 513.66C257.68 513.873 257.92 514.1 258.28 514.34C258.653 514.58 259.22 514.866 259.98 515.2C260.82 515.586 261.48 515.966 261.96 516.34C262.44 516.7 262.773 517.1 262.96 517.54C263.16 517.98 263.26 518.493 263.26 519.08C263.26 519.68 263.107 520.26 262.8 520.82C262.493 521.38 262.013 521.84 261.36 522.2C260.707 522.546 259.867 522.72 258.84 522.72ZM269.98 522.7C269.26 522.7 268.667 522.546 268.2 522.24C267.733 521.92 267.393 521.393 267.18 520.66C266.967 519.926 266.887 518.933 266.94 517.68L267.04 514.98H265.14L265.18 513.2H267.12L267.2 511L269.54 510.7L269.72 510.68L269.74 510.86C269.673 510.953 269.613 511.053 269.56 511.16C269.52 511.253 269.493 511.406 269.48 511.62L269.34 513.2H272.34L272.32 514.98H269.32L269.2 517.64C269.16 518.506 269.187 519.173 269.28 519.64C269.387 520.106 269.54 520.433 269.74 520.62C269.953 520.793 270.207 520.88 270.5 520.88C270.927 520.88 271.307 520.793 271.64 520.62C271.987 520.446 272.307 520.246 272.6 520.02L273.08 521.66C272.613 521.993 272.127 522.253 271.62 522.44C271.113 522.613 270.567 522.7 269.98 522.7ZM278.98 522.7C278.153 522.7 277.4 522.5 276.72 522.1C276.053 521.686 275.527 521.12 275.14 520.4C274.753 519.666 274.56 518.813 274.56 517.84C274.56 516.92 274.753 516.093 275.14 515.36C275.527 514.626 276.053 514.046 276.72 513.62C277.4 513.193 278.153 512.98 278.98 512.98C279.82 512.98 280.573 513.193 281.24 513.62C281.92 514.046 282.453 514.626 282.84 515.36C283.24 516.093 283.44 516.92 283.44 517.84C283.44 518.8 283.24 519.646 282.84 520.38C282.453 521.113 281.92 521.686 281.24 522.1C280.573 522.5 279.82 522.7 278.98 522.7ZM278.98 520.9C279.62 520.9 280.147 520.62 280.56 520.06C280.973 519.486 281.18 518.746 281.18 517.84C281.18 516.906 280.973 516.166 280.56 515.62C280.147 515.073 279.62 514.8 278.98 514.8C278.367 514.8 277.853 515.073 277.44 515.62C277.027 516.166 276.82 516.906 276.82 517.84C276.82 518.746 277.02 519.486 277.42 520.06C277.833 520.62 278.353 520.9 278.98 520.9ZM285.78 513.2H288.12L288.1 514.7C288.353 514.166 288.727 513.746 289.22 513.44C289.713 513.133 290.233 512.98 290.78 512.98C291.82 512.98 292.68 513.333 293.36 514.04L292.4 515.94L292.34 516.1L292.16 516.02C292.12 515.913 292.08 515.806 292.04 515.7C292 515.58 291.9 515.446 291.74 515.3C291.553 515.153 291.353 515.04 291.14 514.96C290.94 514.88 290.72 514.84 290.48 514.84C289.84 514.84 289.28 515.06 288.8 515.5C288.32 515.94 288.08 516.646 288.08 517.62V522.5H285.78V513.2ZM297.96 522.74C296.933 522.74 296.133 522.5 295.56 522.02C295 521.54 294.72 520.906 294.72 520.12C294.72 519.133 295.16 518.32 296.04 517.68C296.933 517.026 298.227 516.7 299.92 516.7C300.013 516.7 300.133 516.7 300.28 516.7C300.44 516.7 300.607 516.706 300.78 516.72C300.687 515.946 300.467 515.426 300.12 515.16C299.773 514.88 299.307 514.74 298.72 514.74C298.293 514.74 297.893 514.813 297.52 514.96C297.147 515.093 296.773 515.346 296.4 515.72L295.16 514.36C295.693 513.866 296.273 513.513 296.9 513.3C297.527 513.086 298.167 512.98 298.82 512.98C299.593 512.98 300.3 513.106 300.94 513.36C301.58 513.6 302.087 514.026 302.46 514.64C302.833 515.24 303.02 516.073 303.02 517.14V522.5H300.68V521.5C300.333 521.966 299.933 522.293 299.48 522.48C299.027 522.653 298.52 522.74 297.96 522.74ZM296.98 519.84C296.98 520.266 297.113 520.566 297.38 520.74C297.66 520.9 298 520.98 298.4 520.98C299.12 520.98 299.68 520.766 300.08 520.34C300.48 519.9 300.72 519.213 300.8 518.28C300.627 518.28 300.46 518.28 300.3 518.28C300.14 518.266 300 518.26 299.88 518.26C298.813 518.26 298.06 518.406 297.62 518.7C297.193 518.993 296.98 519.373 296.98 519.84ZM308.6 519.36C308.133 519.36 307.687 519.286 307.26 519.14C307.14 519.246 307.04 519.346 306.96 519.44C306.88 519.52 306.84 519.633 306.84 519.78C306.84 520.02 307.08 520.2 307.56 520.32C308.04 520.44 308.86 520.5 310.02 520.5C310.82 520.5 311.447 520.613 311.9 520.84C312.353 521.066 312.68 521.373 312.88 521.76C313.08 522.133 313.18 522.54 313.18 522.98C313.18 523.5 313.02 523.993 312.7 524.46C312.393 524.94 311.913 525.326 311.26 525.62C310.62 525.926 309.793 526.08 308.78 526.08C307.46 526.08 306.427 525.853 305.68 525.4C304.933 524.96 304.56 524.366 304.56 523.62C304.56 523.22 304.687 522.846 304.94 522.5C305.207 522.166 305.533 521.9 305.92 521.7C305.667 521.54 305.467 521.353 305.32 521.14C305.187 520.913 305.12 520.653 305.12 520.36C305.12 519.973 305.227 519.633 305.44 519.34C305.653 519.046 305.913 518.773 306.22 518.52C305.887 518.24 305.62 517.9 305.42 517.5C305.233 517.086 305.14 516.64 305.14 516.16C305.14 515.56 305.287 515.02 305.58 514.54C305.887 514.046 306.3 513.653 306.82 513.36C307.34 513.066 307.933 512.92 308.6 512.92C309.027 512.92 309.433 512.986 309.82 513.12C310.207 513.253 310.547 513.44 310.84 513.68C311.2 513.426 311.6 513.233 312.04 513.1C312.48 512.966 312.953 512.92 313.46 512.96L313.68 514.52C313.333 514.453 312.987 514.44 312.64 514.48C312.307 514.52 312 514.613 311.72 514.76C311.933 515.2 312.04 515.666 312.04 516.16C312.04 516.773 311.887 517.32 311.58 517.8C311.287 518.28 310.88 518.66 310.36 518.94C309.84 519.22 309.253 519.36 308.6 519.36ZM308.58 517.72C309.033 517.72 309.407 517.573 309.7 517.28C309.993 516.986 310.14 516.613 310.14 516.16C310.14 515.72 309.987 515.36 309.68 515.08C309.387 514.786 309.02 514.64 308.58 514.64C308.18 514.64 307.82 514.786 307.5 515.08C307.193 515.373 307.04 515.733 307.04 516.16C307.04 516.586 307.187 516.953 307.48 517.26C307.787 517.566 308.153 517.72 308.58 517.72ZM306.3 523.28C306.3 523.64 306.547 523.9 307.04 524.06C307.547 524.233 308.187 524.32 308.96 524.32C309.72 524.32 310.3 524.22 310.7 524.02C311.113 523.82 311.32 523.553 311.32 523.22C311.32 522.913 311.187 522.693 310.92 522.56C310.667 522.44 310.16 522.38 309.4 522.38C308.987 522.38 308.58 522.36 308.18 522.32C307.78 522.28 307.407 522.22 307.06 522.14C306.847 522.3 306.667 522.466 306.52 522.64C306.373 522.813 306.3 523.026 306.3 523.28ZM319.42 522.72C318.527 522.72 317.727 522.533 317.02 522.16C316.327 521.786 315.78 521.24 315.38 520.52C314.98 519.8 314.78 518.933 314.78 517.92C314.78 516.88 314.973 515.993 315.36 515.26C315.76 514.526 316.287 513.966 316.94 513.58C317.607 513.18 318.347 512.98 319.16 512.98C319.88 512.98 320.54 513.146 321.14 513.48C321.753 513.813 322.24 514.32 322.6 515C322.973 515.666 323.16 516.5 323.16 517.5C323.16 517.633 323.153 517.793 323.14 517.98C323.14 518.166 323.133 518.326 323.12 518.46H316.96C316.987 519.046 317.127 519.526 317.38 519.9C317.633 520.26 317.947 520.526 318.32 520.7C318.693 520.873 319.093 520.96 319.52 520.96C319.933 520.96 320.327 520.893 320.7 520.76C321.073 520.626 321.42 520.4 321.74 520.08L322.9 521.2C322.447 521.733 321.927 522.12 321.34 522.36C320.753 522.6 320.113 522.72 319.42 522.72ZM317 516.76H320.96C320.96 516.106 320.793 515.606 320.46 515.26C320.127 514.913 319.66 514.74 319.06 514.74C318.54 514.74 318.087 514.906 317.7 515.24C317.313 515.56 317.08 516.066 317 516.76ZM338.16 522.5V512.5L335.9 513.3L335.42 511.8L338.74 510.04H340.42V522.5H338.16ZM349 522.74C347.693 522.74 346.653 522.186 345.88 521.08C345.12 519.973 344.74 518.393 344.74 516.34C344.74 514.313 345.12 512.726 345.88 511.58C346.653 510.433 347.693 509.86 349 509.86C350.307 509.86 351.34 510.433 352.1 511.58C352.873 512.726 353.26 514.313 353.26 516.34C353.26 518.393 352.873 519.973 352.1 521.08C351.34 522.186 350.307 522.74 349 522.74ZM346.84 516.34C346.84 516.886 346.867 517.393 346.92 517.86L350.76 513.3C350.4 512.22 349.813 511.68 349 511.68C348.28 511.68 347.74 512.093 347.38 512.92C347.02 513.733 346.84 514.873 346.84 516.34ZM349 521C349.72 521 350.26 520.6 350.62 519.8C350.98 518.986 351.16 517.833 351.16 516.34C351.16 515.82 351.133 515.333 351.08 514.88L347.24 519.42C347.6 520.473 348.187 521 349 521ZM356.76 515.18C356.333 515.18 355.94 515.066 355.58 514.84C355.22 514.6 354.927 514.28 354.7 513.88C354.487 513.466 354.38 513.006 354.38 512.5C354.38 511.993 354.487 511.54 354.7 511.14C354.927 510.74 355.22 510.42 355.58 510.18C355.94 509.94 356.333 509.82 356.76 509.82C357.2 509.82 357.6 509.94 357.96 510.18C358.32 510.42 358.607 510.746 358.82 511.16C359.033 511.56 359.14 512.013 359.14 512.52C359.14 513.293 358.913 513.933 358.46 514.44C358.007 514.933 357.44 515.18 356.76 515.18ZM354.7 522.5L361.7 510.04H363.38L356.32 522.5H354.7ZM356.76 513.78C357.013 513.78 357.213 513.673 357.36 513.46C357.52 513.233 357.6 512.913 357.6 512.5C357.6 512.1 357.52 511.786 357.36 511.56C357.2 511.32 356.993 511.2 356.74 511.2C356.5 511.2 356.3 511.32 356.14 511.56C355.993 511.786 355.92 512.1 355.92 512.5C355.92 512.913 355.993 513.233 356.14 513.46C356.3 513.673 356.507 513.78 356.76 513.78ZM361.34 522.7C360.913 522.7 360.52 522.586 360.16 522.36C359.8 522.12 359.507 521.8 359.28 521.4C359.067 520.986 358.96 520.526 358.96 520.02C358.96 519.526 359.067 519.08 359.28 518.68C359.507 518.266 359.8 517.946 360.16 517.72C360.52 517.48 360.913 517.36 361.34 517.36C361.78 517.36 362.18 517.48 362.54 517.72C362.9 517.96 363.187 518.286 363.4 518.7C363.613 519.1 363.72 519.546 363.72 520.04C363.72 520.813 363.487 521.453 363.02 521.96C362.567 522.453 362.007 522.7 361.34 522.7ZM361.36 521.32C361.613 521.32 361.813 521.206 361.96 520.98C362.12 520.753 362.2 520.44 362.2 520.04C362.2 519.68 362.127 519.373 361.98 519.12C361.833 518.866 361.62 518.74 361.34 518.74C361.087 518.74 360.88 518.853 360.72 519.08C360.56 519.306 360.48 519.62 360.48 520.02C360.48 520.433 360.56 520.753 360.72 520.98C360.88 521.206 361.093 521.32 361.36 521.32Z" fill="white"/>
<path d="M134.82 470.5V459.94H131.46V458.04H140.52V459.94H136.98V470.5H134.82ZM146.42 470.72C145.527 470.72 144.727 470.533 144.02 470.16C143.327 469.786 142.78 469.24 142.38 468.52C141.98 467.8 141.78 466.933 141.78 465.92C141.78 464.88 141.973 463.993 142.36 463.26C142.76 462.526 143.287 461.966 143.94 461.58C144.607 461.18 145.347 460.98 146.16 460.98C146.88 460.98 147.54 461.146 148.14 461.48C148.753 461.813 149.24 462.32 149.6 463C149.973 463.666 150.16 464.5 150.16 465.5C150.16 465.633 150.153 465.793 150.14 465.98C150.14 466.166 150.133 466.326 150.12 466.46H143.96C143.987 467.046 144.127 467.526 144.38 467.9C144.633 468.26 144.947 468.526 145.32 468.7C145.693 468.873 146.093 468.96 146.52 468.96C146.933 468.96 147.327 468.893 147.7 468.76C148.073 468.626 148.42 468.4 148.74 468.08L149.9 469.2C149.447 469.733 148.927 470.12 148.34 470.36C147.753 470.6 147.113 470.72 146.42 470.72ZM144 464.76H147.96C147.96 464.106 147.793 463.606 147.46 463.26C147.127 462.913 146.66 462.74 146.06 462.74C145.54 462.74 145.087 462.906 144.7 463.24C144.313 463.56 144.08 464.066 144 464.76ZM154.96 470.74C153.933 470.74 153.133 470.5 152.56 470.02C152 469.54 151.72 468.906 151.72 468.12C151.72 467.133 152.16 466.32 153.04 465.68C153.933 465.026 155.227 464.7 156.92 464.7C157.013 464.7 157.133 464.7 157.28 464.7C157.44 464.7 157.607 464.706 157.78 464.72C157.687 463.946 157.467 463.426 157.12 463.16C156.773 462.88 156.307 462.74 155.72 462.74C155.293 462.74 154.893 462.813 154.52 462.96C154.147 463.093 153.773 463.346 153.4 463.72L152.16 462.36C152.693 461.866 153.273 461.513 153.9 461.3C154.527 461.086 155.167 460.98 155.82 460.98C156.593 460.98 157.3 461.106 157.94 461.36C158.58 461.6 159.087 462.026 159.46 462.64C159.833 463.24 160.02 464.073 160.02 465.14V470.5H157.68V469.5C157.333 469.966 156.933 470.293 156.48 470.48C156.027 470.653 155.52 470.74 154.96 470.74ZM153.98 467.84C153.98 468.266 154.113 468.566 154.38 468.74C154.66 468.9 155 468.98 155.4 468.98C156.12 468.98 156.68 468.766 157.08 468.34C157.48 467.9 157.72 467.213 157.8 466.28C157.627 466.28 157.46 466.28 157.3 466.28C157.14 466.266 157 466.26 156.88 466.26C155.813 466.26 155.06 466.406 154.62 466.7C154.193 466.993 153.98 467.373 153.98 467.84ZM161.6 470.5V461.2H163.5V461.88C163.727 461.56 163.98 461.333 164.26 461.2C164.54 461.053 164.827 460.98 165.12 460.98C165.453 460.98 165.76 461.066 166.04 461.24C166.333 461.413 166.553 461.7 166.7 462.1C167.113 461.353 167.767 460.98 168.66 460.98C169.34 460.98 169.827 461.22 170.12 461.7C170.427 462.166 170.573 462.813 170.56 463.64V470.5H168.6V464.12C168.6 463.52 168.553 463.12 168.46 462.92C168.367 462.706 168.227 462.6 168.04 462.6C167.773 462.6 167.533 462.78 167.32 463.14C167.107 463.486 167 463.953 167 464.54V470.5H165.16V464.18C165.16 463.54 165.113 463.113 165.02 462.9C164.927 462.686 164.753 462.58 164.5 462.58C164.26 462.58 164.04 462.74 163.84 463.06C163.653 463.366 163.56 463.82 163.56 464.42V470.5H161.6ZM185.32 470.54L181.32 458.04H183.56L186.18 466.8L188.62 458.04H190.8L186.84 470.54H185.32ZM196.42 470.72C195.527 470.72 194.727 470.533 194.02 470.16C193.327 469.786 192.78 469.24 192.38 468.52C191.98 467.8 191.78 466.933 191.78 465.92C191.78 464.88 191.973 463.993 192.36 463.26C192.76 462.526 193.287 461.966 193.94 461.58C194.607 461.18 195.347 460.98 196.16 460.98C196.88 460.98 197.54 461.146 198.14 461.48C198.753 461.813 199.24 462.32 199.6 463C199.973 463.666 200.16 464.5 200.16 465.5C200.16 465.633 200.153 465.793 200.14 465.98C200.14 466.166 200.133 466.326 200.12 466.46H193.96C193.987 467.046 194.127 467.526 194.38 467.9C194.633 468.26 194.947 468.526 195.32 468.7C195.693 468.873 196.093 468.96 196.52 468.96C196.933 468.96 197.327 468.893 197.7 468.76C198.073 468.626 198.42 468.4 198.74 468.08L199.9 469.2C199.447 469.733 198.927 470.12 198.34 470.36C197.753 470.6 197.113 470.72 196.42 470.72ZM194 464.76H197.96C197.96 464.106 197.793 463.606 197.46 463.26C197.127 462.913 196.66 462.74 196.06 462.74C195.54 462.74 195.087 462.906 194.7 463.24C194.313 463.56 194.08 464.066 194 464.76ZM206.18 470.72C205.327 470.72 204.54 470.606 203.82 470.38C203.1 470.153 202.46 469.773 201.9 469.24L202.9 467.4L202.98 467.24L203.14 467.34C203.18 467.433 203.22 467.54 203.26 467.66C203.3 467.766 203.4 467.893 203.56 468.04C203.893 468.32 204.267 468.54 204.68 468.7C205.107 468.86 205.62 468.94 206.22 468.94C206.78 468.94 207.213 468.846 207.52 468.66C207.827 468.473 207.98 468.226 207.98 467.92C207.98 467.613 207.807 467.366 207.46 467.18C207.127 466.993 206.573 466.786 205.8 466.56C204.787 466.293 203.98 465.933 203.38 465.48C202.78 465.026 202.48 464.42 202.48 463.66C202.48 462.9 202.807 462.266 203.46 461.76C204.127 461.24 205.02 460.98 206.14 460.98C207.673 460.98 208.92 461.453 209.88 462.4L208.78 463.94L208.64 464.1L208.5 463.98C208.487 463.873 208.453 463.773 208.4 463.68C208.36 463.586 208.26 463.46 208.1 463.3C207.833 463.113 207.527 462.973 207.18 462.88C206.847 462.773 206.513 462.72 206.18 462.72C205.727 462.72 205.333 462.793 205 462.94C204.68 463.086 204.52 463.313 204.52 463.62C204.52 463.886 204.693 464.113 205.04 464.3C205.387 464.486 205.98 464.686 206.82 464.9C207.94 465.18 208.753 465.553 209.26 466.02C209.767 466.473 210.02 467.06 210.02 467.78C210.02 468.313 209.873 468.806 209.58 469.26C209.287 469.7 208.853 470.053 208.28 470.32C207.72 470.586 207.02 470.72 206.18 470.72ZM216.98 470.7C216.26 470.7 215.667 470.546 215.2 470.24C214.733 469.92 214.393 469.393 214.18 468.66C213.967 467.926 213.887 466.933 213.94 465.68L214.04 462.98H212.14L212.18 461.2H214.12L214.2 459L216.54 458.7L216.72 458.68L216.74 458.86C216.673 458.953 216.613 459.053 216.56 459.16C216.52 459.253 216.493 459.406 216.48 459.62L216.34 461.2H219.34L219.32 462.98H216.32L216.2 465.64C216.16 466.506 216.187 467.173 216.28 467.64C216.387 468.106 216.54 468.433 216.74 468.62C216.953 468.793 217.207 468.88 217.5 468.88C217.927 468.88 218.307 468.793 218.64 468.62C218.987 468.446 219.307 468.246 219.6 468.02L220.08 469.66C219.613 469.993 219.127 470.253 218.62 470.44C218.113 470.613 217.567 470.7 216.98 470.7ZM222.68 470.5V468.72H224.96V462.98H222.8V461.2H227.24V468.72H229.32V470.5H222.68ZM226 459.66C225.6 459.66 225.26 459.526 224.98 459.26C224.713 458.993 224.58 458.673 224.58 458.3C224.58 457.913 224.713 457.593 224.98 457.34C225.247 457.073 225.587 456.94 226 456.94C226.373 456.94 226.7 457.073 226.98 457.34C227.273 457.606 227.42 457.926 227.42 458.3C227.42 458.673 227.273 458.993 226.98 459.26C226.7 459.526 226.373 459.66 226 459.66ZM232.1 470.5V461.2H234.36V462.48C234.693 462.026 235.08 461.666 235.52 461.4C235.96 461.12 236.467 460.98 237.04 460.98C237.573 460.98 238.067 461.113 238.52 461.38C238.987 461.633 239.36 462.046 239.64 462.62C239.92 463.193 240.06 463.946 240.06 464.88V470.5H237.8V464.92C237.8 464.16 237.68 463.606 237.44 463.26C237.2 462.9 236.867 462.72 236.44 462.72C236.107 462.72 235.78 462.813 235.46 463C235.14 463.173 234.873 463.426 234.66 463.76C234.46 464.093 234.36 464.493 234.36 464.96V470.5H232.1ZM245.6 467.36C245.133 467.36 244.687 467.286 244.26 467.14C244.14 467.246 244.04 467.346 243.96 467.44C243.88 467.52 243.84 467.633 243.84 467.78C243.84 468.02 244.08 468.2 244.56 468.32C245.04 468.44 245.86 468.5 247.02 468.5C247.82 468.5 248.447 468.613 248.9 468.84C249.353 469.066 249.68 469.373 249.88 469.76C250.08 470.133 250.18 470.54 250.18 470.98C250.18 471.5 250.02 471.993 249.7 472.46C249.393 472.94 248.913 473.326 248.26 473.62C247.62 473.926 246.793 474.08 245.78 474.08C244.46 474.08 243.427 473.853 242.68 473.4C241.933 472.96 241.56 472.366 241.56 471.62C241.56 471.22 241.687 470.846 241.94 470.5C242.207 470.166 242.533 469.9 242.92 469.7C242.667 469.54 242.467 469.353 242.32 469.14C242.187 468.913 242.12 468.653 242.12 468.36C242.12 467.973 242.227 467.633 242.44 467.34C242.653 467.046 242.913 466.773 243.22 466.52C242.887 466.24 242.62 465.9 242.42 465.5C242.233 465.086 242.14 464.64 242.14 464.16C242.14 463.56 242.287 463.02 242.58 462.54C242.887 462.046 243.3 461.653 243.82 461.36C244.34 461.066 244.933 460.92 245.6 460.92C246.027 460.92 246.433 460.986 246.82 461.12C247.207 461.253 247.547 461.44 247.84 461.68C248.2 461.426 248.6 461.233 249.04 461.1C249.48 460.966 249.953 460.92 250.46 460.96L250.68 462.52C250.333 462.453 249.987 462.44 249.64 462.48C249.307 462.52 249 462.613 248.72 462.76C248.933 463.2 249.04 463.666 249.04 464.16C249.04 464.773 248.887 465.32 248.58 465.8C248.287 466.28 247.88 466.66 247.36 466.94C246.84 467.22 246.253 467.36 245.6 467.36ZM245.58 465.72C246.033 465.72 246.407 465.573 246.7 465.28C246.993 464.986 247.14 464.613 247.14 464.16C247.14 463.72 246.987 463.36 246.68 463.08C246.387 462.786 246.02 462.64 245.58 462.64C245.18 462.64 244.82 462.786 244.5 463.08C244.193 463.373 244.04 463.733 244.04 464.16C244.04 464.586 244.187 464.953 244.48 465.26C244.787 465.566 245.153 465.72 245.58 465.72ZM243.3 471.28C243.3 471.64 243.547 471.9 244.04 472.06C244.547 472.233 245.187 472.32 245.96 472.32C246.72 472.32 247.3 472.22 247.7 472.02C248.113 471.82 248.32 471.553 248.32 471.22C248.32 470.913 248.187 470.693 247.92 470.56C247.667 470.44 247.16 470.38 246.4 470.38C245.987 470.38 245.58 470.36 245.18 470.32C244.78 470.28 244.407 470.22 244.06 470.14C243.847 470.3 243.667 470.466 243.52 470.64C243.373 470.813 243.3 471.026 243.3 471.28ZM266.04 470.74C265.173 470.74 264.387 470.573 263.68 470.24C262.987 469.906 262.453 469.413 262.08 468.76L263.66 467.46L263.82 467.34L263.92 467.48C263.92 467.586 263.94 467.686 263.98 467.78C264.02 467.873 264.107 468.006 264.24 468.18C264.707 468.66 265.3 468.9 266.02 468.9C266.62 468.9 267.113 468.68 267.5 468.24C267.887 467.786 268.08 467.22 268.08 466.54C268.08 465.806 267.893 465.213 267.52 464.76C267.147 464.293 266.627 464.06 265.96 464.06C265.12 464.06 264.447 464.386 263.94 465.04L262.56 464.68L263.02 458.04H269.68V459.86H264.9L264.72 462.68C264.96 462.546 265.24 462.44 265.56 462.36C265.893 462.28 266.2 462.24 266.48 462.24C267.587 462.24 268.487 462.6 269.18 463.32C269.873 464.026 270.22 465.046 270.22 466.38C270.22 467.286 270.04 468.066 269.68 468.72C269.32 469.36 268.82 469.86 268.18 470.22C267.553 470.566 266.84 470.74 266.04 470.74ZM273.76 463.18C273.333 463.18 272.94 463.066 272.58 462.84C272.22 462.6 271.927 462.28 271.7 461.88C271.487 461.466 271.38 461.006 271.38 460.5C271.38 459.993 271.487 459.54 271.7 459.14C271.927 458.74 272.22 458.42 272.58 458.18C272.94 457.94 273.333 457.82 273.76 457.82C274.2 457.82 274.6 457.94 274.96 458.18C275.32 458.42 275.607 458.746 275.82 459.16C276.033 459.56 276.14 460.013 276.14 460.52C276.14 461.293 275.913 461.933 275.46 462.44C275.007 462.933 274.44 463.18 273.76 463.18ZM271.7 470.5L278.7 458.04H280.38L273.32 470.5H271.7ZM273.76 461.78C274.013 461.78 274.213 461.673 274.36 461.46C274.52 461.233 274.6 460.913 274.6 460.5C274.6 460.1 274.52 459.786 274.36 459.56C274.2 459.32 273.993 459.2 273.74 459.2C273.5 459.2 273.3 459.32 273.14 459.56C272.993 459.786 272.92 460.1 272.92 460.5C272.92 460.913 272.993 461.233 273.14 461.46C273.3 461.673 273.507 461.78 273.76 461.78ZM278.34 470.7C277.913 470.7 277.52 470.586 277.16 470.36C276.8 470.12 276.507 469.8 276.28 469.4C276.067 468.986 275.96 468.526 275.96 468.02C275.96 467.526 276.067 467.08 276.28 466.68C276.507 466.266 276.8 465.946 277.16 465.72C277.52 465.48 277.913 465.36 278.34 465.36C278.78 465.36 279.18 465.48 279.54 465.72C279.9 465.96 280.187 466.286 280.4 466.7C280.613 467.1 280.72 467.546 280.72 468.04C280.72 468.813 280.487 469.453 280.02 469.96C279.567 470.453 279.007 470.7 278.34 470.7ZM278.36 469.32C278.613 469.32 278.813 469.206 278.96 468.98C279.12 468.753 279.2 468.44 279.2 468.04C279.2 467.68 279.127 467.373 278.98 467.12C278.833 466.866 278.62 466.74 278.34 466.74C278.087 466.74 277.88 466.853 277.72 467.08C277.56 467.306 277.48 467.62 277.48 468.02C277.48 468.433 277.56 468.753 277.72 468.98C277.88 469.206 278.093 469.32 278.36 469.32Z" fill="white"/>
<path d="M61.58 381.72C60.6733 381.72 59.84 381.5 59.08 381.06C58.3333 380.606 57.7333 379.906 57.28 378.96C56.84 378.013 56.62 376.806 56.62 375.34C56.62 374.113 56.7667 373.086 57.06 372.26C57.3667 371.42 57.7667 370.753 58.26 370.26C58.7533 369.766 59.2933 369.413 59.88 369.2C60.48 368.973 61.0733 368.86 61.66 368.86C62.5933 368.86 63.3933 369.073 64.06 369.5C64.74 369.926 65.2533 370.526 65.6 371.3L64.18 372.36L64.02 372.46L63.92 372.3C63.9333 372.206 63.92 372.113 63.88 372.02C63.8533 371.913 63.7867 371.766 63.68 371.58C63.3867 371.233 63.08 371 62.76 370.88C62.4533 370.746 62.1267 370.68 61.78 370.68C61.2733 370.68 60.7933 370.853 60.34 371.2C59.9 371.546 59.54 372.06 59.26 372.74C58.9933 373.406 58.86 374.24 58.86 375.24C58.86 376.68 59.12 377.813 59.64 378.64C60.1733 379.453 60.84 379.86 61.64 379.86C62.1333 379.86 62.56 379.753 62.92 379.54C63.28 379.326 63.6067 378.973 63.9 378.48L65.46 379.64C64.9933 380.4 64.44 380.94 63.8 381.26C63.1733 381.566 62.4333 381.72 61.58 381.72ZM70.98 381.7C70.1533 381.7 69.4 381.5 68.72 381.1C68.0533 380.686 67.5267 380.12 67.14 379.4C66.7533 378.666 66.56 377.813 66.56 376.84C66.56 375.92 66.7533 375.093 67.14 374.36C67.5267 373.626 68.0533 373.046 68.72 372.62C69.4 372.193 70.1533 371.98 70.98 371.98C71.82 371.98 72.5733 372.193 73.24 372.62C73.92 373.046 74.4533 373.626 74.84 374.36C75.24 375.093 75.44 375.92 75.44 376.84C75.44 377.8 75.24 378.646 74.84 379.38C74.4533 380.113 73.92 380.686 73.24 381.1C72.5733 381.5 71.82 381.7 70.98 381.7ZM70.98 379.9C71.62 379.9 72.1467 379.62 72.56 379.06C72.9733 378.486 73.18 377.746 73.18 376.84C73.18 375.906 72.9733 375.166 72.56 374.62C72.1467 374.073 71.62 373.8 70.98 373.8C70.3667 373.8 69.8533 374.073 69.44 374.62C69.0267 375.166 68.82 375.906 68.82 376.84C68.82 377.746 69.02 378.486 69.42 379.06C69.8333 379.62 70.3533 379.9 70.98 379.9ZM77.26 381.5V379.72H79.88V369.86H77.38V368.08H82.16V379.72H84.76V381.5H77.26ZM90.52 381.72C89.8267 381.72 89.1867 381.54 88.6 381.18C88.0267 380.82 87.56 380.273 87.2 379.54C86.84 378.806 86.66 377.893 86.66 376.8C86.66 375.72 86.8333 374.826 87.18 374.12C87.5267 373.4 87.9933 372.86 88.58 372.5C89.1667 372.14 89.82 371.96 90.54 371.96C91.0067 371.96 91.44 372.046 91.84 372.22C92.24 372.393 92.5533 372.673 92.78 373.06V368.08H95.2V368.26C95.12 368.34 95.0667 368.433 95.04 368.54C95.0267 368.633 95.02 368.786 95.02 369L95 380.26C95 380.473 95.0133 380.68 95.04 380.88C95.0667 381.08 95.1267 381.286 95.22 381.5H93C92.8933 381.286 92.8333 381.12 92.82 381C92.8067 380.866 92.8 380.693 92.8 380.48C92.5467 380.906 92.22 381.22 91.82 381.42C91.42 381.62 90.9867 381.72 90.52 381.72ZM90.9 379.9C92.1267 379.9 92.74 378.873 92.74 376.82C92.74 374.753 92.1067 373.72 90.84 373.72C90.2 373.72 89.7133 373.993 89.38 374.54C89.0467 375.086 88.88 375.826 88.88 376.76C88.88 377.746 89.0733 378.52 89.46 379.08C89.86 379.626 90.34 379.9 90.9 379.9ZM110.84 381.72C110.013 381.72 109.233 381.6 108.5 381.36C107.78 381.106 107.18 380.726 106.7 380.22L107.8 378.36L107.88 378.2L108.06 378.3C108.087 378.406 108.12 378.513 108.16 378.62C108.213 378.713 108.32 378.833 108.48 378.98C108.813 379.233 109.18 379.44 109.58 379.6C109.993 379.76 110.44 379.84 110.92 379.84C111.547 379.84 112.053 379.706 112.44 379.44C112.84 379.16 113.04 378.753 113.04 378.22C113.04 377.953 112.98 377.706 112.86 377.48C112.74 377.24 112.5 377 112.14 376.76C111.793 376.52 111.273 376.24 110.58 375.92C109.727 375.546 109.047 375.173 108.54 374.8C108.047 374.413 107.693 374 107.48 373.56C107.267 373.106 107.16 372.6 107.16 372.04C107.16 371.426 107.327 370.88 107.66 370.4C108.007 369.92 108.48 369.54 109.08 369.26C109.68 368.98 110.367 368.84 111.14 368.84C112.673 368.84 113.933 369.373 114.92 370.44L113.6 371.96L113.48 372.1L113.32 371.98C113.307 371.873 113.28 371.773 113.24 371.68C113.213 371.573 113.127 371.44 112.98 371.28C112.727 371.04 112.453 370.88 112.16 370.8C111.88 370.72 111.547 370.68 111.16 370.68C110.613 370.68 110.18 370.806 109.86 371.06C109.54 371.313 109.38 371.606 109.38 371.94C109.38 372.206 109.44 372.446 109.56 372.66C109.68 372.873 109.92 373.1 110.28 373.34C110.653 373.58 111.22 373.866 111.98 374.2C112.82 374.586 113.48 374.966 113.96 375.34C114.44 375.7 114.773 376.1 114.96 376.54C115.16 376.98 115.26 377.493 115.26 378.08C115.26 378.68 115.107 379.26 114.8 379.82C114.493 380.38 114.013 380.84 113.36 381.2C112.707 381.546 111.867 381.72 110.84 381.72ZM121.98 381.7C121.26 381.7 120.667 381.546 120.2 381.24C119.733 380.92 119.393 380.393 119.18 379.66C118.967 378.926 118.887 377.933 118.94 376.68L119.04 373.98H117.14L117.18 372.2H119.12L119.2 370L121.54 369.7L121.72 369.68L121.74 369.86C121.673 369.953 121.613 370.053 121.56 370.16C121.52 370.253 121.493 370.406 121.48 370.62L121.34 372.2H124.34L124.32 373.98H121.32L121.2 376.64C121.16 377.506 121.187 378.173 121.28 378.64C121.387 379.106 121.54 379.433 121.74 379.62C121.953 379.793 122.207 379.88 122.5 379.88C122.927 379.88 123.307 379.793 123.64 379.62C123.987 379.446 124.307 379.246 124.6 379.02L125.08 380.66C124.613 380.993 124.127 381.253 123.62 381.44C123.113 381.613 122.567 381.7 121.98 381.7ZM130.98 381.7C130.153 381.7 129.4 381.5 128.72 381.1C128.053 380.686 127.527 380.12 127.14 379.4C126.753 378.666 126.56 377.813 126.56 376.84C126.56 375.92 126.753 375.093 127.14 374.36C127.527 373.626 128.053 373.046 128.72 372.62C129.4 372.193 130.153 371.98 130.98 371.98C131.82 371.98 132.573 372.193 133.24 372.62C133.92 373.046 134.453 373.626 134.84 374.36C135.24 375.093 135.44 375.92 135.44 376.84C135.44 377.8 135.24 378.646 134.84 379.38C134.453 380.113 133.92 380.686 133.24 381.1C132.573 381.5 131.82 381.7 130.98 381.7ZM130.98 379.9C131.62 379.9 132.147 379.62 132.56 379.06C132.973 378.486 133.18 377.746 133.18 376.84C133.18 375.906 132.973 375.166 132.56 374.62C132.147 374.073 131.62 373.8 130.98 373.8C130.367 373.8 129.853 374.073 129.44 374.62C129.027 375.166 128.82 375.906 128.82 376.84C128.82 377.746 129.02 378.486 129.42 379.06C129.833 379.62 130.353 379.9 130.98 379.9ZM137.78 372.2H140.12L140.1 373.7C140.353 373.166 140.727 372.746 141.22 372.44C141.713 372.133 142.233 371.98 142.78 371.98C143.82 371.98 144.68 372.333 145.36 373.04L144.4 374.94L144.34 375.1L144.16 375.02C144.12 374.913 144.08 374.806 144.04 374.7C144 374.58 143.9 374.446 143.74 374.3C143.553 374.153 143.353 374.04 143.14 373.96C142.94 373.88 142.72 373.84 142.48 373.84C141.84 373.84 141.28 374.06 140.8 374.5C140.32 374.94 140.08 375.646 140.08 376.62V381.5H137.78V372.2ZM149.96 381.74C148.933 381.74 148.133 381.5 147.56 381.02C147 380.54 146.72 379.906 146.72 379.12C146.72 378.133 147.16 377.32 148.04 376.68C148.933 376.026 150.227 375.7 151.92 375.7C152.013 375.7 152.133 375.7 152.28 375.7C152.44 375.7 152.607 375.706 152.78 375.72C152.687 374.946 152.467 374.426 152.12 374.16C151.773 373.88 151.307 373.74 150.72 373.74C150.293 373.74 149.893 373.813 149.52 373.96C149.147 374.093 148.773 374.346 148.4 374.72L147.16 373.36C147.693 372.866 148.273 372.513 148.9 372.3C149.527 372.086 150.167 371.98 150.82 371.98C151.593 371.98 152.3 372.106 152.94 372.36C153.58 372.6 154.087 373.026 154.46 373.64C154.833 374.24 155.02 375.073 155.02 376.14V381.5H152.68V380.5C152.333 380.966 151.933 381.293 151.48 381.48C151.027 381.653 150.52 381.74 149.96 381.74ZM148.98 378.84C148.98 379.266 149.113 379.566 149.38 379.74C149.66 379.9 150 379.98 150.4 379.98C151.12 379.98 151.68 379.766 152.08 379.34C152.48 378.9 152.72 378.213 152.8 377.28C152.627 377.28 152.46 377.28 152.3 377.28C152.14 377.266 152 377.26 151.88 377.26C150.813 377.26 150.06 377.406 149.62 377.7C149.193 377.993 148.98 378.373 148.98 378.84ZM160.6 378.36C160.133 378.36 159.687 378.286 159.26 378.14C159.14 378.246 159.04 378.346 158.96 378.44C158.88 378.52 158.84 378.633 158.84 378.78C158.84 379.02 159.08 379.2 159.56 379.32C160.04 379.44 160.86 379.5 162.02 379.5C162.82 379.5 163.447 379.613 163.9 379.84C164.353 380.066 164.68 380.373 164.88 380.76C165.08 381.133 165.18 381.54 165.18 381.98C165.18 382.5 165.02 382.993 164.7 383.46C164.393 383.94 163.913 384.326 163.26 384.62C162.62 384.926 161.793 385.08 160.78 385.08C159.46 385.08 158.427 384.853 157.68 384.4C156.933 383.96 156.56 383.366 156.56 382.62C156.56 382.22 156.687 381.846 156.94 381.5C157.207 381.166 157.533 380.9 157.92 380.7C157.667 380.54 157.467 380.353 157.32 380.14C157.187 379.913 157.12 379.653 157.12 379.36C157.12 378.973 157.227 378.633 157.44 378.34C157.653 378.046 157.913 377.773 158.22 377.52C157.887 377.24 157.62 376.9 157.42 376.5C157.233 376.086 157.14 375.64 157.14 375.16C157.14 374.56 157.287 374.02 157.58 373.54C157.887 373.046 158.3 372.653 158.82 372.36C159.34 372.066 159.933 371.92 160.6 371.92C161.027 371.92 161.433 371.986 161.82 372.12C162.207 372.253 162.547 372.44 162.84 372.68C163.2 372.426 163.6 372.233 164.04 372.1C164.48 371.966 164.953 371.92 165.46 371.96L165.68 373.52C165.333 373.453 164.987 373.44 164.64 373.48C164.307 373.52 164 373.613 163.72 373.76C163.933 374.2 164.04 374.666 164.04 375.16C164.04 375.773 163.887 376.32 163.58 376.8C163.287 377.28 162.88 377.66 162.36 377.94C161.84 378.22 161.253 378.36 160.6 378.36ZM160.58 376.72C161.033 376.72 161.407 376.573 161.7 376.28C161.993 375.986 162.14 375.613 162.14 375.16C162.14 374.72 161.987 374.36 161.68 374.08C161.387 373.786 161.02 373.64 160.58 373.64C160.18 373.64 159.82 373.786 159.5 374.08C159.193 374.373 159.04 374.733 159.04 375.16C159.04 375.586 159.187 375.953 159.48 376.26C159.787 376.566 160.153 376.72 160.58 376.72ZM158.3 382.28C158.3 382.64 158.547 382.9 159.04 383.06C159.547 383.233 160.187 383.32 160.96 383.32C161.72 383.32 162.3 383.22 162.7 383.02C163.113 382.82 163.32 382.553 163.32 382.22C163.32 381.913 163.187 381.693 162.92 381.56C162.667 381.44 162.16 381.38 161.4 381.38C160.987 381.38 160.58 381.36 160.18 381.32C159.78 381.28 159.407 381.22 159.06 381.14C158.847 381.3 158.667 381.466 158.52 381.64C158.373 381.813 158.3 382.026 158.3 382.28ZM171.42 381.72C170.527 381.72 169.727 381.533 169.02 381.16C168.327 380.786 167.78 380.24 167.38 379.52C166.98 378.8 166.78 377.933 166.78 376.92C166.78 375.88 166.973 374.993 167.36 374.26C167.76 373.526 168.287 372.966 168.94 372.58C169.607 372.18 170.347 371.98 171.16 371.98C171.88 371.98 172.54 372.146 173.14 372.48C173.753 372.813 174.24 373.32 174.6 374C174.973 374.666 175.16 375.5 175.16 376.5C175.16 376.633 175.153 376.793 175.14 376.98C175.14 377.166 175.133 377.326 175.12 377.46H168.96C168.987 378.046 169.127 378.526 169.38 378.9C169.633 379.26 169.947 379.526 170.32 379.7C170.693 379.873 171.093 379.96 171.52 379.96C171.933 379.96 172.327 379.893 172.7 379.76C173.073 379.626 173.42 379.4 173.74 379.08L174.9 380.2C174.447 380.733 173.927 381.12 173.34 381.36C172.753 381.6 172.113 381.72 171.42 381.72ZM169 375.76H172.96C172.96 375.106 172.793 374.606 172.46 374.26C172.127 373.913 171.66 373.74 171.06 373.74C170.54 373.74 170.087 373.906 169.7 374.24C169.313 374.56 169.08 375.066 169 375.76ZM190.16 381.5V371.5L187.9 372.3L187.42 370.8L190.74 369.04H192.42V381.5H190.16ZM201 381.74C199.693 381.74 198.653 381.186 197.88 380.08C197.12 378.973 196.74 377.393 196.74 375.34C196.74 373.313 197.12 371.726 197.88 370.58C198.653 369.433 199.693 368.86 201 368.86C202.307 368.86 203.34 369.433 204.1 370.58C204.873 371.726 205.26 373.313 205.26 375.34C205.26 377.393 204.873 378.973 204.1 380.08C203.34 381.186 202.307 381.74 201 381.74ZM198.84 375.34C198.84 375.886 198.867 376.393 198.92 376.86L202.76 372.3C202.4 371.22 201.813 370.68 201 370.68C200.28 370.68 199.74 371.093 199.38 371.92C199.02 372.733 198.84 373.873 198.84 375.34ZM201 380C201.72 380 202.26 379.6 202.62 378.8C202.98 377.986 203.16 376.833 203.16 375.34C203.16 374.82 203.133 374.333 203.08 373.88L199.24 378.42C199.6 379.473 200.187 380 201 380ZM208.76 374.18C208.333 374.18 207.94 374.066 207.58 373.84C207.22 373.6 206.927 373.28 206.7 372.88C206.487 372.466 206.38 372.006 206.38 371.5C206.38 370.993 206.487 370.54 206.7 370.14C206.927 369.74 207.22 369.42 207.58 369.18C207.94 368.94 208.333 368.82 208.76 368.82C209.2 368.82 209.6 368.94 209.96 369.18C210.32 369.42 210.607 369.746 210.82 370.16C211.033 370.56 211.14 371.013 211.14 371.52C211.14 372.293 210.913 372.933 210.46 373.44C210.007 373.933 209.44 374.18 208.76 374.18ZM206.7 381.5L213.7 369.04H215.38L208.32 381.5H206.7ZM208.76 372.78C209.013 372.78 209.213 372.673 209.36 372.46C209.52 372.233 209.6 371.913 209.6 371.5C209.6 371.1 209.52 370.786 209.36 370.56C209.2 370.32 208.993 370.2 208.74 370.2C208.5 370.2 208.3 370.32 208.14 370.56C207.993 370.786 207.92 371.1 207.92 371.5C207.92 371.913 207.993 372.233 208.14 372.46C208.3 372.673 208.507 372.78 208.76 372.78ZM213.34 381.7C212.913 381.7 212.52 381.586 212.16 381.36C211.8 381.12 211.507 380.8 211.28 380.4C211.067 379.986 210.96 379.526 210.96 379.02C210.96 378.526 211.067 378.08 211.28 377.68C211.507 377.266 211.8 376.946 212.16 376.72C212.52 376.48 212.913 376.36 213.34 376.36C213.78 376.36 214.18 376.48 214.54 376.72C214.9 376.96 215.187 377.286 215.4 377.7C215.613 378.1 215.72 378.546 215.72 379.04C215.72 379.813 215.487 380.453 215.02 380.96C214.567 381.453 214.007 381.7 213.34 381.7ZM213.36 380.32C213.613 380.32 213.813 380.206 213.96 379.98C214.12 379.753 214.2 379.44 214.2 379.04C214.2 378.68 214.127 378.373 213.98 378.12C213.833 377.866 213.62 377.74 213.34 377.74C213.087 377.74 212.88 377.853 212.72 378.08C212.56 378.306 212.48 378.62 212.48 379.02C212.48 379.433 212.56 379.753 212.72 379.98C212.88 380.206 213.093 380.32 213.36 380.32Z" fill="white"/>
<g filter="url(#filter5_ddd_4811_4735)">
<path d="M43.3409 364L43.3408 571.317C43.3408 573.718 44.5709 575.951 46.5999 577.234L98.1098 609.803" stroke="#FD7D00"/>
</g>
<g filter="url(#filter6_ddd_4811_4735)">
<path d="M117.341 454L117.343 512.319C117.343 514.719 118.574 516.952 120.602 518.235L172.113 550.804" stroke="#FD7D00"/>
</g>
<defs>
<filter id="filter0_f_4811_4735" x="-1118" y="0.499756" width="1696" height="1612" filterUnits="userSpaceOnUse" color-interpolation-filters="sRGB">
<feFlood flood-opacity="0" result="BackgroundImageFix"/>
<feBlend mode="normal" in="SourceGraphic" in2="BackgroundImageFix" result="shape"/>
<feGaussianBlur stdDeviation="252" result="effect1_foregroundBlur_4811_4735"/>
</filter>
<filter id="filter1_ddd_4811_4735" x="26.4238" y="706.126" width="80.1914" height="290.374" filterUnits="userSpaceOnUse" color-interpolation-filters="sRGB">
<feFlood flood-opacity="0" result="BackgroundImageFix"/>
<feColorMatrix in="SourceAlpha" type="matrix" values="0 0 0 0 0 0 0 0 0 0 0 0 0 0 0 0 0 0 127 0" result="hardAlpha"/>
<feOffset dy="-2"/>
<feGaussianBlur stdDeviation="3"/>
<feComposite in2="hardAlpha" operator="out"/>
<feColorMatrix type="matrix" values="0 0 0 0 0.992157 0 0 0 0 0.490196 0 0 0 0 0 0 0 0 1 0"/>
<feBlend mode="normal" in2="BackgroundImageFix" result="effect1_dropShadow_4811_4735"/>
<feColorMatrix in="SourceAlpha" type="matrix" values="0 0 0 0 0 0 0 0 0 0 0 0 0 0 0 0 0 0 127 0" result="hardAlpha"/>
<feOffset dy="1"/>
<feGaussianBlur stdDeviation="3"/>
<feComposite in2="hardAlpha" operator="out"/>
<feColorMatrix type="matrix" values="0 0 0 0 0.992157 0 0 0 0 0.490196 0 0 0 0 0 0 0 0 1 0"/>
<feBlend mode="normal" in2="effect1_dropShadow_4811_4735" result="effect2_dropShadow_4811_4735"/>
<feColorMatrix in="SourceAlpha" type="matrix" values="0 0 0 0 0 0 0 0 0 0 0 0 0 0 0 0 0 0 127 0" result="hardAlpha"/>
<feOffset dy="-7"/>
<feGaussianBlur stdDeviation="3"/>
<feComposite in2="hardAlpha" operator="out"/>
<feColorMatrix type="matrix" values="0 0 0 0 0.992157 0 0 0 0 0.490196 0 0 0 0 0 0 0 0 1 0"/>
<feBlend mode="normal" in2="effect2_dropShadow_4811_4735" result="effect3_dropShadow_4811_4735"/>
<feBlend mode="normal" in="SourceGraphic" in2="effect3_dropShadow_4811_4735" result="shape"/>
</filter>
<filter id="filter2_ddd_4811_4735" x="112.999" y="766.197" width="37.1943" height="99.3024" filterUnits="userSpaceOnUse" color-interpolation-filters="sRGB">
<feFlood flood-opacity="0" result="BackgroundImageFix"/>
<feColorMatrix in="SourceAlpha" type="matrix" values="0 0 0 0 0 0 0 0 0 0 0 0 0 0 0 0 0 0 127 0" result="hardAlpha"/>
<feOffset dy="-2"/>
<feGaussianBlur stdDeviation="3"/>
<feComposite in2="hardAlpha" operator="out"/>
<feColorMatrix type="matrix" values="0 0 0 0 0.992157 0 0 0 0 0.490196 0 0 0 0 0 0 0 0 1 0"/>
<feBlend mode="normal" in2="BackgroundImageFix" result="effect1_dropShadow_4811_4735"/>
<feColorMatrix in="SourceAlpha" type="matrix" values="0 0 0 0 0 0 0 0 0 0 0 0 0 0 0 0 0 0 127 0" result="hardAlpha"/>
<feOffset dy="1"/>
<feGaussianBlur stdDeviation="3"/>
<feComposite in2="hardAlpha" operator="out"/>
<feColorMatrix type="matrix" values="0 0 0 0 0.992157 0 0 0 0 0.490196 0 0 0 0 0 0 0 0 1 0"/>
<feBlend mode="normal" in2="effect1_dropShadow_4811_4735" result="effect2_dropShadow_4811_4735"/>
<feColorMatrix in="SourceAlpha" type="matrix" values="0 0 0 0 0 0 0 0 0 0 0 0 0 0 0 0 0 0 127 0" result="hardAlpha"/>
<feOffset dy="-7"/>
<feGaussianBlur stdDeviation="3"/>
<feComposite in2="hardAlpha" operator="out"/>
<feColorMatrix type="matrix" values="0 0 0 0 0.992157 0 0 0 0 0.490196 0 0 0 0 0 0 0 0 1 0"/>
<feBlend mode="normal" in2="effect2_dropShadow_4811_4735" result="effect3_dropShadow_4811_4735"/>
<feBlend mode="normal" in="SourceGraphic" in2="effect3_dropShadow_4811_4735" result="shape"/>
</filter>
<filter id="filter3_ddd_4811_4735" x="302.773" y="734.506" width="92.0654" height="196.994" filterUnits="userSpaceOnUse" color-interpolation-filters="sRGB">
<feFlood flood-opacity="0" result="BackgroundImageFix"/>
<feColorMatrix in="SourceAlpha" type="matrix" values="0 0 0 0 0 0 0 0 0 0 0 0 0 0 0 0 0 0 127 0" result="hardAlpha"/>
<feOffset dy="-2"/>
<feGaussianBlur stdDeviation="3"/>
<feComposite in2="hardAlpha" operator="out"/>
<feColorMatrix type="matrix" values="0 0 0 0 0.992157 0 0 0 0 0.490196 0 0 0 0 0 0 0 0 1 0"/>
<feBlend mode="normal" in2="BackgroundImageFix" result="effect1_dropShadow_4811_4735"/>
<feColorMatrix in="SourceAlpha" type="matrix" values="0 0 0 0 0 0 0 0 0 0 0 0 0 0 0 0 0 0 127 0" result="hardAlpha"/>
<feOffset dy="1"/>
<feGaussianBlur stdDeviation="3"/>
<feComposite in2="hardAlpha" operator="out"/>
<feColorMatrix type="matrix" values="0 0 0 0 0.992157 0 0 0 0 0.490196 0 0 0 0 0 0 0 0 1 0"/>
<feBlend mode="normal" in2="effect1_dropShadow_4811_4735" result="effect2_dropShadow_4811_4735"/>
<feColorMatrix in="SourceAlpha" type="matrix" values="0 0 0 0 0 0 0 0 0 0 0 0 0 0 0 0 0 0 127 0" result="hardAlpha"/>
<feOffset dy="-7"/>
<feGaussianBlur stdDeviation="3"/>
<feComposite in2="hardAlpha" operator="out"/>
<feColorMatrix type="matrix" values="0 0 0 0 0.992157 0 0 0 0 0.490196 0 0 0 0 0 0 0 0 1 0"/>
<feBlend mode="normal" in2="effect2_dropShadow_4811_4735" result="effect3_dropShadow_4811_4735"/>
<feBlend mode="normal" in="SourceGraphic" in2="effect3_dropShadow_4811_4735" result="shape"/>
</filter>
<filter id="filter4_ddd_4811_4735" x="317.208" y="492.5" width="64.793" height="112.709" filterUnits="userSpaceOnUse" color-interpolation-filters="sRGB">
<feFlood flood-opacity="0" result="BackgroundImageFix"/>
<feColorMatrix in="SourceAlpha" type="matrix" values="0 0 0 0 0 0 0 0 0 0 0 0 0 0 0 0 0 0 127 0" result="hardAlpha"/>
<feOffset dy="-2"/>
<feGaussianBlur stdDeviation="3"/>
<feComposite in2="hardAlpha" operator="out"/>
<feColorMatrix type="matrix" values="0 0 0 0 0.992157 0 0 0 0 0.490196 0 0 0 0 0 0 0 0 1 0"/>
<feBlend mode="normal" in2="BackgroundImageFix" result="effect1_dropShadow_4811_4735"/>
<feColorMatrix in="SourceAlpha" type="matrix" values="0 0 0 0 0 0 0 0 0 0 0 0 0 0 0 0 0 0 127 0" result="hardAlpha"/>
<feOffset dy="1"/>
<feGaussianBlur stdDeviation="3"/>
<feComposite in2="hardAlpha" operator="out"/>
<feColorMatrix type="matrix" values="0 0 0 0 0.992157 0 0 0 0 0.490196 0 0 0 0 0 0 0 0 1 0"/>
<feBlend mode="normal" in2="effect1_dropShadow_4811_4735" result="effect2_dropShadow_4811_4735"/>
<feColorMatrix in="SourceAlpha" type="matrix" values="0 0 0 0 0 0 0 0 0 0 0 0 0 0 0 0 0 0 127 0" result="hardAlpha"/>
<feOffset dy="-7"/>
<feGaussianBlur stdDeviation="3"/>
<feComposite in2="hardAlpha" operator="out"/>
<feColorMatrix type="matrix" values="0 0 0 0 0.992157 0 0 0 0 0.490196 0 0 0 0 0 0 0 0 1 0"/>
<feBlend mode="normal" in2="effect2_dropShadow_4811_4735" result="effect3_dropShadow_4811_4735"/>
<feBlend mode="normal" in="SourceGraphic" in2="effect3_dropShadow_4811_4735" result="shape"/>
</filter>
<filter id="filter5_ddd_4811_4735" x="36.8408" y="351" width="67.5361" height="266.226" filterUnits="userSpaceOnUse" color-interpolation-filters="sRGB">
<feFlood flood-opacity="0" result="BackgroundImageFix"/>
<feColorMatrix in="SourceAlpha" type="matrix" values="0 0 0 0 0 0 0 0 0 0 0 0 0 0 0 0 0 0 127 0" result="hardAlpha"/>
<feOffset dy="-2"/>
<feGaussianBlur stdDeviation="3"/>
<feComposite in2="hardAlpha" operator="out"/>
<feColorMatrix type="matrix" values="0 0 0 0 0.992157 0 0 0 0 0.490196 0 0 0 0 0 0 0 0 1 0"/>
<feBlend mode="normal" in2="BackgroundImageFix" result="effect1_dropShadow_4811_4735"/>
<feColorMatrix in="SourceAlpha" type="matrix" values="0 0 0 0 0 0 0 0 0 0 0 0 0 0 0 0 0 0 127 0" result="hardAlpha"/>
<feOffset dy="1"/>
<feGaussianBlur stdDeviation="3"/>
<feComposite in2="hardAlpha" operator="out"/>
<feColorMatrix type="matrix" values="0 0 0 0 0.992157 0 0 0 0 0.490196 0 0 0 0 0 0 0 0 1 0"/>
<feBlend mode="normal" in2="effect1_dropShadow_4811_4735" result="effect2_dropShadow_4811_4735"/>
<feColorMatrix in="SourceAlpha" type="matrix" values="0 0 0 0 0 0 0 0 0 0 0 0 0 0 0 0 0 0 127 0" result="hardAlpha"/>
<feOffset dy="-7"/>
<feGaussianBlur stdDeviation="3"/>
<feComposite in2="hardAlpha" operator="out"/>
<feColorMatrix type="matrix" values="0 0 0 0 0.992157 0 0 0 0 0.490196 0 0 0 0 0 0 0 0 1 0"/>
<feBlend mode="normal" in2="effect2_dropShadow_4811_4735" result="effect3_dropShadow_4811_4735"/>
<feBlend mode="normal" in="SourceGraphic" in2="effect3_dropShadow_4811_4735" result="shape"/>
</filter>
<filter id="filter6_ddd_4811_4735" x="110.842" y="441" width="67.5381" height="117.227" filterUnits="userSpaceOnUse" color-interpolation-filters="sRGB">
<feFlood flood-opacity="0" result="BackgroundImageFix"/>
<feColorMatrix in="SourceAlpha" type="matrix" values="0 0 0 0 0 0 0 0 0 0 0 0 0 0 0 0 0 0 127 0" result="hardAlpha"/>
<feOffset dy="-2"/>
<feGaussianBlur stdDeviation="3"/>
<feComposite in2="hardAlpha" operator="out"/>
<feColorMatrix type="matrix" values="0 0 0 0 0.992157 0 0 0 0 0.490196 0 0 0 0 0 0 0 0 1 0"/>
<feBlend mode="normal" in2="BackgroundImageFix" result="effect1_dropShadow_4811_4735"/>
<feColorMatrix in="SourceAlpha" type="matrix" values="0 0 0 0 0 0 0 0 0 0 0 0 0 0 0 0 0 0 127 0" result="hardAlpha"/>
<feOffset dy="1"/>
<feGaussianBlur stdDeviation="3"/>
<feComposite in2="hardAlpha" operator="out"/>
<feColorMatrix type="matrix" values="0 0 0 0 0.992157 0 0 0 0 0.490196 0 0 0 0 0 0 0 0 1 0"/>
<feBlend mode="normal" in2="effect1_dropShadow_4811_4735" result="effect2_dropShadow_4811_4735"/>
<feColorMatrix in="SourceAlpha" type="matrix" values="0 0 0 0 0 0 0 0 0 0 0 0 0 0 0 0 0 0 127 0" result="hardAlpha"/>
<feOffset dy="-7"/>
<feGaussianBlur stdDeviation="3"/>
<feComposite in2="hardAlpha" operator="out"/>
<feColorMatrix type="matrix" values="0 0 0 0 0.992157 0 0 0 0 0.490196 0 0 0 0 0 0 0 0 1 0"/>
<feBlend mode="normal" in2="effect2_dropShadow_4811_4735" result="effect3_dropShadow_4811_4735"/>
<feBlend mode="normal" in="SourceGraphic" in2="effect3_dropShadow_4811_4735" result="shape"/>
</filter>
<linearGradient id="paint0_linear_4811_4735" x1="159.8" y1="745.47" x2="329.137" y2="676.399" gradientUnits="userSpaceOnUse">
<stop stop-color="#E27000"/>
<stop offset="1" stop-color="#FFB186"/>
</linearGradient>
<linearGradient id="paint1_linear_4811_4735" x1="175.985" y1="601.007" x2="102.59" y2="664.81" gradientUnits="userSpaceOnUse">
<stop stop-color="#E27000"/>
<stop offset="1" stop-color="#FFB186"/>
</linearGradient>
<linearGradient id="paint2_linear_4811_4735" x1="206.653" y1="595.912" x2="143.113" y2="588.993" gradientUnits="userSpaceOnUse">
<stop stop-color="#E27000"/>
<stop offset="1" stop-color="#FFB186"/>
</linearGradient>
<linearGradient id="paint3_linear_4811_4735" x1="104.074" y1="693.965" x2="394.58" y2="930.446" gradientUnits="userSpaceOnUse">
<stop stop-color="#E27000"/>
<stop offset="0.479167" stop-color="#1E50FF"/>
<stop offset="1" stop-color="#FFB186"/>
</linearGradient>
<linearGradient id="paint4_linear_4811_4735" x1="307.297" y1="698.804" x2="211.036" y2="553.558" gradientUnits="userSpaceOnUse">
<stop stop-color="#E27000"/>
<stop offset="0.375" stop-color="#FFB186"/>
<stop offset="1" stop-color="#466FFF"/>
</linearGradient>
<linearGradient id="paint5_linear_4811_4735" x1="137.818" y1="592.221" x2="168.678" y2="772.481" gradientUnits="userSpaceOnUse">
<stop stop-color="#E27000"/>
<stop offset="1" stop-color="#FFB186"/>
</linearGradient>
</defs>
</svg>
