<svg width="430" height="646" viewBox="0 0 430 646" fill="none" xmlns="http://www.w3.org/2000/svg">
<path d="M337.14 312.257C336.173 330.884 330.837 349.022 321.562 365.205C312.287 381.387 299.334 395.16 283.75 405.41C268.167 415.66 250.39 422.098 231.857 424.205C213.324 426.312 194.556 424.028 177.069 417.538L202.12 350.042C209.015 352.601 216.417 353.502 223.725 352.671C231.033 351.84 238.043 349.301 244.188 345.259C250.333 341.218 255.441 335.786 259.099 329.405C262.756 323.023 264.86 315.871 265.242 308.526L337.14 312.257Z" fill="url(#paint0_linear_4833_4732)"/>
<path d="M102.524 303.66C103.481 285.119 108.768 267.06 117.961 250.929C127.155 234.799 139.998 221.046 155.463 210.774L190.967 264.221C183.85 268.949 177.939 275.278 173.708 282.701C169.477 290.124 167.044 298.435 166.604 306.968L102.524 303.66Z" fill="url(#paint1_linear_4833_4732)"/>
<path d="M159.622 216.832C167.97 211.834 176.9 207.879 186.211 205.058L202.791 259.769C197.958 261.234 193.323 263.286 188.99 265.881L159.622 216.832Z" fill="url(#paint2_linear_4833_4732)"/>
<path d="M138.923 401.114C124.578 389.328 113.193 374.346 105.681 357.367C98.1685 340.389 94.7375 321.887 95.6629 303.344L168.204 306.964C167.844 314.177 169.179 321.374 172.101 327.978C175.023 334.583 179.452 340.411 185.032 344.995L138.923 401.114Z" fill="url(#paint3_linear_4833_4732)"/>
<path d="M184.949 200.062C201.871 195.612 219.594 195.143 236.727 198.693C253.861 202.242 269.939 209.713 283.7 220.52C297.462 231.326 308.532 245.174 316.043 260.977C323.554 276.78 327.302 294.109 326.992 311.604L264.395 310.494C264.534 302.67 262.858 294.92 259.499 287.853C256.14 280.785 251.189 274.592 245.034 269.759C238.88 264.926 231.689 261.585 224.027 259.998C216.364 258.41 208.438 258.62 200.87 260.61L184.949 200.062Z" fill="url(#paint4_linear_4833_4732)"/>
<path d="M178.391 431.741C157.876 425.803 139.339 414.447 124.73 398.867L183.859 343.421C188.506 348.377 194.402 351.989 200.928 353.878L178.391 431.741Z" fill="url(#paint5_linear_4833_4732)"/>
<circle cx="214.79" cy="308.497" r="50.7371" transform="rotate(-37.2335 214.79 308.497)" fill="#02011C"/>
<g filter="url(#filter0_ddd_4833_4732)">
<path d="M32.9258 638.5L32.9237 431.186C32.9237 429.179 33.7847 427.269 35.2882 425.94L100.284 368.5" stroke="#FD7D00"/>
</g>
<g filter="url(#filter1_ddd_4833_4732)">
<path d="M119.499 507.5L119.501 462.855C119.502 461.327 120.002 459.841 120.926 458.623L143.795 428.5" stroke="#FD7D00"/>
</g>
<g filter="url(#filter2_ddd_4833_4732)">
<path d="M388.337 573.499L388.339 443.432C388.339 440.846 386.913 438.471 384.631 437.255L309.009 396.947" stroke="#FD7D00"/>
</g>
<path d="M52.02 632.5V620.04H60.14V621.88H54.22V625.08H59.08V626.94H54.22V630.66H60.08V632.5H52.02ZM61.56 632.5L64.78 627.84L61.6 623.2H63.98L65.98 626.08L67.84 623.2H70.12L67.18 627.76L70.52 632.5H68.08L65.98 629.54L63.98 632.5H61.56ZM76.56 632.74C75.6533 632.74 74.84 632.533 74.12 632.12C73.4 631.706 72.8267 631.14 72.4 630.42C71.9867 629.686 71.78 628.853 71.78 627.92C71.78 627 71.9867 626.166 72.4 625.42C72.8267 624.673 73.4 624.08 74.12 623.64C74.84 623.2 75.66 622.98 76.58 622.98C77.4333 622.98 78.18 623.14 78.82 623.46C79.46 623.78 79.9667 624.22 80.34 624.78L79.08 626.16L78.96 626.3L78.8 626.18C78.8 626.06 78.7867 625.953 78.76 625.86C78.7333 625.753 78.6467 625.613 78.5 625.44C78.2467 625.2 77.96 625.033 77.64 624.94C77.3333 624.846 76.9867 624.8 76.6 624.8C76.16 624.8 75.7467 624.92 75.36 625.16C74.9733 625.4 74.66 625.753 74.42 626.22C74.1933 626.686 74.08 627.253 74.08 627.92C74.08 628.52 74.2 629.046 74.44 629.5C74.68 629.94 74.9933 630.286 75.38 630.54C75.78 630.78 76.2067 630.9 76.66 630.9C77.0733 630.9 77.48 630.813 77.88 630.64C78.28 630.466 78.6533 630.166 79 629.74L80.26 631.18C79.7667 631.726 79.1933 632.126 78.54 632.38C77.8867 632.62 77.2267 632.74 76.56 632.74ZM82.1 619.08H84.54V619.26C84.4733 619.34 84.4267 619.433 84.4 619.54C84.3867 619.633 84.38 619.786 84.38 620V624.42C84.7133 623.94 85.1267 623.58 85.62 623.34C86.1133 623.1 86.6067 622.98 87.1 622.98C87.9933 622.98 88.7133 623.286 89.26 623.9C89.8067 624.5 90.08 625.493 90.08 626.88V632.5H87.8V626.92C87.8 626.106 87.68 625.54 87.44 625.22C87.2133 624.886 86.9 624.72 86.5 624.72C85.9267 624.72 85.4267 624.94 85 625.38C84.5867 625.806 84.38 626.4 84.38 627.16V632.5H82.1V619.08ZM94.96 632.74C93.9333 632.74 93.1333 632.5 92.56 632.02C92 631.54 91.72 630.906 91.72 630.12C91.72 629.133 92.16 628.32 93.04 627.68C93.9333 627.026 95.2267 626.7 96.92 626.7C97.0133 626.7 97.1333 626.7 97.28 626.7C97.44 626.7 97.6067 626.706 97.78 626.72C97.6867 625.946 97.4667 625.426 97.12 625.16C96.7733 624.88 96.3067 624.74 95.72 624.74C95.2933 624.74 94.8933 624.813 94.52 624.96C94.1467 625.093 93.7733 625.346 93.4 625.72L92.16 624.36C92.6933 623.866 93.2733 623.513 93.9 623.3C94.5267 623.086 95.1667 622.98 95.82 622.98C96.5933 622.98 97.3 623.106 97.94 623.36C98.58 623.6 99.0867 624.026 99.46 624.64C99.8333 625.24 100.02 626.073 100.02 627.14V632.5H97.68V631.5C97.3333 631.966 96.9333 632.293 96.48 632.48C96.0267 632.653 95.52 632.74 94.96 632.74ZM93.98 629.84C93.98 630.266 94.1133 630.566 94.38 630.74C94.66 630.9 95 630.98 95.4 630.98C96.12 630.98 96.68 630.766 97.08 630.34C97.48 629.9 97.72 629.213 97.8 628.28C97.6267 628.28 97.46 628.28 97.3 628.28C97.14 628.266 97 628.26 96.88 628.26C95.8133 628.26 95.06 628.406 94.62 628.7C94.1933 628.993 93.98 629.373 93.98 629.84ZM102.1 632.5V623.2H104.36V624.48C104.693 624.026 105.08 623.666 105.52 623.4C105.96 623.12 106.467 622.98 107.04 622.98C107.573 622.98 108.067 623.113 108.52 623.38C108.987 623.633 109.36 624.046 109.64 624.62C109.92 625.193 110.06 625.946 110.06 626.88V632.5H107.8V626.92C107.8 626.16 107.68 625.606 107.44 625.26C107.2 624.9 106.867 624.72 106.44 624.72C106.107 624.72 105.78 624.813 105.46 625C105.14 625.173 104.873 625.426 104.66 625.76C104.46 626.093 104.36 626.493 104.36 626.96V632.5H102.1ZM115.6 629.36C115.133 629.36 114.687 629.286 114.26 629.14C114.14 629.246 114.04 629.346 113.96 629.44C113.88 629.52 113.84 629.633 113.84 629.78C113.84 630.02 114.08 630.2 114.56 630.32C115.04 630.44 115.86 630.5 117.02 630.5C117.82 630.5 118.447 630.613 118.9 630.84C119.353 631.066 119.68 631.373 119.88 631.76C120.08 632.133 120.18 632.54 120.18 632.98C120.18 633.5 120.02 633.993 119.7 634.46C119.393 634.94 118.913 635.326 118.26 635.62C117.62 635.926 116.793 636.08 115.78 636.08C114.46 636.08 113.427 635.853 112.68 635.4C111.933 634.96 111.56 634.366 111.56 633.62C111.56 633.22 111.687 632.846 111.94 632.5C112.207 632.166 112.533 631.9 112.92 631.7C112.667 631.54 112.467 631.353 112.32 631.14C112.187 630.913 112.12 630.653 112.12 630.36C112.12 629.973 112.227 629.633 112.44 629.34C112.653 629.046 112.913 628.773 113.22 628.52C112.887 628.24 112.62 627.9 112.42 627.5C112.233 627.086 112.14 626.64 112.14 626.16C112.14 625.56 112.287 625.02 112.58 624.54C112.887 624.046 113.3 623.653 113.82 623.36C114.34 623.066 114.933 622.92 115.6 622.92C116.027 622.92 116.433 622.986 116.82 623.12C117.207 623.253 117.547 623.44 117.84 623.68C118.2 623.426 118.6 623.233 119.04 623.1C119.48 622.966 119.953 622.92 120.46 622.96L120.68 624.52C120.333 624.453 119.987 624.44 119.64 624.48C119.307 624.52 119 624.613 118.72 624.76C118.933 625.2 119.04 625.666 119.04 626.16C119.04 626.773 118.887 627.32 118.58 627.8C118.287 628.28 117.88 628.66 117.36 628.94C116.84 629.22 116.253 629.36 115.6 629.36ZM115.58 627.72C116.033 627.72 116.407 627.573 116.7 627.28C116.993 626.986 117.14 626.613 117.14 626.16C117.14 625.72 116.987 625.36 116.68 625.08C116.387 624.786 116.02 624.64 115.58 624.64C115.18 624.64 114.82 624.786 114.5 625.08C114.193 625.373 114.04 625.733 114.04 626.16C114.04 626.586 114.187 626.953 114.48 627.26C114.787 627.566 115.153 627.72 115.58 627.72ZM113.3 633.28C113.3 633.64 113.547 633.9 114.04 634.06C114.547 634.233 115.187 634.32 115.96 634.32C116.72 634.32 117.3 634.22 117.7 634.02C118.113 633.82 118.32 633.553 118.32 633.22C118.32 632.913 118.187 632.693 117.92 632.56C117.667 632.44 117.16 632.38 116.4 632.38C115.987 632.38 115.58 632.36 115.18 632.32C114.78 632.28 114.407 632.22 114.06 632.14C113.847 632.3 113.667 632.466 113.52 632.64C113.373 632.813 113.3 633.026 113.3 633.28ZM126.42 632.72C125.527 632.72 124.727 632.533 124.02 632.16C123.327 631.786 122.78 631.24 122.38 630.52C121.98 629.8 121.78 628.933 121.78 627.92C121.78 626.88 121.973 625.993 122.36 625.26C122.76 624.526 123.287 623.966 123.94 623.58C124.607 623.18 125.347 622.98 126.16 622.98C126.88 622.98 127.54 623.146 128.14 623.48C128.753 623.813 129.24 624.32 129.6 625C129.973 625.666 130.16 626.5 130.16 627.5C130.16 627.633 130.153 627.793 130.14 627.98C130.14 628.166 130.133 628.326 130.12 628.46H123.96C123.987 629.046 124.127 629.526 124.38 629.9C124.633 630.26 124.947 630.526 125.32 630.7C125.693 630.873 126.093 630.96 126.52 630.96C126.933 630.96 127.327 630.893 127.7 630.76C128.073 630.626 128.42 630.4 128.74 630.08L129.9 631.2C129.447 631.733 128.927 632.12 128.34 632.36C127.753 632.6 127.113 632.72 126.42 632.72ZM124 626.76H127.96C127.96 626.106 127.793 625.606 127.46 625.26C127.127 624.913 126.66 624.74 126.06 624.74C125.54 624.74 125.087 624.906 124.7 625.24C124.313 625.56 124.08 626.066 124 626.76ZM142.14 620.04H144.6V620.22C144.52 620.3 144.467 620.393 144.44 620.5C144.427 620.593 144.42 620.746 144.42 620.96V630.66H150.14V632.5H142.14V620.04ZM152.68 632.5V630.72H154.96V624.98H152.8V623.2H157.24V630.72H159.32V632.5H152.68ZM156 621.66C155.6 621.66 155.26 621.526 154.98 621.26C154.713 620.993 154.58 620.673 154.58 620.3C154.58 619.913 154.713 619.593 154.98 619.34C155.247 619.073 155.587 618.94 156 618.94C156.373 618.94 156.7 619.073 156.98 619.34C157.273 619.606 157.42 619.926 157.42 620.3C157.42 620.673 157.273 620.993 156.98 621.26C156.7 621.526 156.373 621.66 156 621.66ZM166.18 632.72C165.327 632.72 164.54 632.606 163.82 632.38C163.1 632.153 162.46 631.773 161.9 631.24L162.9 629.4L162.98 629.24L163.14 629.34C163.18 629.433 163.22 629.54 163.26 629.66C163.3 629.766 163.4 629.893 163.56 630.04C163.893 630.32 164.267 630.54 164.68 630.7C165.107 630.86 165.62 630.94 166.22 630.94C166.78 630.94 167.213 630.846 167.52 630.66C167.827 630.473 167.98 630.226 167.98 629.92C167.98 629.613 167.807 629.366 167.46 629.18C167.127 628.993 166.573 628.786 165.8 628.56C164.787 628.293 163.98 627.933 163.38 627.48C162.78 627.026 162.48 626.42 162.48 625.66C162.48 624.9 162.807 624.266 163.46 623.76C164.127 623.24 165.02 622.98 166.14 622.98C167.673 622.98 168.92 623.453 169.88 624.4L168.78 625.94L168.64 626.1L168.5 625.98C168.487 625.873 168.453 625.773 168.4 625.68C168.36 625.586 168.26 625.46 168.1 625.3C167.833 625.113 167.527 624.973 167.18 624.88C166.847 624.773 166.513 624.72 166.18 624.72C165.727 624.72 165.333 624.793 165 624.94C164.68 625.086 164.52 625.313 164.52 625.62C164.52 625.886 164.693 626.113 165.04 626.3C165.387 626.486 165.98 626.686 166.82 626.9C167.94 627.18 168.753 627.553 169.26 628.02C169.767 628.473 170.02 629.06 170.02 629.78C170.02 630.313 169.873 630.806 169.58 631.26C169.287 631.7 168.853 632.053 168.28 632.32C167.72 632.586 167.02 632.72 166.18 632.72ZM176.98 632.7C176.26 632.7 175.667 632.546 175.2 632.24C174.733 631.92 174.393 631.393 174.18 630.66C173.967 629.926 173.887 628.933 173.94 627.68L174.04 624.98H172.14L172.18 623.2H174.12L174.2 621L176.54 620.7L176.72 620.68L176.74 620.86C176.673 620.953 176.613 621.053 176.56 621.16C176.52 621.253 176.493 621.406 176.48 621.62L176.34 623.2H179.34L179.32 624.98H176.32L176.2 627.64C176.16 628.506 176.187 629.173 176.28 629.64C176.387 630.106 176.54 630.433 176.74 630.62C176.953 630.793 177.207 630.88 177.5 630.88C177.927 630.88 178.307 630.793 178.64 630.62C178.987 630.446 179.307 630.246 179.6 630.02L180.08 631.66C179.613 631.993 179.127 632.253 178.62 632.44C178.113 632.613 177.567 632.7 176.98 632.7ZM182.68 632.5V630.72H184.96V624.98H182.8V623.2H187.24V630.72H189.32V632.5H182.68ZM186 621.66C185.6 621.66 185.26 621.526 184.98 621.26C184.713 620.993 184.58 620.673 184.58 620.3C184.58 619.913 184.713 619.593 184.98 619.34C185.247 619.073 185.587 618.94 186 618.94C186.373 618.94 186.7 619.073 186.98 619.34C187.273 619.606 187.42 619.926 187.42 620.3C187.42 620.673 187.273 620.993 186.98 621.26C186.7 621.526 186.373 621.66 186 621.66ZM192.1 632.5V623.2H194.36V624.48C194.693 624.026 195.08 623.666 195.52 623.4C195.96 623.12 196.467 622.98 197.04 622.98C197.573 622.98 198.067 623.113 198.52 623.38C198.987 623.633 199.36 624.046 199.64 624.62C199.92 625.193 200.06 625.946 200.06 626.88V632.5H197.8V626.92C197.8 626.16 197.68 625.606 197.44 625.26C197.2 624.9 196.867 624.72 196.44 624.72C196.107 624.72 195.78 624.813 195.46 625C195.14 625.173 194.873 625.426 194.66 625.76C194.46 626.093 194.36 626.493 194.36 626.96V632.5H192.1ZM205.6 629.36C205.133 629.36 204.687 629.286 204.26 629.14C204.14 629.246 204.04 629.346 203.96 629.44C203.88 629.52 203.84 629.633 203.84 629.78C203.84 630.02 204.08 630.2 204.56 630.32C205.04 630.44 205.86 630.5 207.02 630.5C207.82 630.5 208.447 630.613 208.9 630.84C209.353 631.066 209.68 631.373 209.88 631.76C210.08 632.133 210.18 632.54 210.18 632.98C210.18 633.5 210.02 633.993 209.7 634.46C209.393 634.94 208.913 635.326 208.26 635.62C207.62 635.926 206.793 636.08 205.78 636.08C204.46 636.08 203.427 635.853 202.68 635.4C201.933 634.96 201.56 634.366 201.56 633.62C201.56 633.22 201.687 632.846 201.94 632.5C202.207 632.166 202.533 631.9 202.92 631.7C202.667 631.54 202.467 631.353 202.32 631.14C202.187 630.913 202.12 630.653 202.12 630.36C202.12 629.973 202.227 629.633 202.44 629.34C202.653 629.046 202.913 628.773 203.22 628.52C202.887 628.24 202.62 627.9 202.42 627.5C202.233 627.086 202.14 626.64 202.14 626.16C202.14 625.56 202.287 625.02 202.58 624.54C202.887 624.046 203.3 623.653 203.82 623.36C204.34 623.066 204.933 622.92 205.6 622.92C206.027 622.92 206.433 622.986 206.82 623.12C207.207 623.253 207.547 623.44 207.84 623.68C208.2 623.426 208.6 623.233 209.04 623.1C209.48 622.966 209.953 622.92 210.46 622.96L210.68 624.52C210.333 624.453 209.987 624.44 209.64 624.48C209.307 624.52 209 624.613 208.72 624.76C208.933 625.2 209.04 625.666 209.04 626.16C209.04 626.773 208.887 627.32 208.58 627.8C208.287 628.28 207.88 628.66 207.36 628.94C206.84 629.22 206.253 629.36 205.6 629.36ZM205.58 627.72C206.033 627.72 206.407 627.573 206.7 627.28C206.993 626.986 207.14 626.613 207.14 626.16C207.14 625.72 206.987 625.36 206.68 625.08C206.387 624.786 206.02 624.64 205.58 624.64C205.18 624.64 204.82 624.786 204.5 625.08C204.193 625.373 204.04 625.733 204.04 626.16C204.04 626.586 204.187 626.953 204.48 627.26C204.787 627.566 205.153 627.72 205.58 627.72ZM203.3 633.28C203.3 633.64 203.547 633.9 204.04 634.06C204.547 634.233 205.187 634.32 205.96 634.32C206.72 634.32 207.3 634.22 207.7 634.02C208.113 633.82 208.32 633.553 208.32 633.22C208.32 632.913 208.187 632.693 207.92 632.56C207.667 632.44 207.16 632.38 206.4 632.38C205.987 632.38 205.58 632.36 205.18 632.32C204.78 632.28 204.407 632.22 204.06 632.14C203.847 632.3 203.667 632.466 203.52 632.64C203.373 632.813 203.3 633.026 203.3 633.28ZM216.18 632.72C215.327 632.72 214.54 632.606 213.82 632.38C213.1 632.153 212.46 631.773 211.9 631.24L212.9 629.4L212.98 629.24L213.14 629.34C213.18 629.433 213.22 629.54 213.26 629.66C213.3 629.766 213.4 629.893 213.56 630.04C213.893 630.32 214.267 630.54 214.68 630.7C215.107 630.86 215.62 630.94 216.22 630.94C216.78 630.94 217.213 630.846 217.52 630.66C217.827 630.473 217.98 630.226 217.98 629.92C217.98 629.613 217.807 629.366 217.46 629.18C217.127 628.993 216.573 628.786 215.8 628.56C214.787 628.293 213.98 627.933 213.38 627.48C212.78 627.026 212.48 626.42 212.48 625.66C212.48 624.9 212.807 624.266 213.46 623.76C214.127 623.24 215.02 622.98 216.14 622.98C217.673 622.98 218.92 623.453 219.88 624.4L218.78 625.94L218.64 626.1L218.5 625.98C218.487 625.873 218.453 625.773 218.4 625.68C218.36 625.586 218.26 625.46 218.1 625.3C217.833 625.113 217.527 624.973 217.18 624.88C216.847 624.773 216.513 624.72 216.18 624.72C215.727 624.72 215.333 624.793 215 624.94C214.68 625.086 214.52 625.313 214.52 625.62C214.52 625.886 214.693 626.113 215.04 626.3C215.387 626.486 215.98 626.686 216.82 626.9C217.94 627.18 218.753 627.553 219.26 628.02C219.767 628.473 220.02 629.06 220.02 629.78C220.02 630.313 219.873 630.806 219.58 631.26C219.287 631.7 218.853 632.053 218.28 632.32C217.72 632.586 217.02 632.72 216.18 632.72ZM235.16 632.5V622.5L232.9 623.3L232.42 621.8L235.74 620.04H237.42V632.5H235.16ZM246.04 632.74C245.173 632.74 244.387 632.573 243.68 632.24C242.987 631.906 242.453 631.413 242.08 630.76L243.66 629.46L243.82 629.34L243.92 629.48C243.92 629.586 243.94 629.686 243.98 629.78C244.02 629.873 244.107 630.006 244.24 630.18C244.707 630.66 245.3 630.9 246.02 630.9C246.62 630.9 247.113 630.68 247.5 630.24C247.887 629.786 248.08 629.22 248.08 628.54C248.08 627.806 247.893 627.213 247.52 626.76C247.147 626.293 246.627 626.06 245.96 626.06C245.12 626.06 244.447 626.386 243.94 627.04L242.56 626.68L243.02 620.04H249.68V621.86H244.9L244.72 624.68C244.96 624.546 245.24 624.44 245.56 624.36C245.893 624.28 246.2 624.24 246.48 624.24C247.587 624.24 248.487 624.6 249.18 625.32C249.873 626.026 250.22 627.046 250.22 628.38C250.22 629.286 250.04 630.066 249.68 630.72C249.32 631.36 248.82 631.86 248.18 632.22C247.553 632.566 246.84 632.74 246.04 632.74ZM253.76 625.18C253.333 625.18 252.94 625.066 252.58 624.84C252.22 624.6 251.927 624.28 251.7 623.88C251.487 623.466 251.38 623.006 251.38 622.5C251.38 621.993 251.487 621.54 251.7 621.14C251.927 620.74 252.22 620.42 252.58 620.18C252.94 619.94 253.333 619.82 253.76 619.82C254.2 619.82 254.6 619.94 254.96 620.18C255.32 620.42 255.607 620.746 255.82 621.16C256.033 621.56 256.14 622.013 256.14 622.52C256.14 623.293 255.913 623.933 255.46 624.44C255.007 624.933 254.44 625.18 253.76 625.18ZM251.7 632.5L258.7 620.04H260.38L253.32 632.5H251.7ZM253.76 623.78C254.013 623.78 254.213 623.673 254.36 623.46C254.52 623.233 254.6 622.913 254.6 622.5C254.6 622.1 254.52 621.786 254.36 621.56C254.2 621.32 253.993 621.2 253.74 621.2C253.5 621.2 253.3 621.32 253.14 621.56C252.993 621.786 252.92 622.1 252.92 622.5C252.92 622.913 252.993 623.233 253.14 623.46C253.3 623.673 253.507 623.78 253.76 623.78ZM258.34 632.7C257.913 632.7 257.52 632.586 257.16 632.36C256.8 632.12 256.507 631.8 256.28 631.4C256.067 630.986 255.96 630.526 255.96 630.02C255.96 629.526 256.067 629.08 256.28 628.68C256.507 628.266 256.8 627.946 257.16 627.72C257.52 627.48 257.913 627.36 258.34 627.36C258.78 627.36 259.18 627.48 259.54 627.72C259.9 627.96 260.187 628.286 260.4 628.7C260.613 629.1 260.72 629.546 260.72 630.04C260.72 630.813 260.487 631.453 260.02 631.96C259.567 632.453 259.007 632.7 258.34 632.7ZM258.36 631.32C258.613 631.32 258.813 631.206 258.96 630.98C259.12 630.753 259.2 630.44 259.2 630.04C259.2 629.68 259.127 629.373 258.98 629.12C258.833 628.866 258.62 628.74 258.34 628.74C258.087 628.74 257.88 628.853 257.72 629.08C257.56 629.306 257.48 629.62 257.48 630.02C257.48 630.433 257.56 630.753 257.72 630.98C257.88 631.206 258.093 631.32 258.36 631.32Z" fill="white"/>
<path d="M204.84 569.5V557.04H208.06C209.153 557.04 210 557.193 210.6 557.5C211.213 557.793 211.727 558.213 212.14 558.76C212.553 559.32 212.873 559.986 213.1 560.76C213.34 561.533 213.46 562.4 213.46 563.36C213.433 564.613 213.227 565.706 212.84 566.64C212.453 567.56 211.847 568.266 211.02 568.76C210.207 569.253 209.14 569.5 207.82 569.5H204.84ZM207.04 567.74H207.76C208.613 567.74 209.293 567.56 209.8 567.2C210.32 566.84 210.693 566.333 210.92 565.68C211.147 565.026 211.253 564.26 211.24 563.38C211.24 562.46 211.14 561.66 210.94 560.98C210.753 560.3 210.42 559.773 209.94 559.4C209.46 559.026 208.807 558.84 207.98 558.84H207.04V567.74ZM219.42 569.72C218.527 569.72 217.727 569.533 217.02 569.16C216.327 568.786 215.78 568.24 215.38 567.52C214.98 566.8 214.78 565.933 214.78 564.92C214.78 563.88 214.973 562.993 215.36 562.26C215.76 561.526 216.287 560.966 216.94 560.58C217.607 560.18 218.347 559.98 219.16 559.98C219.88 559.98 220.54 560.146 221.14 560.48C221.753 560.813 222.24 561.32 222.6 562C222.973 562.666 223.16 563.5 223.16 564.5C223.16 564.633 223.153 564.793 223.14 564.98C223.14 565.166 223.133 565.326 223.12 565.46H216.96C216.987 566.046 217.127 566.526 217.38 566.9C217.633 567.26 217.947 567.526 218.32 567.7C218.693 567.873 219.093 567.96 219.52 567.96C219.933 567.96 220.327 567.893 220.7 567.76C221.073 567.626 221.42 567.4 221.74 567.08L222.9 568.2C222.447 568.733 221.927 569.12 221.34 569.36C220.753 569.6 220.113 569.72 219.42 569.72ZM217 563.76H220.96C220.96 563.106 220.793 562.606 220.46 562.26C220.127 561.913 219.66 561.74 219.06 561.74C218.54 561.74 218.087 561.906 217.7 562.24C217.313 562.56 217.08 563.066 217 563.76ZM224.56 569.5L227.78 564.84L224.6 560.2H226.98L228.98 563.08L230.84 560.2H233.12L230.18 564.76L233.52 569.5H231.08L228.98 566.54L226.98 569.5H224.56ZM245.14 557.04H247.6V557.22C247.52 557.3 247.467 557.393 247.44 557.5C247.427 557.593 247.42 557.746 247.42 557.96V567.66H253.14V569.5H245.14V557.04ZM255.68 569.5V567.72H257.96V561.98H255.8V560.2H260.24V567.72H262.32V569.5H255.68ZM259 558.66C258.6 558.66 258.26 558.526 257.98 558.26C257.713 557.993 257.58 557.673 257.58 557.3C257.58 556.913 257.713 556.593 257.98 556.34C258.247 556.073 258.587 555.94 259 555.94C259.373 555.94 259.7 556.073 259.98 556.34C260.273 556.606 260.42 556.926 260.42 557.3C260.42 557.673 260.273 557.993 259.98 558.26C259.7 558.526 259.373 558.66 259 558.66ZM270.8 572.84V568.62C270.587 568.98 270.273 569.253 269.86 569.44C269.46 569.626 269.027 569.72 268.56 569.72C267.72 569.72 267 569.52 266.4 569.12C265.8 568.706 265.333 568.133 265 567.4C264.68 566.666 264.52 565.82 264.52 564.86C264.52 563.366 264.88 562.18 265.6 561.3C266.333 560.42 267.333 559.98 268.6 559.98C269.147 559.98 269.6 560.08 269.96 560.28C270.333 560.466 270.64 560.746 270.88 561.12V560.2H273.08V572.84H270.8ZM268.94 567.98C269.46 567.98 269.9 567.733 270.26 567.24C270.633 566.746 270.82 565.92 270.82 564.76C270.82 563.613 270.64 562.82 270.28 562.38C269.92 561.926 269.473 561.7 268.94 561.7C268.34 561.7 267.833 561.94 267.42 562.42C267.007 562.886 266.8 563.673 266.8 564.78C266.8 565.86 266.993 566.666 267.38 567.2C267.767 567.72 268.287 567.98 268.94 567.98ZM278.24 569.74C277.293 569.74 276.513 569.42 275.9 568.78C275.287 568.14 274.98 567.1 274.98 565.66V560.2H277.26V565.66C277.26 566.486 277.393 567.073 277.66 567.42C277.94 567.753 278.287 567.92 278.7 567.92C279.26 567.92 279.713 567.72 280.06 567.32C280.42 566.92 280.6 566.313 280.6 565.5V560.2H282.86V568.02C282.86 568.313 282.867 568.58 282.88 568.82C282.907 569.046 282.967 569.273 283.06 569.5H281C280.893 569.3 280.833 569.1 280.82 568.9C280.807 568.7 280.8 568.5 280.8 568.3C280.52 568.78 280.147 569.14 279.68 569.38C279.227 569.62 278.747 569.74 278.24 569.74ZM285.68 569.5V567.72H287.96V561.98H285.8V560.2H290.24V567.72H292.32V569.5H285.68ZM289 558.66C288.6 558.66 288.26 558.526 287.98 558.26C287.713 557.993 287.58 557.673 287.58 557.3C287.58 556.913 287.713 556.593 287.98 556.34C288.247 556.073 288.587 555.94 289 555.94C289.373 555.94 289.7 556.073 289.98 556.34C290.273 556.606 290.42 556.926 290.42 557.3C290.42 557.673 290.273 557.993 289.98 558.26C289.7 558.526 289.373 558.66 289 558.66ZM298.52 569.72C297.827 569.72 297.187 569.54 296.6 569.18C296.027 568.82 295.56 568.273 295.2 567.54C294.84 566.806 294.66 565.893 294.66 564.8C294.66 563.72 294.833 562.826 295.18 562.12C295.527 561.4 295.993 560.86 296.58 560.5C297.167 560.14 297.82 559.96 298.54 559.96C299.007 559.96 299.44 560.046 299.84 560.22C300.24 560.393 300.553 560.673 300.78 561.06V556.08H303.2V556.26C303.12 556.34 303.067 556.433 303.04 556.54C303.027 556.633 303.02 556.786 303.02 557L303 568.26C303 568.473 303.013 568.68 303.04 568.88C303.067 569.08 303.127 569.286 303.22 569.5H301C300.893 569.286 300.833 569.12 300.82 569C300.807 568.866 300.8 568.693 300.8 568.48C300.547 568.906 300.22 569.22 299.82 569.42C299.42 569.62 298.987 569.72 298.52 569.72ZM298.9 567.9C300.127 567.9 300.74 566.873 300.74 564.82C300.74 562.753 300.107 561.72 298.84 561.72C298.2 561.72 297.713 561.993 297.38 562.54C297.047 563.086 296.88 563.826 296.88 564.76C296.88 565.746 297.073 566.52 297.46 567.08C297.86 567.626 298.34 567.9 298.9 567.9ZM305.68 569.5V567.72H307.96V561.98H305.8V560.2H310.24V567.72H312.32V569.5H305.68ZM309 558.66C308.6 558.66 308.26 558.526 307.98 558.26C307.713 557.993 307.58 557.673 307.58 557.3C307.58 556.913 307.713 556.593 307.98 556.34C308.247 556.073 308.587 555.94 309 555.94C309.373 555.94 309.7 556.073 309.98 556.34C310.273 556.606 310.42 556.926 310.42 557.3C310.42 557.673 310.273 557.993 309.98 558.26C309.7 558.526 309.373 558.66 309 558.66ZM319.98 569.7C319.26 569.7 318.667 569.546 318.2 569.24C317.733 568.92 317.393 568.393 317.18 567.66C316.967 566.926 316.887 565.933 316.94 564.68L317.04 561.98H315.14L315.18 560.2H317.12L317.2 558L319.54 557.7L319.72 557.68L319.74 557.86C319.673 557.953 319.613 558.053 319.56 558.16C319.52 558.253 319.493 558.406 319.48 558.62L319.34 560.2H322.34L322.32 561.98H319.32L319.2 564.64C319.16 565.506 319.187 566.173 319.28 566.64C319.387 567.106 319.54 567.433 319.74 567.62C319.953 567.793 320.207 567.88 320.5 567.88C320.927 567.88 321.307 567.793 321.64 567.62C321.987 567.446 322.307 567.246 322.6 567.02L323.08 568.66C322.613 568.993 322.127 569.253 321.62 569.44C321.113 569.613 320.567 569.7 319.98 569.7ZM326.52 573.02C326.067 573.02 325.667 572.946 325.32 572.8C324.973 572.653 324.633 572.44 324.3 572.16L325.08 570.6L325.16 570.42L325.34 570.5C325.38 570.606 325.427 570.706 325.48 570.8C325.533 570.893 325.653 571 325.84 571.12C326.04 571.226 326.267 571.28 326.52 571.28C326.92 571.28 327.24 571.113 327.48 570.78C327.733 570.446 327.987 569.92 328.24 569.2L324.62 560.2H326.88L329.26 566.34L330.26 563.5C330.46 562.926 330.627 562.373 330.76 561.84C330.893 561.306 330.98 560.76 331.02 560.2H333.12C333.067 560.8 332.927 561.433 332.7 562.1C332.473 562.766 332.247 563.4 332.02 564L329.72 570.32C329.347 571.306 328.893 572 328.36 572.4C327.84 572.813 327.227 573.02 326.52 573.02ZM345.14 567.82C346.1 566.886 346.933 566.08 347.64 565.4C348.347 564.706 348.933 564.093 349.4 563.56C349.867 563.013 350.213 562.5 350.44 562.02C350.667 561.526 350.78 561.006 350.78 560.46C350.78 559.313 350.193 558.74 349.02 558.74C348.593 558.74 348.207 558.813 347.86 558.96C347.513 559.106 347.2 559.346 346.92 559.68C346.8 559.866 346.72 560.006 346.68 560.1C346.653 560.193 346.647 560.293 346.66 560.4L346.54 560.54L346.4 560.44L344.84 559.24C345.293 558.48 345.887 557.893 346.62 557.48C347.367 557.066 348.173 556.86 349.04 556.86C349.76 556.86 350.413 557.013 351 557.32C351.587 557.613 352.053 558.026 352.4 558.56C352.747 559.093 352.92 559.726 352.92 560.46C352.92 561.313 352.72 562.106 352.32 562.84C351.92 563.56 351.353 564.3 350.62 565.06C349.9 565.82 349.06 566.686 348.1 567.66H352.04C352.253 567.66 352.407 567.646 352.5 567.62C352.607 567.593 352.7 567.54 352.78 567.46H352.96V569.5H345.14V567.82ZM359 569.74C357.693 569.74 356.653 569.186 355.88 568.08C355.12 566.973 354.74 565.393 354.74 563.34C354.74 561.313 355.12 559.726 355.88 558.58C356.653 557.433 357.693 556.86 359 556.86C360.307 556.86 361.34 557.433 362.1 558.58C362.873 559.726 363.26 561.313 363.26 563.34C363.26 565.393 362.873 566.973 362.1 568.08C361.34 569.186 360.307 569.74 359 569.74ZM356.84 563.34C356.84 563.886 356.867 564.393 356.92 564.86L360.76 560.3C360.4 559.22 359.813 558.68 359 558.68C358.28 558.68 357.74 559.093 357.38 559.92C357.02 560.733 356.84 561.873 356.84 563.34ZM359 568C359.72 568 360.26 567.6 360.62 566.8C360.98 565.986 361.16 564.833 361.16 563.34C361.16 562.82 361.133 562.333 361.08 561.88L357.24 566.42C357.6 567.473 358.187 568 359 568ZM366.76 562.18C366.333 562.18 365.94 562.066 365.58 561.84C365.22 561.6 364.927 561.28 364.7 560.88C364.487 560.466 364.38 560.006 364.38 559.5C364.38 558.993 364.487 558.54 364.7 558.14C364.927 557.74 365.22 557.42 365.58 557.18C365.94 556.94 366.333 556.82 366.76 556.82C367.2 556.82 367.6 556.94 367.96 557.18C368.32 557.42 368.607 557.746 368.82 558.16C369.033 558.56 369.14 559.013 369.14 559.52C369.14 560.293 368.913 560.933 368.46 561.44C368.007 561.933 367.44 562.18 366.76 562.18ZM364.7 569.5L371.7 557.04H373.38L366.32 569.5H364.7ZM366.76 560.78C367.013 560.78 367.213 560.673 367.36 560.46C367.52 560.233 367.6 559.913 367.6 559.5C367.6 559.1 367.52 558.786 367.36 558.56C367.2 558.32 366.993 558.2 366.74 558.2C366.5 558.2 366.3 558.32 366.14 558.56C365.993 558.786 365.92 559.1 365.92 559.5C365.92 559.913 365.993 560.233 366.14 560.46C366.3 560.673 366.507 560.78 366.76 560.78ZM371.34 569.7C370.913 569.7 370.52 569.586 370.16 569.36C369.8 569.12 369.507 568.8 369.28 568.4C369.067 567.986 368.96 567.526 368.96 567.02C368.96 566.526 369.067 566.08 369.28 565.68C369.507 565.266 369.8 564.946 370.16 564.72C370.52 564.48 370.913 564.36 371.34 564.36C371.78 564.36 372.18 564.48 372.54 564.72C372.9 564.96 373.187 565.286 373.4 565.7C373.613 566.1 373.72 566.546 373.72 567.04C373.72 567.813 373.487 568.453 373.02 568.96C372.567 569.453 372.007 569.7 371.34 569.7ZM371.36 568.32C371.613 568.32 371.813 568.206 371.96 567.98C372.12 567.753 372.2 567.44 372.2 567.04C372.2 566.68 372.127 566.373 371.98 566.12C371.833 565.866 371.62 565.74 371.34 565.74C371.087 565.74 370.88 565.853 370.72 566.08C370.56 566.306 370.48 566.62 370.48 567.02C370.48 567.433 370.56 567.753 370.72 567.98C370.88 568.206 371.093 568.32 371.36 568.32Z" fill="white"/>
<path d="M137.84 503.72C137.013 503.72 136.233 503.6 135.5 503.36C134.78 503.106 134.18 502.726 133.7 502.22L134.8 500.36L134.88 500.2L135.06 500.3C135.087 500.406 135.12 500.513 135.16 500.62C135.213 500.713 135.32 500.833 135.48 500.98C135.813 501.233 136.18 501.44 136.58 501.6C136.993 501.76 137.44 501.84 137.92 501.84C138.547 501.84 139.053 501.706 139.44 501.44C139.84 501.16 140.04 500.753 140.04 500.22C140.04 499.953 139.98 499.706 139.86 499.48C139.74 499.24 139.5 499 139.14 498.76C138.793 498.52 138.273 498.24 137.58 497.92C136.727 497.546 136.047 497.173 135.54 496.8C135.047 496.413 134.693 496 134.48 495.56C134.267 495.106 134.16 494.6 134.16 494.04C134.16 493.426 134.327 492.88 134.66 492.4C135.007 491.92 135.48 491.54 136.08 491.26C136.68 490.98 137.367 490.84 138.14 490.84C139.673 490.84 140.933 491.373 141.92 492.44L140.6 493.96L140.48 494.1L140.32 493.98C140.307 493.873 140.28 493.773 140.24 493.68C140.213 493.573 140.127 493.44 139.98 493.28C139.727 493.04 139.453 492.88 139.16 492.8C138.88 492.72 138.547 492.68 138.16 492.68C137.613 492.68 137.18 492.806 136.86 493.06C136.54 493.313 136.38 493.606 136.38 493.94C136.38 494.206 136.44 494.446 136.56 494.66C136.68 494.873 136.92 495.1 137.28 495.34C137.653 495.58 138.22 495.866 138.98 496.2C139.82 496.586 140.48 496.966 140.96 497.34C141.44 497.7 141.773 498.1 141.96 498.54C142.16 498.98 142.26 499.493 142.26 500.08C142.26 500.68 142.107 501.26 141.8 501.82C141.493 502.38 141.013 502.84 140.36 503.2C139.707 503.546 138.867 503.72 137.84 503.72ZM148.98 503.7C148.26 503.7 147.667 503.546 147.2 503.24C146.733 502.92 146.393 502.393 146.18 501.66C145.967 500.926 145.887 499.933 145.94 498.68L146.04 495.98H144.14L144.18 494.2H146.12L146.2 492L148.54 491.7L148.72 491.68L148.74 491.86C148.673 491.953 148.613 492.053 148.56 492.16C148.52 492.253 148.493 492.406 148.48 492.62L148.34 494.2H151.34L151.32 495.98H148.32L148.2 498.64C148.16 499.506 148.187 500.173 148.28 500.64C148.387 501.106 148.54 501.433 148.74 501.62C148.953 501.793 149.207 501.88 149.5 501.88C149.927 501.88 150.307 501.793 150.64 501.62C150.987 501.446 151.307 501.246 151.6 501.02L152.08 502.66C151.613 502.993 151.127 503.253 150.62 503.44C150.113 503.613 149.567 503.7 148.98 503.7ZM156.96 503.74C155.933 503.74 155.133 503.5 154.56 503.02C154 502.54 153.72 501.906 153.72 501.12C153.72 500.133 154.16 499.32 155.04 498.68C155.933 498.026 157.227 497.7 158.92 497.7C159.013 497.7 159.133 497.7 159.28 497.7C159.44 497.7 159.607 497.706 159.78 497.72C159.687 496.946 159.467 496.426 159.12 496.16C158.773 495.88 158.307 495.74 157.72 495.74C157.293 495.74 156.893 495.813 156.52 495.96C156.147 496.093 155.773 496.346 155.4 496.72L154.16 495.36C154.693 494.866 155.273 494.513 155.9 494.3C156.527 494.086 157.167 493.98 157.82 493.98C158.593 493.98 159.3 494.106 159.94 494.36C160.58 494.6 161.087 495.026 161.46 495.64C161.833 496.24 162.02 497.073 162.02 498.14V503.5H159.68V502.5C159.333 502.966 158.933 503.293 158.48 503.48C158.027 503.653 157.52 503.74 156.96 503.74ZM155.98 500.84C155.98 501.266 156.113 501.566 156.38 501.74C156.66 501.9 157 501.98 157.4 501.98C158.12 501.98 158.68 501.766 159.08 501.34C159.48 500.9 159.72 500.213 159.8 499.28C159.627 499.28 159.46 499.28 159.3 499.28C159.14 499.266 159 499.26 158.88 499.26C157.813 499.26 157.06 499.406 156.62 499.7C156.193 499.993 155.98 500.373 155.98 500.84ZM167.08 499.28L166.34 500.02V503.5H164.04V490.08H166.5V490.26C166.42 490.34 166.373 490.433 166.36 490.54C166.347 490.633 166.34 490.786 166.34 491V497.56L169.9 494.12C170.1 494.16 170.333 494.193 170.6 494.22C170.867 494.246 171.087 494.26 171.26 494.26H172.34L168.64 497.88L172.84 503.48L170.26 503.58L167.08 499.28ZM174.68 503.5V501.72H176.96V495.98H174.8V494.2H179.24V501.72H181.32V503.5H174.68ZM178 492.66C177.6 492.66 177.26 492.526 176.98 492.26C176.713 491.993 176.58 491.673 176.58 491.3C176.58 490.913 176.713 490.593 176.98 490.34C177.247 490.073 177.587 489.94 178 489.94C178.373 489.94 178.7 490.073 178.98 490.34C179.273 490.606 179.42 490.926 179.42 491.3C179.42 491.673 179.273 491.993 178.98 492.26C178.7 492.526 178.373 492.66 178 492.66ZM184.1 503.5V494.2H186.36V495.48C186.693 495.026 187.08 494.666 187.52 494.4C187.96 494.12 188.467 493.98 189.04 493.98C189.573 493.98 190.067 494.113 190.52 494.38C190.987 494.633 191.36 495.046 191.64 495.62C191.92 496.193 192.06 496.946 192.06 497.88V503.5H189.8V497.92C189.8 497.16 189.68 496.606 189.44 496.26C189.2 495.9 188.867 495.72 188.44 495.72C188.107 495.72 187.78 495.813 187.46 496C187.14 496.173 186.873 496.426 186.66 496.76C186.46 497.093 186.36 497.493 186.36 497.96V503.5H184.1ZM197.6 500.36C197.133 500.36 196.687 500.286 196.26 500.14C196.14 500.246 196.04 500.346 195.96 500.44C195.88 500.52 195.84 500.633 195.84 500.78C195.84 501.02 196.08 501.2 196.56 501.32C197.04 501.44 197.86 501.5 199.02 501.5C199.82 501.5 200.447 501.613 200.9 501.84C201.353 502.066 201.68 502.373 201.88 502.76C202.08 503.133 202.18 503.54 202.18 503.98C202.18 504.5 202.02 504.993 201.7 505.46C201.393 505.94 200.913 506.326 200.26 506.62C199.62 506.926 198.793 507.08 197.78 507.08C196.46 507.08 195.427 506.853 194.68 506.4C193.933 505.96 193.56 505.366 193.56 504.62C193.56 504.22 193.687 503.846 193.94 503.5C194.207 503.166 194.533 502.9 194.92 502.7C194.667 502.54 194.467 502.353 194.32 502.14C194.187 501.913 194.12 501.653 194.12 501.36C194.12 500.973 194.227 500.633 194.44 500.34C194.653 500.046 194.913 499.773 195.22 499.52C194.887 499.24 194.62 498.9 194.42 498.5C194.233 498.086 194.14 497.64 194.14 497.16C194.14 496.56 194.287 496.02 194.58 495.54C194.887 495.046 195.3 494.653 195.82 494.36C196.34 494.066 196.933 493.92 197.6 493.92C198.027 493.92 198.433 493.986 198.82 494.12C199.207 494.253 199.547 494.44 199.84 494.68C200.2 494.426 200.6 494.233 201.04 494.1C201.48 493.966 201.953 493.92 202.46 493.96L202.68 495.52C202.333 495.453 201.987 495.44 201.64 495.48C201.307 495.52 201 495.613 200.72 495.76C200.933 496.2 201.04 496.666 201.04 497.16C201.04 497.773 200.887 498.32 200.58 498.8C200.287 499.28 199.88 499.66 199.36 499.94C198.84 500.22 198.253 500.36 197.6 500.36ZM197.58 498.72C198.033 498.72 198.407 498.573 198.7 498.28C198.993 497.986 199.14 497.613 199.14 497.16C199.14 496.72 198.987 496.36 198.68 496.08C198.387 495.786 198.02 495.64 197.58 495.64C197.18 495.64 196.82 495.786 196.5 496.08C196.193 496.373 196.04 496.733 196.04 497.16C196.04 497.586 196.187 497.953 196.48 498.26C196.787 498.566 197.153 498.72 197.58 498.72ZM195.3 504.28C195.3 504.64 195.547 504.9 196.04 505.06C196.547 505.233 197.187 505.32 197.96 505.32C198.72 505.32 199.3 505.22 199.7 505.02C200.113 504.82 200.32 504.553 200.32 504.22C200.32 503.913 200.187 503.693 199.92 503.56C199.667 503.44 199.16 503.38 198.4 503.38C197.987 503.38 197.58 503.36 197.18 503.32C196.78 503.28 196.407 503.22 196.06 503.14C195.847 503.3 195.667 503.466 195.52 503.64C195.373 503.813 195.3 504.026 195.3 504.28ZM214.14 501.82C215.1 500.886 215.933 500.08 216.64 499.4C217.347 498.706 217.933 498.093 218.4 497.56C218.867 497.013 219.213 496.5 219.44 496.02C219.667 495.526 219.78 495.006 219.78 494.46C219.78 493.313 219.193 492.74 218.02 492.74C217.593 492.74 217.207 492.813 216.86 492.96C216.513 493.106 216.2 493.346 215.92 493.68C215.8 493.866 215.72 494.006 215.68 494.1C215.653 494.193 215.647 494.293 215.66 494.4L215.54 494.54L215.4 494.44L213.84 493.24C214.293 492.48 214.887 491.893 215.62 491.48C216.367 491.066 217.173 490.86 218.04 490.86C218.76 490.86 219.413 491.013 220 491.32C220.587 491.613 221.053 492.026 221.4 492.56C221.747 493.093 221.92 493.726 221.92 494.46C221.92 495.313 221.72 496.106 221.32 496.84C220.92 497.56 220.353 498.3 219.62 499.06C218.9 499.82 218.06 500.686 217.1 501.66H221.04C221.253 501.66 221.407 501.646 221.5 501.62C221.607 501.593 221.7 501.54 221.78 501.46H221.96V503.5H214.14V501.82ZM228 503.74C226.693 503.74 225.653 503.186 224.88 502.08C224.12 500.973 223.74 499.393 223.74 497.34C223.74 495.313 224.12 493.726 224.88 492.58C225.653 491.433 226.693 490.86 228 490.86C229.307 490.86 230.34 491.433 231.1 492.58C231.873 493.726 232.26 495.313 232.26 497.34C232.26 499.393 231.873 500.973 231.1 502.08C230.34 503.186 229.307 503.74 228 503.74ZM225.84 497.34C225.84 497.886 225.867 498.393 225.92 498.86L229.76 494.3C229.4 493.22 228.813 492.68 228 492.68C227.28 492.68 226.74 493.093 226.38 493.92C226.02 494.733 225.84 495.873 225.84 497.34ZM228 502C228.72 502 229.26 501.6 229.62 500.8C229.98 499.986 230.16 498.833 230.16 497.34C230.16 496.82 230.133 496.333 230.08 495.88L226.24 500.42C226.6 501.473 227.187 502 228 502ZM235.76 496.18C235.333 496.18 234.94 496.066 234.58 495.84C234.22 495.6 233.927 495.28 233.7 494.88C233.487 494.466 233.38 494.006 233.38 493.5C233.38 492.993 233.487 492.54 233.7 492.14C233.927 491.74 234.22 491.42 234.58 491.18C234.94 490.94 235.333 490.82 235.76 490.82C236.2 490.82 236.6 490.94 236.96 491.18C237.32 491.42 237.607 491.746 237.82 492.16C238.033 492.56 238.14 493.013 238.14 493.52C238.14 494.293 237.913 494.933 237.46 495.44C237.007 495.933 236.44 496.18 235.76 496.18ZM233.7 503.5L240.7 491.04H242.38L235.32 503.5H233.7ZM235.76 494.78C236.013 494.78 236.213 494.673 236.36 494.46C236.52 494.233 236.6 493.913 236.6 493.5C236.6 493.1 236.52 492.786 236.36 492.56C236.2 492.32 235.993 492.2 235.74 492.2C235.5 492.2 235.3 492.32 235.14 492.56C234.993 492.786 234.92 493.1 234.92 493.5C234.92 493.913 234.993 494.233 235.14 494.46C235.3 494.673 235.507 494.78 235.76 494.78ZM240.34 503.7C239.913 503.7 239.52 503.586 239.16 503.36C238.8 503.12 238.507 502.8 238.28 502.4C238.067 501.986 237.96 501.526 237.96 501.02C237.96 500.526 238.067 500.08 238.28 499.68C238.507 499.266 238.8 498.946 239.16 498.72C239.52 498.48 239.913 498.36 240.34 498.36C240.78 498.36 241.18 498.48 241.54 498.72C241.9 498.96 242.187 499.286 242.4 499.7C242.613 500.1 242.72 500.546 242.72 501.04C242.72 501.813 242.487 502.453 242.02 502.96C241.567 503.453 241.007 503.7 240.34 503.7ZM240.36 502.32C240.613 502.32 240.813 502.206 240.96 501.98C241.12 501.753 241.2 501.44 241.2 501.04C241.2 500.68 241.127 500.373 240.98 500.12C240.833 499.866 240.62 499.74 240.34 499.74C240.087 499.74 239.88 499.853 239.72 500.08C239.56 500.306 239.48 500.62 239.48 501.02C239.48 501.433 239.56 501.753 239.72 501.98C239.88 502.206 240.093 502.32 240.36 502.32Z" fill="white"/>
<g filter="url(#filter3_ddd_4833_4732)">
<path d="M375.5 154.5L375.501 212.007C375.501 214.482 374.194 216.773 372.064 218.033L323.463 246.778" stroke="#FD7D00"/>
</g>
<path d="M209.58 171.72C208.673 171.72 207.84 171.5 207.08 171.06C206.333 170.606 205.733 169.906 205.28 168.96C204.84 168.013 204.62 166.806 204.62 165.34C204.62 164.113 204.767 163.086 205.06 162.26C205.367 161.42 205.767 160.753 206.26 160.26C206.753 159.766 207.293 159.413 207.88 159.2C208.48 158.973 209.073 158.86 209.66 158.86C210.593 158.86 211.393 159.073 212.06 159.5C212.74 159.926 213.253 160.526 213.6 161.3L212.18 162.36L212.02 162.46L211.92 162.3C211.933 162.206 211.92 162.113 211.88 162.02C211.853 161.913 211.787 161.766 211.68 161.58C211.387 161.233 211.08 161 210.76 160.88C210.453 160.746 210.127 160.68 209.78 160.68C209.273 160.68 208.793 160.853 208.34 161.2C207.9 161.546 207.54 162.06 207.26 162.74C206.993 163.406 206.86 164.24 206.86 165.24C206.86 166.68 207.12 167.813 207.64 168.64C208.173 169.453 208.84 169.86 209.64 169.86C210.133 169.86 210.56 169.753 210.92 169.54C211.28 169.326 211.607 168.973 211.9 168.48L213.46 169.64C212.993 170.4 212.44 170.94 211.8 171.26C211.173 171.566 210.433 171.72 209.58 171.72ZM218.98 171.7C218.153 171.7 217.4 171.5 216.72 171.1C216.053 170.686 215.527 170.12 215.14 169.4C214.753 168.666 214.56 167.813 214.56 166.84C214.56 165.92 214.753 165.093 215.14 164.36C215.527 163.626 216.053 163.046 216.72 162.62C217.4 162.193 218.153 161.98 218.98 161.98C219.82 161.98 220.573 162.193 221.24 162.62C221.92 163.046 222.453 163.626 222.84 164.36C223.24 165.093 223.44 165.92 223.44 166.84C223.44 167.8 223.24 168.646 222.84 169.38C222.453 170.113 221.92 170.686 221.24 171.1C220.573 171.5 219.82 171.7 218.98 171.7ZM218.98 169.9C219.62 169.9 220.147 169.62 220.56 169.06C220.973 168.486 221.18 167.746 221.18 166.84C221.18 165.906 220.973 165.166 220.56 164.62C220.147 164.073 219.62 163.8 218.98 163.8C218.367 163.8 217.853 164.073 217.44 164.62C217.027 165.166 216.82 165.906 216.82 166.84C216.82 167.746 217.02 168.486 217.42 169.06C217.833 169.62 218.353 169.9 218.98 169.9ZM225.26 171.5V169.72H227.88V159.86H225.38V158.08H230.16V169.72H232.76V171.5H225.26ZM238.52 171.72C237.827 171.72 237.187 171.54 236.6 171.18C236.027 170.82 235.56 170.273 235.2 169.54C234.84 168.806 234.66 167.893 234.66 166.8C234.66 165.72 234.833 164.826 235.18 164.12C235.527 163.4 235.993 162.86 236.58 162.5C237.167 162.14 237.82 161.96 238.54 161.96C239.007 161.96 239.44 162.046 239.84 162.22C240.24 162.393 240.553 162.673 240.78 163.06V158.08H243.2V158.26C243.12 158.34 243.067 158.433 243.04 158.54C243.027 158.633 243.02 158.786 243.02 159L243 170.26C243 170.473 243.013 170.68 243.04 170.88C243.067 171.08 243.127 171.286 243.22 171.5H241C240.893 171.286 240.833 171.12 240.82 171C240.807 170.866 240.8 170.693 240.8 170.48C240.547 170.906 240.22 171.22 239.82 171.42C239.42 171.62 238.987 171.72 238.52 171.72ZM238.9 169.9C240.127 169.9 240.74 168.873 240.74 166.82C240.74 164.753 240.107 163.72 238.84 163.72C238.2 163.72 237.713 163.993 237.38 164.54C237.047 165.086 236.88 165.826 236.88 166.76C236.88 167.746 237.073 168.52 237.46 169.08C237.86 169.626 238.34 169.9 238.9 169.9ZM258.84 171.72C258.013 171.72 257.233 171.6 256.5 171.36C255.78 171.106 255.18 170.726 254.7 170.22L255.8 168.36L255.88 168.2L256.06 168.3C256.087 168.406 256.12 168.513 256.16 168.62C256.213 168.713 256.32 168.833 256.48 168.98C256.813 169.233 257.18 169.44 257.58 169.6C257.993 169.76 258.44 169.84 258.92 169.84C259.547 169.84 260.053 169.706 260.44 169.44C260.84 169.16 261.04 168.753 261.04 168.22C261.04 167.953 260.98 167.706 260.86 167.48C260.74 167.24 260.5 167 260.14 166.76C259.793 166.52 259.273 166.24 258.58 165.92C257.727 165.546 257.047 165.173 256.54 164.8C256.047 164.413 255.693 164 255.48 163.56C255.267 163.106 255.16 162.6 255.16 162.04C255.16 161.426 255.327 160.88 255.66 160.4C256.007 159.92 256.48 159.54 257.08 159.26C257.68 158.98 258.367 158.84 259.14 158.84C260.673 158.84 261.933 159.373 262.92 160.44L261.6 161.96L261.48 162.1L261.32 161.98C261.307 161.873 261.28 161.773 261.24 161.68C261.213 161.573 261.127 161.44 260.98 161.28C260.727 161.04 260.453 160.88 260.16 160.8C259.88 160.72 259.547 160.68 259.16 160.68C258.613 160.68 258.18 160.806 257.86 161.06C257.54 161.313 257.38 161.606 257.38 161.94C257.38 162.206 257.44 162.446 257.56 162.66C257.68 162.873 257.92 163.1 258.28 163.34C258.653 163.58 259.22 163.866 259.98 164.2C260.82 164.586 261.48 164.966 261.96 165.34C262.44 165.7 262.773 166.1 262.96 166.54C263.16 166.98 263.26 167.493 263.26 168.08C263.26 168.68 263.107 169.26 262.8 169.82C262.493 170.38 262.013 170.84 261.36 171.2C260.707 171.546 259.867 171.72 258.84 171.72ZM269.98 171.7C269.26 171.7 268.667 171.546 268.2 171.24C267.733 170.92 267.393 170.393 267.18 169.66C266.967 168.926 266.887 167.933 266.94 166.68L267.04 163.98H265.14L265.18 162.2H267.12L267.2 160L269.54 159.7L269.72 159.68L269.74 159.86C269.673 159.953 269.613 160.053 269.56 160.16C269.52 160.253 269.493 160.406 269.48 160.62L269.34 162.2H272.34L272.32 163.98H269.32L269.2 166.64C269.16 167.506 269.187 168.173 269.28 168.64C269.387 169.106 269.54 169.433 269.74 169.62C269.953 169.793 270.207 169.88 270.5 169.88C270.927 169.88 271.307 169.793 271.64 169.62C271.987 169.446 272.307 169.246 272.6 169.02L273.08 170.66C272.613 170.993 272.127 171.253 271.62 171.44C271.113 171.613 270.567 171.7 269.98 171.7ZM278.98 171.7C278.153 171.7 277.4 171.5 276.72 171.1C276.053 170.686 275.527 170.12 275.14 169.4C274.753 168.666 274.56 167.813 274.56 166.84C274.56 165.92 274.753 165.093 275.14 164.36C275.527 163.626 276.053 163.046 276.72 162.62C277.4 162.193 278.153 161.98 278.98 161.98C279.82 161.98 280.573 162.193 281.24 162.62C281.92 163.046 282.453 163.626 282.84 164.36C283.24 165.093 283.44 165.92 283.44 166.84C283.44 167.8 283.24 168.646 282.84 169.38C282.453 170.113 281.92 170.686 281.24 171.1C280.573 171.5 279.82 171.7 278.98 171.7ZM278.98 169.9C279.62 169.9 280.147 169.62 280.56 169.06C280.973 168.486 281.18 167.746 281.18 166.84C281.18 165.906 280.973 165.166 280.56 164.62C280.147 164.073 279.62 163.8 278.98 163.8C278.367 163.8 277.853 164.073 277.44 164.62C277.027 165.166 276.82 165.906 276.82 166.84C276.82 167.746 277.02 168.486 277.42 169.06C277.833 169.62 278.353 169.9 278.98 169.9ZM285.78 162.2H288.12L288.1 163.7C288.353 163.166 288.727 162.746 289.22 162.44C289.713 162.133 290.233 161.98 290.78 161.98C291.82 161.98 292.68 162.333 293.36 163.04L292.4 164.94L292.34 165.1L292.16 165.02C292.12 164.913 292.08 164.806 292.04 164.7C292 164.58 291.9 164.446 291.74 164.3C291.553 164.153 291.353 164.04 291.14 163.96C290.94 163.88 290.72 163.84 290.48 163.84C289.84 163.84 289.28 164.06 288.8 164.5C288.32 164.94 288.08 165.646 288.08 166.62V171.5H285.78V162.2ZM297.96 171.74C296.933 171.74 296.133 171.5 295.56 171.02C295 170.54 294.72 169.906 294.72 169.12C294.72 168.133 295.16 167.32 296.04 166.68C296.933 166.026 298.227 165.7 299.92 165.7C300.013 165.7 300.133 165.7 300.28 165.7C300.44 165.7 300.607 165.706 300.78 165.72C300.687 164.946 300.467 164.426 300.12 164.16C299.773 163.88 299.307 163.74 298.72 163.74C298.293 163.74 297.893 163.813 297.52 163.96C297.147 164.093 296.773 164.346 296.4 164.72L295.16 163.36C295.693 162.866 296.273 162.513 296.9 162.3C297.527 162.086 298.167 161.98 298.82 161.98C299.593 161.98 300.3 162.106 300.94 162.36C301.58 162.6 302.087 163.026 302.46 163.64C302.833 164.24 303.02 165.073 303.02 166.14V171.5H300.68V170.5C300.333 170.966 299.933 171.293 299.48 171.48C299.027 171.653 298.52 171.74 297.96 171.74ZM296.98 168.84C296.98 169.266 297.113 169.566 297.38 169.74C297.66 169.9 298 169.98 298.4 169.98C299.12 169.98 299.68 169.766 300.08 169.34C300.48 168.9 300.72 168.213 300.8 167.28C300.627 167.28 300.46 167.28 300.3 167.28C300.14 167.266 300 167.26 299.88 167.26C298.813 167.26 298.06 167.406 297.62 167.7C297.193 167.993 296.98 168.373 296.98 168.84ZM308.6 168.36C308.133 168.36 307.687 168.286 307.26 168.14C307.14 168.246 307.04 168.346 306.96 168.44C306.88 168.52 306.84 168.633 306.84 168.78C306.84 169.02 307.08 169.2 307.56 169.32C308.04 169.44 308.86 169.5 310.02 169.5C310.82 169.5 311.447 169.613 311.9 169.84C312.353 170.066 312.68 170.373 312.88 170.76C313.08 171.133 313.18 171.54 313.18 171.98C313.18 172.5 313.02 172.993 312.7 173.46C312.393 173.94 311.913 174.326 311.26 174.62C310.62 174.926 309.793 175.08 308.78 175.08C307.46 175.08 306.427 174.853 305.68 174.4C304.933 173.96 304.56 173.366 304.56 172.62C304.56 172.22 304.687 171.846 304.94 171.5C305.207 171.166 305.533 170.9 305.92 170.7C305.667 170.54 305.467 170.353 305.32 170.14C305.187 169.913 305.12 169.653 305.12 169.36C305.12 168.973 305.227 168.633 305.44 168.34C305.653 168.046 305.913 167.773 306.22 167.52C305.887 167.24 305.62 166.9 305.42 166.5C305.233 166.086 305.14 165.64 305.14 165.16C305.14 164.56 305.287 164.02 305.58 163.54C305.887 163.046 306.3 162.653 306.82 162.36C307.34 162.066 307.933 161.92 308.6 161.92C309.027 161.92 309.433 161.986 309.82 162.12C310.207 162.253 310.547 162.44 310.84 162.68C311.2 162.426 311.6 162.233 312.04 162.1C312.48 161.966 312.953 161.92 313.46 161.96L313.68 163.52C313.333 163.453 312.987 163.44 312.64 163.48C312.307 163.52 312 163.613 311.72 163.76C311.933 164.2 312.04 164.666 312.04 165.16C312.04 165.773 311.887 166.32 311.58 166.8C311.287 167.28 310.88 167.66 310.36 167.94C309.84 168.22 309.253 168.36 308.6 168.36ZM308.58 166.72C309.033 166.72 309.407 166.573 309.7 166.28C309.993 165.986 310.14 165.613 310.14 165.16C310.14 164.72 309.987 164.36 309.68 164.08C309.387 163.786 309.02 163.64 308.58 163.64C308.18 163.64 307.82 163.786 307.5 164.08C307.193 164.373 307.04 164.733 307.04 165.16C307.04 165.586 307.187 165.953 307.48 166.26C307.787 166.566 308.153 166.72 308.58 166.72ZM306.3 172.28C306.3 172.64 306.547 172.9 307.04 173.06C307.547 173.233 308.187 173.32 308.96 173.32C309.72 173.32 310.3 173.22 310.7 173.02C311.113 172.82 311.32 172.553 311.32 172.22C311.32 171.913 311.187 171.693 310.92 171.56C310.667 171.44 310.16 171.38 309.4 171.38C308.987 171.38 308.58 171.36 308.18 171.32C307.78 171.28 307.407 171.22 307.06 171.14C306.847 171.3 306.667 171.466 306.52 171.64C306.373 171.813 306.3 172.026 306.3 172.28ZM319.42 171.72C318.527 171.72 317.727 171.533 317.02 171.16C316.327 170.786 315.78 170.24 315.38 169.52C314.98 168.8 314.78 167.933 314.78 166.92C314.78 165.88 314.973 164.993 315.36 164.26C315.76 163.526 316.287 162.966 316.94 162.58C317.607 162.18 318.347 161.98 319.16 161.98C319.88 161.98 320.54 162.146 321.14 162.48C321.753 162.813 322.24 163.32 322.6 164C322.973 164.666 323.16 165.5 323.16 166.5C323.16 166.633 323.153 166.793 323.14 166.98C323.14 167.166 323.133 167.326 323.12 167.46H316.96C316.987 168.046 317.127 168.526 317.38 168.9C317.633 169.26 317.947 169.526 318.32 169.7C318.693 169.873 319.093 169.96 319.52 169.96C319.933 169.96 320.327 169.893 320.7 169.76C321.073 169.626 321.42 169.4 321.74 169.08L322.9 170.2C322.447 170.733 321.927 171.12 321.34 171.36C320.753 171.6 320.113 171.72 319.42 171.72ZM317 165.76H320.96C320.96 165.106 320.793 164.606 320.46 164.26C320.127 163.913 319.66 163.74 319.06 163.74C318.54 163.74 318.087 163.906 317.7 164.24C317.313 164.56 317.08 165.066 317 165.76ZM338.16 171.5V161.5L335.9 162.3L335.42 160.8L338.74 159.04H340.42V171.5H338.16ZM349 171.74C347.693 171.74 346.653 171.186 345.88 170.08C345.12 168.973 344.74 167.393 344.74 165.34C344.74 163.313 345.12 161.726 345.88 160.58C346.653 159.433 347.693 158.86 349 158.86C350.307 158.86 351.34 159.433 352.1 160.58C352.873 161.726 353.26 163.313 353.26 165.34C353.26 167.393 352.873 168.973 352.1 170.08C351.34 171.186 350.307 171.74 349 171.74ZM346.84 165.34C346.84 165.886 346.867 166.393 346.92 166.86L350.76 162.3C350.4 161.22 349.813 160.68 349 160.68C348.28 160.68 347.74 161.093 347.38 161.92C347.02 162.733 346.84 163.873 346.84 165.34ZM349 170C349.72 170 350.26 169.6 350.62 168.8C350.98 167.986 351.16 166.833 351.16 165.34C351.16 164.82 351.133 164.333 351.08 163.88L347.24 168.42C347.6 169.473 348.187 170 349 170ZM356.76 164.18C356.333 164.18 355.94 164.066 355.58 163.84C355.22 163.6 354.927 163.28 354.7 162.88C354.487 162.466 354.38 162.006 354.38 161.5C354.38 160.993 354.487 160.54 354.7 160.14C354.927 159.74 355.22 159.42 355.58 159.18C355.94 158.94 356.333 158.82 356.76 158.82C357.2 158.82 357.6 158.94 357.96 159.18C358.32 159.42 358.607 159.746 358.82 160.16C359.033 160.56 359.14 161.013 359.14 161.52C359.14 162.293 358.913 162.933 358.46 163.44C358.007 163.933 357.44 164.18 356.76 164.18ZM354.7 171.5L361.7 159.04H363.38L356.32 171.5H354.7ZM356.76 162.78C357.013 162.78 357.213 162.673 357.36 162.46C357.52 162.233 357.6 161.913 357.6 161.5C357.6 161.1 357.52 160.786 357.36 160.56C357.2 160.32 356.993 160.2 356.74 160.2C356.5 160.2 356.3 160.32 356.14 160.56C355.993 160.786 355.92 161.1 355.92 161.5C355.92 161.913 355.993 162.233 356.14 162.46C356.3 162.673 356.507 162.78 356.76 162.78ZM361.34 171.7C360.913 171.7 360.52 171.586 360.16 171.36C359.8 171.12 359.507 170.8 359.28 170.4C359.067 169.986 358.96 169.526 358.96 169.02C358.96 168.526 359.067 168.08 359.28 167.68C359.507 167.266 359.8 166.946 360.16 166.72C360.52 166.48 360.913 166.36 361.34 166.36C361.78 166.36 362.18 166.48 362.54 166.72C362.9 166.96 363.187 167.286 363.4 167.7C363.613 168.1 363.72 168.546 363.72 169.04C363.72 169.813 363.487 170.453 363.02 170.96C362.567 171.453 362.007 171.7 361.34 171.7ZM361.36 170.32C361.613 170.32 361.813 170.206 361.96 169.98C362.12 169.753 362.2 169.44 362.2 169.04C362.2 168.68 362.127 168.373 361.98 168.12C361.833 167.866 361.62 167.74 361.34 167.74C361.087 167.74 360.88 167.853 360.72 168.08C360.56 168.306 360.48 168.62 360.48 169.02C360.48 169.433 360.56 169.753 360.72 169.98C360.88 170.206 361.093 170.32 361.36 170.32Z" fill="white"/>
<path d="M134.82 119.5V108.94H131.46V107.04H140.52V108.94H136.98V119.5H134.82ZM146.42 119.72C145.527 119.72 144.727 119.533 144.02 119.16C143.327 118.786 142.78 118.24 142.38 117.52C141.98 116.8 141.78 115.933 141.78 114.92C141.78 113.88 141.973 112.993 142.36 112.26C142.76 111.526 143.287 110.966 143.94 110.58C144.607 110.18 145.347 109.98 146.16 109.98C146.88 109.98 147.54 110.146 148.14 110.48C148.753 110.813 149.24 111.32 149.6 112C149.973 112.666 150.16 113.5 150.16 114.5C150.16 114.633 150.153 114.793 150.14 114.98C150.14 115.166 150.133 115.326 150.12 115.46H143.96C143.987 116.046 144.127 116.526 144.38 116.9C144.633 117.26 144.947 117.526 145.32 117.7C145.693 117.873 146.093 117.96 146.52 117.96C146.933 117.96 147.327 117.893 147.7 117.76C148.073 117.626 148.42 117.4 148.74 117.08L149.9 118.2C149.447 118.733 148.927 119.12 148.34 119.36C147.753 119.6 147.113 119.72 146.42 119.72ZM144 113.76H147.96C147.96 113.106 147.793 112.606 147.46 112.26C147.127 111.913 146.66 111.74 146.06 111.74C145.54 111.74 145.087 111.906 144.7 112.24C144.313 112.56 144.08 113.066 144 113.76ZM154.96 119.74C153.933 119.74 153.133 119.5 152.56 119.02C152 118.54 151.72 117.906 151.72 117.12C151.72 116.133 152.16 115.32 153.04 114.68C153.933 114.026 155.227 113.7 156.92 113.7C157.013 113.7 157.133 113.7 157.28 113.7C157.44 113.7 157.607 113.706 157.78 113.72C157.687 112.946 157.467 112.426 157.12 112.16C156.773 111.88 156.307 111.74 155.72 111.74C155.293 111.74 154.893 111.813 154.52 111.96C154.147 112.093 153.773 112.346 153.4 112.72L152.16 111.36C152.693 110.866 153.273 110.513 153.9 110.3C154.527 110.086 155.167 109.98 155.82 109.98C156.593 109.98 157.3 110.106 157.94 110.36C158.58 110.6 159.087 111.026 159.46 111.64C159.833 112.24 160.02 113.073 160.02 114.14V119.5H157.68V118.5C157.333 118.966 156.933 119.293 156.48 119.48C156.027 119.653 155.52 119.74 154.96 119.74ZM153.98 116.84C153.98 117.266 154.113 117.566 154.38 117.74C154.66 117.9 155 117.98 155.4 117.98C156.12 117.98 156.68 117.766 157.08 117.34C157.48 116.9 157.72 116.213 157.8 115.28C157.627 115.28 157.46 115.28 157.3 115.28C157.14 115.266 157 115.26 156.88 115.26C155.813 115.26 155.06 115.406 154.62 115.7C154.193 115.993 153.98 116.373 153.98 116.84ZM161.6 119.5V110.2H163.5V110.88C163.727 110.56 163.98 110.333 164.26 110.2C164.54 110.053 164.827 109.98 165.12 109.98C165.453 109.98 165.76 110.066 166.04 110.24C166.333 110.413 166.553 110.7 166.7 111.1C167.113 110.353 167.767 109.98 168.66 109.98C169.34 109.98 169.827 110.22 170.12 110.7C170.427 111.166 170.573 111.813 170.56 112.64V119.5H168.6V113.12C168.6 112.52 168.553 112.12 168.46 111.92C168.367 111.706 168.227 111.6 168.04 111.6C167.773 111.6 167.533 111.78 167.32 112.14C167.107 112.486 167 112.953 167 113.54V119.5H165.16V113.18C165.16 112.54 165.113 112.113 165.02 111.9C164.927 111.686 164.753 111.58 164.5 111.58C164.26 111.58 164.04 111.74 163.84 112.06C163.653 112.366 163.56 112.82 163.56 113.42V119.5H161.6ZM185.32 119.54L181.32 107.04H183.56L186.18 115.8L188.62 107.04H190.8L186.84 119.54H185.32ZM196.42 119.72C195.527 119.72 194.727 119.533 194.02 119.16C193.327 118.786 192.78 118.24 192.38 117.52C191.98 116.8 191.78 115.933 191.78 114.92C191.78 113.88 191.973 112.993 192.36 112.26C192.76 111.526 193.287 110.966 193.94 110.58C194.607 110.18 195.347 109.98 196.16 109.98C196.88 109.98 197.54 110.146 198.14 110.48C198.753 110.813 199.24 111.32 199.6 112C199.973 112.666 200.16 113.5 200.16 114.5C200.16 114.633 200.153 114.793 200.14 114.98C200.14 115.166 200.133 115.326 200.12 115.46H193.96C193.987 116.046 194.127 116.526 194.38 116.9C194.633 117.26 194.947 117.526 195.32 117.7C195.693 117.873 196.093 117.96 196.52 117.96C196.933 117.96 197.327 117.893 197.7 117.76C198.073 117.626 198.42 117.4 198.74 117.08L199.9 118.2C199.447 118.733 198.927 119.12 198.34 119.36C197.753 119.6 197.113 119.72 196.42 119.72ZM194 113.76H197.96C197.96 113.106 197.793 112.606 197.46 112.26C197.127 111.913 196.66 111.74 196.06 111.74C195.54 111.74 195.087 111.906 194.7 112.24C194.313 112.56 194.08 113.066 194 113.76ZM206.18 119.72C205.327 119.72 204.54 119.606 203.82 119.38C203.1 119.153 202.46 118.773 201.9 118.24L202.9 116.4L202.98 116.24L203.14 116.34C203.18 116.433 203.22 116.54 203.26 116.66C203.3 116.766 203.4 116.893 203.56 117.04C203.893 117.32 204.267 117.54 204.68 117.7C205.107 117.86 205.62 117.94 206.22 117.94C206.78 117.94 207.213 117.846 207.52 117.66C207.827 117.473 207.98 117.226 207.98 116.92C207.98 116.613 207.807 116.366 207.46 116.18C207.127 115.993 206.573 115.786 205.8 115.56C204.787 115.293 203.98 114.933 203.38 114.48C202.78 114.026 202.48 113.42 202.48 112.66C202.48 111.9 202.807 111.266 203.46 110.76C204.127 110.24 205.02 109.98 206.14 109.98C207.673 109.98 208.92 110.453 209.88 111.4L208.78 112.94L208.64 113.1L208.5 112.98C208.487 112.873 208.453 112.773 208.4 112.68C208.36 112.586 208.26 112.46 208.1 112.3C207.833 112.113 207.527 111.973 207.18 111.88C206.847 111.773 206.513 111.72 206.18 111.72C205.727 111.72 205.333 111.793 205 111.94C204.68 112.086 204.52 112.313 204.52 112.62C204.52 112.886 204.693 113.113 205.04 113.3C205.387 113.486 205.98 113.686 206.82 113.9C207.94 114.18 208.753 114.553 209.26 115.02C209.767 115.473 210.02 116.06 210.02 116.78C210.02 117.313 209.873 117.806 209.58 118.26C209.287 118.7 208.853 119.053 208.28 119.32C207.72 119.586 207.02 119.72 206.18 119.72ZM216.98 119.7C216.26 119.7 215.667 119.546 215.2 119.24C214.733 118.92 214.393 118.393 214.18 117.66C213.967 116.926 213.887 115.933 213.94 114.68L214.04 111.98H212.14L212.18 110.2H214.12L214.2 108L216.54 107.7L216.72 107.68L216.74 107.86C216.673 107.953 216.613 108.053 216.56 108.16C216.52 108.253 216.493 108.406 216.48 108.62L216.34 110.2H219.34L219.32 111.98H216.32L216.2 114.64C216.16 115.506 216.187 116.173 216.28 116.64C216.387 117.106 216.54 117.433 216.74 117.62C216.953 117.793 217.207 117.88 217.5 117.88C217.927 117.88 218.307 117.793 218.64 117.62C218.987 117.446 219.307 117.246 219.6 117.02L220.08 118.66C219.613 118.993 219.127 119.253 218.62 119.44C218.113 119.613 217.567 119.7 216.98 119.7ZM222.68 119.5V117.72H224.96V111.98H222.8V110.2H227.24V117.72H229.32V119.5H222.68ZM226 108.66C225.6 108.66 225.26 108.526 224.98 108.26C224.713 107.993 224.58 107.673 224.58 107.3C224.58 106.913 224.713 106.593 224.98 106.34C225.247 106.073 225.587 105.94 226 105.94C226.373 105.94 226.7 106.073 226.98 106.34C227.273 106.606 227.42 106.926 227.42 107.3C227.42 107.673 227.273 107.993 226.98 108.26C226.7 108.526 226.373 108.66 226 108.66ZM232.1 119.5V110.2H234.36V111.48C234.693 111.026 235.08 110.666 235.52 110.4C235.96 110.12 236.467 109.98 237.04 109.98C237.573 109.98 238.067 110.113 238.52 110.38C238.987 110.633 239.36 111.046 239.64 111.62C239.92 112.193 240.06 112.946 240.06 113.88V119.5H237.8V113.92C237.8 113.16 237.68 112.606 237.44 112.26C237.2 111.9 236.867 111.72 236.44 111.72C236.107 111.72 235.78 111.813 235.46 112C235.14 112.173 234.873 112.426 234.66 112.76C234.46 113.093 234.36 113.493 234.36 113.96V119.5H232.1ZM245.6 116.36C245.133 116.36 244.687 116.286 244.26 116.14C244.14 116.246 244.04 116.346 243.96 116.44C243.88 116.52 243.84 116.633 243.84 116.78C243.84 117.02 244.08 117.2 244.56 117.32C245.04 117.44 245.86 117.5 247.02 117.5C247.82 117.5 248.447 117.613 248.9 117.84C249.353 118.066 249.68 118.373 249.88 118.76C250.08 119.133 250.18 119.54 250.18 119.98C250.18 120.5 250.02 120.993 249.7 121.46C249.393 121.94 248.913 122.326 248.26 122.62C247.62 122.926 246.793 123.08 245.78 123.08C244.46 123.08 243.427 122.853 242.68 122.4C241.933 121.96 241.56 121.366 241.56 120.62C241.56 120.22 241.687 119.846 241.94 119.5C242.207 119.166 242.533 118.9 242.92 118.7C242.667 118.54 242.467 118.353 242.32 118.14C242.187 117.913 242.12 117.653 242.12 117.36C242.12 116.973 242.227 116.633 242.44 116.34C242.653 116.046 242.913 115.773 243.22 115.52C242.887 115.24 242.62 114.9 242.42 114.5C242.233 114.086 242.14 113.64 242.14 113.16C242.14 112.56 242.287 112.02 242.58 111.54C242.887 111.046 243.3 110.653 243.82 110.36C244.34 110.066 244.933 109.92 245.6 109.92C246.027 109.92 246.433 109.986 246.82 110.12C247.207 110.253 247.547 110.44 247.84 110.68C248.2 110.426 248.6 110.233 249.04 110.1C249.48 109.966 249.953 109.92 250.46 109.96L250.68 111.52C250.333 111.453 249.987 111.44 249.64 111.48C249.307 111.52 249 111.613 248.72 111.76C248.933 112.2 249.04 112.666 249.04 113.16C249.04 113.773 248.887 114.32 248.58 114.8C248.287 115.28 247.88 115.66 247.36 115.94C246.84 116.22 246.253 116.36 245.6 116.36ZM245.58 114.72C246.033 114.72 246.407 114.573 246.7 114.28C246.993 113.986 247.14 113.613 247.14 113.16C247.14 112.72 246.987 112.36 246.68 112.08C246.387 111.786 246.02 111.64 245.58 111.64C245.18 111.64 244.82 111.786 244.5 112.08C244.193 112.373 244.04 112.733 244.04 113.16C244.04 113.586 244.187 113.953 244.48 114.26C244.787 114.566 245.153 114.72 245.58 114.72ZM243.3 120.28C243.3 120.64 243.547 120.9 244.04 121.06C244.547 121.233 245.187 121.32 245.96 121.32C246.72 121.32 247.3 121.22 247.7 121.02C248.113 120.82 248.32 120.553 248.32 120.22C248.32 119.913 248.187 119.693 247.92 119.56C247.667 119.44 247.16 119.38 246.4 119.38C245.987 119.38 245.58 119.36 245.18 119.32C244.78 119.28 244.407 119.22 244.06 119.14C243.847 119.3 243.667 119.466 243.52 119.64C243.373 119.813 243.3 120.026 243.3 120.28ZM266.04 119.74C265.173 119.74 264.387 119.573 263.68 119.24C262.987 118.906 262.453 118.413 262.08 117.76L263.66 116.46L263.82 116.34L263.92 116.48C263.92 116.586 263.94 116.686 263.98 116.78C264.02 116.873 264.107 117.006 264.24 117.18C264.707 117.66 265.3 117.9 266.02 117.9C266.62 117.9 267.113 117.68 267.5 117.24C267.887 116.786 268.08 116.22 268.08 115.54C268.08 114.806 267.893 114.213 267.52 113.76C267.147 113.293 266.627 113.06 265.96 113.06C265.12 113.06 264.447 113.386 263.94 114.04L262.56 113.68L263.02 107.04H269.68V108.86H264.9L264.72 111.68C264.96 111.546 265.24 111.44 265.56 111.36C265.893 111.28 266.2 111.24 266.48 111.24C267.587 111.24 268.487 111.6 269.18 112.32C269.873 113.026 270.22 114.046 270.22 115.38C270.22 116.286 270.04 117.066 269.68 117.72C269.32 118.36 268.82 118.86 268.18 119.22C267.553 119.566 266.84 119.74 266.04 119.74ZM273.76 112.18C273.333 112.18 272.94 112.066 272.58 111.84C272.22 111.6 271.927 111.28 271.7 110.88C271.487 110.466 271.38 110.006 271.38 109.5C271.38 108.993 271.487 108.54 271.7 108.14C271.927 107.74 272.22 107.42 272.58 107.18C272.94 106.94 273.333 106.82 273.76 106.82C274.2 106.82 274.6 106.94 274.96 107.18C275.32 107.42 275.607 107.746 275.82 108.16C276.033 108.56 276.14 109.013 276.14 109.52C276.14 110.293 275.913 110.933 275.46 111.44C275.007 111.933 274.44 112.18 273.76 112.18ZM271.7 119.5L278.7 107.04H280.38L273.32 119.5H271.7ZM273.76 110.78C274.013 110.78 274.213 110.673 274.36 110.46C274.52 110.233 274.6 109.913 274.6 109.5C274.6 109.1 274.52 108.786 274.36 108.56C274.2 108.32 273.993 108.2 273.74 108.2C273.5 108.2 273.3 108.32 273.14 108.56C272.993 108.786 272.92 109.1 272.92 109.5C272.92 109.913 272.993 110.233 273.14 110.46C273.3 110.673 273.507 110.78 273.76 110.78ZM278.34 119.7C277.913 119.7 277.52 119.586 277.16 119.36C276.8 119.12 276.507 118.8 276.28 118.4C276.067 117.986 275.96 117.526 275.96 117.02C275.96 116.526 276.067 116.08 276.28 115.68C276.507 115.266 276.8 114.946 277.16 114.72C277.52 114.48 277.913 114.36 278.34 114.36C278.78 114.36 279.18 114.48 279.54 114.72C279.9 114.96 280.187 115.286 280.4 115.7C280.613 116.1 280.72 116.546 280.72 117.04C280.72 117.813 280.487 118.453 280.02 118.96C279.567 119.453 279.007 119.7 278.34 119.7ZM278.36 118.32C278.613 118.32 278.813 118.206 278.96 117.98C279.12 117.753 279.2 117.44 279.2 117.04C279.2 116.68 279.127 116.373 278.98 116.12C278.833 115.866 278.62 115.74 278.34 115.74C278.087 115.74 277.88 115.853 277.72 116.08C277.56 116.306 277.48 116.62 277.48 117.02C277.48 117.433 277.56 117.753 277.72 117.98C277.88 118.206 278.093 118.32 278.36 118.32Z" fill="white"/>
<path d="M61.58 30.7198C60.6733 30.7198 59.84 30.4998 59.08 30.0598C58.3333 29.6064 57.7333 28.9064 57.28 27.9598C56.84 27.0131 56.62 25.8064 56.62 24.3398C56.62 23.1131 56.7667 22.0864 57.06 21.2598C57.3667 20.4198 57.7667 19.7531 58.26 19.2598C58.7533 18.7664 59.2933 18.4131 59.88 18.1998C60.48 17.9731 61.0733 17.8598 61.66 17.8598C62.5933 17.8598 63.3933 18.0731 64.06 18.4998C64.74 18.9264 65.2533 19.5264 65.6 20.2998L64.18 21.3598L64.02 21.4598L63.92 21.2998C63.9333 21.2064 63.92 21.1131 63.88 21.0198C63.8533 20.9131 63.7867 20.7664 63.68 20.5798C63.3867 20.2331 63.08 19.9998 62.76 19.8798C62.4533 19.7464 62.1267 19.6798 61.78 19.6798C61.2733 19.6798 60.7933 19.8531 60.34 20.1998C59.9 20.5464 59.54 21.0598 59.26 21.7398C58.9933 22.4064 58.86 23.2398 58.86 24.2398C58.86 25.6798 59.12 26.8131 59.64 27.6398C60.1733 28.4531 60.84 28.8598 61.64 28.8598C62.1333 28.8598 62.56 28.7531 62.92 28.5398C63.28 28.3264 63.6067 27.9731 63.9 27.4798L65.46 28.6398C64.9933 29.3998 64.44 29.9398 63.8 30.2598C63.1733 30.5664 62.4333 30.7198 61.58 30.7198ZM70.98 30.6998C70.1533 30.6998 69.4 30.4998 68.72 30.0998C68.0533 29.6864 67.5267 29.1198 67.14 28.3998C66.7533 27.6664 66.56 26.8131 66.56 25.8398C66.56 24.9198 66.7533 24.0931 67.14 23.3598C67.5267 22.6264 68.0533 22.0464 68.72 21.6198C69.4 21.1931 70.1533 20.9798 70.98 20.9798C71.82 20.9798 72.5733 21.1931 73.24 21.6198C73.92 22.0464 74.4533 22.6264 74.84 23.3598C75.24 24.0931 75.44 24.9198 75.44 25.8398C75.44 26.7998 75.24 27.6464 74.84 28.3798C74.4533 29.1131 73.92 29.6864 73.24 30.0998C72.5733 30.4998 71.82 30.6998 70.98 30.6998ZM70.98 28.8998C71.62 28.8998 72.1467 28.6198 72.56 28.0598C72.9733 27.4864 73.18 26.7464 73.18 25.8398C73.18 24.9064 72.9733 24.1664 72.56 23.6198C72.1467 23.0731 71.62 22.7998 70.98 22.7998C70.3667 22.7998 69.8533 23.0731 69.44 23.6198C69.0267 24.1664 68.82 24.9064 68.82 25.8398C68.82 26.7464 69.02 27.4864 69.42 28.0598C69.8333 28.6198 70.3533 28.8998 70.98 28.8998ZM77.26 30.4998V28.7198H79.88V18.8598H77.38V17.0798H82.16V28.7198H84.76V30.4998H77.26ZM90.52 30.7198C89.8267 30.7198 89.1867 30.5398 88.6 30.1798C88.0267 29.8198 87.56 29.2731 87.2 28.5398C86.84 27.8064 86.66 26.8931 86.66 25.7998C86.66 24.7198 86.8333 23.8264 87.18 23.1198C87.5267 22.3998 87.9933 21.8598 88.58 21.4998C89.1667 21.1398 89.82 20.9598 90.54 20.9598C91.0067 20.9598 91.44 21.0464 91.84 21.2198C92.24 21.3931 92.5533 21.6731 92.78 22.0598V17.0798H95.2V17.2598C95.12 17.3398 95.0667 17.4331 95.04 17.5398C95.0267 17.6331 95.02 17.7864 95.02 17.9998L95 29.2598C95 29.4731 95.0133 29.6798 95.04 29.8798C95.0667 30.0798 95.1267 30.2864 95.22 30.4998H93C92.8933 30.2864 92.8333 30.1198 92.82 29.9998C92.8067 29.8664 92.8 29.6931 92.8 29.4798C92.5467 29.9064 92.22 30.2198 91.82 30.4198C91.42 30.6198 90.9867 30.7198 90.52 30.7198ZM90.9 28.8998C92.1267 28.8998 92.74 27.8731 92.74 25.8198C92.74 23.7531 92.1067 22.7198 90.84 22.7198C90.2 22.7198 89.7133 22.9931 89.38 23.5398C89.0467 24.0864 88.88 24.8264 88.88 25.7598C88.88 26.7464 89.0733 27.5198 89.46 28.0798C89.86 28.6264 90.34 28.8998 90.9 28.8998ZM110.84 30.7198C110.013 30.7198 109.233 30.5998 108.5 30.3598C107.78 30.1064 107.18 29.7264 106.7 29.2198L107.8 27.3598L107.88 27.1998L108.06 27.2998C108.087 27.4064 108.12 27.5131 108.16 27.6198C108.213 27.7131 108.32 27.8331 108.48 27.9798C108.813 28.2331 109.18 28.4398 109.58 28.5998C109.993 28.7598 110.44 28.8398 110.92 28.8398C111.547 28.8398 112.053 28.7064 112.44 28.4398C112.84 28.1598 113.04 27.7531 113.04 27.2198C113.04 26.9531 112.98 26.7064 112.86 26.4798C112.74 26.2398 112.5 25.9998 112.14 25.7598C111.793 25.5198 111.273 25.2398 110.58 24.9198C109.727 24.5464 109.047 24.1731 108.54 23.7998C108.047 23.4131 107.693 22.9998 107.48 22.5598C107.267 22.1064 107.16 21.5998 107.16 21.0398C107.16 20.4264 107.327 19.8798 107.66 19.3998C108.007 18.9198 108.48 18.5398 109.08 18.2598C109.68 17.9798 110.367 17.8398 111.14 17.8398C112.673 17.8398 113.933 18.3731 114.92 19.4398L113.6 20.9598L113.48 21.0998L113.32 20.9798C113.307 20.8731 113.28 20.7731 113.24 20.6798C113.213 20.5731 113.127 20.4398 112.98 20.2798C112.727 20.0398 112.453 19.8798 112.16 19.7998C111.88 19.7198 111.547 19.6798 111.16 19.6798C110.613 19.6798 110.18 19.8064 109.86 20.0598C109.54 20.3131 109.38 20.6064 109.38 20.9398C109.38 21.2064 109.44 21.4464 109.56 21.6598C109.68 21.8731 109.92 22.0998 110.28 22.3398C110.653 22.5798 111.22 22.8664 111.98 23.1998C112.82 23.5864 113.48 23.9664 113.96 24.3398C114.44 24.6998 114.773 25.0998 114.96 25.5398C115.16 25.9798 115.26 26.4931 115.26 27.0798C115.26 27.6798 115.107 28.2598 114.8 28.8198C114.493 29.3798 114.013 29.8398 113.36 30.1998C112.707 30.5464 111.867 30.7198 110.84 30.7198ZM121.98 30.6998C121.26 30.6998 120.667 30.5464 120.2 30.2398C119.733 29.9198 119.393 29.3931 119.18 28.6598C118.967 27.9264 118.887 26.9331 118.94 25.6798L119.04 22.9798H117.14L117.18 21.1998H119.12L119.2 18.9998L121.54 18.6998L121.72 18.6798L121.74 18.8598C121.673 18.9531 121.613 19.0531 121.56 19.1598C121.52 19.2531 121.493 19.4064 121.48 19.6198L121.34 21.1998H124.34L124.32 22.9798H121.32L121.2 25.6398C121.16 26.5064 121.187 27.1731 121.28 27.6398C121.387 28.1064 121.54 28.4331 121.74 28.6198C121.953 28.7931 122.207 28.8798 122.5 28.8798C122.927 28.8798 123.307 28.7931 123.64 28.6198C123.987 28.4464 124.307 28.2464 124.6 28.0198L125.08 29.6598C124.613 29.9931 124.127 30.2531 123.62 30.4398C123.113 30.6131 122.567 30.6998 121.98 30.6998ZM130.98 30.6998C130.153 30.6998 129.4 30.4998 128.72 30.0998C128.053 29.6864 127.527 29.1198 127.14 28.3998C126.753 27.6664 126.56 26.8131 126.56 25.8398C126.56 24.9198 126.753 24.0931 127.14 23.3598C127.527 22.6264 128.053 22.0464 128.72 21.6198C129.4 21.1931 130.153 20.9798 130.98 20.9798C131.82 20.9798 132.573 21.1931 133.24 21.6198C133.92 22.0464 134.453 22.6264 134.84 23.3598C135.24 24.0931 135.44 24.9198 135.44 25.8398C135.44 26.7998 135.24 27.6464 134.84 28.3798C134.453 29.1131 133.92 29.6864 133.24 30.0998C132.573 30.4998 131.82 30.6998 130.98 30.6998ZM130.98 28.8998C131.62 28.8998 132.147 28.6198 132.56 28.0598C132.973 27.4864 133.18 26.7464 133.18 25.8398C133.18 24.9064 132.973 24.1664 132.56 23.6198C132.147 23.0731 131.62 22.7998 130.98 22.7998C130.367 22.7998 129.853 23.0731 129.44 23.6198C129.027 24.1664 128.82 24.9064 128.82 25.8398C128.82 26.7464 129.02 27.4864 129.42 28.0598C129.833 28.6198 130.353 28.8998 130.98 28.8998ZM137.78 21.1998H140.12L140.1 22.6998C140.353 22.1664 140.727 21.7464 141.22 21.4398C141.713 21.1331 142.233 20.9798 142.78 20.9798C143.82 20.9798 144.68 21.3331 145.36 22.0398L144.4 23.9398L144.34 24.0998L144.16 24.0198C144.12 23.9131 144.08 23.8064 144.04 23.6998C144 23.5798 143.9 23.4464 143.74 23.2998C143.553 23.1531 143.353 23.0398 143.14 22.9598C142.94 22.8798 142.72 22.8398 142.48 22.8398C141.84 22.8398 141.28 23.0598 140.8 23.4998C140.32 23.9398 140.08 24.6464 140.08 25.6198V30.4998H137.78V21.1998ZM149.96 30.7398C148.933 30.7398 148.133 30.4998 147.56 30.0198C147 29.5398 146.72 28.9064 146.72 28.1198C146.72 27.1331 147.16 26.3198 148.04 25.6798C148.933 25.0264 150.227 24.6998 151.92 24.6998C152.013 24.6998 152.133 24.6998 152.28 24.6998C152.44 24.6998 152.607 24.7064 152.78 24.7198C152.687 23.9464 152.467 23.4264 152.12 23.1598C151.773 22.8798 151.307 22.7398 150.72 22.7398C150.293 22.7398 149.893 22.8131 149.52 22.9598C149.147 23.0931 148.773 23.3464 148.4 23.7198L147.16 22.3598C147.693 21.8664 148.273 21.5131 148.9 21.2998C149.527 21.0864 150.167 20.9798 150.82 20.9798C151.593 20.9798 152.3 21.1064 152.94 21.3598C153.58 21.5998 154.087 22.0264 154.46 22.6398C154.833 23.2398 155.02 24.0731 155.02 25.1398V30.4998H152.68V29.4998C152.333 29.9664 151.933 30.2931 151.48 30.4798C151.027 30.6531 150.52 30.7398 149.96 30.7398ZM148.98 27.8398C148.98 28.2664 149.113 28.5664 149.38 28.7398C149.66 28.8998 150 28.9798 150.4 28.9798C151.12 28.9798 151.68 28.7664 152.08 28.3398C152.48 27.8998 152.72 27.2131 152.8 26.2798C152.627 26.2798 152.46 26.2798 152.3 26.2798C152.14 26.2664 152 26.2598 151.88 26.2598C150.813 26.2598 150.06 26.4064 149.62 26.6998C149.193 26.9931 148.98 27.3731 148.98 27.8398ZM160.6 27.3598C160.133 27.3598 159.687 27.2864 159.26 27.1398C159.14 27.2464 159.04 27.3464 158.96 27.4398C158.88 27.5198 158.84 27.6331 158.84 27.7798C158.84 28.0198 159.08 28.1998 159.56 28.3198C160.04 28.4398 160.86 28.4998 162.02 28.4998C162.82 28.4998 163.447 28.6131 163.9 28.8398C164.353 29.0664 164.68 29.3731 164.88 29.7598C165.08 30.1331 165.18 30.5398 165.18 30.9798C165.18 31.4998 165.02 31.9931 164.7 32.4598C164.393 32.9398 163.913 33.3264 163.26 33.6198C162.62 33.9264 161.793 34.0798 160.78 34.0798C159.46 34.0798 158.427 33.8531 157.68 33.3998C156.933 32.9598 156.56 32.3664 156.56 31.6198C156.56 31.2198 156.687 30.8464 156.94 30.4998C157.207 30.1664 157.533 29.8998 157.92 29.6998C157.667 29.5398 157.467 29.3531 157.32 29.1398C157.187 28.9131 157.12 28.6531 157.12 28.3598C157.12 27.9731 157.227 27.6331 157.44 27.3398C157.653 27.0464 157.913 26.7731 158.22 26.5198C157.887 26.2398 157.62 25.8998 157.42 25.4998C157.233 25.0864 157.14 24.6398 157.14 24.1598C157.14 23.5598 157.287 23.0198 157.58 22.5398C157.887 22.0464 158.3 21.6531 158.82 21.3598C159.34 21.0664 159.933 20.9198 160.6 20.9198C161.027 20.9198 161.433 20.9864 161.82 21.1198C162.207 21.2531 162.547 21.4398 162.84 21.6798C163.2 21.4264 163.6 21.2331 164.04 21.0998C164.48 20.9664 164.953 20.9198 165.46 20.9598L165.68 22.5198C165.333 22.4531 164.987 22.4398 164.64 22.4798C164.307 22.5198 164 22.6131 163.72 22.7598C163.933 23.1998 164.04 23.6664 164.04 24.1598C164.04 24.7731 163.887 25.3198 163.58 25.7998C163.287 26.2798 162.88 26.6598 162.36 26.9398C161.84 27.2198 161.253 27.3598 160.6 27.3598ZM160.58 25.7198C161.033 25.7198 161.407 25.5731 161.7 25.2798C161.993 24.9864 162.14 24.6131 162.14 24.1598C162.14 23.7198 161.987 23.3598 161.68 23.0798C161.387 22.7864 161.02 22.6398 160.58 22.6398C160.18 22.6398 159.82 22.7864 159.5 23.0798C159.193 23.3731 159.04 23.7331 159.04 24.1598C159.04 24.5864 159.187 24.9531 159.48 25.2598C159.787 25.5664 160.153 25.7198 160.58 25.7198ZM158.3 31.2798C158.3 31.6398 158.547 31.8998 159.04 32.0598C159.547 32.2331 160.187 32.3198 160.96 32.3198C161.72 32.3198 162.3 32.2198 162.7 32.0198C163.113 31.8198 163.32 31.5531 163.32 31.2198C163.32 30.9131 163.187 30.6931 162.92 30.5598C162.667 30.4398 162.16 30.3798 161.4 30.3798C160.987 30.3798 160.58 30.3598 160.18 30.3198C159.78 30.2798 159.407 30.2198 159.06 30.1398C158.847 30.2998 158.667 30.4664 158.52 30.6398C158.373 30.8131 158.3 31.0264 158.3 31.2798ZM171.42 30.7198C170.527 30.7198 169.727 30.5331 169.02 30.1598C168.327 29.7864 167.78 29.2398 167.38 28.5198C166.98 27.7998 166.78 26.9331 166.78 25.9198C166.78 24.8798 166.973 23.9931 167.36 23.2598C167.76 22.5264 168.287 21.9664 168.94 21.5798C169.607 21.1798 170.347 20.9798 171.16 20.9798C171.88 20.9798 172.54 21.1464 173.14 21.4798C173.753 21.8131 174.24 22.3198 174.6 22.9998C174.973 23.6664 175.16 24.4998 175.16 25.4998C175.16 25.6331 175.153 25.7931 175.14 25.9798C175.14 26.1664 175.133 26.3264 175.12 26.4598H168.96C168.987 27.0464 169.127 27.5264 169.38 27.8998C169.633 28.2598 169.947 28.5264 170.32 28.6998C170.693 28.8731 171.093 28.9598 171.52 28.9598C171.933 28.9598 172.327 28.8931 172.7 28.7598C173.073 28.6264 173.42 28.3998 173.74 28.0798L174.9 29.1998C174.447 29.7331 173.927 30.1198 173.34 30.3598C172.753 30.5998 172.113 30.7198 171.42 30.7198ZM169 24.7598H172.96C172.96 24.1064 172.793 23.6064 172.46 23.2598C172.127 22.9131 171.66 22.7398 171.06 22.7398C170.54 22.7398 170.087 22.9064 169.7 23.2398C169.313 23.5598 169.08 24.0664 169 24.7598ZM190.16 30.4998V20.4998L187.9 21.2998L187.42 19.7998L190.74 18.0398H192.42V30.4998H190.16ZM201 30.7398C199.693 30.7398 198.653 30.1864 197.88 29.0798C197.12 27.9731 196.74 26.3931 196.74 24.3398C196.74 22.3131 197.12 20.7264 197.88 19.5798C198.653 18.4331 199.693 17.8598 201 17.8598C202.307 17.8598 203.34 18.4331 204.1 19.5798C204.873 20.7264 205.26 22.3131 205.26 24.3398C205.26 26.3931 204.873 27.9731 204.1 29.0798C203.34 30.1864 202.307 30.7398 201 30.7398ZM198.84 24.3398C198.84 24.8864 198.867 25.3931 198.92 25.8598L202.76 21.2998C202.4 20.2198 201.813 19.6798 201 19.6798C200.28 19.6798 199.74 20.0931 199.38 20.9198C199.02 21.7331 198.84 22.8731 198.84 24.3398ZM201 28.9998C201.72 28.9998 202.26 28.5998 202.62 27.7998C202.98 26.9864 203.16 25.8331 203.16 24.3398C203.16 23.8198 203.133 23.3331 203.08 22.8798L199.24 27.4198C199.6 28.4731 200.187 28.9998 201 28.9998ZM208.76 23.1798C208.333 23.1798 207.94 23.0664 207.58 22.8398C207.22 22.5998 206.927 22.2798 206.7 21.8798C206.487 21.4664 206.38 21.0064 206.38 20.4998C206.38 19.9931 206.487 19.5398 206.7 19.1398C206.927 18.7398 207.22 18.4198 207.58 18.1798C207.94 17.9398 208.333 17.8198 208.76 17.8198C209.2 17.8198 209.6 17.9398 209.96 18.1798C210.32 18.4198 210.607 18.7464 210.82 19.1598C211.033 19.5598 211.14 20.0131 211.14 20.5198C211.14 21.2931 210.913 21.9331 210.46 22.4398C210.007 22.9331 209.44 23.1798 208.76 23.1798ZM206.7 30.4998L213.7 18.0398H215.38L208.32 30.4998H206.7ZM208.76 21.7798C209.013 21.7798 209.213 21.6731 209.36 21.4598C209.52 21.2331 209.6 20.9131 209.6 20.4998C209.6 20.0998 209.52 19.7864 209.36 19.5598C209.2 19.3198 208.993 19.1998 208.74 19.1998C208.5 19.1998 208.3 19.3198 208.14 19.5598C207.993 19.7864 207.92 20.0998 207.92 20.4998C207.92 20.9131 207.993 21.2331 208.14 21.4598C208.3 21.6731 208.507 21.7798 208.76 21.7798ZM213.34 30.6998C212.913 30.6998 212.52 30.5864 212.16 30.3598C211.8 30.1198 211.507 29.7998 211.28 29.3998C211.067 28.9864 210.96 28.5264 210.96 28.0198C210.96 27.5264 211.067 27.0798 211.28 26.6798C211.507 26.2664 211.8 25.9464 212.16 25.7198C212.52 25.4798 212.913 25.3598 213.34 25.3598C213.78 25.3598 214.18 25.4798 214.54 25.7198C214.9 25.9598 215.187 26.2864 215.4 26.6998C215.613 27.0998 215.72 27.5464 215.72 28.0398C215.72 28.8131 215.487 29.4531 215.02 29.9598C214.567 30.4531 214.007 30.6998 213.34 30.6998ZM213.36 29.3198C213.613 29.3198 213.813 29.2064 213.96 28.9798C214.12 28.7531 214.2 28.4398 214.2 28.0398C214.2 27.6798 214.127 27.3731 213.98 27.1198C213.833 26.8664 213.62 26.7398 213.34 26.7398C213.087 26.7398 212.88 26.8531 212.72 27.0798C212.56 27.3064 212.48 27.6198 212.48 28.0198C212.48 28.4331 212.56 28.7531 212.72 28.9798C212.88 29.2064 213.093 29.3198 213.36 29.3198Z" fill="white"/>
<g filter="url(#filter4_ddd_4833_4732)">
<path d="M43.3409 13L43.3408 220.317C43.3408 222.718 44.5709 224.951 46.5999 226.234L98.1098 258.803" stroke="#FD7D00"/>
</g>
<g filter="url(#filter5_ddd_4833_4732)">
<path d="M117.341 103L117.343 161.319C117.343 163.719 118.574 165.952 120.602 167.235L172.113 199.804" stroke="#FD7D00"/>
</g>
<defs>
<filter id="filter0_ddd_4833_4732" x="26.4238" y="355.126" width="80.1914" height="290.374" filterUnits="userSpaceOnUse" color-interpolation-filters="sRGB">
<feFlood flood-opacity="0" result="BackgroundImageFix"/>
<feColorMatrix in="SourceAlpha" type="matrix" values="0 0 0 0 0 0 0 0 0 0 0 0 0 0 0 0 0 0 127 0" result="hardAlpha"/>
<feOffset dy="-2"/>
<feGaussianBlur stdDeviation="3"/>
<feComposite in2="hardAlpha" operator="out"/>
<feColorMatrix type="matrix" values="0 0 0 0 0.992157 0 0 0 0 0.490196 0 0 0 0 0 0 0 0 1 0"/>
<feBlend mode="normal" in2="BackgroundImageFix" result="effect1_dropShadow_4833_4732"/>
<feColorMatrix in="SourceAlpha" type="matrix" values="0 0 0 0 0 0 0 0 0 0 0 0 0 0 0 0 0 0 127 0" result="hardAlpha"/>
<feOffset dy="1"/>
<feGaussianBlur stdDeviation="3"/>
<feComposite in2="hardAlpha" operator="out"/>
<feColorMatrix type="matrix" values="0 0 0 0 0.992157 0 0 0 0 0.490196 0 0 0 0 0 0 0 0 1 0"/>
<feBlend mode="normal" in2="effect1_dropShadow_4833_4732" result="effect2_dropShadow_4833_4732"/>
<feColorMatrix in="SourceAlpha" type="matrix" values="0 0 0 0 0 0 0 0 0 0 0 0 0 0 0 0 0 0 127 0" result="hardAlpha"/>
<feOffset dy="-7"/>
<feGaussianBlur stdDeviation="3"/>
<feComposite in2="hardAlpha" operator="out"/>
<feColorMatrix type="matrix" values="0 0 0 0 0.992157 0 0 0 0 0.490196 0 0 0 0 0 0 0 0 1 0"/>
<feBlend mode="normal" in2="effect2_dropShadow_4833_4732" result="effect3_dropShadow_4833_4732"/>
<feBlend mode="normal" in="SourceGraphic" in2="effect3_dropShadow_4833_4732" result="shape"/>
</filter>
<filter id="filter1_ddd_4833_4732" x="112.999" y="415.197" width="37.1943" height="99.3024" filterUnits="userSpaceOnUse" color-interpolation-filters="sRGB">
<feFlood flood-opacity="0" result="BackgroundImageFix"/>
<feColorMatrix in="SourceAlpha" type="matrix" values="0 0 0 0 0 0 0 0 0 0 0 0 0 0 0 0 0 0 127 0" result="hardAlpha"/>
<feOffset dy="-2"/>
<feGaussianBlur stdDeviation="3"/>
<feComposite in2="hardAlpha" operator="out"/>
<feColorMatrix type="matrix" values="0 0 0 0 0.992157 0 0 0 0 0.490196 0 0 0 0 0 0 0 0 1 0"/>
<feBlend mode="normal" in2="BackgroundImageFix" result="effect1_dropShadow_4833_4732"/>
<feColorMatrix in="SourceAlpha" type="matrix" values="0 0 0 0 0 0 0 0 0 0 0 0 0 0 0 0 0 0 127 0" result="hardAlpha"/>
<feOffset dy="1"/>
<feGaussianBlur stdDeviation="3"/>
<feComposite in2="hardAlpha" operator="out"/>
<feColorMatrix type="matrix" values="0 0 0 0 0.992157 0 0 0 0 0.490196 0 0 0 0 0 0 0 0 1 0"/>
<feBlend mode="normal" in2="effect1_dropShadow_4833_4732" result="effect2_dropShadow_4833_4732"/>
<feColorMatrix in="SourceAlpha" type="matrix" values="0 0 0 0 0 0 0 0 0 0 0 0 0 0 0 0 0 0 127 0" result="hardAlpha"/>
<feOffset dy="-7"/>
<feGaussianBlur stdDeviation="3"/>
<feComposite in2="hardAlpha" operator="out"/>
<feColorMatrix type="matrix" values="0 0 0 0 0.992157 0 0 0 0 0.490196 0 0 0 0 0 0 0 0 1 0"/>
<feBlend mode="normal" in2="effect2_dropShadow_4833_4732" result="effect3_dropShadow_4833_4732"/>
<feBlend mode="normal" in="SourceGraphic" in2="effect3_dropShadow_4833_4732" result="shape"/>
</filter>
<filter id="filter2_ddd_4833_4732" x="302.773" y="383.506" width="92.0654" height="196.994" filterUnits="userSpaceOnUse" color-interpolation-filters="sRGB">
<feFlood flood-opacity="0" result="BackgroundImageFix"/>
<feColorMatrix in="SourceAlpha" type="matrix" values="0 0 0 0 0 0 0 0 0 0 0 0 0 0 0 0 0 0 127 0" result="hardAlpha"/>
<feOffset dy="-2"/>
<feGaussianBlur stdDeviation="3"/>
<feComposite in2="hardAlpha" operator="out"/>
<feColorMatrix type="matrix" values="0 0 0 0 0.992157 0 0 0 0 0.490196 0 0 0 0 0 0 0 0 1 0"/>
<feBlend mode="normal" in2="BackgroundImageFix" result="effect1_dropShadow_4833_4732"/>
<feColorMatrix in="SourceAlpha" type="matrix" values="0 0 0 0 0 0 0 0 0 0 0 0 0 0 0 0 0 0 127 0" result="hardAlpha"/>
<feOffset dy="1"/>
<feGaussianBlur stdDeviation="3"/>
<feComposite in2="hardAlpha" operator="out"/>
<feColorMatrix type="matrix" values="0 0 0 0 0.992157 0 0 0 0 0.490196 0 0 0 0 0 0 0 0 1 0"/>
<feBlend mode="normal" in2="effect1_dropShadow_4833_4732" result="effect2_dropShadow_4833_4732"/>
<feColorMatrix in="SourceAlpha" type="matrix" values="0 0 0 0 0 0 0 0 0 0 0 0 0 0 0 0 0 0 127 0" result="hardAlpha"/>
<feOffset dy="-7"/>
<feGaussianBlur stdDeviation="3"/>
<feComposite in2="hardAlpha" operator="out"/>
<feColorMatrix type="matrix" values="0 0 0 0 0.992157 0 0 0 0 0.490196 0 0 0 0 0 0 0 0 1 0"/>
<feBlend mode="normal" in2="effect2_dropShadow_4833_4732" result="effect3_dropShadow_4833_4732"/>
<feBlend mode="normal" in="SourceGraphic" in2="effect3_dropShadow_4833_4732" result="shape"/>
</filter>
<filter id="filter3_ddd_4833_4732" x="317.208" y="141.5" width="64.793" height="112.709" filterUnits="userSpaceOnUse" color-interpolation-filters="sRGB">
<feFlood flood-opacity="0" result="BackgroundImageFix"/>
<feColorMatrix in="SourceAlpha" type="matrix" values="0 0 0 0 0 0 0 0 0 0 0 0 0 0 0 0 0 0 127 0" result="hardAlpha"/>
<feOffset dy="-2"/>
<feGaussianBlur stdDeviation="3"/>
<feComposite in2="hardAlpha" operator="out"/>
<feColorMatrix type="matrix" values="0 0 0 0 0.992157 0 0 0 0 0.490196 0 0 0 0 0 0 0 0 1 0"/>
<feBlend mode="normal" in2="BackgroundImageFix" result="effect1_dropShadow_4833_4732"/>
<feColorMatrix in="SourceAlpha" type="matrix" values="0 0 0 0 0 0 0 0 0 0 0 0 0 0 0 0 0 0 127 0" result="hardAlpha"/>
<feOffset dy="1"/>
<feGaussianBlur stdDeviation="3"/>
<feComposite in2="hardAlpha" operator="out"/>
<feColorMatrix type="matrix" values="0 0 0 0 0.992157 0 0 0 0 0.490196 0 0 0 0 0 0 0 0 1 0"/>
<feBlend mode="normal" in2="effect1_dropShadow_4833_4732" result="effect2_dropShadow_4833_4732"/>
<feColorMatrix in="SourceAlpha" type="matrix" values="0 0 0 0 0 0 0 0 0 0 0 0 0 0 0 0 0 0 127 0" result="hardAlpha"/>
<feOffset dy="-7"/>
<feGaussianBlur stdDeviation="3"/>
<feComposite in2="hardAlpha" operator="out"/>
<feColorMatrix type="matrix" values="0 0 0 0 0.992157 0 0 0 0 0.490196 0 0 0 0 0 0 0 0 1 0"/>
<feBlend mode="normal" in2="effect2_dropShadow_4833_4732" result="effect3_dropShadow_4833_4732"/>
<feBlend mode="normal" in="SourceGraphic" in2="effect3_dropShadow_4833_4732" result="shape"/>
</filter>
<filter id="filter4_ddd_4833_4732" x="36.8408" y="0" width="67.5361" height="266.226" filterUnits="userSpaceOnUse" color-interpolation-filters="sRGB">
<feFlood flood-opacity="0" result="BackgroundImageFix"/>
<feColorMatrix in="SourceAlpha" type="matrix" values="0 0 0 0 0 0 0 0 0 0 0 0 0 0 0 0 0 0 127 0" result="hardAlpha"/>
<feOffset dy="-2"/>
<feGaussianBlur stdDeviation="3"/>
<feComposite in2="hardAlpha" operator="out"/>
<feColorMatrix type="matrix" values="0 0 0 0 0.992157 0 0 0 0 0.490196 0 0 0 0 0 0 0 0 1 0"/>
<feBlend mode="normal" in2="BackgroundImageFix" result="effect1_dropShadow_4833_4732"/>
<feColorMatrix in="SourceAlpha" type="matrix" values="0 0 0 0 0 0 0 0 0 0 0 0 0 0 0 0 0 0 127 0" result="hardAlpha"/>
<feOffset dy="1"/>
<feGaussianBlur stdDeviation="3"/>
<feComposite in2="hardAlpha" operator="out"/>
<feColorMatrix type="matrix" values="0 0 0 0 0.992157 0 0 0 0 0.490196 0 0 0 0 0 0 0 0 1 0"/>
<feBlend mode="normal" in2="effect1_dropShadow_4833_4732" result="effect2_dropShadow_4833_4732"/>
<feColorMatrix in="SourceAlpha" type="matrix" values="0 0 0 0 0 0 0 0 0 0 0 0 0 0 0 0 0 0 127 0" result="hardAlpha"/>
<feOffset dy="-7"/>
<feGaussianBlur stdDeviation="3"/>
<feComposite in2="hardAlpha" operator="out"/>
<feColorMatrix type="matrix" values="0 0 0 0 0.992157 0 0 0 0 0.490196 0 0 0 0 0 0 0 0 1 0"/>
<feBlend mode="normal" in2="effect2_dropShadow_4833_4732" result="effect3_dropShadow_4833_4732"/>
<feBlend mode="normal" in="SourceGraphic" in2="effect3_dropShadow_4833_4732" result="shape"/>
</filter>
<filter id="filter5_ddd_4833_4732" x="110.842" y="89.9998" width="67.5381" height="117.227" filterUnits="userSpaceOnUse" color-interpolation-filters="sRGB">
<feFlood flood-opacity="0" result="BackgroundImageFix"/>
<feColorMatrix in="SourceAlpha" type="matrix" values="0 0 0 0 0 0 0 0 0 0 0 0 0 0 0 0 0 0 127 0" result="hardAlpha"/>
<feOffset dy="-2"/>
<feGaussianBlur stdDeviation="3"/>
<feComposite in2="hardAlpha" operator="out"/>
<feColorMatrix type="matrix" values="0 0 0 0 0.992157 0 0 0 0 0.490196 0 0 0 0 0 0 0 0 1 0"/>
<feBlend mode="normal" in2="BackgroundImageFix" result="effect1_dropShadow_4833_4732"/>
<feColorMatrix in="SourceAlpha" type="matrix" values="0 0 0 0 0 0 0 0 0 0 0 0 0 0 0 0 0 0 127 0" result="hardAlpha"/>
<feOffset dy="1"/>
<feGaussianBlur stdDeviation="3"/>
<feComposite in2="hardAlpha" operator="out"/>
<feColorMatrix type="matrix" values="0 0 0 0 0.992157 0 0 0 0 0.490196 0 0 0 0 0 0 0 0 1 0"/>
<feBlend mode="normal" in2="effect1_dropShadow_4833_4732" result="effect2_dropShadow_4833_4732"/>
<feColorMatrix in="SourceAlpha" type="matrix" values="0 0 0 0 0 0 0 0 0 0 0 0 0 0 0 0 0 0 127 0" result="hardAlpha"/>
<feOffset dy="-7"/>
<feGaussianBlur stdDeviation="3"/>
<feComposite in2="hardAlpha" operator="out"/>
<feColorMatrix type="matrix" values="0 0 0 0 0.992157 0 0 0 0 0.490196 0 0 0 0 0 0 0 0 1 0"/>
<feBlend mode="normal" in2="effect2_dropShadow_4833_4732" result="effect3_dropShadow_4833_4732"/>
<feBlend mode="normal" in="SourceGraphic" in2="effect3_dropShadow_4833_4732" result="shape"/>
</filter>
<linearGradient id="paint0_linear_4833_4732" x1="159.8" y1="394.47" x2="329.137" y2="325.399" gradientUnits="userSpaceOnUse">
<stop stop-color="#E27000"/>
<stop offset="1" stop-color="#FFB186"/>
</linearGradient>
<linearGradient id="paint1_linear_4833_4732" x1="175.985" y1="250.007" x2="102.59" y2="313.81" gradientUnits="userSpaceOnUse">
<stop stop-color="#E27000"/>
<stop offset="1" stop-color="#FFB186"/>
</linearGradient>
<linearGradient id="paint2_linear_4833_4732" x1="206.653" y1="244.912" x2="143.113" y2="237.993" gradientUnits="userSpaceOnUse">
<stop stop-color="#E27000"/>
<stop offset="1" stop-color="#FFB186"/>
</linearGradient>
<linearGradient id="paint3_linear_4833_4732" x1="104.074" y1="342.965" x2="394.58" y2="579.446" gradientUnits="userSpaceOnUse">
<stop stop-color="#E27000"/>
<stop offset="0.479167" stop-color="#1E50FF"/>
<stop offset="1" stop-color="#FFB186"/>
</linearGradient>
<linearGradient id="paint4_linear_4833_4732" x1="307.297" y1="347.804" x2="211.036" y2="202.558" gradientUnits="userSpaceOnUse">
<stop stop-color="#E27000"/>
<stop offset="0.375" stop-color="#FFB186"/>
<stop offset="1" stop-color="#466FFF"/>
</linearGradient>
<linearGradient id="paint5_linear_4833_4732" x1="137.818" y1="241.221" x2="168.678" y2="421.481" gradientUnits="userSpaceOnUse">
<stop stop-color="#E27000"/>
<stop offset="1" stop-color="#FFB186"/>
</linearGradient>
</defs>
</svg>
