<svg width="70" height="47" viewBox="0 0 70 47" fill="none" xmlns="http://www.w3.org/2000/svg">
<path d="M63.6146 16.0757C70.1222 7.27273 65.7829 0 65.7829 0L52.5161 8.29208C48.7895 5.88479 43.9775 4.96202 39.6332 4.45362C34.839 3.89183 29.9507 4.14605 25.2403 5.19336C22.3449 5.83903 19.3098 6.66773 16.7957 8.29208L3.52892 0C3.52892 0 -0.807764 7.27273 5.69726 16.0757C5.69726 16.0757 -0.810302 22.1994 0.0844881 31.1296C0.0844881 31.1296 14.119 32.2786 19.8588 46.0563C19.8588 46.0563 30.7565 43.6643 31.8089 33.425L31.8012 33.1556L28.3212 29.3959C27.4595 27.8453 28.5856 25.9388 30.3625 25.9464L38.7486 25.982C40.4441 25.9896 41.5601 27.7538 40.8407 29.2917L37.3174 33.1708V33.425C38.3698 43.6643 49.4581 46.0563 49.4581 46.0563C55.198 32.2786 69.2325 31.1296 69.2325 31.1296C70.1196 22.1994 63.6146 16.0757 63.6146 16.0757Z" fill="#EE8432"/>
</svg>
