<svg width="198" height="47" viewBox="0 0 198 47" fill="none" xmlns="http://www.w3.org/2000/svg">
<path d="M63.6146 16.0757C70.1222 7.27273 65.7829 0 65.7829 0L52.5161 8.29208C48.7895 5.88479 43.9775 4.96202 39.6332 4.45362C34.839 3.89183 29.9507 4.14605 25.2403 5.19336C22.3449 5.83903 19.3098 6.66773 16.7957 8.29208L3.52892 0C3.52892 0 -0.807763 7.27273 5.69726 16.0757C5.69726 16.0757 -0.810302 22.1994 0.0844881 31.1296C0.0844881 31.1296 14.119 32.2786 19.8588 46.0563C19.8588 46.0563 30.7565 43.6643 31.8089 33.425L31.8012 33.1556L28.3212 29.3959C27.4595 27.8453 28.5856 25.9388 30.3625 25.9464L38.7486 25.982C40.4441 25.9896 41.5601 27.7538 40.8407 29.2917L37.3174 33.1708V33.425C38.3698 43.6643 49.4581 46.0563 49.4581 46.0563C55.198 32.2786 69.2325 31.1296 69.2325 31.1296C70.1196 22.1994 63.6146 16.0757 63.6146 16.0757Z" fill="#EE8432"/>
<path d="M82.8143 23.0942V33.2369C82.8143 33.4275 82.7762 33.6106 82.7025 33.786C82.6288 33.9614 82.5271 34.1088 82.3949 34.2308C82.2653 34.3528 82.1153 34.452 81.945 34.5257C81.7746 34.5994 81.5891 34.6375 81.3908 34.6375C81.2001 34.6375 81.0171 34.6019 80.8417 34.5257C80.6663 34.452 80.5163 34.3554 80.3918 34.2308C80.2647 34.1088 80.1655 33.9614 80.0918 33.786C80.0181 33.6131 79.98 33.4301 79.98 33.2369V19.3219C79.98 19.1211 80.0181 18.938 80.0918 18.7677C80.1655 18.5974 80.2672 18.45 80.3994 18.3229C80.529 18.1958 80.6816 18.0992 80.857 18.028C81.0298 17.9594 81.2129 17.9238 81.406 17.9238C81.7797 17.9238 82.1153 18.0585 82.4101 18.328L88.0611 25.0363L93.6865 18.328C93.8086 18.2161 93.9585 18.1195 94.1365 18.0407C94.3144 17.9619 94.4873 17.9238 94.6525 17.9238H94.7567C94.9474 17.9314 95.1279 17.9772 95.2931 18.0534C95.4583 18.1322 95.6032 18.2314 95.7303 18.3534C95.8574 18.4754 95.954 18.6177 96.0252 18.783C96.0938 18.9482 96.1294 19.1261 96.1294 19.3193V33.2344C96.1294 33.425 96.0913 33.608 96.0176 33.7834C95.9438 33.9588 95.8422 34.1063 95.71 34.2283C95.5803 34.3503 95.4304 34.4494 95.26 34.5231C95.0897 34.5969 94.9067 34.635 94.7059 34.635C94.5152 34.635 94.3348 34.5994 94.1644 34.5231C93.9941 34.4494 93.8441 34.3528 93.7145 34.2283C93.5849 34.1063 93.4806 33.9588 93.4069 33.7834C93.3332 33.6106 93.2951 33.4275 93.2951 33.2344V23.079L88.9863 28.1961C88.8643 28.3181 88.722 28.4198 88.5567 28.5036C88.3915 28.5875 88.2212 28.6282 88.0483 28.6282C87.7103 28.6282 87.4077 28.4884 87.1485 28.2113H87.1358V28.1986L82.8143 23.0942Z" fill="white"/>
<path d="M99.0908 19.6092C99.0908 19.3905 99.1315 19.1872 99.2154 18.9965C99.2993 18.8059 99.4086 18.6406 99.5484 18.5008C99.6882 18.361 99.8534 18.2517 100.044 18.1678C100.235 18.0865 100.436 18.0433 100.644 18.0433C100.852 18.0433 101.053 18.0839 101.244 18.1678C101.435 18.2517 101.602 18.361 101.747 18.5008C101.89 18.6406 102.004 18.8059 102.085 18.9965C102.169 19.1872 102.21 19.3931 102.21 19.6092C102.21 19.8176 102.169 20.0159 102.085 20.204C102.001 20.3921 101.89 20.5548 101.747 20.6946C101.602 20.8344 101.437 20.9437 101.244 21.0276C101.053 21.1115 100.852 21.1522 100.644 21.1522C100.436 21.1522 100.235 21.1115 100.044 21.0276C99.8534 20.9437 99.6882 20.8344 99.5484 20.6946C99.4086 20.5548 99.2993 20.3921 99.2154 20.204C99.134 20.0159 99.0908 19.8176 99.0908 19.6092ZM102.068 33.2242C102.068 33.4148 102.029 33.5979 101.956 33.7733C101.882 33.9487 101.78 34.0987 101.656 34.2232C101.529 34.3503 101.381 34.4494 101.211 34.5232C101.041 34.5969 100.855 34.635 100.657 34.635C100.466 34.635 100.283 34.5994 100.108 34.5232C99.9322 34.4494 99.7823 34.3503 99.6501 34.2232C99.5204 34.0961 99.4162 33.9461 99.3425 33.7733C99.2688 33.6004 99.2306 33.4174 99.2306 33.2242V23.9052C99.2306 23.7145 99.2688 23.534 99.3476 23.3637C99.4264 23.1934 99.5306 23.0434 99.6602 22.9138C99.7899 22.7841 99.9424 22.6799 100.118 22.6062C100.291 22.5325 100.479 22.4943 100.68 22.4943C100.88 22.4943 101.063 22.5325 101.229 22.6062C101.394 22.6799 101.539 22.7816 101.666 22.9138C101.793 23.0434 101.89 23.1934 101.961 23.3637C102.029 23.534 102.065 23.7145 102.065 23.9052V33.2242H102.068Z" fill="white"/>
<path d="M116.44 33.2623C116.44 33.4631 116.402 33.6461 116.328 33.8165C116.255 33.9868 116.155 34.1342 116.033 34.2613C115.911 34.3884 115.766 34.485 115.596 34.5562C115.426 34.6248 115.245 34.6604 115.055 34.6604C114.864 34.6604 114.678 34.6248 114.501 34.5562C114.323 34.4875 114.168 34.3884 114.038 34.2613C113.908 34.1342 113.804 33.9868 113.725 33.8165C113.646 33.6461 113.608 33.4631 113.608 33.2623V28.407C113.608 28.3384 113.613 28.285 113.621 28.2494C113.603 27.8224 113.517 27.4233 113.359 27.0496C113.202 26.6759 112.988 26.348 112.719 26.0709C112.449 25.7938 112.134 25.5727 111.773 25.4125C111.412 25.2524 111.013 25.1711 110.578 25.1711C110.133 25.1711 109.724 25.2524 109.35 25.4125C108.977 25.5727 108.656 25.7964 108.392 26.0836C108.128 26.3709 107.917 26.709 107.767 27.0954C107.614 27.4817 107.538 27.8986 107.538 28.341V33.2623C107.538 33.4631 107.502 33.6461 107.434 33.8165C107.365 33.9868 107.266 34.1342 107.139 34.2613C107.012 34.3884 106.867 34.485 106.702 34.5562C106.536 34.6248 106.353 34.6604 106.153 34.6604C105.962 34.6604 105.779 34.6248 105.603 34.5562C105.431 34.4875 105.276 34.3884 105.141 34.2613C105.006 34.1342 104.899 33.9868 104.821 33.8165C104.742 33.6461 104.704 33.4631 104.704 33.2623V28.341C104.704 27.5046 104.854 26.7242 105.154 25.9972C105.453 25.2702 105.868 24.6347 106.394 24.0907C106.92 23.5467 107.543 23.1171 108.26 22.8044C108.977 22.4918 109.75 22.3342 110.576 22.3342C111.412 22.3342 112.185 22.4918 112.899 22.8044C113.613 23.1171 114.231 23.5467 114.752 24.0907C115.273 24.6347 115.685 25.2702 115.985 25.9972C116.285 26.7242 116.435 27.5046 116.435 28.341V33.2623H116.44Z" fill="white"/>
<path d="M118.123 28.5621C118.123 27.7004 118.288 26.8945 118.618 26.1396C118.949 25.3871 119.396 24.7287 119.963 24.1619C120.53 23.5976 121.188 23.1502 121.941 22.8248C122.693 22.4994 123.496 22.3342 124.348 22.3342C125.21 22.3342 126.018 22.4969 126.776 22.8248C127.533 23.1502 128.191 23.5976 128.753 24.1619C129.315 24.7287 129.755 25.3871 130.078 26.1396C130.4 26.892 130.561 27.7004 130.561 28.5621C130.561 29.4162 130.4 30.2195 130.078 30.977C129.755 31.7346 129.315 32.3955 128.753 32.9598C128.191 33.5267 127.533 33.9715 126.776 34.2969C126.018 34.6223 125.21 34.7875 124.348 34.7875C123.494 34.7875 122.693 34.6248 121.941 34.2969C121.188 33.9715 120.53 33.5241 119.963 32.9598C119.396 32.3955 118.949 31.732 118.618 30.977C118.288 30.222 118.123 29.4162 118.123 28.5621ZM120.954 28.5621C120.954 29.0222 121.043 29.462 121.221 29.8738C121.399 30.2881 121.643 30.6491 121.953 30.9567C122.261 31.2643 122.622 31.5083 123.031 31.6888C123.44 31.8667 123.88 31.9557 124.351 31.9557C124.821 31.9557 125.261 31.8667 125.675 31.6888C126.087 31.5108 126.448 31.2668 126.753 30.9567C127.058 30.6491 127.297 30.2856 127.47 29.8738C127.642 29.462 127.731 29.0222 127.731 28.5621C127.731 28.0918 127.645 27.6495 127.47 27.2377C127.294 26.8259 127.055 26.4649 126.753 26.1599C126.448 25.8549 126.089 25.6134 125.675 25.4354C125.261 25.2575 124.821 25.1685 124.351 25.1685C123.888 25.1685 123.451 25.2575 123.039 25.4354C122.624 25.6134 122.264 25.8549 121.956 26.1599C121.646 26.4649 121.404 26.8234 121.224 27.2377C121.043 27.6521 120.954 28.0944 120.954 28.5621Z" fill="white"/>
<path d="M143.601 27.6622C142.765 27.5046 142 27.2962 141.303 27.0369C140.607 26.7751 140.007 26.4446 139.501 26.0455C138.995 25.6464 138.601 25.171 138.319 24.622C138.037 24.0729 137.894 23.4425 137.894 22.7282C137.894 21.9961 138.047 21.3326 138.352 20.7301C138.657 20.1302 139.064 19.6116 139.572 19.177C140.081 18.7423 140.673 18.4042 141.347 18.1652C142.02 17.9263 142.724 17.8068 143.454 17.8068C143.967 17.8068 144.473 17.8602 144.974 17.9644C145.475 18.0687 145.948 18.2237 146.39 18.4271C146.835 18.6304 147.239 18.8872 147.605 19.1897C147.971 19.4947 148.271 19.8506 148.505 20.2599C148.584 20.3895 148.629 20.5242 148.642 20.664C148.655 20.8039 148.647 20.9386 148.617 21.0682C148.586 21.1979 148.538 21.3224 148.472 21.4394C148.406 21.5563 148.329 21.6554 148.243 21.7342C148.009 21.9681 147.699 22.0876 147.315 22.0876C147.175 22.0876 147.036 22.0672 146.891 22.0291C146.748 21.991 146.611 21.9224 146.479 21.8258C146.245 21.6249 146.021 21.4495 145.813 21.297C145.604 21.1445 145.386 21.0199 145.16 20.9259C144.933 20.8293 144.689 20.7581 144.427 20.7098C144.166 20.6615 143.858 20.6386 143.5 20.6386C143.108 20.6386 142.742 20.6869 142.404 20.781C142.063 20.8776 141.771 21.0148 141.522 21.1979C141.273 21.3809 141.077 21.5995 140.935 21.8512C140.792 22.1028 140.719 22.3875 140.719 22.7002C140.719 23.0663 140.815 23.3662 141.006 23.6001C141.197 23.8339 141.463 24.0322 141.802 24.1949C142.14 24.3551 142.539 24.4898 142.996 24.5991C143.454 24.7084 143.947 24.8177 144.478 24.9321C145.088 25.0897 145.681 25.2829 146.26 25.5117C146.84 25.743 147.353 26.0404 147.806 26.4065C148.258 26.7725 148.622 27.2174 148.896 27.7436C149.171 28.2698 149.308 28.8976 149.308 29.6297C149.308 30.3618 149.158 31.038 148.858 31.6659C148.558 32.2912 148.141 32.8378 147.613 33.303C147.081 33.7681 146.459 34.1317 145.739 34.3935C145.022 34.6553 144.25 34.785 143.423 34.785C142.762 34.785 142.132 34.7011 141.53 34.5308C140.93 34.3604 140.378 34.1317 139.877 33.8393C139.376 33.547 138.939 33.2038 138.566 32.8073C138.192 32.4107 137.9 31.9913 137.691 31.5464C137.577 31.3202 137.516 31.1067 137.5 30.9058C137.488 30.705 137.511 30.522 137.572 30.3568C137.633 30.1915 137.722 30.0466 137.839 29.9195C137.955 29.7924 138.088 29.6908 138.238 29.612C138.464 29.4899 138.677 29.4289 138.878 29.4289C139.305 29.4289 139.74 29.7111 140.182 30.278C140.548 30.8092 141.008 31.221 141.565 31.5108C142.122 31.8032 142.775 31.9481 143.523 31.9481C143.889 31.9481 144.247 31.8998 144.6 31.8057C144.954 31.7091 145.269 31.5693 145.546 31.3812C145.823 31.1931 146.049 30.9668 146.217 30.6948C146.387 30.4254 146.471 30.1153 146.471 29.767C146.471 29.3832 146.385 29.073 146.209 28.8341C146.034 28.5951 145.81 28.4019 145.538 28.252C145.266 28.102 144.956 27.9876 144.61 27.8986C144.283 27.8249 143.942 27.741 143.601 27.6622Z" fill="white"/>
<path d="M163.208 33.2496C163.208 33.4402 163.17 33.6207 163.096 33.791C163.023 33.9613 162.921 34.1088 162.789 34.2359C162.657 34.363 162.509 34.4596 162.339 34.5308C162.168 34.6019 161.983 34.635 161.785 34.635C161.594 34.635 161.414 34.5994 161.243 34.5308C161.073 34.4621 160.923 34.363 160.793 34.2359C160.664 34.1088 160.559 33.9613 160.486 33.791C160.412 33.6207 160.374 33.4402 160.374 33.2496V28.4325C160.374 28.407 160.374 28.3791 160.374 28.3486C160.374 28.3181 160.379 28.2901 160.387 28.2647C160.379 27.83 160.3 27.4258 160.153 27.0496C160.005 26.6759 159.802 26.348 159.545 26.0709C159.288 25.7938 158.981 25.5727 158.625 25.4125C158.269 25.2524 157.872 25.171 157.438 25.171C156.993 25.171 156.581 25.2473 156.197 25.3998C155.813 25.5524 155.483 25.7659 155.206 26.0404C154.926 26.3149 154.708 26.6403 154.548 27.0191C154.387 27.3979 154.306 27.8122 154.306 28.2647V33.2242C154.306 33.4148 154.268 33.5978 154.194 33.7732C154.12 33.9486 154.021 34.0986 153.894 34.2232C153.767 34.3503 153.62 34.4494 153.449 34.5231C153.279 34.5968 153.096 34.635 152.895 34.635C152.694 34.635 152.509 34.5994 152.333 34.5231C152.158 34.4494 152.008 34.3503 151.883 34.2232C151.756 34.0961 151.657 33.9461 151.584 33.7732C151.51 33.6004 151.472 33.4173 151.472 33.2242V19.2456C151.472 19.0448 151.51 18.8592 151.584 18.6838C151.657 18.511 151.759 18.3584 151.891 18.2262C152.021 18.0966 152.173 17.9924 152.349 17.9187C152.522 17.845 152.705 17.8068 152.898 17.8068C153.099 17.8068 153.282 17.845 153.452 17.9187C153.622 17.9924 153.77 18.0941 153.897 18.2262C154.024 18.3559 154.123 18.5084 154.197 18.6838C154.27 18.8592 154.309 19.0448 154.309 19.2456V23.5009C154.761 23.1349 155.252 22.8502 155.778 22.6468C156.304 22.4435 156.858 22.3392 157.443 22.3392C158.269 22.3392 159.034 22.4968 159.741 22.8146C160.445 23.1323 161.055 23.5619 161.569 24.1059C162.082 24.6499 162.484 25.288 162.776 26.0175C163.068 26.7496 163.213 27.5275 163.213 28.3537V33.2496H163.208Z" fill="white"/>
<path d="M165.752 19.6092C165.752 19.3905 165.793 19.1872 165.877 18.9965C165.961 18.8059 166.07 18.6406 166.21 18.5008C166.35 18.361 166.515 18.2517 166.706 18.1678C166.896 18.0865 167.097 18.0433 167.306 18.0433C167.514 18.0433 167.715 18.0839 167.906 18.1678C168.096 18.2517 168.264 18.361 168.409 18.5008C168.551 18.6406 168.666 18.8059 168.747 18.9965C168.831 19.1872 168.872 19.3931 168.872 19.6092C168.872 19.8176 168.831 20.0159 168.747 20.204C168.663 20.3921 168.551 20.5548 168.409 20.6946C168.264 20.8344 168.099 20.9437 167.906 21.0276C167.715 21.1115 167.514 21.1522 167.306 21.1522C167.097 21.1522 166.896 21.1115 166.706 21.0276C166.515 20.9437 166.35 20.8344 166.21 20.6946C166.07 20.5548 165.961 20.3921 165.877 20.204C165.793 20.0159 165.752 19.8176 165.752 19.6092ZM168.729 33.2242C168.729 33.4148 168.691 33.5979 168.617 33.7733C168.544 33.9487 168.442 34.0987 168.317 34.2232C168.19 34.3503 168.043 34.4494 167.872 34.5232C167.702 34.5969 167.517 34.635 167.318 34.635C167.128 34.635 166.945 34.5994 166.769 34.5232C166.594 34.4494 166.444 34.3503 166.312 34.2232C166.182 34.0961 166.078 33.9461 166.004 33.7733C165.93 33.6004 165.892 33.4174 165.892 33.2242V23.9052C165.892 23.7145 165.93 23.534 166.009 23.3637C166.088 23.1934 166.192 23.0434 166.322 22.9138C166.451 22.7841 166.604 22.6799 166.779 22.6062C166.952 22.5325 167.14 22.4943 167.341 22.4943C167.542 22.4943 167.725 22.5325 167.89 22.6062C168.056 22.6799 168.2 22.7816 168.328 22.9138C168.455 23.0434 168.551 23.1934 168.622 23.3637C168.691 23.534 168.727 23.7145 168.727 23.9052V33.2242H168.729Z" fill="white"/>
<path d="M171.678 19.2837C171.678 19.0753 171.716 18.8821 171.79 18.7041C171.863 18.5262 171.962 18.3686 172.09 18.2339C172.217 18.0991 172.367 17.9949 172.539 17.9212C172.712 17.8475 172.9 17.8093 173.101 17.8093C173.31 17.8093 173.5 17.8475 173.668 17.9212C173.838 17.9949 173.986 18.0991 174.113 18.2339C174.24 18.3686 174.337 18.5262 174.408 18.7041C174.476 18.8821 174.512 19.0753 174.512 19.2837V23.356C175.008 23.0332 175.542 22.7841 176.111 22.6061C176.68 22.4282 177.28 22.3392 177.906 22.3392C178.767 22.3392 179.573 22.5019 180.328 22.8298C181.083 23.1577 181.739 23.6001 182.298 24.1618C182.858 24.7236 183.302 25.382 183.63 26.1395C183.956 26.897 184.121 27.7054 184.121 28.5671C184.121 29.4213 183.958 30.2245 183.63 30.9821C183.305 31.7396 182.86 32.4005 182.298 32.9649C181.737 33.5317 181.081 33.9766 180.328 34.3019C179.576 34.6273 178.767 34.7926 177.906 34.7926C177.054 34.7926 176.248 34.6299 175.491 34.3019C174.733 33.9766 174.072 33.5292 173.508 32.9649C172.941 32.4005 172.496 31.737 172.171 30.9821C171.845 30.2245 171.68 29.4213 171.68 28.5671V19.2837H171.678ZM174.512 28.5621C174.512 29.0222 174.601 29.4619 174.779 29.8737C174.957 30.2881 175.201 30.6491 175.511 30.9567C175.819 31.2642 176.18 31.5083 176.589 31.6888C176.998 31.8667 177.438 31.9557 177.908 31.9557C178.378 31.9557 178.818 31.8667 179.228 31.6888C179.637 31.5108 179.995 31.2668 180.305 30.9567C180.613 30.6491 180.857 30.2856 181.03 29.8737C181.203 29.4619 181.292 29.0222 181.292 28.5621C181.292 28.0918 181.205 27.6495 181.03 27.2377C180.857 26.8259 180.615 26.4649 180.305 26.1599C179.995 25.8548 179.637 25.6133 179.228 25.4354C178.818 25.2574 178.378 25.1685 177.908 25.1685C177.438 25.1685 176.998 25.2574 176.589 25.4354C176.18 25.6133 175.821 25.8548 175.511 26.1599C175.201 26.4649 174.959 26.8233 174.779 27.2377C174.601 27.652 174.512 28.0943 174.512 28.5621Z" fill="white"/>
<path d="M185.268 28.5621C185.268 27.7004 185.433 26.8945 185.763 26.1396C186.094 25.3871 186.541 24.7287 187.108 24.1619C187.675 23.5976 188.333 23.1502 189.086 22.8248C189.838 22.4994 190.641 22.3342 191.493 22.3342C192.355 22.3342 193.163 22.4969 193.921 22.8248C194.678 23.1502 195.337 23.5976 195.898 24.1619C196.46 24.7287 196.9 25.3871 197.223 26.1396C197.546 26.892 197.706 27.7004 197.706 28.5621V33.1835C197.706 33.3843 197.668 33.5699 197.594 33.7453C197.52 33.9207 197.418 34.0707 197.286 34.2029C197.157 34.3325 197.002 34.4367 196.824 34.5155C196.646 34.5943 196.455 34.6325 196.257 34.6325C195.919 34.6325 195.631 34.5333 195.395 34.3325C195.161 34.1317 195.004 33.88 194.925 33.575C194.429 33.9486 193.89 34.2461 193.313 34.4621C192.733 34.6782 192.126 34.7875 191.493 34.7875C190.639 34.7875 189.838 34.6248 189.086 34.2969C188.333 33.9715 187.675 33.5241 187.108 32.9598C186.541 32.3955 186.094 31.732 185.763 30.977C185.433 30.222 185.268 29.4162 185.268 28.5621ZM188.099 28.5621C188.099 29.0222 188.188 29.462 188.366 29.8738C188.544 30.2881 188.788 30.6491 189.098 30.9567C189.406 31.2643 189.767 31.5083 190.176 31.6888C190.585 31.8667 191.025 31.9557 191.496 31.9557C191.966 31.9557 192.406 31.8667 192.82 31.6888C193.232 31.5108 193.593 31.2668 193.898 30.9567C194.203 30.6491 194.442 30.2856 194.615 29.8738C194.787 29.462 194.876 29.0222 194.876 28.5621C194.876 28.0918 194.79 27.6495 194.615 27.2377C194.439 26.8259 194.2 26.4649 193.898 26.1599C193.593 25.8549 193.234 25.6134 192.82 25.4354C192.406 25.2575 191.966 25.1685 191.496 25.1685C191.033 25.1685 190.596 25.2575 190.184 25.4354C189.77 25.6134 189.409 25.8549 189.101 26.1599C188.791 26.4649 188.549 26.8234 188.369 27.2377C188.188 27.6521 188.099 28.0944 188.099 28.5621Z" fill="white"/>
</svg>
