<svg width="240" height="47" viewBox="0 0 240 47" fill="none" xmlns="http://www.w3.org/2000/svg">
<path d="M63.6146 16.0757C70.1222 7.27273 65.7829 0 65.7829 0L52.5161 8.29208C48.7895 5.88479 43.9775 4.96202 39.6332 4.45362C34.839 3.89183 29.9507 4.14605 25.2403 5.19336C22.3449 5.83903 19.3098 6.66773 16.7957 8.29208L3.52892 0C3.52892 0 -0.807763 7.27273 5.69726 16.0757C5.69726 16.0757 -0.810302 22.1994 0.0844881 31.1296C0.0844881 31.1296 14.119 32.2786 19.8588 46.0563C19.8588 46.0563 30.7565 43.6643 31.8089 33.425L31.8012 33.1556L28.3212 29.3959C27.4595 27.8453 28.5856 25.9388 30.3625 25.9464L38.7486 25.982C40.4441 25.9896 41.5601 27.7538 40.8407 29.2917L37.3174 33.1708V33.425C38.3698 43.6643 49.4581 46.0563 49.4581 46.0563C55.198 32.2786 69.2325 31.1296 69.2325 31.1296C70.1196 22.1994 63.6146 16.0757 63.6146 16.0757Z" fill="#EE8432"/>
<path d="M88.518 31L84.396 18.4H87.42L91.002 29.56H89.49L93.234 18.4H95.934L99.534 29.56H98.076L101.748 18.4H104.538L100.416 31H97.284L94.098 21.208H94.926L91.65 31H88.518ZM105.599 31V21.316H108.281V24.052L107.903 23.26C108.191 22.576 108.653 22.06 109.289 21.712C109.925 21.352 110.699 21.172 111.611 21.172V23.764C111.491 23.752 111.383 23.746 111.287 23.746C111.191 23.734 111.089 23.728 110.981 23.728C110.213 23.728 109.589 23.95 109.109 24.394C108.641 24.826 108.407 25.504 108.407 26.428V31H105.599ZM118.588 31V29.11L118.408 28.696V25.312C118.408 24.712 118.222 24.244 117.85 23.908C117.49 23.572 116.932 23.404 116.176 23.404C115.66 23.404 115.15 23.488 114.646 23.656C114.154 23.812 113.734 24.028 113.386 24.304L112.378 22.342C112.906 21.97 113.542 21.682 114.286 21.478C115.03 21.274 115.786 21.172 116.554 21.172C118.03 21.172 119.176 21.52 119.992 22.216C120.808 22.912 121.216 23.998 121.216 25.474V31H118.588ZM115.636 31.144C114.88 31.144 114.232 31.018 113.692 30.766C113.152 30.502 112.738 30.148 112.45 29.704C112.162 29.26 112.018 28.762 112.018 28.21C112.018 27.634 112.156 27.13 112.432 26.698C112.72 26.266 113.17 25.93 113.782 25.69C114.394 25.438 115.192 25.312 116.176 25.312H118.75V26.95H116.482C115.822 26.95 115.366 27.058 115.114 27.274C114.874 27.49 114.754 27.76 114.754 28.084C114.754 28.444 114.892 28.732 115.168 28.948C115.456 29.152 115.846 29.254 116.338 29.254C116.806 29.254 117.226 29.146 117.598 28.93C117.97 28.702 118.24 28.372 118.408 27.94L118.84 29.236C118.636 29.86 118.264 30.334 117.724 30.658C117.184 30.982 116.488 31.144 115.636 31.144ZM129.481 31.144C128.665 31.144 127.951 30.964 127.339 30.604C126.727 30.244 126.247 29.698 125.899 28.966C125.563 28.222 125.395 27.286 125.395 26.158C125.395 25.018 125.557 24.082 125.881 23.35C126.205 22.618 126.673 22.072 127.285 21.712C127.897 21.352 128.629 21.172 129.481 21.172C130.393 21.172 131.209 21.382 131.929 21.802C132.661 22.21 133.237 22.786 133.657 23.53C134.089 24.274 134.305 25.15 134.305 26.158C134.305 27.178 134.089 28.06 133.657 28.804C133.237 29.548 132.661 30.124 131.929 30.532C131.209 30.94 130.393 31.144 129.481 31.144ZM123.757 34.492V21.316H126.439V23.296L126.385 26.176L126.565 29.038V34.492H123.757ZM128.995 28.84C129.463 28.84 129.877 28.732 130.237 28.516C130.609 28.3 130.903 27.994 131.119 27.598C131.347 27.19 131.461 26.71 131.461 26.158C131.461 25.594 131.347 25.114 131.119 24.718C130.903 24.322 130.609 24.016 130.237 23.8C129.877 23.584 129.463 23.476 128.995 23.476C128.527 23.476 128.107 23.584 127.735 23.8C127.363 24.016 127.069 24.322 126.853 24.718C126.637 25.114 126.529 25.594 126.529 26.158C126.529 26.71 126.637 27.19 126.853 27.598C127.069 27.994 127.363 28.3 127.735 28.516C128.107 28.732 128.527 28.84 128.995 28.84ZM141.909 31.144C141.093 31.144 140.379 30.964 139.767 30.604C139.155 30.244 138.675 29.698 138.327 28.966C137.991 28.222 137.823 27.286 137.823 26.158C137.823 25.018 137.985 24.082 138.309 23.35C138.633 22.618 139.101 22.072 139.713 21.712C140.325 21.352 141.057 21.172 141.909 21.172C142.821 21.172 143.637 21.382 144.357 21.802C145.089 22.21 145.665 22.786 146.085 23.53C146.517 24.274 146.733 25.15 146.733 26.158C146.733 27.178 146.517 28.06 146.085 28.804C145.665 29.548 145.089 30.124 144.357 30.532C143.637 30.94 142.821 31.144 141.909 31.144ZM136.185 34.492V21.316H138.867V23.296L138.813 26.176L138.993 29.038V34.492H136.185ZM141.423 28.84C141.891 28.84 142.305 28.732 142.665 28.516C143.037 28.3 143.331 27.994 143.547 27.598C143.775 27.19 143.889 26.71 143.889 26.158C143.889 25.594 143.775 25.114 143.547 24.718C143.331 24.322 143.037 24.016 142.665 23.8C142.305 23.584 141.891 23.476 141.423 23.476C140.955 23.476 140.535 23.584 140.163 23.8C139.791 24.016 139.497 24.322 139.281 24.718C139.065 25.114 138.957 25.594 138.957 26.158C138.957 26.71 139.065 27.19 139.281 27.598C139.497 27.994 139.791 28.3 140.163 28.516C140.535 28.732 140.955 28.84 141.423 28.84ZM153.418 31.144C152.314 31.144 151.342 30.928 150.502 30.496C149.674 30.064 149.032 29.476 148.576 28.732C148.12 27.976 147.892 27.118 147.892 26.158C147.892 25.186 148.114 24.328 148.558 23.584C149.014 22.828 149.632 22.24 150.412 21.82C151.192 21.388 152.074 21.172 153.058 21.172C154.006 21.172 154.858 21.376 155.614 21.784C156.382 22.18 156.988 22.756 157.432 23.512C157.876 24.256 158.098 25.15 158.098 26.194C158.098 26.302 158.092 26.428 158.08 26.572C158.068 26.704 158.056 26.83 158.044 26.95H150.178V25.312H156.568L155.488 25.798C155.488 25.294 155.386 24.856 155.182 24.484C154.978 24.112 154.696 23.824 154.336 23.62C153.976 23.404 153.556 23.296 153.076 23.296C152.596 23.296 152.17 23.404 151.798 23.62C151.438 23.824 151.156 24.118 150.952 24.502C150.748 24.874 150.646 25.318 150.646 25.834V26.266C150.646 26.794 150.76 27.262 150.988 27.67C151.228 28.066 151.558 28.372 151.978 28.588C152.41 28.792 152.914 28.894 153.49 28.894C154.006 28.894 154.456 28.816 154.84 28.66C155.236 28.504 155.596 28.27 155.92 27.958L157.414 29.578C156.97 30.082 156.412 30.472 155.74 30.748C155.068 31.012 154.294 31.144 153.418 31.144ZM164.126 31.144C163.214 31.144 162.392 30.94 161.66 30.532C160.928 30.112 160.346 29.53 159.914 28.786C159.494 28.042 159.284 27.166 159.284 26.158C159.284 25.138 159.494 24.256 159.914 23.512C160.346 22.768 160.928 22.192 161.66 21.784C162.392 21.376 163.214 21.172 164.126 21.172C164.942 21.172 165.656 21.352 166.268 21.712C166.88 22.072 167.354 22.618 167.69 23.35C168.026 24.082 168.194 25.018 168.194 26.158C168.194 27.286 168.032 28.222 167.708 28.966C167.384 29.698 166.916 30.244 166.304 30.604C165.704 30.964 164.978 31.144 164.126 31.144ZM164.612 28.84C165.068 28.84 165.482 28.732 165.854 28.516C166.226 28.3 166.52 27.994 166.736 27.598C166.964 27.19 167.078 26.71 167.078 26.158C167.078 25.594 166.964 25.114 166.736 24.718C166.52 24.322 166.226 24.016 165.854 23.8C165.482 23.584 165.068 23.476 164.612 23.476C164.144 23.476 163.724 23.584 163.352 23.8C162.98 24.016 162.68 24.322 162.452 24.718C162.236 25.114 162.128 25.594 162.128 26.158C162.128 26.71 162.236 27.19 162.452 27.598C162.68 27.994 162.98 28.3 163.352 28.516C163.724 28.732 164.144 28.84 164.612 28.84ZM167.15 31V29.02L167.204 26.14L167.024 23.278V17.644H169.832V31H167.15ZM177.726 31V18.4H180.642V31H177.726ZM189.321 21.172C190.089 21.172 190.773 21.328 191.373 21.64C191.985 21.94 192.465 22.408 192.813 23.044C193.161 23.668 193.335 24.472 193.335 25.456V31H190.527V25.888C190.527 25.108 190.353 24.532 190.005 24.16C189.669 23.788 189.189 23.602 188.565 23.602C188.121 23.602 187.719 23.698 187.359 23.89C187.011 24.07 186.735 24.352 186.531 24.736C186.339 25.12 186.243 25.612 186.243 26.212V31H183.435V21.316H186.117V23.998L185.613 23.188C185.961 22.54 186.459 22.042 187.107 21.694C187.755 21.346 188.493 21.172 189.321 21.172ZM199.966 31.144C199.162 31.144 198.442 30.988 197.806 30.676C197.182 30.364 196.696 29.89 196.348 29.254C196 28.606 195.826 27.784 195.826 26.788V21.316H198.634V26.374C198.634 27.178 198.802 27.772 199.138 28.156C199.486 28.528 199.972 28.714 200.596 28.714C201.028 28.714 201.412 28.624 201.748 28.444C202.084 28.252 202.348 27.964 202.54 27.58C202.732 27.184 202.828 26.692 202.828 26.104V21.316H205.636V31H202.972V28.336L203.458 29.11C203.134 29.782 202.654 30.292 202.018 30.64C201.394 30.976 200.71 31.144 199.966 31.144ZM212.633 31V29.11L217.493 24.52C217.877 24.172 218.159 23.86 218.339 23.584C218.519 23.308 218.639 23.056 218.699 22.828C218.771 22.6 218.807 22.39 218.807 22.198C218.807 21.694 218.633 21.31 218.285 21.046C217.949 20.77 217.451 20.632 216.791 20.632C216.263 20.632 215.771 20.734 215.315 20.938C214.871 21.142 214.493 21.46 214.181 21.892L212.057 20.524C212.537 19.804 213.209 19.234 214.073 18.814C214.937 18.394 215.933 18.184 217.061 18.184C217.997 18.184 218.813 18.34 219.509 18.652C220.217 18.952 220.763 19.378 221.147 19.93C221.543 20.482 221.741 21.142 221.741 21.91C221.741 22.318 221.687 22.726 221.579 23.134C221.483 23.53 221.279 23.95 220.967 24.394C220.667 24.838 220.223 25.336 219.635 25.888L215.603 29.686L215.045 28.624H222.155V31H212.633ZM225.19 31.144C224.71 31.144 224.296 30.982 223.948 30.658C223.612 30.322 223.444 29.896 223.444 29.38C223.444 28.864 223.612 28.45 223.948 28.138C224.296 27.814 224.71 27.652 225.19 27.652C225.682 27.652 226.096 27.814 226.432 28.138C226.768 28.45 226.936 28.864 226.936 29.38C226.936 29.896 226.768 30.322 226.432 30.658C226.096 30.982 225.682 31.144 225.19 31.144ZM233.416 31.216C232.384 31.216 231.46 30.964 230.644 30.46C229.828 29.944 229.186 29.2 228.718 28.228C228.25 27.256 228.016 26.08 228.016 24.7C228.016 23.32 228.25 22.144 228.718 21.172C229.186 20.2 229.828 19.462 230.644 18.958C231.46 18.442 232.384 18.184 233.416 18.184C234.46 18.184 235.384 18.442 236.188 18.958C237.004 19.462 237.646 20.2 238.114 21.172C238.582 22.144 238.816 23.32 238.816 24.7C238.816 26.08 238.582 27.256 238.114 28.228C237.646 29.2 237.004 29.944 236.188 30.46C235.384 30.964 234.46 31.216 233.416 31.216ZM233.416 28.75C233.908 28.75 234.334 28.612 234.694 28.336C235.066 28.06 235.354 27.622 235.558 27.022C235.774 26.422 235.882 25.648 235.882 24.7C235.882 23.752 235.774 22.978 235.558 22.378C235.354 21.778 235.066 21.34 234.694 21.064C234.334 20.788 233.908 20.65 233.416 20.65C232.936 20.65 232.51 20.788 232.138 21.064C231.778 21.34 231.49 21.778 231.274 22.378C231.07 22.978 230.968 23.752 230.968 24.7C230.968 25.648 231.07 26.422 231.274 27.022C231.49 27.622 231.778 28.06 232.138 28.336C232.51 28.612 232.936 28.75 233.416 28.75Z" fill="white"/>
</svg>
